<?xml version="1.0" encoding="utf-8"?>
<!-- Generator: Adobe Illustrator 19.0.0, SVG Export Plug-In . SVG Version: 6.00 Build 0)  -->
<svg version="1.1" id="Layer_1" xmlns="http://www.w3.org/2000/svg" xmlns:xlink="http://www.w3.org/1999/xlink" x="0px" y="0px"
	 viewBox="-57.6 26.8 117.5 117.5" style="enable-background:new -57.6 26.8 117.5 117.5;" xml:space="preserve">
<style type="text/css">
	.st0{fill:#FFFFFF;}
	.st1{fill:#565959;}
	.st2{fill:#575757;}
	.st3{fill:#3C3C3C;}
	.st4{fill:#F7C85E;}
	.st5{fill:#D9A600;}
</style>
<g>
	<g id="XMLID_7215_">
		<circle id="XMLID_7216_" class="st0" cx="1.1" cy="85.6" r="58.8"/>
	</g>
	<g id="XMLID_802_">
		<path id="XMLID_910_" class="st1" d="M-23.6,32.3c0,5.4,0,10.9,0,16.3c0,1.4,0.6,1.7,1.8,1.8c-0.7,0.5-1.4,0.3-2,0
			c-1.1-2.9-3-5.5-4.8-8c0-0.9-0.1-1.8-0.1-2.7c0-1.5,0-3.1,0-4.6"/>
		<path id="XMLID_11311_" class="st2" d="M25.9,138.9c0-3.8,0-7.5,0-11.3c0-0.8-0.1-1.7,0.2-2.5c1,0.7,1.4,1.9,2.1,2.8
			c1,1.3,1.6,2.9,2.9,4c0,1.4,0,2.9,0,4.3"/>
		<path id="XMLID_11306_" class="st3" d="M-41.8,93.7c0-10.4,0-20.9,0-31.3c0-4,2.6-7.1,6.5-8c5.8-0.7,11.6-0.2,17.4-0.3
			c3.8,0.9,6.4,3,7.2,7c0.1,0.7,0.1,1.4,0.1,2.2c0,9.6,0,19.2,0,28.8c0,2.2,0,2.2-2.3,2.2c-0.4,0-0.8,0.1-1.2,0.1
			c-3.3-0.2-6.6-0.1-10,0c-0.2,0-0.4,0-0.6,0c-4.6,0-9.2,0-13.8,0c-1.1-0.3-2.3,0.2-3.4-0.3C-41.7,93.9-41.8,93.8-41.8,93.7z"/>
		<path id="XMLID_11305_" class="st2" d="M25.9,124.5c-2.1-0.1-2.9-0.8-2.7-2.9c0.1-1.1-0.8-1.2-1.2-1.8c-2-3-3.6-6.2-4.8-9.5
			c-3.3-9.1-4.5-18.6-4.4-28.3c0-1,0.4-1.4,1.4-1.4c0.7,0,1.4,0,2.2,0c1.3,0,2.5,0,3.8,0c2.1,0.2,4.3,0.1,6.4,0c0.2,0,0.4,0,0.6,0
			c3.3,0.1,6.5,0.1,9.8,0c1.3,0,2.6,0,3.9,0c3.4,0.2,3.4,0.2,3.4,3.7c-0.1,9.9-1.5,19.6-5.5,28.8c-1.2,2.8-2.5,5.5-4.6,7.7
			c-0.3,0.4-0.2,0.7-0.2,1.1c-0.1,1.9-0.7,2.5-2.7,2.7C29.4,124.5,27.6,124.5,25.9,124.5z"/>
		<path id="XMLID_11298_" class="st4" d="M-38.4,94.3c4.6,0,9.2,0,13.8,0c0,0.4,0,0.9,0,1.3c0,2.3,0,2.3-2.3,2.4
			c-0.5,0-1.1-0.1-1.3,0.5c-0.3,1.1-0.4,2.2,0,3.3c0.3,0.9,1.3,0.5,1.9,0.5c1.3,0,1.6,0.5,1.6,1.7c0,1.2-0.4,1.9-1.6,1.7
			c-1.7-0.2-2.4,0.5-2.1,2.2c0.1,0.4,0,0.8,0,1.2c-0.1,1.2,0.4,1.8,1.6,1.7c1.8-0.2,2.3,0.6,2.1,2.2c0,0.4,0,0.8,0,1.2
			c-4,0-8,0-12.1,0.1c-1.4,0-1.8-0.4-1.8-1.8C-38.3,106.3-38.4,100.3-38.4,94.3z M-35.3,103.4c0,2.6,0,2.6,2.4,2.6
			c2.6,0,2.6,0,2.6-2.6c0-2.4,0-2.4-2.4-2.4C-35.3,101-35.3,101-35.3,103.4z"/>
		<path id="XMLID_11295_" class="st4" d="M-23.9,94.3c3.3-0.1,6.6-0.1,10,0c0,6,0,12.1,0,18.1c0,1.4-0.4,1.9-1.8,1.8
			c-2.7-0.1-5.5-0.1-8.2-0.1c0-0.6,0-1.2,0-1.8c0.1-1.4-0.4-2-1.8-1.9c-1,0.1-2,0.1-1.9-1.4c0-1.3-0.4-2.8,1.8-2.9
			c0.6,0,1.4,0.1,1.8-0.6c0.9-1.5-0.1-3.5-1.9-3.5c-0.2,0-0.5,0-0.7,0c-1.6-0.3-0.8-1.7-1.1-2.6c-0.3-0.8,0.4-1,1.1-1
			c2.8-0.3,2.8-0.3,2.8-3C-23.9,94.9-23.9,94.6-23.9,94.3z M-17.2,103.4c0-2.4,0-2.4-2.4-2.4c-2.3,0-2.3,0-2.3,2.3
			c0,2.5,0.2,2.7,2.4,2.7C-17.4,106-17.2,105.8-17.2,103.4z"/>
		<path id="XMLID_11283_" class="st4" d="M26.4,80.6c-2.1,0.1-4.3,0.2-6.4,0c0-5,0-10.1,0-15.1c2.1,0,4.3,0,6.4,0c0,0.5,0,1,0,1.5
			c-0.1,1.2,0.3,2,1.7,1.8c1.3-0.1,1.7,0.5,1.7,1.8c0,1.4-0.6,1.7-1.8,1.7c-0.5,0-1.1-0.1-1.4,0.5c-0.8,1.6,0.1,3.4,1.9,3.4
			c1.1,0,1.4,0.4,1.4,1.5c0,1.2-0.5,1.7-1.7,1.6C27.2,79.1,26.4,79.3,26.4,80.6z M25.1,73.7c0.2-1.4-0.4-1.9-1.7-1.9
			c-1.8,0-1.8,1.1-1.9,2.3c-0.1,1.5,0.9,1.3,1.9,1.4C24.7,75.6,25.3,75.1,25.1,73.7z"/>
		<path id="XMLID_11280_" class="st4" d="M36.8,80.5c-3.3,0.2-6.5,0.1-9.8,0c0.2-0.9,1-0.8,1.6-0.7c1.8,0.1,1.7-1.1,1.7-2.3
			c0-1.2-0.1-2.1-1.6-2c-1,0.1-1.7-0.1-1.7-1.4c0-1.3,0.8-1.4,1.8-1.3c1.3,0.1,1.7-0.5,1.6-1.7c-0.1-0.7,0-1.3,0-2
			c0-0.6-0.4-1-0.9-0.9c-2.3,0.3-2.6-1-2.4-2.8c3.3,0,6.5,0,9.8,0C36.8,70.5,36.8,75.5,36.8,80.5z M33.6,75.5c1.3,0.2,2-0.2,1.9-1.7
			c0-1.3-0.2-2.1-1.8-2c-1.4,0-2,0.4-1.9,1.9C31.8,75,32.1,75.7,33.6,75.5z"/>
		<path id="XMLID_11273_" class="st5" d="M36.8,80.5c0-5,0-10.1,0-15.1c4.9-0.1,3.9-0.4,4,3.8c0.1,3.8,0,7.6,0,11.4
			C39.5,80.6,38.1,80.6,36.8,80.5z"/>
		<path id="XMLID_11271_" class="st2" d="M-17.9,54c-5.8,0.1-11.6-0.4-17.4,0.3c0.7-0.2,0.8-0.8,1-1.4c0.6-1.7,1.8-2.7,3.7-2.6
			c0.2,0.2,0.5,0.2,0.7,0c0.3,0,0.6,0,1,0c1.7,0,3.4,0,5.1,0c0.7,0.3,1.4,0.5,2,0C-19.4,50.4-18.2,51.5-17.9,54z"/>
		<path id="XMLID_11270_" class="st5" d="M20.1,65.4c0,5,0,10.1,0,15.1c-1.3,0-2.5,0-3.8,0c0-4.4,0.1-8.9,0-13.3
			c0-1.6,0.5-2.1,2-1.9C18.8,65.5,19.5,65.4,20.1,65.4z"/>
		<path id="XMLID_11260_" class="st3" d="M-23.9,50.3c-1.7,0-3.4,0-5.1,0c0.5-2.7,0-5.3,0.3-8C-26.9,44.9-25.1,47.4-23.9,50.3z"/>
		<path id="XMLID_11257_" class="st3" d="M25.9,124.5c1.8,0,3.5,0,5.3,0c0,2.5-0.1,4.9-0.1,7.4c-1.3-1.1-1.9-2.7-2.9-4
			c-0.7-0.9-1.1-2-2.1-2.8C26,124.9,25.9,124.7,25.9,124.5z"/>
		<path id="XMLID_11255_" class="st5" d="M27,65.4c-0.2,1.8,0.1,3.1,2.4,2.8c0.6-0.1,0.9,0.3,0.9,0.9c0,0.7,0,1.3,0,2
			c0.1,1.2-0.3,1.8-1.6,1.7c-0.9-0.1-1.8,0-1.8,1.3c0,1.3,0.8,1.5,1.7,1.4c1.6-0.2,1.7,0.8,1.6,2c0,1.2,0.1,2.4-1.7,2.3
			c-0.6,0-1.4-0.2-1.6,0.7c-0.2,0-0.4,0-0.6,0c-0.1-1.3,0.7-1.5,1.7-1.4c1.2,0.1,1.7-0.4,1.7-1.6c0-1.1-0.3-1.5-1.4-1.5
			c-1.8,0-2.7-1.7-1.9-3.4c0.3-0.6,0.9-0.6,1.4-0.5c1.2,0.1,1.9-0.3,1.8-1.7c0-1.3-0.4-1.9-1.7-1.8c-1.3,0.1-1.8-0.6-1.7-1.8
			c0-0.5,0-1,0-1.5C26.7,65.4,26.9,65.4,27,65.4z"/>
		<path id="XMLID_11254_" class="st5" d="M-23.9,94.3c0,0.3,0,0.7,0,1c0,2.8,0,2.8-2.8,3c-0.7,0.1-1.4,0.2-1.1,1
			c0.3,0.9-0.4,2.3,1.1,2.6c0.2,0,0.4,0,0.7,0c1.8,0.1,2.9,2,1.9,3.5c-0.4,0.7-1.2,0.6-1.8,0.6c-2.1,0.1-1.7,1.6-1.8,2.9
			c0,1.5,1,1.4,1.9,1.4c1.4-0.1,1.9,0.5,1.8,1.9c-0.1,0.6,0,1.2,0,1.8c-0.2,0-0.4,0-0.6,0c0-0.4-0.1-0.8,0-1.2
			c0.2-1.6-0.3-2.5-2.1-2.2c-1.3,0.2-1.7-0.5-1.6-1.7c0-0.4,0-0.8,0-1.2c-0.2-1.7,0.4-2.4,2.1-2.2c1.3,0.2,1.6-0.5,1.6-1.7
			c0-1.2-0.4-1.8-1.6-1.7c-0.7,0-1.6,0.3-1.9-0.5c-0.4-1.1-0.3-2.2,0-3.3c0.2-0.6,0.8-0.5,1.3-0.5c2.3-0.1,2.3-0.1,2.3-2.4
			c0-0.4,0-0.9,0-1.3C-24.4,94.3-24.1,94.3-23.9,94.3z"/>
		<path id="XMLID_11231_" class="st1" d="M-29.9,50.3c-0.2,0.2-0.5,0.2-0.7,0C-30.4,50.3-30.2,50.3-29.9,50.3z"/>
		<path id="XMLID_11229_" class="st1" d="M-41.8,93.7c0.1,0.1,0.1,0.2,0.1,0.3c0-0.1-0.1-0.1-0.1-0.2
			C-41.9,93.8-41.9,93.7-41.8,93.7z"/>
		<path id="XMLID_11225_" class="st5" d="M-35.3,103.4c0-2.3,0-2.3,2.6-2.3c2.4,0,2.4,0,2.4,2.4c0,2.6,0,2.6-2.6,2.6
			C-35.3,106-35.3,106-35.3,103.4z"/>
		<path id="XMLID_11224_" class="st5" d="M-17.2,103.4c0,2.4-0.2,2.6-2.3,2.6c-2.2,0-2.4-0.2-2.4-2.7c0-2.3,0-2.3,2.3-2.3
			C-17.2,101-17.2,101-17.2,103.4z"/>
		<path id="XMLID_11212_" class="st5" d="M25.1,73.7c0.2,1.4-0.4,1.9-1.8,1.8c-1-0.1-2,0.1-1.9-1.4c0.1-1.2,0.1-2.4,1.9-2.3
			C24.7,71.8,25.3,72.3,25.1,73.7z"/>
		<path id="XMLID_11211_" class="st5" d="M33.6,75.5c-1.5,0.3-1.8-0.5-1.8-1.8c0-1.5,0.5-1.9,1.9-1.9c1.6,0,1.8,0.7,1.8,2
			C35.5,75.3,34.9,75.7,33.6,75.5z"/>
	</g>
</g>
</svg>
