<?xml version="1.0" encoding="utf-8"?>
<!-- Generator: Adobe Illustrator 19.0.0, SVG Export Plug-In . SVG Version: 6.00 Build 0)  -->
<svg version="1.1" id="Layer_1" xmlns="http://www.w3.org/2000/svg" xmlns:xlink="http://www.w3.org/1999/xlink" x="0px" y="0px"
	 viewBox="241 -314 722 798" style="enable-background:new 241 -314 722 798;" xml:space="preserve">
<style type="text/css">
	.st0{fill:none;stroke:#D3D3D3;stroke-width:2.9003;stroke-miterlimit:10;}
	.st1{fill:#E2E2E2;stroke:#707070;stroke-width:22.1631;stroke-miterlimit:10;}
	.st2{enable-background:new    ;}
	.st3{fill:#6B9EE8;}
	.st4{fill:#75A9FC;}
	.st5{opacity:0.56;fill:#303030;enable-background:new    ;}
	.st6{fill:#D7D8D9;}
	.st7{fill:#E5E5E5;}
	.st8{opacity:0.62;fill:#E5E5E5;enable-background:new    ;}
	.st9{fill:#C6C7C9;}
	.st10{fill:#B2B2B2;}
	.st11{fill:#E8E8E8;}
	.st12{fill:#FFFFFF;}
	.st13{fill:#F4F4F4;}
	.st14{fill:#E2E2E2;}
	.st15{fill:#EFEFEF;}
	.st16{fill:#C9CFD1;}
	.st17{fill:#6498E2;}
	.st18{fill:#B7B7B7;}
	.st19{fill:#B5B5B5;}
</style>
<g id="XMLID_3183_">
	<g id="XMLID_5198_">
		<circle id="XMLID_5452_" class="st0" cx="662.7" cy="284.8" r="6.1"/>
		<circle id="XMLID_5450_" class="st0" cx="652.1" cy="300.2" r="6.1"/>
		<circle id="XMLID_5395_" class="st0" cx="640" cy="316.5" r="6.1"/>
		<circle id="XMLID_5222_" class="st0" cx="627.6" cy="335.3" r="6.1"/>
		<circle id="XMLID_5219_" class="st0" cx="613.6" cy="351.6" r="6.1"/>
		<circle id="XMLID_5204_" class="st0" cx="657.2" cy="292.5" r="6.1"/>
		<circle id="XMLID_5202_" class="st0" cx="646.2" cy="309.1" r="6.1"/>
		<circle id="XMLID_5201_" class="st0" cx="635.3" cy="325.5" r="6.1"/>
		<circle id="XMLID_5200_" class="st0" cx="620.4" cy="343.4" r="6.1"/>
		<circle id="XMLID_5199_" class="st0" cx="606.3" cy="359.8" r="6.1"/>
	</g>
	<g id="XMLID_3192_">
		<circle id="XMLID_3601_" class="st0" cx="547.3" cy="294.9" r="6.1"/>
		<circle id="XMLID_3600_" class="st0" cx="559.4" cy="311.2" r="6.1"/>
		<circle id="XMLID_3593_" class="st0" cx="571.8" cy="330" r="6.1"/>
		<circle id="XMLID_3592_" class="st0" cx="585.8" cy="346.4" r="6.1"/>
		<circle id="XMLID_3214_" class="st0" cx="542.2" cy="287.3" r="6.1"/>
		<circle id="XMLID_3213_" class="st0" cx="553.1" cy="303.9" r="6.1"/>
		<circle id="XMLID_3195_" class="st0" cx="564.1" cy="320.3" r="6.1"/>
		<circle id="XMLID_3194_" class="st0" cx="578.9" cy="338.2" r="6.1"/>
		<circle id="XMLID_3193_" class="st0" cx="593.1" cy="354.5" r="6.1"/>
	</g>
	<circle id="XMLID_3184_" class="st0" cx="602.1" cy="369.3" r="16.1"/>
	<g id="XMLID_3392_">
		<path id="XMLID_3395_" class="st1" d="M726.7,275.8H469.5c-32.2,0-58.2-26.1-58.2-58.2V-39.6c0-32.2,26.1-58.2,58.2-58.2h257.2
			c32.2,0,58.2,26.1,58.2,58.2v257.2C784.9,249.7,758.8,275.8,726.7,275.8z"/>
		<g id="XMLID_3394_">
			<g class="st2">
				<path class="st3" d="M531.9,149.6c0,2.6-0.6,4.4-1.7,5.6c-1.1,1.1-3,1.7-5.6,1.7h-29.7c-2.6,0-4.4-0.6-5.6-1.7
					c-1.1-1.1-1.7-3-1.7-5.6V96.2c0-4,0.6-8.7,1.9-14c1.3-5.3,3.3-11.4,6-18.4L513.1,18c0.8-2.3,2.1-4,3.7-5.1
					c1.7-1.1,3.9-1.6,6.6-1.6h54.4c2.6,0,4.7,0.5,6.4,1.6c1.7,1.1,2.9,2.8,3.7,5.1l17.6,45.9c2.7,7,4.7,13.1,6,18.4
					c1.3,5.3,1.9,9.9,1.9,14v53.4c0,2.6-0.6,4.4-1.7,5.6c-1.1,1.1-3,1.7-5.6,1.7h-30.5c-2.7,0-4.7-0.6-6-1.7c-1.3-1.1-1.9-3-1.9-5.6
					v-28.3h-35.8V149.6z M589.9,138.7h2V95.6c0-3.8-0.3-7.2-0.9-10.4c-0.6-3.2-1.5-6.2-2.5-9.2l-14-33c-1.6-3.9-3.3-7.1-5.2-9.7
					c-1.8-2.6-5-3.8-9.4-3.8h-19.8c-4.6,0-7.8,1.3-9.7,3.8c-1.9,2.6-3.6,5.7-5.1,9.5L512.4,76c-1.1,3-1.9,6-2.5,9.2
					c-0.6,3.2-0.9,6.6-0.9,10.4v43.1h2v-34.8h78.9V138.7z M511,95.6c0-3.6,0.3-7,0.9-10.1c0.6-3.1,1.4-6,2.3-8.7l12.9-33.2
					c1.3-3.4,2.8-6.2,4.5-8.6c1.6-2.4,4.5-3.5,8.5-3.5H560c3.8,0,6.5,1.2,8.1,3.5c1.6,2.4,3.2,5.3,4.7,8.8l14,33
					c0.9,2.7,1.7,5.6,2.3,8.7c0.6,3.1,0.9,6.5,0.9,10.1v6.3H511V95.6z M543.4,53.8l-9.5,30.7h31.8l-9.5-30.7
					c-0.5-1.2-1.1-2.1-1.7-2.6c-0.6-0.5-1.3-0.8-2.1-0.8h-5.1c-0.8,0-1.5,0.3-2.1,0.8C544.5,51.7,543.9,52.5,543.4,53.8z"/>
			</g>
			<g class="st2">
				<path class="st3" d="M702.1,156.9h-39.5c-10.5,0-18.2-2.1-23.3-6.3c-5.1-4.2-7.6-10.6-7.6-19.3V92.1c0-8.7,2.5-15.1,7.6-19.3
					c5.1-4.2,12.8-6.3,23.3-6.3h31.4c1.6,0,2.7,0.4,3.5,1.1c0.7,0.7,1.1,1.9,1.1,3.5v15.2c0,1.6-0.4,2.7-1.1,3.5
					c-0.7,0.7-1.9,1.1-3.5,1.1h-26.1c-2.6,0-4.5,0.5-5.8,1.6c-1.3,1-1.9,2.6-1.9,4.7v30c0,2.1,0.5,3.6,1.4,4.6c1,1,2.4,1.5,4.3,1.5
					h12.2v-19.6c0-1.6,0.4-2.7,1.1-3.5c0.7-0.7,1.9-1.1,3.5-1.1h19.5c1.6,0,2.7,0.4,3.5,1.1c0.7,0.7,1.1,1.9,1.1,3.5v38.8
					c0,1.6-0.4,2.7-1.1,3.5C704.8,156.6,703.6,156.9,702.1,156.9z M667.9,145.6h25v-25.2h-1.3v24h-23.7c-8.5,0-14.1-1.1-17-3.4
					c-2.9-2.3-4.3-6.1-4.3-11.5V94.3c0-5.5,1.3-9.4,3.9-11.7c2.6-2.3,7.6-3.5,14.9-3.5h21.7v-1.3h-21.7c-8,0-13.4,1.3-16.1,3.8
					c-2.7,2.5-4,6.7-4,12.7v35.2c0,2.9,0.3,5.4,0.9,7.5c0.6,2.1,1.8,3.7,3.5,5c1.7,1.3,4,2.2,6.9,2.8
					C659.5,145.3,663.3,145.6,667.9,145.6z"/>
			</g>
		</g>
		<g id="XMLID_3393_" class="st2">
			<path class="st4" d="M589.3,235.8h-5.9c-2.3,0-3.9-0.5-4.9-1.4c-1-0.9-1.5-2.4-1.5-4.4v-12.2c0-0.4,0.1-0.8,0.3-1
				c0.2-0.2,0.5-0.3,1-0.3h5.4c0.4,0,0.8,0.1,1,0.3c0.2,0.2,0.3,0.5,0.3,1v9.6c0,0.4,0.1,0.7,0.3,0.9c0.2,0.2,0.5,0.3,0.8,0.3h3.2
				v-10.7c0-0.4,0.1-0.8,0.3-1c0.2-0.2,0.5-0.3,1-0.3h5.4c0.4,0,0.8,0.1,1,0.3c0.2,0.2,0.3,0.5,0.3,1v22.6c0,0.4-0.1,0.8-0.3,1
				c-0.2,0.2-0.5,0.3-1,0.3h-5.4c-0.4,0-0.8-0.1-1-0.3c-0.2-0.2-0.3-0.5-0.3-1V235.8z M593.1,238.5h0.3v-18.8h-0.3V232h-8.3
				c-1.2,0-2.1-0.3-2.7-0.8c-0.6-0.5-0.9-1.4-0.9-2.5v-9h-0.3v9c0,1.2,0.3,2.1,0.9,2.7c0.6,0.6,1.6,0.9,2.9,0.9h8.3V238.5z"/>
			<path class="st4" d="M618.4,216.5c0.4,0,0.8,0.1,1,0.3s0.3,0.5,0.3,1v8.8c0,1.1-0.1,2-0.3,2.8c-0.2,0.8-0.6,1.4-1,1.9
				c-0.4,0.5-1,0.9-1.7,1.3c-0.7,0.3-1.5,0.6-2.4,0.9l-2.6,0.8v6.1c0,0.4-0.1,0.8-0.3,1c-0.2,0.2-0.5,0.3-1,0.3h-5.6
				c-0.4,0-0.8-0.1-1-0.3c-0.2-0.2-0.3-0.5-0.3-1v-6.3c0-1.1,0.1-2,0.3-2.8c0.2-0.8,0.6-1.4,1-1.9c0.4-0.5,1-0.9,1.7-1.3
				s1.5-0.6,2.4-0.9l2.8-0.8v-3.1h-9.6c-0.4,0-0.8-0.1-1-0.3c-0.2-0.2-0.3-0.5-0.3-1v-4.2c0-0.4,0.1-0.8,0.3-1
				c0.2-0.2,0.5-0.3,1-0.3H618.4z M607.4,238.5h0.3v-5.2c0-0.4,0.1-0.8,0.3-1c0.2-0.3,0.4-0.4,0.7-0.6l5.9-2.4
				c0.4-0.2,0.7-0.4,0.9-0.7s0.3-0.7,0.3-1.3v-7.7H604v0.3h11.5v7.3c0,0.4-0.1,0.8-0.2,1c-0.2,0.2-0.4,0.4-0.8,0.6l-5.9,2.4
				c-0.4,0.2-0.7,0.4-0.9,0.7c-0.2,0.3-0.3,0.7-0.3,1.3V238.5z"/>
		</g>
	</g>
	<g id="XMLID_1218_">
		<g id="XMLID_6147_">
			<path id="XMLID_6187_" class="st5" d="M899.4,107.1c64-2.5,5.2,128.3,21.4,186.7c2.6,9.4,10.4,15.7,20.1,15.3l0,0
				c9.7-0.4,18-7.3,19.9-16.9c11.6-59.4-28.4-194-15.4-433.5c0,0-40.6,12.3-47.2,71.4C891.4-8.4,895.7,49.4,899.4,107.1z"/>
			<g id="XMLID_6148_">
				<path id="XMLID_6186_" class="st6" d="M892.9,110.8c64-2.5,5.2,128.3,21.4,186.7c2.6,9.4,10.4,15.7,20.1,15.3l0,0
					c9.7-0.4,18-7.3,19.9-16.9c11.6-59.4-28.4-194-15.4-433.5c0,0-40.6,12.3-47.2,71.4C884.9-4.7,889.3,53.1,892.9,110.8z"/>
				<path id="XMLID_6182_" class="st7" d="M892.9,110.8c64-2.5,5.2,128.3,21.4,186.7c2.6,9.4,10.4,15.7,20.1,15.3l0,0
					c9.7-0.4,18-7.3,19.9-16.9c11.6-59.4-28.4-194-15.4-433.5c0,0-40.6,12.3-47.2,71.4C884.9-4.7,889.3,53.1,892.9,110.8z"/>
				<path id="XMLID_6149_" class="st8" d="M955.9,282.4L955.9,282.4c2.4-33.7-5.5-85.4-12-158.3
					C941.2,135.1,952.8,258.9,955.9,282.4z"/>
			</g>
		</g>
		<g id="XMLID_6090_">
			<path id="XMLID_6146_" class="st5" d="M260.4-104.2c8-0.3-4.5,30.4-1.7,82.3c0.2,3.7,3.3,6.5,7,6.4l0,0c2.2-0.1,4.9-1.9,4.9-4.1
				c-0.4-17.2,0-84.9,4.5-85.1c4.5-0.1,5.4,67,5,84.6c0,2.3,2.9,4,5.1,4l0,0c2.3-0.1,5-2,4.8-4.3c-1.5-17.5-4.9-84.6-0.4-84.7
				c4.5-0.1,9.3,67.5,10,84.6c0.1,2.2,2.9,3.8,5.1,3.7l0,0c3.7-0.1,6.7-3.2,6.6-6.9c-0.6-52-15.1-81.8-7.1-82.1l0,0
				c0.2,0.5,38.8,108.6,0.4,145c-31,17.7,22.7,186.3,10.7,245.6c-1.9,9.5-10.3,16.4-20,16.7l0,0c-9.7,0.3-18.5-6-21-15.4
				c-15.8-58.5,28.7-230.5-3.4-246.2C222.8,16.5,259.9-100,260.4-104.2L260.4-104.2z"/>
			<g id="XMLID_6092_">
				<path id="XMLID_6145_" class="st7" d="M255.1-106.5c8-0.3-4.5,30.4-1.7,82.3c0.2,3.7,3.3,6.5,7,6.4l0,0c2.2-0.1,4.9-1.9,4.9-4.1
					c-0.4-17.2,0-84.9,4.5-85.1c4.5-0.1,5.4,67,5,84.6c0,2.3,2.9,4,5.1,4l0,0c2.3-0.1,5-2,4.8-4.3c-1.5-17.5-4.9-84.6-0.4-84.7
					c4.5-0.1,9.3,67.5,10,84.6c0.1,2.2,2.9,3.8,5.1,3.7l0,0c3.7-0.1,6.7-3.2,6.6-6.9c-0.6-52-15.1-81.8-7.1-82.1l0,0
					c0.2,0.5,45.4,118.2-1.2,144.8c-31,17.7,24.4,186.5,12.4,245.9c-1.9,9.5-10.3,16.4-20,16.7l0,0c-9.7,0.3-18.5-6-21-15.4
					c-15.8-58.5,28.7-230.5-3.4-246.2C217.5,14.3,254.5-102.2,255.1-106.5L255.1-106.5z"/>
				<path id="XMLID_6114_" class="st9" d="M286.5-30.8c0.1,5-1,7.8-2,9.3c0.1-0.4,0.2-0.8,0.2-1.2"/>
				<path id="XMLID_6115_" class="st9" d="M285.3-60.5"/>
				<path id="XMLID_6095_" class="st9" d="M284.3-107.4c0.7,0,1.5,1.8,2.2,4.9c0,0-2.3-4.2-2.8,1.4"/>
			</g>
		</g>
	</g>
	<g id="XMLID_446_">
		<g id="XMLID_5681_">
			<g id="XMLID_5838_">
				<path id="XMLID_5845_" class="st10" d="M699.5-248.1c14.9,5.1,26.8,15.7,33.7,29.8c6.7,13.7,7.8,29.1,3.2,43.6
					c0.2-0.5,0.3-0.9,0.5-1.4c5.1-14.9,4.1-30.8-2.7-45c-6.9-14.1-18.9-24.7-33.7-29.8c-14.9-5.1-30.8-4.1-45,2.8
					c-14.1,6.9-24.7,18.9-29.8,33.7c-0.2,0.5-0.3,0.9-0.5,1.4c5.3-14.2,15.7-25.7,29.3-32.3C668.7-252.2,684.7-253.2,699.5-248.1z"
					/>
				<path id="XMLID_5842_" class="st10" d="M666-150.6c26.1,9,54.7-4.9,63.6-31c0.2-0.5,0.3-0.9,0.5-1.4
					c-9.5,25.2-37.5,38.5-63.1,29.7s-39.5-36.5-31.5-62.2c-0.2,0.5-0.3,0.9-0.5,1.4C626-188.2,639.9-159.6,666-150.6z"/>
				<path id="XMLID_5839_" class="st11" d="M662.2-139.6c14.9,5.1,30.8,4.1,45-2.7c13.7-6.7,24.1-18.1,29.3-32.3
					c4.6-14.5,3.5-29.9-3.2-43.6c-6.9-14.1-18.9-24.7-33.7-29.8c-14.9-5.1-30.8-4.1-45,2.8c-13.7,6.7-24.1,18.1-29.3,32.3
					c-4.6,14.5-3.5,29.9,3.2,43.6C635.4-155.3,647.3-144.7,662.2-139.6z M639.5-209.5c7.9-23,33.1-35.3,56.2-27.4
					c23,7.9,35.3,33.1,27.4,56.2c-0.1,0.4-0.3,0.8-0.4,1.2s-0.3,0.8-0.4,1.2c-7.9,23-33.1,35.3-56.2,27.4
					c-23-7.9-35.3-33.1-27.4-56.2c0.1-0.4,0.3-0.8,0.4-1.2C639.2-208.7,639.4-209.1,639.5-209.5z"/>
			</g>
			<polygon id="XMLID_5837_" class="st12" points="701,-271 700.9,-267.9 695.8,-267 695.8,-270.7 698.9,-271.7 			"/>
			<path id="XMLID_5836_" class="st13" d="M695.8-267c0,0-2.2,0.6-3.5,0.6c0,0-2.2-1.2-2.2-2.7l5.7-1.7V-267z"/>
			<path id="XMLID_5813_" class="st12" d="M695.8-267c0,0,0.2,2.7,0.8,3.6c0,0-3.5-1.3-4.3-3L695.8-267z"/>
			<path id="XMLID_5812_" class="st13" d="M700.9-267.9c0,0,5.1,0.6,8.3-0.2l-8.3-2.8V-267.9z"/>
			<path id="XMLID_5810_" class="st13" d="M700.9-267.9l1.1,2.9l-5.4,1.8c0,0-1.4-2.6-0.8-3.6L700.9-267.9z"/>
			<polygon id="XMLID_5809_" class="st12" points="702,-265.1 709.3,-268.1 700.9,-267.9 			"/>
			<polygon id="XMLID_5807_" class="st14" points="707.9,-267.5 708.7,-266.5 709.3,-268.1 			"/>
			<polygon id="XMLID_5806_" class="st13" points="708.7,-266.5 707.7,-263.4 706.4,-263.2 704.2,-266 707.9,-267.5 			"/>
			<path id="XMLID_5802_" class="st12" d="M702-265.1l0.1,4.4c0,0-3.3-0.6-5.6-2.7L702-265.1z"/>
			<polygon id="XMLID_5801_" class="st15" points="702.1,-260.7 706.4,-263.2 704.2,-266 702,-265.1 			"/>
			<path id="XMLID_5800_" class="st15" d="M706.2-259.2c-1.4-0.4-2.8-0.9-4.1-1.5l4.3-2.5L706.2-259.2z"/>
			<polygon id="XMLID_5799_" class="st12" points="706.4,-263.2 707.7,-263.4 706.2,-259.2 			"/>
			<path id="XMLID_5798_" class="st14" d="M706.2-259.2c0,0-13.2-4.2-16-9.7l3,10l11.5,3.9L706.2-259.2z"/>
			<polygon id="XMLID_5777_" class="st12" points="717.6,-265.3 715.7,-262.8 719.2,-258.9 721.5,-261.9 719.6,-264.5 			"/>
			<path id="XMLID_5776_" class="st13" d="M719.2-258.9c0,0,1.4,1.8,2.4,2.7c0,0,2.5,0.4,3.4-0.8l-3.4-4.9L719.2-258.9z"/>
			<path id="XMLID_5775_" class="st12" d="M719.2-258.9c0,0-1.8,2-2.9,2.4c0,0,3.5,1.2,5.3,0.3L719.2-258.9z"/>
			<path id="XMLID_5774_" class="st13" d="M715.7-262.8c0,0-4.4-2.7-6.5-5.3l8.3,2.9L715.7-262.8z"/>
			<path id="XMLID_5773_" class="st13" d="M715.7-262.8l-2.6,1.6l3.2,4.7c0,0,2.7-1.1,2.9-2.4L715.7-262.8z"/>
			<polygon id="XMLID_5738_" class="st12" points="713.2,-261.2 709.3,-268.1 715.7,-262.8 			"/>
			<polygon id="XMLID_5737_" class="st14" points="710,-266.8 708.7,-266.5 709.3,-268.1 			"/>
			<polygon id="XMLID_5736_" class="st13" points="708.7,-266.5 707.7,-263.4 708.5,-262.4 712,-263.3 710,-266.8 			"/>
			<path id="XMLID_5735_" class="st12" d="M713.2-261.2l-2.8,3.4c0,0,3,1.5,6.1,1.4L713.2-261.2z"/>
			<polygon id="XMLID_5734_" class="st15" points="710.3,-257.9 708.5,-262.4 712,-263.3 713.2,-261.2 			"/>
			<path id="XMLID_5716_" class="st15" d="M706.2-259.2c1.3,0.6,2.7,1,4.1,1.3l-1.8-4.6L706.2-259.2z"/>
			<polygon id="XMLID_5715_" class="st12" points="708.5,-262.4 707.7,-263.4 706.2,-259.2 			"/>
			<path id="XMLID_5713_" class="st14" d="M706.2-259.2c0,0,12.9,4.8,18.6,2.2l-8.6,6l-11.4-4L706.2-259.2z"/>
			<path id="XMLID_5709_" class="st16" d="M719.7-253.4c-6.3,0.1-13.8-2.4-14.6-2.7c-0.9-0.3-8.3-3-13.2-6.9l3.6,26.4l2.7,0.5
				l2.5,1.3L719.7-253.4z"/>
			<path id="XMLID_5703_" class="st11" d="M718.1-252.6c-5.8,0.2-12.7-2-13.5-2.3s-7.6-2.8-12-6.5l2.6,26.1l2.5,0.5l2.3,1.2
				L718.1-252.6z"/>
			<path id="XMLID_5702_" class="st10" d="M701.2-225.1c2.1-2.6,11.1-12.3,33.5-23.7c0.7-0.4,1-1.2,0.6-1.9c-1-1.8-3.2-5.2-6.2-6.6
				c-1.5-0.7-3.2-0.6-4.5,0.3c-5.5,3.6-23.7,16-29.4,29.5c-0.1,0.2,0,0.5,0.2,0.6c0.7,0.5,2.3,1.6,4.5,2.3
				C700.3-224.5,700.9-224.6,701.2-225.1z"/>
			<path id="XMLID_5701_" class="st10" d="M688.9-229.3c-0.1-3.3-1.2-16.5-11.8-39.3c-0.3-0.7,0-1.6,0.7-1.9c1.9-0.8,5.7-2.1,9-1.4
				c1.6,0.3,2.9,1.5,3.4,3c2.2,6.2,8.8,27.2,5,41.3c-0.1,0.2-0.3,0.4-0.5,0.4c-0.8,0-2.8-0.2-5-1
				C689.3-228.3,688.9-228.8,688.9-229.3z"/>
		</g>
		<g id="XMLID_454_">
			<g id="XMLID_3139_">
				<path id="XMLID_3151_" class="st10" d="M606.7-286.2c19.8-0.1,38.4,7.6,52.4,21.5c13.6,13.5,21.3,31.3,21.8,50.4
					c0-0.6,0-1.2,0-1.8c-0.1-19.8-7.8-38.3-21.8-52.2s-32.6-21.6-52.4-21.5s-38.3,7.8-52.2,21.8s-21.6,32.6-21.5,52.4
					c0,0.6,0,1.2,0,1.8c0.4-19.1,8-36.9,21.5-50.5C568.4-278.4,586.9-286.1,606.7-286.2z"/>
				<path id="XMLID_3148_" class="st10" d="M607.1-156.6c34.7-0.1,62.9-28.5,62.7-63.2c0-0.6,0-1.2,0-1.8
					c-0.9,33.9-28.6,61.2-62.7,61.3s-62-27-63.1-60.9c0,0.6,0,1.2,0,1.8C544.1-184.6,572.4-156.5,607.1-156.6z"/>
				<path id="XMLID_3140_" class="st11" d="M607.2-141.9c19.8-0.1,38.3-7.8,52.2-21.8c13.5-13.6,21.1-31.5,21.5-50.5
					c-0.5-19.1-8.2-36.9-21.8-50.4c-14-13.9-32.6-21.6-52.4-21.5s-38.3,7.8-52.2,21.8c-13.5,13.6-21.1,31.5-21.5,50.5
					c0.5,19.1,8.2,36.9,21.8,50.4C568.8-149.5,587.4-141.9,607.2-141.9z M551.4-215.5c-0.1-30.6,24.7-55.7,55.4-55.8
					c30.6-0.1,55.7,24.7,55.8,55.4c0,0.5,0,1.1,0,1.6s0,1.1,0,1.6c0.1,30.6-24.7,55.7-55.4,55.8c-30.6,0.1-55.7-24.7-55.8-55.4
					c0-0.5,0-1.1,0-1.6C551.4-214.4,551.4-215,551.4-215.5z"/>
			</g>
			<polygon id="XMLID_3046_" class="st12" points="599,-313.9 600.1,-310.3 594.5,-307 592.9,-311.5 596.2,-313.9 			"/>
			<path id="XMLID_3045_" class="st13" d="M594.5-307c0,0-2.4,1.6-3.9,2.2c0,0-3.1-0.5-3.7-2.3l6.1-4.4L594.5-307z"/>
			<path id="XMLID_3044_" class="st12" d="M594.5-307c0,0,1.4,3.2,2.4,4c0,0-4.7-0.1-6.4-1.8L594.5-307z"/>
			<path id="XMLID_3043_" class="st13" d="M600.1-310.3c0,0,6.3-1.4,9.8-3.7h-11L600.1-310.3z"/>
			<path id="XMLID_3040_" class="st13" d="M600.1-310.3l2.4,3l-5.7,4.3c0,0-2.7-2.5-2.4-4L600.1-310.3z"/>
			<polygon id="XMLID_3039_" class="st12" points="602.6,-307.3 609.9,-313.9 600.1,-310.3 			"/>
			<polygon id="XMLID_3037_" class="st14" points="608.6,-312.7 610,-311.8 609.9,-313.9 			"/>
			<polygon id="XMLID_3036_" class="st13" points="610,-311.8 610,-307.7 608.6,-306.9 604.8,-309.4 608.6,-312.7 			"/>
			<path id="XMLID_3034_" class="st12" d="M602.6-307.3l2,5.2c0,0-4.1,0.6-7.8-0.9L602.6-307.3z"/>
			<polygon id="XMLID_2971_" class="st15" points="604.6,-302.2 608.6,-306.9 604.8,-309.4 602.6,-307.3 			"/>
			<path id="XMLID_2970_" class="st15" d="M610-302.1c-1.8,0.2-3.7,0.1-5.5-0.1l4-4.7L610-302.1z"/>
			<polygon id="XMLID_2965_" class="st12" points="608.6,-306.9 610,-307.7 610,-302.1 			"/>
			<path id="XMLID_2964_" class="st14" d="M610-302.1c0,0-17.3,0.5-23-4.9l7.7,10.7l15.2-0.1L610-302.1z"/>
			<polygon id="XMLID_2959_" class="st12" points="621,-314 619.8,-310.4 625.5,-307.1 627.1,-311.6 623.7,-314 			"/>
			<path id="XMLID_2958_" class="st13" d="M625.5-307.1c0,0,2.4,1.6,4,2.2c0,0,3.1-0.5,3.7-2.3l-6.1-4.3L625.5-307.1z"/>
			<path id="XMLID_2954_" class="st12" d="M625.5-307.1c0,0-1.3,3.2-2.4,4c0,0,4.7-0.1,6.4-1.8L625.5-307.1z"/>
			<path id="XMLID_2953_" class="st13" d="M619.8-310.4c0,0-6.4-1.4-9.9-3.6h11L619.8-310.4z"/>
			<path id="XMLID_2952_" class="st13" d="M619.8-310.4l-2.4,3l5.7,4.3c0,0,2.7-2.5,2.4-4L619.8-310.4z"/>
			<polygon id="XMLID_2951_" class="st12" points="617.4,-307.4 609.9,-313.9 619.8,-310.4 			"/>
			<polygon id="XMLID_2950_" class="st14" points="611.4,-312.7 610,-311.8 609.9,-313.9 			"/>
			<polygon id="XMLID_2891_" class="st13" points="610,-311.8 610,-307.7 611.4,-306.9 615.2,-309.4 611.4,-312.7 			"/>
			<path id="XMLID_2890_" class="st12" d="M617.4-307.4l-1.9,5.2c0,0,4.1,0.6,7.8-0.9L617.4-307.4z"/>
			<polygon id="XMLID_2888_" class="st15" points="615.5,-302.2 611.4,-306.9 615.2,-309.4 617.4,-307.4 			"/>
			<path id="XMLID_2887_" class="st15" d="M610-302.1c1.8,0.1,3.7,0.1,5.4-0.1l-4.1-4.7L610-302.1z"/>
			<polygon id="XMLID_2885_" class="st12" points="611.4,-306.9 610,-307.7 610,-302.1 			"/>
			<path id="XMLID_2884_" class="st14" d="M610-302.1c0,0,17.3,0.4,22.9-5.1l-7.7,10.7H610L610-302.1z"/>
			<path id="XMLID_531_" class="st16" d="M628.4-300.8c-7.4,2.7-17.4,2.9-18.5,2.9s-11.1-0.1-18.5-2.7l15.2,29.9l3.5-0.5l3.5,0.5
				L628.4-300.8z"/>
			<path id="XMLID_465_" class="st11" d="M626.8-299.2c-6.8,2.7-15.9,2.8-16.9,2.9c-1.1,0-10.1-0.1-16.9-2.7l13.9,29.9l3.2-0.5
				l3.2,0.5L626.8-299.2z"/>
			<path id="XMLID_464_" class="st10" d="M618.2-259.5c1.5-3.9,8.1-19.1,29.9-42c0.7-0.7,0.7-1.9-0.1-2.5c-2-1.8-5.9-4.8-10.1-5.3
				c-2-0.2-4,0.6-5.3,2.2c-5.1,6.5-21.5,28.8-22.7,47.1c0,0.3,0.2,0.6,0.5,0.7c1,0.3,3.4,0.9,6.3,0.9
				C617.4-258.5,618-258.9,618.2-259.5z"/>
			<path id="XMLID_456_" class="st10" d="M601.8-259.5c-1.5-3.9-8.2-19.1-30.2-41.8c-0.7-0.7-0.7-1.9,0.1-2.5
				c1.9-1.8,5.9-4.9,10.1-5.4c2-0.2,4,0.6,5.3,2.2c5.1,6.5,21.7,28.7,23.1,47c0,0.3-0.2,0.6-0.5,0.7c-1,0.3-3.4,0.9-6.3,0.9
				C602.7-258.4,602.1-258.8,601.8-259.5z"/>
		</g>
		<g id="XMLID_447_">
			<g id="XMLID_2847_">
				<path id="XMLID_2879_" class="st10" d="M504.3-248.1c-14.9,5.1-26.8,15.7-33.7,29.8c-6.7,13.7-7.8,29.1-3.2,43.6
					c-0.2-0.5-0.3-0.9-0.5-1.4c-5.1-14.9-4.1-30.8,2.7-45c6.9-14.1,18.9-24.7,33.7-29.8c14.9-5.1,30.8-4.1,45,2.8
					c14.1,6.9,24.7,18.9,29.8,33.7c0.2,0.5,0.3,0.9,0.5,1.4c-5.3-14.2-15.7-25.7-29.3-32.3C535.1-252.2,519.1-253.2,504.3-248.1z"/>
				<path id="XMLID_2876_" class="st10" d="M537.8-150.6c-26.1,9-54.7-4.9-63.6-31c-0.2-0.5-0.3-0.9-0.5-1.4
					c9.5,25.2,37.5,38.5,63.1,29.7s39.5-36.5,31.5-62.2c0.2,0.5,0.3,0.9,0.5,1.4C577.8-188.2,563.9-159.6,537.8-150.6z"/>
				<path id="XMLID_2848_" class="st11" d="M575.3-169.5c6.7-13.7,7.8-29.1,3.2-43.6c-5.3-14.2-15.7-25.7-29.3-32.3
					c-14.1-6.9-30.1-7.9-45-2.8c-14.9,5.1-26.8,15.7-33.7,29.8c-6.7,13.7-7.8,29.1-3.2,43.6c5.3,14.2,15.7,25.7,29.3,32.3
					c14.1,6.9,30.1,7.9,45,2.7C556.5-144.7,568.4-155.3,575.3-169.5z M564.7-208.2c0.2,0.4,0.3,0.8,0.4,1.2
					c7.9,23-4.4,48.2-27.4,56.2c-23,7.9-48.2-4.4-56.2-27.4c-0.1-0.4-0.3-0.8-0.4-1.2c-0.2-0.4-0.3-0.8-0.4-1.2
					c-7.9-23,4.4-48.2,27.4-56.2c23-7.9,48.2,4.4,56.2,27.4C564.4-209.1,564.6-208.7,564.7-208.2z"/>
			</g>
			<polygon id="XMLID_2846_" class="st12" points="502.8,-271 502.9,-267.9 508,-267 508,-270.7 504.9,-271.7 			"/>
			<path id="XMLID_2845_" class="st13" d="M508-267c0,0,2.2,0.6,3.5,0.6c0,0,2.2-1.2,2.2-2.7l-5.7-1.7V-267z"/>
			<path id="XMLID_2844_" class="st12" d="M508-267c0,0-0.2,2.7-0.8,3.6c0,0,3.5-1.3,4.3-3L508-267z"/>
			<path id="XMLID_2843_" class="st13" d="M502.9-267.9c0,0-5.1,0.6-8.3-0.2l8.3-2.8V-267.9z"/>
			<path id="XMLID_2842_" class="st13" d="M502.9-267.9l-1.1,2.9l5.4,1.8c0,0,1.4-2.6,0.8-3.6L502.9-267.9z"/>
			<polygon id="XMLID_2830_" class="st12" points="501.8,-265.1 494.5,-268.1 502.9,-267.9 			"/>
			<polygon id="XMLID_2829_" class="st14" points="495.9,-267.5 495.1,-266.5 494.5,-268.1 			"/>
			<polygon id="XMLID_2828_" class="st13" points="495.1,-266.5 496.1,-263.4 497.4,-263.2 499.6,-266 495.9,-267.5 			"/>
			<path id="XMLID_2827_" class="st12" d="M501.8-265.1l-0.1,4.4c0,0,3.3-0.6,5.6-2.7L501.8-265.1z"/>
			<polygon id="XMLID_2826_" class="st15" points="501.7,-260.7 497.4,-263.2 499.6,-266 501.8,-265.1 			"/>
			<path id="XMLID_2804_" class="st15" d="M497.6-259.2c1.4-0.4,2.8-0.9,4.1-1.5l-4.3-2.5L497.6-259.2z"/>
			<polygon id="XMLID_2803_" class="st12" points="497.4,-263.2 496.1,-263.4 497.6,-259.2 			"/>
			<path id="XMLID_2799_" class="st14" d="M497.6-259.2c0,0,13.2-4.2,16-9.7l-3,10l-11.5,3.9L497.6-259.2z"/>
			<polygon id="XMLID_2729_" class="st12" points="486.2,-265.3 488.1,-262.8 484.6,-258.9 482.3,-261.9 484.2,-264.5 			"/>
			<path id="XMLID_2705_" class="st13" d="M484.6-258.9c0,0-1.4,1.8-2.4,2.7c0,0-2.5,0.4-3.4-0.8l3.4-4.9L484.6-258.9z"/>
			<path id="XMLID_2704_" class="st12" d="M484.6-258.9c0,0,1.8,2,2.9,2.4c0,0-3.5,1.2-5.3,0.3L484.6-258.9z"/>
			<path id="XMLID_2694_" class="st13" d="M488.1-262.8c0,0,4.4-2.7,6.5-5.3l-8.3,2.9L488.1-262.8z"/>
			<path id="XMLID_1222_" class="st13" d="M488.1-262.8l2.6,1.6l-3.2,4.7c0,0-2.7-1.1-2.9-2.4L488.1-262.8z"/>
			<polygon id="XMLID_1176_" class="st12" points="490.6,-261.2 494.5,-268.1 488.1,-262.8 			"/>
			<polygon id="XMLID_1174_" class="st14" points="493.8,-266.8 495.1,-266.5 494.5,-268.1 			"/>
			<polygon id="XMLID_1168_" class="st13" points="495.1,-266.5 496.1,-263.4 495.3,-262.4 491.8,-263.3 493.8,-266.8 			"/>
			<path id="XMLID_1044_" class="st12" d="M490.6-261.2l2.8,3.4c0,0-3,1.5-6.1,1.4L490.6-261.2z"/>
			<polygon id="XMLID_1039_" class="st15" points="493.5,-257.9 495.3,-262.4 491.8,-263.3 490.6,-261.2 			"/>
			<path id="XMLID_1001_" class="st15" d="M497.6-259.2c-1.3,0.6-2.7,1-4.1,1.3l1.8-4.6L497.6-259.2z"/>
			<polygon id="XMLID_1000_" class="st12" points="495.3,-262.4 496.1,-263.4 497.6,-259.2 			"/>
			<path id="XMLID_956_" class="st14" d="M497.6-259.2c0,0-12.9,4.8-18.6,2.2l8.6,6l11.4-4L497.6-259.2z"/>
			<path id="XMLID_457_" class="st16" d="M484.1-253.4c6.3,0.1,13.8-2.4,14.6-2.7c0.9-0.3,8.3-3,13.2-6.9l-3.6,26.4l-2.7,0.5
				l-2.5,1.3L484.1-253.4z"/>
			<path id="XMLID_452_" class="st11" d="M485.7-252.6c5.8,0.2,12.7-2,13.5-2.3s7.6-2.8,12-6.5l-2.6,26.1l-2.5,0.5l-2.3,1.2
				L485.7-252.6z"/>
			<path id="XMLID_451_" class="st10" d="M502.6-225.1c-2.1-2.6-11.1-12.3-33.5-23.7c-0.7-0.4-1-1.2-0.6-1.9c1-1.8,3.2-5.2,6.2-6.6
				c1.5-0.7,3.2-0.6,4.5,0.3c5.5,3.6,23.7,16,29.4,29.5c0.1,0.2,0,0.5-0.2,0.6c-0.7,0.5-2.3,1.6-4.5,2.3
				C503.5-224.5,502.9-224.6,502.6-225.1z"/>
			<path id="XMLID_449_" class="st10" d="M514.9-229.3c0.1-3.3,1.2-16.5,11.8-39.3c0.3-0.7,0-1.6-0.7-1.9c-1.9-0.8-5.7-2.1-9-1.4
				c-1.6,0.3-2.9,1.5-3.4,3c-2.2,6.2-8.8,27.2-5,41.3c0.1,0.2,0.3,0.4,0.5,0.4c0.8,0,2.8-0.2,5-1
				C514.5-228.3,514.9-228.8,514.9-229.3z"/>
		</g>
	</g>
	<g id="XMLID_3185_">
		<path id="XMLID_3191_" class="st17" d="M625.7,366.3c-9.4,1.5-17.7,6.5-23.6,13.5c-7.1-8.6-17.9-14.1-29.9-14.1
			c-6.8,0-13.1,1.8-18.7,4.8c-12,6.6-20.1,19.3-20.1,34c0,4.2,0.7,8.2,1.9,11.9C541.9,446.3,602,484,602,484s60-37.7,66.7-67.6
			c1.2-3.7,1.9-7.8,1.9-11.9c0-14.6-8.1-27.3-20.1-34c-5.6-3.1-11.9-4.8-18.7-4.8C629.8,365.8,627.7,366,625.7,366.3"/>
		<path id="XMLID_3190_" class="st18" d="M624.3,369.6c-8.9,1.4-16.7,6.1-22.2,12.8c-6.7-8.1-16.9-13.3-28.2-13.3
			c-6.4,0-12.4,1.7-17.6,4.5c-11.3,6.2-18.9,18.2-18.9,32.1c0,3.9,0.6,7.7,1.8,11.3c6.3,28.2,62.9,63.8,62.9,63.8
			s56.6-35.6,62.9-63.8c1.2-3.5,1.8-7.3,1.8-11.3c0-13.8-7.6-25.8-18.9-32.1c-5.2-2.9-11.2-4.5-17.7-4.5
			C628.2,369.1,626.2,369.3,624.3,369.6"/>
		<path id="XMLID_3189_" class="st19" d="M618.3,384.9c-6.5,1.1-12.2,4.5-16.2,9.3c-4.9-5.9-12.3-9.6-20.5-9.6
			c-4.6,0-9,1.2-12.8,3.3c-8.2,4.5-13.8,13.3-13.8,23.3c0,2.9,0.5,5.6,1.3,8.2c4.6,20.5,45.8,46.4,45.8,46.4s41.2-25.9,45.8-46.4
			c0.8-2.6,1.3-5.3,1.3-8.2c0-10.1-5.6-18.8-13.8-23.3c-3.8-2.1-8.2-3.3-12.9-3.3C621.1,384.6,619.7,384.7,618.3,384.9"/>
		<path id="XMLID_3186_" class="st9" d="M602.1,475l-4.1-2.6c-4.5-2.8-43.7-28-49.2-50.9c-1.1-3.3-1.6-6.8-1.6-10.3
			c0-12.5,6.8-24,17.8-30.1c5.1-2.8,10.8-4.3,16.6-4.3c7.5,0,14.6,2.4,20.5,6.8c4.4-3.3,9.5-5.5,14.9-6.3c1.8-0.3,3.7-0.4,5.6-0.4
			c5.8,0,11.5,1.5,16.6,4.3c11,6.1,17.8,17.6,17.8,30.1c0,3.5-0.5,6.9-1.6,10.3c-5.5,22.9-44.7,48.1-49.1,50.9L602.1,475z
			 M581.6,392.3c-3.2,0-6.3,0.8-9.1,2.4c-6,3.3-9.8,9.7-9.8,16.5c0,2,0.3,3.9,0.9,5.8l0.1,0.4l0.1,0.4c2.6,11.5,23.3,28.8,38.3,38.9
			c14.9-10.1,35.7-27.3,38.2-38.9l0.1-0.4l0.1-0.4c0.6-1.9,0.9-3.8,0.9-5.8c0-6.9-3.8-13.2-9.8-16.6c-2.8-1.5-5.9-2.3-9.1-2.3
			c-1,0-2.1,0.1-3.1,0.2c-4.5,0.7-8.5,3.1-11.4,6.6l-5.9,7.2l-6-7.2C592.5,394.8,587.2,392.3,581.6,392.3z"/>
	</g>
</g>
</svg>
