<?xml version="1.0" encoding="utf-8"?>
<!-- Generator: Adobe Illustrator 19.0.0, SVG Export Plug-In . SVG Version: 6.00 Build 0)  -->
<svg version="1.1" id="Layer_1" xmlns="http://www.w3.org/2000/svg" xmlns:xlink="http://www.w3.org/1999/xlink" x="0px" y="0px"
	 viewBox="489.2 -241.9 1117.6 654" style="enable-background:new 489.2 -241.9 1117.6 654;" xml:space="preserve">
<style type="text/css">
	.st0{fill:#E2E2E2;stroke:#707070;stroke-width:21.4889;stroke-miterlimit:10;}
	.st1{fill:#D66B6B;}
	.st2{fill:#E57070;}
	.st3{fill:#ED1C24;}
	.st4{fill:#333333;}
	.st5{fill:#E2E2E2;}
	.st6{fill:#CCCCCC;}
	.st7{fill:#666666;}
	.st8{fill:#FCF47E;}
	.st9{fill:#B12E36;}
	.st10{fill:#FFFFFF;}
	.st11{fill:#416192;}
	.st12{fill:#941F18;}
	.st13{fill:#3A4E71;}
	.st14{fill:#BCBCBA;}
	.st15{fill:none;stroke:#445D85;stroke-width:3.2828;stroke-linecap:round;stroke-miterlimit:10;}
	.st16{fill:#C2B9BE;}
	.st17{opacity:0.1;}
	.st18{opacity:5.000000e-002;}
	.st19{opacity:0.2;}
	.st20{fill:#A39DA1;}
	.st21{fill:#CFC5CA;}
	.st22{fill:#595959;}
	.st23{fill:#8F8B8E;}
</style>
<g id="XMLID_1_">
	<path id="XMLID_152_" class="st0" d="M1173.8,287H924.5c-31.2,0-56.5-25.3-56.5-56.5V-18.9c0-31.2,25.3-56.5,56.5-56.5h249.4
		c31.2,0,56.5,25.3,56.5,56.5v249.4C1230.3,261.7,1205,287,1173.8,287z"/>
	<g id="XMLID_146_">
		<g>
			<path id="XMLID_198_" class="st1" d="M995.7,164.7c0,2.5-0.6,4.3-1.7,5.4c-1.1,1.1-2.9,1.7-5.4,1.7h-28.8c-2.5,0-4.3-0.6-5.4-1.7
				c-1.1-1.1-1.7-2.9-1.7-5.4v-51.8c0-3.9,0.6-8.4,1.9-13.5c1.2-5.1,3.2-11,5.8-17.8L977.5,37c0.8-2.2,2-3.9,3.6-4.9
				c1.6-1,3.8-1.6,6.4-1.6h52.8c2.5,0,4.5,0.5,6.2,1.6c1.6,1,2.8,2.7,3.6,4.9l17.1,44.5c2.6,6.8,4.5,12.7,5.8,17.8
				c1.2,5.1,1.9,9.6,1.9,13.5v51.8c0,2.5-0.6,4.3-1.7,5.4c-1.1,1.1-2.9,1.7-5.4,1.7h-29.6c-2.6,0-4.5-0.6-5.8-1.7
				c-1.2-1.1-1.9-2.9-1.9-5.4v-27.5h-34.7V164.7z M1052,154.1h2v-41.8c0-3.7-0.3-7-0.9-10.1c-0.6-3.1-1.4-6-2.5-8.9l-13.5-32
				c-1.6-3.8-3.2-6.9-5-9.4c-1.8-2.5-4.8-3.7-9.1-3.7h-19.2c-4.4,0-7.6,1.2-9.4,3.7c-1.8,2.5-3.5,5.6-4.9,9.2l-12.6,32.2
				c-1,2.9-1.9,5.8-2.5,8.9c-0.6,3.1-0.9,6.4-0.9,10.1v41.8h2v-33.7h76.5V154.1z M975.5,112.3c0-3.5,0.3-6.8,0.9-9.8
				c0.6-3,1.3-5.8,2.3-8.4l12.6-32.2c1.3-3.3,2.7-6,4.3-8.3s4.3-3.4,8.2-3.4h19.2c3.7,0,6.3,1.1,7.8,3.4s3.1,5.1,4.5,8.5l13.5,32
				c0.9,2.6,1.7,5.4,2.3,8.4c0.6,3,0.9,6.3,0.9,9.8v6.1h-76.5V112.3z M1006.9,71.7l-9.2,29.8h30.8l-9.2-29.8c-0.5-1.2-1.1-2-1.7-2.5
				c-0.6-0.5-1.3-0.8-2.1-0.8h-4.9c-0.8,0-1.5,0.3-2.1,0.8C1008,69.7,1007.4,70.5,1006.9,71.7z"/>
			<path id="XMLID_195_" class="st1" d="M1160.1,171.7h-62c-1.5,0-2.7-0.3-3.3-1s-1-1.8-1-3.3V88.5c0-1.5,0.3-2.7,1-3.3
				c0.7-0.7,1.8-1,3.3-1h18.9c1.5,0,2.7,0.3,3.3,1c0.7,0.7,1,1.8,1,3.3v60.3h16.7V129c0-1.5,0.3-2.7,1-3.3c0.7-0.7,1.8-1,3.3-1h17.7
				c1.5,0,2.7,0.3,3.3,1c0.7,0.7,1,1.8,1,3.3v38.3c0,1.5-0.3,2.7-1,3.3C1162.7,171.4,1161.6,171.7,1160.1,171.7z M1107,160.8h44.8
				v-25.2h-1.2v24h-42.4V95h-1.2V160.8z"/>
		</g>
	</g>
	<g id="XMLID_139_">
		<path id="XMLID_143_" class="st2" d="M1044.4,253.9h-14.9c-0.4,0-0.7-0.1-0.9-0.3c-0.2-0.2-0.3-0.5-0.3-0.9v-4.1
			c0-0.4,0.1-0.7,0.3-0.9c0.2-0.2,0.5-0.3,0.9-0.3h3.8V236h-3.1c-0.4,0-0.7-0.1-0.9-0.3c-0.2-0.2-0.3-0.5-0.3-0.9v-4.1
			c0-0.4,0.1-0.7,0.3-0.9c0.2-0.2,0.5-0.3,0.9-0.3h9.8c0.4,0,0.7,0.1,0.9,0.3c0.2,0.2,0.3,0.5,0.3,0.9v16.6h3.2
			c0.4,0,0.7,0.1,0.9,0.3c0.2,0.2,0.3,0.5,0.3,0.9v4.1c0,0.4-0.1,0.7-0.3,0.9C1045.2,253.8,1044.9,253.9,1044.4,253.9z M1031.3,251
			h11.3v-0.3h-5.2v-18.1h-5.4v0.3h5.1v17.8h-5.7V251z"/>
		<path id="XMLID_140_" class="st2" d="M1049.8,247.5h8.5c0.5,0,0.9-0.1,1-0.3c0.2-0.2,0.2-0.4,0.2-0.7v-0.9c0-0.3-0.1-0.5-0.2-0.7
			c-0.2-0.2-0.5-0.3-1-0.3h-5.8c-0.4,0-0.7-0.1-0.9-0.3c-0.2-0.2-0.3-0.5-0.3-0.9v-3.6c0-0.4,0.1-0.7,0.3-0.9
			c0.2-0.2,0.5-0.3,0.9-0.3h3.5c0.5,0,0.9-0.1,1-0.3c0.2-0.2,0.2-0.4,0.2-0.7V237c0-0.3-0.1-0.5-0.2-0.7c-0.2-0.2-0.5-0.3-1-0.3
			h-6.3c-0.4,0-0.7-0.1-0.9-0.3c-0.2-0.2-0.3-0.5-0.3-0.9v-4c0-0.4,0.1-0.7,0.3-0.9c0.2-0.2,0.5-0.3,0.9-0.3h9.4
			c1.9,0,3.3,0.4,4.2,1.3c0.9,0.9,1.4,2,1.4,3.5v2c0,0.9-0.1,1.6-0.4,2.2c-0.3,0.6-0.8,1.1-1.6,1.4c1.6,0.2,2.7,0.7,3.3,1.5
			c0.6,0.8,0.9,1.9,0.9,3.4v3.4c0,1.7-0.5,3.1-1.7,4.1c-1.1,1-2.7,1.5-4.9,1.5h-10.7c-0.4,0-0.7-0.1-0.9-0.3
			c-0.2-0.2-0.3-0.5-0.3-0.9v-4c0-0.4,0.1-0.7,0.3-0.9C1049.1,247.6,1049.4,247.5,1049.8,247.5z M1054.4,241.7h5.1
			c1.3,0,2.2,0.3,2.8,0.8c0.6,0.6,0.9,1.4,0.9,2.5v2.3c0,0.9-0.3,1.7-0.8,2.2c-0.5,0.6-1.6,0.8-3.3,0.8h-7.4v0.3h7.4
			c0.9,0,1.7-0.1,2.3-0.3c0.6-0.2,1-0.4,1.3-0.7c0.3-0.3,0.5-0.6,0.6-1.1c0.1-0.4,0.2-0.9,0.2-1.4v-2.3c0-1.2-0.3-2.1-0.9-2.7
			c-0.6-0.6-1.6-0.9-3-0.9h-0.5c1-0.2,1.6-0.7,1.9-1.3c0.2-0.6,0.4-1.2,0.4-1.9v-2.2c0-0.5-0.1-1-0.2-1.4c-0.1-0.4-0.3-0.8-0.6-1.1
			c-0.3-0.3-0.8-0.6-1.4-0.8c-0.6-0.2-1.3-0.3-2.3-0.3h-5.2v0.3h5.2c1.6,0,2.7,0.3,3.3,0.9c0.5,0.6,0.8,1.3,0.8,2.2v2.3
			c0,0.4,0,0.8-0.1,1.2c-0.1,0.4-0.2,0.7-0.5,1c-0.3,0.3-0.6,0.5-1.1,0.7c-0.5,0.2-1.2,0.3-2,0.3h-2.8V241.7z"/>
	</g>
	<path id="XMLID_138_" class="st3" d="M860-164.2c0,5.1-4.2,9.3-9.3,9.3h-2.4c-5.1,0-9.3-4.2-9.3-9.3v-2.4c0-5.1,4.2-9.3,9.3-9.3
		h2.4c5.1,0,9.3,4.2,9.3,9.3V-164.2z"/>
	<path id="XMLID_137_" class="st4" d="M922.9-141.4c0,19,15.4,34.4,34.4,34.4c19,0,34.4-15.4,34.4-34.4s-15.4-34-34.4-34
		C938.3-175.4,922.9-160.4,922.9-141.4z"/>
	<path id="XMLID_136_" class="st5" d="M841-182.9c33.6-19.1,119.7-76.4,201.9-53.9c0,0,17.3,4.1,45,27.1c0,0,151.6-8.5,179.3,37.9
		c0,0-14.8,25-128,30.7c0,0-183.7,1.8-231.4,0.6c0,0-14.7,1.4-34.8-11.1C853-164.2,831.1-177.3,841-182.9z"/>
	<g id="XMLID_134_">
		<path id="XMLID_135_" class="st4" d="M916.5-140.5l81.6,0c0-14.3-7.5-28.5-18.8-35.5h-44.1C924-168.9,916.5-154.8,916.5-140.5z"/>
	</g>
	<circle id="XMLID_133_" class="st6" cx="957.3" cy="-141.4" r="26.2"/>
	<path id="XMLID_132_" class="st7" d="M936.5-141.4c0,11.5,9.4,20.9,20.9,20.9c11.5,0,20.9-9.3,20.9-20.9c0-11.5-9.4-20.9-20.9-20.9
		C945.8-162.3,936.5-153,936.5-141.4z"/>
	<g id="XMLID_127_">
		<path id="XMLID_131_" class="st4" d="M1200.5-147.2c1.4-0.6,6.4-0.7,6.4-1.1c-1.4-17.3-20-33.6-40.2-33.6
			c-22.5,0-40.8,17.9-40.8,40.8l75.2,0.1L1200.5-147.2z"/>
		<path id="XMLID_130_" class="st4" d="M1132.3-140.9c0,19,15.4,34.4,34.4,34.4c19,0,34.4-15.4,34.4-34.4c0-19-15.4-34.4-34.4-34.4
			C1147.7-175.3,1132.3-159.9,1132.3-140.9z"/>
		<circle id="XMLID_129_" class="st6" cx="1166.7" cy="-140.9" r="26.2"/>
		<path id="XMLID_128_" class="st7" d="M1145.8-140.9c0,11.5,9.4,20.9,20.9,20.9c11.5,0,20.9-9.3,20.9-20.9
			c0-11.5-9.3-20.9-20.9-20.9C1155.1-161.8,1145.8-152.5,1145.8-140.9z"/>
	</g>
	<g id="XMLID_124_">
		<path id="XMLID_126_" class="st7" d="M961.2-205.3l-13.3-28.2c-26.2,7.5-50.2,18.8-69.9,29.4C934.9-199.4,961.2-205.3,961.2-205.3
			z"/>
		<path id="XMLID_125_" class="st7" d="M971.6-230.7c0,0,17.1,29.2,38.7,29.2c0,0,51.6,3.4,77.4-8.4c-22.5-18.5-38.1-24.7-43.1-26.3
			C1019.9-235.5,972.3-233.7,971.6-230.7z"/>
	</g>
	<path id="XMLID_123_" class="st4" d="M1017-186.9c0,1.1-0.9,1.9-1.9,1.9h-17.1c-1.1,0-1.9-0.9-1.9-1.9v-2.1c0-1.1,0.9-1.9,1.9-1.9
		h17.1c1.1,0,1.9,0.9,1.9,1.9V-186.9z"/>
	<path id="XMLID_122_" class="st8" d="M1246.8-171c0,4.3-3.4,7.7-7.7,7.7c-4.2,0-7.7-3.4-7.7-7.7c0-4.2,3.4-7.7,7.7-7.7
		C1243.4-178.7,1246.8-175.2,1246.8-171z"/>
	<g id="XMLID_112_">
		<polygon id="XMLID_121_" class="st9" points="1397.6,133.3 1384.2,120.1 1375.3,129.2 1374.8,136.4 1368.6,142.7 1387.5,143.6 		
			"/>
		<path id="XMLID_120_" class="st10" d="M1605.4,75.6C1605.3,75.6,1605.3,75.6,1605.4,75.6C1605.3,75.6,1605.3,75.6,1605.4,75.6
			c-15.2-11.6-80.6,54.4-95.6,70c-2,2.1-4.8,3.2-7.6,3l-46.7-2.1l0,0l-18.9-0.8l-49-2.2l0,0l-18.9-0.8l-57.3-2.5
			c-2.2-0.1-4.3,0.7-5.8,2.3l-15.9,16.2c-1.6,1.6,0.5,4.2,2.4,3l3.4-2.2c0.4-0.3,0.9-0.4,1.4-0.3c61.7,10.7,114.8,24.8,147.7,46.7
			c1.8,1.2,2,3.7,0.5,5.2l-98.1,99.8c-0.7,0.7-1.5,1-2.4,1.1l-16.4,41.2c0,0.4,0,0.8-0.2,1.1l-5.1,8.7l0.1,0.1l1.4-0.8l281.7-285.9
			C1605.8,76.2,1605.6,75.9,1605.4,75.6z"/>
		<path id="XMLID_119_" class="st11" d="M1344,312l-52.5-3.4c-1.5-0.1-3,0.5-4,1.5l-13.6,13.9c-1,1.1-0.7,2.8,0.6,3.5l52.5,24.2
			c0.7,0.3,1,0.9,1.1,1.6l16.4-41.2C1344.3,312,1344.1,312,1344,312z"/>
		<polygon id="XMLID_118_" class="st9" points="1467.8,133.9 1454.4,120.8 1445.5,129.8 1445,137.1 1436.5,145.7 1455.4,146.6 		"/>
		<polygon id="XMLID_117_" class="st12" points="1548.6,307.2 1555.8,306.6 1564.7,297.5 1551.3,284.3 1541.2,294.6 1542.3,313.5 		
			"/>
		<polygon id="XMLID_116_" class="st12" points="1546.7,237 1553.9,236.4 1562.8,227.3 1549.4,214.1 1537.1,226.6 1538.3,245.5 		
			"/>
		<path id="XMLID_115_" class="st13" d="M1373.5,341c0-0.6,0-1.1,0.2-1.6l-41.5,18.3c0.8-0.1,1.6,0.3,2,1.1l25.1,52.1
			c0.6,1.3,2.4,1.6,3.5,0.6l13.6-13.9c1.1-1.1,1.6-2.6,1.5-4.1L1373.5,341z"/>
		<path id="XMLID_114_" class="st14" d="M1605.9,76.5l-281.7,285.9l7.2-4.4c0.2-0.1,0.5-0.2,0.8-0.3l41.5-18.3
			c0.2-0.5,0.5-0.9,0.8-1.3l98.1-99.8c1.5-1.5,4-1.4,5.3,0.4c22.5,32.5,37.4,85.4,49.2,146.9c0.1,0.5,0,1-0.3,1.4l-2.1,3.4
			c-1.2,2,1.4,4,3,2.4l15.9-16.2c1.5-1.5,2.3-3.7,2.2-5.8l-3.5-57.2l0,0l-1.1-18.9l0,0l-3-49l0.1-0.1l-1.1-18.9l-0.1,0.1l-2.9-46.6
			c-0.2-2.9,0.9-5.7,2.9-7.7C1552.1,157.4,1615.1,92.9,1605.9,76.5z"/>
		<path id="XMLID_113_" class="st15" d="M1582.4,89.3c0,0,20.4-9.2,10.4,9"/>
	</g>
	<g id="XMLID_96_">
		<polygon id="XMLID_111_" class="st9" points="698.4,133.3 711.8,120.1 720.7,129.2 721.2,136.4 727.4,142.7 708.5,143.6 		"/>
		<path id="XMLID_109_" class="st10" d="M490.6,75.6C490.7,75.6,490.7,75.6,490.6,75.6C490.7,75.6,490.7,75.6,490.6,75.6
			c15.2-11.6,80.6,54.4,95.6,70c2,2.1,4.8,3.2,7.6,3l46.7-2.1l0,0l18.9-0.8l49-2.2l0,0l18.9-0.8l57.3-2.5c2.2-0.1,4.3,0.7,5.8,2.3
			l15.9,16.2c1.6,1.6-0.5,4.2-2.4,3l-3.4-2.2c-0.4-0.3-0.9-0.4-1.4-0.3c-61.7,10.7-114.8,24.8-147.7,46.7c-1.8,1.2-2,3.7-0.5,5.2
			l98.1,99.8c0.7,0.7,1.5,1,2.4,1.1l16.4,41.2c0,0.4,0,0.8,0.2,1.1l5.1,8.7l-0.1,0.1l-1.4-0.8L490.1,76.5
			C490.2,76.2,490.4,75.9,490.6,75.6z"/>
		<path id="XMLID_106_" class="st11" d="M752,312l52.5-3.4c1.5-0.1,3,0.5,4,1.5l13.6,13.9c1,1.1,0.7,2.8-0.6,3.5l-52.5,24.2
			c-0.7,0.3-1,0.9-1.1,1.6L751.6,312C751.7,312,751.9,312,752,312z"/>
		<polygon id="XMLID_104_" class="st9" points="628.2,133.9 641.6,120.8 650.5,129.8 651,137.1 659.5,145.7 640.6,146.6 		"/>
		<polygon id="XMLID_103_" class="st12" points="547.4,307.2 540.2,306.6 531.3,297.5 544.7,284.3 554.8,294.6 553.7,313.5 		"/>
		<polygon id="XMLID_102_" class="st12" points="549.3,237 542.1,236.4 533.2,227.3 546.6,214.1 558.9,226.6 557.7,245.5 		"/>
		<path id="XMLID_101_" class="st13" d="M722.5,341c0-0.6,0-1.1-0.2-1.6l41.5,18.3c-0.8-0.1-1.6,0.3-2,1.1l-25.1,52.1
			c-0.6,1.3-2.4,1.6-3.5,0.6l-13.6-13.9c-1.1-1.1-1.6-2.6-1.5-4.1L722.5,341z"/>
		<path id="XMLID_98_" class="st14" d="M490.1,76.5l281.7,285.9l-7.2-4.4c-0.2-0.1-0.5-0.2-0.8-0.3l-41.5-18.3
			c-0.2-0.5-0.5-0.9-0.8-1.3l-98.1-99.8c-1.5-1.5-4-1.4-5.3,0.4c-22.5,32.5-37.4,85.4-49.2,146.9c-0.1,0.5,0,1,0.3,1.4l2.1,3.4
			c1.2,2-1.4,4-3,2.4l-15.9-16.2c-1.5-1.5-2.3-3.7-2.2-5.8l3.5-57.2l0,0l1.1-18.9l0,0l3-49l-0.1-0.1l1.1-18.9l0.1,0.1l2.9-46.6
			c0.2-2.9-0.9-5.7-2.9-7.7C543.9,157.4,480.9,92.9,490.1,76.5z"/>
		<path id="XMLID_97_" class="st15" d="M513.6,89.3c0,0-20.4-9.2-10.4,9"/>
	</g>
	<g id="XMLID_88_">
		<g id="XMLID_89_">
			<path id="XMLID_92_" class="st16" d="M1389.9-10.1c-17.6-0.1-30.9,2.9-35.9,6.8c0,0,0,0,0,0c-0.1,0.1-0.1,0.3-0.2,0.4
				c2.3,4.3,4.6,7.5,8.5,11c6.2,1.5,18.5,3.5,26.8,3.8c12.5,0.4,24.6-0.8,32.7-3.3c3.1-2.9,6.1-6,8.4-9.9
				C1425.5-6.2,1409.7-10,1389.9-10.1z"/>
			<path id="XMLID_91_" class="st17" d="M1374.7,5.5c6.6,0.8,13.3,1.6,19.9,1.8c7.4,0.2,15.1-0.3,22.3-2.1c2.7-0.7,5.4-1.6,8-2.6
				c1.1-0.4,2.2-1.1,3.4-1.2c0.6-0.9,1.2-1.7,1.8-2.7c-4.6-4.9-20.4-8.7-40.3-8.8c-17.6-0.1-30.9,2.9-35.9,6.8c0,0,0,0,0,0
				c-0.1,0.1-0.1,0.3-0.2,0.4c0.7,1.3,1.3,2.4,2.1,3.5C1360.8,3.2,1364.2,4.2,1374.7,5.5z"/>
			<path id="XMLID_90_" class="st17" d="M1388.9,10c-7,0-12.5-0.9-19-2c-3.2-0.5-7.2-1.6-10.3-2.5c0.8,0.9,1.7,1.8,2.7,2.7
				c6.2,1.5,18.5,3.5,26.8,3.8c12.5,0.4,24.6-0.8,32.7-3.3c1-1,2-2,3-3C1413.3,9.7,1401.1,10,1388.9,10z"/>
		</g>
	</g>
	<g id="XMLID_79_">
		<path id="XMLID_87_" class="st9" d="M1434.5-100.5c-1.1-6.3-5.8-13.1-5.8-13.1l-37.2,2.3v0.1l-33.5-2.7c0,0-4.6,6.7-5.8,13
			c-1.2,6.3-1.1,92.1-1.1,92.1s0,7.4,9.7,10.8c9.7,3.4,29.7,4.2,29.7,4.2h1.4h6.4c0,0,15.8-0.3,25.5-3.5
			c9.7-3.2,10.1-11.1,10.1-11.1S1435.5-94.2,1434.5-100.5z"/>
		<path id="XMLID_84_" class="st17" d="M1433.8-9c0,0,1.7-85.2,0.6-91.5s-5.8-13.1-5.8-13.1l-37.2,2.3v0.1l-33.5-2.7
			c0,0-4.3,6.3-5.7,12.3c0,0,0,0,0,0h0c0,0.2-0.1,0.4-0.1,0.6c-1.2,6.3-1.1,92.1-1.1,92.1s0,7.5,9.7,10.9c1.4,0.5,3,0.9,4.7,1.3
			c0,0,0-0.1,0-0.1c10.3,2.3,24.9,2.9,24.9,2.9h7.8c0,0,15.8-0.3,25.5-3.5c2.2-0.7,4-1.7,5.3-2.8l0,0c3.3-2.7,4.3-5.9,4.6-7.4
			C1433.7-7.6,1433.8-9,1433.8-9z M1399.8,2.6c-9.1,0-18.3-0.4-27.2-1.8c-2.4-0.4-4.8-0.9-7.2-1.6c-0.5-14.6,0.2-29.3,0-44.2
			c-0.2-12.5-1.1-24.9-1.3-37.4c-0.1-4.4,0.3-8.6,1-12.8c2,0.6,4.1,1,6.2,1.4c8.9,1.8,17.8,2.6,26.9,2c8.6-0.5,17-2.5,25.4-4.6
			c1-0.2,2-0.5,3-0.8c0,0.2,3.9-1.6,3.9-1.4c1.5,13.8,0.2,35.8,0.6,49.7c0.5,17,0,26.6-0.8,43.6C1422.6,0.9,1409.7,2.7,1399.8,2.6z"
			/>
		<path id="XMLID_81_" class="st18" d="M1398-91.6c8.6-0.5,17-2.5,25.4-4.6c3.8-0.9,8.1-2.2,11-4.8c-1.2-6.1-5.7-12.6-5.7-12.6
			l-37.2,2.3v0.1l-33.5-2.7c0,0-4.3,6.3-5.7,12.3c5,4.7,12.1,6.5,18.8,7.9C1380-91.9,1389-91.1,1398-91.6z M1399.8,2.6
			c-9.1,0-18.4-0.4-27.3-1.8c-7.8-1.2-16.5-3.8-21.3-9.8c0,0.1,0,0.1,0,0.1s0,7.4,9.6,10.8c9.6,3.4,29.6,4.2,29.6,4.2h7.8
			c0,0,15.8-0.3,25.5-3.5c9.7-3.2,10.1-11.1,10.1-11.1s0-0.2,0-0.7C1427.1,0.6,1412.5,2.7,1399.8,2.6z"/>
		<path id="XMLID_80_" class="st19" d="M1390.7-101.1c13.9,0.6,28.4-1.8,39.7-10c-0.8-1.5-1.7-2.5-1.7-2.5l-37.2,2.3v0.1l-33.5-2.7
			c0,0-0.6,1-1.6,2.6c0.9,1,2,1.8,3.1,2.6C1368.9-103.5,1381-101.5,1390.7-101.1z"/>
	</g>
	<g id="XMLID_60_">
		<g id="XMLID_73_">
			<path id="XMLID_75_" class="st20" d="M1393.7-130.2c-21.1,0-38.1,5.7-38.1,12.8c0,7.1,17.1,12.8,38.1,12.8s38.1-5.7,38.1-12.8
				C1431.9-124.5,1414.8-130.2,1393.7-130.2z"/>
			<path id="XMLID_74_" class="st17" d="M1393.7-130.2c-21.1,0-38.1,5.7-38.1,12.8c0,3.3,3.6,6.2,9.6,8.5c-0.4-0.6-0.8-1.3-1-2.1
				c-2.6-9.1,19.4-13,26.8-13.3c6.6-0.2,13.7-1,20.2,0c4.4,0.7,10.3,4.1,10.4,7.4c0.2,4.7-2.2,6.7-3.7,9.4
				c4.4-2.1,14.1-7.2,14.1-9.9C1431.9-124.5,1414.8-130.2,1393.7-130.2z"/>
		</g>
		<g id="XMLID_63_">
			<path id="XMLID_64_" class="st21" d="M1393.7-130.2c-21.1,0-38.1,5.7-38.1,12.8c0,7.1,17.1,12.8,38.1,12.8s38.1-5.7,38.1-12.8
				C1431.9-124.5,1414.8-130.2,1393.7-130.2z M1393.7-109.7c-18.6,0-33-2.7-33-8.5c0-5.8,14.6-9.3,33.2-9.3
				c18.7,0,32.7,3.5,32.7,9.3C1426.7-112.4,1412.4-109.7,1393.7-109.7z"/>
		</g>
		<path id="XMLID_62_" class="st22" d="M1405.7-124.3c0,0-6.7,0.1-10.5,1.1c-6.3,1.6,0.1,7.4,6,7.1c5.9-0.3,13.2-3.9,13.2-3.9
			L1405.7-124.3z"/>
	</g>
	<g id="XMLID_53_">
		<path id="XMLID_57_" class="st23" d="M1424.3-144.6c-3.3-2.1-7.8-2.6-11.8,1.2c-4,3.8-4,6.4-4.5,11.9c-0.5,5.5-1.4,6.6-1.4,8.2
			c0,1.6,8.3,4.2,8.6,3.6c0.5-1.2,2.5-5.4,8-10.9C1428.8-136.1,1427.6-142.5,1424.3-144.6z M1420.2-131.8c-1.4,0.8-3,0.7-3,0.7
			s-1,0-1.8-0.3c-0.8-0.3-3.3-1.5-4-3.1c-0.9-2.1,0.1-4.5,1.6-6.2c1.8-2.1,4.8-3.6,7.5-2.7c2.2,0.8,3.6,3.3,3.4,5.7
			C1423.7-135.3,1422.3-133,1420.2-131.8z"/>
		<path id="XMLID_54_" class="st16" d="M1423.4-145.5c-3.3-2.1-7.8-2.6-11.8,1.2c-4,3.8-4,6.4-4.5,11.9c-0.5,5.5-1.4,6.6-1.4,8.2
			c0,1.6,8.2,5.5,8.7,4.3c0.5-1.2,2.3-6.1,7.9-11.6C1427.9-137.1,1426.7-143.4,1423.4-145.5z M1419.3-132.8c-1.4,0.8-3,0.7-3,0.7
			s-1,0-1.8-0.3c-0.8-0.3-3.3-1.5-4-3.1c-0.9-2.1,0.1-4.5,1.6-6.2c1.8-2.1,4.8-3.6,7.5-2.7c2.2,0.8,3.6,3.3,3.4,5.7
			C1422.8-136.2,1421.3-134,1419.3-132.8z"/>
	</g>
	<g id="XMLID_48_">
		<g id="XMLID_49_">
			<path id="XMLID_52_" class="st16" d="M715.9-10.1c17.6-0.1,30.9,2.9,35.9,6.8c0,0,0,0,0,0c0.1,0.1,0.1,0.3,0.2,0.4
				c-2.3,4.3-4.6,7.5-8.5,11c-6.2,1.5-18.5,3.5-26.8,3.8c-12.5,0.4-24.6-0.8-32.7-3.3c-3.1-2.9-6.1-6-8.4-9.9
				C680.2-6.2,696.1-10,715.9-10.1z"/>
			<path id="XMLID_51_" class="st17" d="M731.1,5.5c-6.6,0.8-13.3,1.6-19.9,1.8c-7.4,0.2-15.1-0.3-22.3-2.1c-2.7-0.7-5.4-1.6-8-2.6
				c-1.1-0.4-2.2-1.1-3.4-1.2c-0.6-0.9-1.2-1.7-1.8-2.7c4.6-4.9,20.4-8.7,40.3-8.8c17.6-0.1,30.9,2.9,35.9,6.8c0,0,0,0,0,0
				c0.1,0.1,0.1,0.3,0.2,0.4c-0.7,1.3-1.3,2.4-2.1,3.5C745,3.2,741.5,4.2,731.1,5.5z"/>
			<path id="XMLID_50_" class="st17" d="M716.9,10c7,0,12.5-0.9,19-2c3.2-0.5,7.2-1.6,10.3-2.5c-0.8,0.9-1.7,1.8-2.7,2.7
				c-6.2,1.5-18.5,3.5-26.8,3.8c-12.5,0.4-24.6-0.8-32.7-3.3c-1-1-2-2-3-3C692.4,9.7,704.6,10,716.9,10z"/>
		</g>
	</g>
	<g id="XMLID_39_">
		<path id="XMLID_47_" class="st9" d="M671.3-100.5c1.1-6.3,5.8-13.1,5.8-13.1l37.2,2.3v0.1l33.5-2.7c0,0,4.6,6.7,5.8,13
			c1.2,6.3,1.1,92.1,1.1,92.1s0,7.4-9.7,10.8c-9.7,3.4-29.7,4.2-29.7,4.2h-1.4h-6.4c0,0-15.8-0.3-25.5-3.5
			c-9.7-3.2-10.1-11.1-10.1-11.1S670.2-94.2,671.3-100.5z"/>
		<path id="XMLID_44_" class="st17" d="M672-7.6c0.3,1.5,1.3,4.7,4.6,7.4l0,0c1.4,1.1,3.1,2,5.3,2.8c9.7,3.2,25.5,3.5,25.5,3.5h7.8
			c0,0,14.7-0.6,24.9-2.9c0,0,0,0.1,0,0.1c1.7-0.4,3.3-0.8,4.7-1.3c9.6-3.4,9.7-10.9,9.7-10.9s0-85.8-1.1-92.1
			c0-0.2-0.1-0.4-0.1-0.6h0c0,0,0,0,0,0c-1.4-6.1-5.7-12.3-5.7-12.3l-33.5,2.7v-0.1l-37.2-2.3c0,0-4.7,6.8-5.8,13.1
			c-1.1,6.3,0.6,91.5,0.6,91.5C671.9-9,672-7.6,672-7.6z M675.6-5.1c-0.7-17-1.2-26.6-0.8-43.6c0.4-13.8-0.9-35.9,0.6-49.7
			c0-0.2,3.9,1.6,3.9,1.4c1,0.3,2,0.6,3,0.8c8.4,2.1,16.7,4,25.4,4.6c9.1,0.6,18-0.3,26.9-2c2.1-0.4,4.1-0.9,6.2-1.4
			c0.6,4.2,1,8.4,1,12.8c-0.2,12.5-1.1,24.9-1.3,37.4c-0.3,14.8,0.5,29.5,0,44.2c-2.4,0.7-4.9,1.2-7.2,1.6c-9,1.4-18.2,1.8-27.2,1.8
			C696.1,2.7,683.2,0.9,675.6-5.1z"/>
		<path id="XMLID_41_" class="st18" d="M734.6-93.7c6.7-1.3,13.8-3.1,18.8-7.9c-1.4-6.1-5.7-12.3-5.7-12.3l-33.5,2.7v-0.1l-37.2-2.3
			c0,0-4.5,6.5-5.7,12.6c2.9,2.6,7.2,3.8,11,4.8c8.4,2.1,16.7,4,25.4,4.6C716.8-91.1,725.8-91.9,734.6-93.7z M671.9-9.2
			c0,0.5,0,0.7,0,0.7s0.4,7.9,10.1,11.1c9.7,3.2,25.5,3.5,25.5,3.5h7.8c0,0,20-0.8,29.6-4.2c9.6-3.4,9.6-10.8,9.6-10.8s0,0,0-0.1
			c-4.8,6-13.5,8.5-21.3,9.8c-9,1.4-18.3,1.8-27.3,1.8C693.3,2.7,678.7,0.6,671.9-9.2z"/>
		<path id="XMLID_40_" class="st19" d="M715.1-101.1c-13.9,0.6-28.4-1.8-39.7-10c0.8-1.5,1.7-2.5,1.7-2.5l37.2,2.3v0.1l33.5-2.7
			c0,0,0.6,1,1.6,2.6c-0.9,1-2,1.8-3.1,2.6C736.9-103.5,724.8-101.5,715.1-101.1z"/>
	</g>
	<g id="XMLID_29_">
		<g id="XMLID_35_">
			<path id="XMLID_37_" class="st20" d="M673.9-117.4c0,7.1,17.1,12.8,38.1,12.8c21.1,0,38.1-5.7,38.1-12.8
				c0-7.1-17.1-12.8-38.1-12.8C691-130.2,673.9-124.5,673.9-117.4z"/>
			<path id="XMLID_36_" class="st17" d="M712-130.2c21.1,0,38.1,5.7,38.1,12.8c0,3.3-3.6,6.2-9.6,8.5c0.4-0.6,0.8-1.3,1-2.1
				c2.6-9.1-19.4-13-26.8-13.3c-6.6-0.2-13.7-1-20.2,0c-4.4,0.7-10.3,4.1-10.4,7.4c-0.2,4.7,2.2,6.7,3.7,9.4
				c-4.4-2.1-14.1-7.2-14.1-9.9C673.9-124.5,691-130.2,712-130.2z"/>
		</g>
		<g id="XMLID_31_">
			<path id="XMLID_32_" class="st21" d="M673.9-117.4c0,7.1,17.1,12.8,38.1,12.8c21.1,0,38.1-5.7,38.1-12.8
				c0-7.1-17.1-12.8-38.1-12.8C691-130.2,673.9-124.5,673.9-117.4z M679.1-118.3c0-5.8,14-9.3,32.7-9.3c18.7,0,33.2,3.5,33.2,9.3
				c0,5.8-14.3,8.5-33,8.5C693.4-109.7,679.1-112.4,679.1-118.3z"/>
		</g>
		<path id="XMLID_30_" class="st22" d="M700-124.3c0,0,6.7,0.1,10.5,1.1c6.3,1.6-0.1,7.4-6,7.1c-5.9-0.3-13.2-3.9-13.2-3.9
			L700-124.3z"/>
	</g>
	<g id="XMLID_22_">
		<path id="XMLID_26_" class="st23" d="M682.5-130.6c5.6,5.5,7.5,9.7,8,10.9c0.2,0.6,8.6-2.1,8.6-3.6c0-1.6-0.9-2.7-1.4-8.2
			c-0.5-5.5-0.5-8.1-4.5-11.9c-4-3.8-8.5-3.3-11.8-1.2C678.1-142.5,676.9-136.1,682.5-130.6z M681.9-137.7c-0.2-2.4,1.2-4.9,3.4-5.7
			c2.6-1,5.6,0.5,7.5,2.7c1.5,1.7,2.5,4.2,1.6,6.2c-0.7,1.6-3.2,2.8-4,3.1c-0.8,0.3-1.8,0.3-1.8,0.3s-1.7,0.1-3-0.7
			C683.5-133,682-135.3,681.9-137.7z"/>
		<path id="XMLID_23_" class="st16" d="M683.4-131.5c5.6,5.5,7.3,10.4,7.9,11.6c0.5,1.2,8.7-2.8,8.7-4.3c0-1.6-0.9-2.7-1.4-8.2
			c-0.5-5.5-0.5-8.1-4.5-11.9c-4-3.8-8.5-3.3-11.8-1.2C679.1-143.4,677.9-137.1,683.4-131.5z M682.8-138.6c-0.2-2.4,1.2-4.9,3.4-5.7
			c2.6-1,5.6,0.5,7.5,2.7c1.5,1.7,2.5,4.2,1.6,6.2c-0.7,1.6-3.2,2.8-4,3.1c-0.8,0.3-1.8,0.3-1.8,0.3s-1.7,0.1-3-0.7
			C684.4-134,683-136.2,682.8-138.6z"/>
	</g>
</g>
</svg>
