<?xml version="1.0" encoding="utf-8"?>
<!-- Generator: Adobe Illustrator 19.0.0, SVG Export Plug-In . SVG Version: 6.00 Build 0)  -->
<svg version="1.1" id="Layer_1" xmlns="http://www.w3.org/2000/svg" xmlns:xlink="http://www.w3.org/1999/xlink" x="0px" y="0px"
	 viewBox="-49 15.6 140.5 140.5" style="enable-background:new -49 15.6 140.5 140.5;" xml:space="preserve">
<style type="text/css">
	.st0{fill:#FFFFFF;}
	.st1{fill:#D66B6B;}
	.st2{fill:none;stroke:#F9F9F9;stroke-width:11.9222;stroke-miterlimit:10;}
</style>
<g id="XMLID_1348_">
	<circle id="XMLID_1355_" class="st0" cx="21.3" cy="85.8" r="70.3"/>
	<g id="XMLID_1349_">
		<g id="XMLID_1352_">
			<path id="XMLID_1353_" class="st1" d="M22.4,125.8c-13.2,0-26-3.6-37.2-10.5c-10.8-6.6-19.7-16.1-25.7-27.3l-1.3-2.5l1.3-2.5
				c6-11.2,14.9-20.7,25.7-27.3c11.2-6.8,24-10.5,37.2-10.5c13.2,0,26,3.6,37.2,10.5C70.4,62.3,79.3,71.7,85.2,83l1.3,2.5L85.2,88
				c-6,11.2-14.9,20.7-25.7,27.3C48.4,122.2,35.5,125.8,22.4,125.8z"/>
		</g>
		<circle id="XMLID_1351_" class="st2" cx="22.4" cy="85.5" r="27.9"/>
		<circle id="XMLID_1350_" class="st0" cx="10" cy="71.5" r="12.7"/>
	</g>
</g>
</svg>
