<?xml version="1.0" encoding="utf-8"?>
<!-- Generator: Adobe Illustrator 19.0.0, SVG Export Plug-In . SVG Version: 6.00 Build 0)  -->
<svg version="1.1" id="Layer_1" xmlns="http://www.w3.org/2000/svg" xmlns:xlink="http://www.w3.org/1999/xlink" x="0px" y="0px"
	 viewBox="-49 15.6 140.5 140.5" style="enable-background:new -49 15.6 140.5 140.5;" xml:space="preserve">
<style type="text/css">
	.st0{fill:#FFFFFF;}
	.st1{fill:#D66B6B;}
</style>
<g id="XMLID_1319_">
	<g id="XMLID_1321_">
		<g id="XMLID_1322_">
			<circle id="XMLID_1323_" class="st0" cx="21.3" cy="85.7" r="70.1"/>
		</g>
	</g>
	<g>
		<path class="st1" d="M-7.3,67.2c0-3.7,1.2-7.5,3.6-11.4c2.4-3.8,5.9-7,10.5-9.5c4.6-2.5,10-3.8,16.1-3.8c5.7,0,10.7,1.1,15.1,3.2
			c4.4,2.1,7.7,5,10.1,8.6c2.4,3.6,3.6,7.6,3.6,11.8c0,3.3-0.7,6.3-2,8.8c-1.4,2.5-3,4.7-4.8,6.5c-1.9,1.8-5.2,4.9-10.1,9.2
			c-1.3,1.2-2.4,2.3-3.2,3.2c-0.8,0.9-1.4,1.8-1.8,2.5c-0.4,0.8-0.7,1.5-0.9,2.3c-0.2,0.8-0.5,2.1-1,4c-0.7,4.1-3.1,6.1-7,6.1
			c-2,0-3.8-0.7-5.2-2c-1.4-1.3-2.1-3.3-2.1-6c0-3.3,0.5-6.2,1.5-8.6c1-2.4,2.4-4.5,4.1-6.4c1.7-1.8,4-4,6.9-6.5
			c2.5-2.2,4.3-3.9,5.5-5s2.1-2.4,2.8-3.8c0.8-1.4,1.2-2.9,1.2-4.5c0-3.1-1.2-5.8-3.5-8c-2.3-2.2-5.4-3.2-9.1-3.2
			c-4.3,0-7.5,1.1-9.6,3.3c-2,2.2-3.8,5.4-5.2,9.7c-1.3,4.4-3.9,6.7-7.6,6.7c-2.2,0-4.1-0.8-5.6-2.3C-6.6,70.7-7.3,69-7.3,67.2z
			 M21.5,131.9c-2.4,0-4.5-0.8-6.3-2.3c-1.8-1.6-2.7-3.7-2.7-6.5c0-2.5,0.9-4.6,2.6-6.3c1.7-1.7,3.9-2.5,6.4-2.5
			c2.5,0,4.6,0.8,6.3,2.5c1.7,1.7,2.5,3.8,2.5,6.3c0,2.8-0.9,4.9-2.7,6.5S23.8,131.9,21.5,131.9z"/>
	</g>
</g>
</svg>
