<?xml version="1.0" encoding="utf-8"?>
<!-- Generator: Adobe Illustrator 19.0.0, SVG Export Plug-In . SVG Version: 6.00 Build 0)  -->
<svg version="1.1" id="Layer_1" xmlns="http://www.w3.org/2000/svg" xmlns:xlink="http://www.w3.org/1999/xlink" x="0px" y="0px"
	 viewBox="-49 15.6 140.5 140.5" style="enable-background:new -49 15.6 140.5 140.5;" xml:space="preserve">
<style type="text/css">
	.st0{fill:#FFFFFF;}
	.st1{fill:#D66B6B;}
	.st2{fill:#594A42;}
	.st3{fill:#FDDBBB;}
	.st4{fill:#EB7D86;}
</style>
<g id="XMLID_1328_">
	<g id="XMLID_1341_">
		<circle id="XMLID_1342_" class="st0" cx="21.3" cy="85.8" r="70.3"/>
	</g>
	<g id="XMLID_1329_">
		<g id="XMLID_1339_">
			<path id="XMLID_1340_" class="st1" d="M-34.1,96c-10.9-10.9-10.9-28.7,0-39.6c10.9-10.9,28.7-10.9,39.6,0
				c9.5,9.5,10.8,24.1,3.7,35l3.8,12.1L0.9,99.7C-10,106.7-24.6,105.5-34.1,96z"/>
		</g>
		<g id="XMLID_1330_">
			<g id="XMLID_1332_">
				<g id="XMLID_1333_">
					<path id="XMLID_1338_" class="st2" d="M26.4,97.6c0,0-2.1,14.7-6.8,21.3c0,0,12.4,2.4,22.5,0.4c9.9-1.9,9.8-1.5,9.8-1.5
						L26.4,97.6z"/>
					<path id="XMLID_1337_" class="st3" d="M24.3,90.8c-2,16.3,7.7,30.9,22.4,32.7c14.7,1.8,28.9-9.9,30.9-26.2
						c2-16.3-8.3-31.1-23-32.8C32.1,61.8,26.3,74.4,24.3,90.8z"/>
					<path id="XMLID_1336_" class="st2" d="M51.6,96.8c-0.2,2.3,0.5,3.6,1.5,3.7c1,0.1,1.9-1.1,2-3.4c0.2-2.3-0.5-3.6-1.5-3.7
						C52.6,93.3,51.8,94.5,51.6,96.8z"/>
					<path id="XMLID_1335_" class="st2" d="M29,93.8c-0.2,2.3,0.5,3.6,1.5,3.7c1,0.1,1.9-1.1,2-3.4c0.2-2.3-0.5-3.6-1.5-3.7
						C30.1,90.3,29.2,91.5,29,93.8z"/>
					<path id="XMLID_1334_" class="st2" d="M66.5,94.6l0.7-7.8c0,0-24.5,1.5-44.1-5.6C26,67.6,40.4,57,54.8,58.8
						C89.2,63,86,96,75.2,121.3c-10.2,2.9-18.3,2.5-18.3,2.5c5.9-8.5,9-24.3,9-24.3s5.2,2.7,5.5-2.8C71.6,93,66.5,94.6,66.5,94.6z"
						/>
				</g>
			</g>
			<path id="XMLID_1331_" class="st4" d="M35.9,107.6c-0.3,3.5,2.3,6.5,5.7,6.8c3.5,0.3,6.5-2.3,6.8-5.7L35.9,107.6z"/>
		</g>
	</g>
</g>
</svg>
