<?xml version="1.0" encoding="utf-8"?>
<!-- Generator: Adobe Illustrator 19.0.0, SVG Export Plug-In . SVG Version: 6.00 Build 0)  -->
<svg version="1.1" id="Layer_1" xmlns="http://www.w3.org/2000/svg" xmlns:xlink="http://www.w3.org/1999/xlink" x="0px" y="0px"
	 viewBox="-57.6 26.8 117.5 117.5" style="enable-background:new -57.6 26.8 117.5 117.5;" xml:space="preserve">
<style type="text/css">
	.st0{fill:#FFFFFF;}
	.st1{fill:none;stroke:#60605F;stroke-width:2.922;stroke-miterlimit:10;}
	.st2{fill:#60605F;}
	.st3{fill:none;stroke:#60605F;stroke-width:1.6807;stroke-miterlimit:10;}
	.st4{fill:none;stroke:#B2B2B2;stroke-width:2.5579;stroke-miterlimit:10;}
	.st5{fill:#96C246;}
	.st6{fill:#B2B2B2;}
</style>
<g>
	<g id="XMLID_3313_">
		<circle id="XMLID_3314_" class="st0" cx="1.1" cy="85.6" r="58.8"/>
	</g>
	<g id="XMLID_2613_">
		<path id="XMLID_5497_" class="st1" d="M32.7,105.8h-55c-2.7,0-5-2.2-5-5V71.1c0-2.7,2.2-5,5-5h55c2.7,0,5,2.2,5,5v29.7
			C37.7,103.5,35.5,105.8,32.7,105.8z"/>
		<path id="XMLID_5498_" class="st2" d="M32.7,105.8h-55c-2.7,0-5-2.2-5-5V71.1c0-2.7,2.2-5,5-5h55c2.7,0,5,2.2,5,5v29.7
			C37.7,103.5,35.5,105.8,32.7,105.8"/>
		<path id="XMLID_5496_" class="st2" d="M-27.8,90.5h-1.5c-0.7,0-1.3-0.6-1.3-1.3v-8.6c0-0.7,0.6-1.3,1.3-1.3h1.5
			c0.7,0,1.3,0.6,1.3,1.3v8.6C-26.5,89.9-27.1,90.5-27.8,90.5"/>
		<path id="XMLID_5493_" class="st3" d="M-27.8,90.5h-1.5c-0.7,0-1.3-0.6-1.3-1.3v-8.6c0-0.7,0.6-1.3,1.3-1.3h1.5
			c0.7,0,1.3,0.6,1.3,1.3v8.6C-26.5,89.9-27.1,90.5-27.8,90.5z"/>
		<path id="XMLID_3218_" class="st0" d="M32.7,102.2h-55c-2.7,0-5-2.2-5-5V67.5c0-2.7,2.2-5,5-5h55c2.7,0,5,2.2,5,5v29.7
			C37.7,99.9,35.5,102.2,32.7,102.2"/>
		<path id="XMLID_3216_" class="st4" d="M32.7,102.2h-55c-2.7,0-5-2.2-5-5V67.5c0-2.7,2.2-5,5-5h55c2.7,0,5,2.2,5,5v29.7
			C37.7,99.9,35.5,102.2,32.7,102.2z"/>
		<path id="XMLID_3215_" class="st5" d="M28.8,98.2h-47.1c-2.3,0-4.1-1.8-4.1-4.1V70.7c0-2.3,1.8-4.1,4.1-4.1h47.1
			c2.3,0,4.1,1.8,4.1,4.1v23.4C32.9,96.3,31,98.2,28.8,98.2"/>
		<path id="XMLID_3212_" class="st6" d="M-27.9,86.9H-30c-0.8,0-1.4-0.6-1.4-1.4v-8.3c0-0.8,0.6-1.4,1.4-1.4h2.1
			c0.8,0,1.4,0.6,1.4,1.4v8.3C-26.5,86.3-27.2,86.9-27.9,86.9"/>
	</g>
	<polygon id="XMLID_953_" class="st0" points="11.3,70 -2.3,83.5 4.1,83.5 -1.2,93.8 12.8,80.2 6.7,80.2 	"/>
</g>
</svg>
