<?xml version="1.0" encoding="utf-8"?>
<!-- Generator: Adobe Illustrator 19.0.0, SVG Export Plug-In . SVG Version: 6.00 Build 0)  -->
<svg version="1.1" id="Layer_1" xmlns="http://www.w3.org/2000/svg" xmlns:xlink="http://www.w3.org/1999/xlink" x="0px" y="0px"
	 viewBox="-57.6 26.8 117.5 117.5" style="enable-background:new -57.6 26.8 117.5 117.5;" xml:space="preserve">
<style type="text/css">
	.st0{fill:#FFFFFF;}
	.st1{fill:#2EA5A9;}
	.st2{fill:#00CDFC;}
	.st3{opacity:0.5;}
	.st4{fill:#ADD7D9;}
	.st5{opacity:0.6;fill:#FFFFFF;}
	.st6{fill:#ED1C24;}
	.st7{fill:#A5A5A5;}
	.st8{fill:#333333;}
	.st9{fill:#CCCCCC;}
	.st10{fill:#666666;}
	.st11{fill:#FCF47E;}
</style>
<g>
	<g id="XMLID_1243_">
		<circle id="XMLID_1244_" class="st0" cx="1.1" cy="85.6" r="58.8"/>
	</g>
	<g id="XMLID_1236_">
		<g id="XMLID_3627_">
			<path id="XMLID_1210_" class="st1" d="M23.4,107.6c-0.1,0.1-0.1,0.2-0.2,0.3C23.3,107.8,23.4,107.7,23.4,107.6z"/>
			<path id="XMLID_3629_" class="st2" d="M23,108.4c0-0.1,0.1-0.2,0.1-0.3c0,0,0-0.1,0-0.1c0,0,0-0.1,0-0.1c0,0,0,0,0-0.1
				c0,0,0,0,0,0c0.1-0.1,0.1-0.2,0.2-0.3c0,0,0,0,0,0c0,0,0,0,0,0c0,0,0,0,0-0.1c0.1-0.2,0.2-0.3,0.2-0.5c0.1-0.1,0.1-0.3,0.2-0.4
				c0.1-0.2,0.2-0.3,0.2-0.5c0.1-0.1,0.1-0.3,0.2-0.4c0.1-0.2,0.1-0.3,0.2-0.5c0.1-0.1,0.1-0.3,0.2-0.4c0.1-0.2,0.1-0.3,0.2-0.5
				c0.1-0.2,0.1-0.3,0.2-0.5c0.1-0.2,0.1-0.3,0.2-0.5c0.1-0.2,0.1-0.3,0.2-0.5c0.1-0.2,0.1-0.3,0.2-0.5c0-0.2,0.1-0.3,0.1-0.5
				c0-0.2,0.1-0.3,0.1-0.5c0-0.2,0.1-0.3,0.1-0.5c0-0.2,0.1-0.3,0.1-0.5c0-0.2,0.1-0.3,0.1-0.5c0-0.2,0.1-0.3,0.1-0.5
				c0-0.2,0.1-0.4,0.1-0.5c0-0.2,0.1-0.3,0.1-0.5c0-0.2,0.1-0.4,0.1-0.6c0-0.2,0.1-0.3,0.1-0.5c0-0.2,0-0.4,0.1-0.6
				c0-0.2,0-0.3,0.1-0.5c0-0.2,0-0.4,0.1-0.6c0-0.2,0-0.3,0-0.5c0-0.2,0-0.5,0-0.7c0-0.1,0-0.3,0-0.4c0-0.4,0-0.7,0-1.1
				c0-0.6,0-1.1,0-1.7l0,0c0-0.8-0.1-1.7-0.2-2.5l0,0C24,66.1,1.1,46.1,1.1,46.1s-25.8,22.2-25.8,46.5c0,0,0,0,0,0c0,1,0,2,0.1,3
				l0,0c0,0.2,0,0.5,0.1,0.7c0,0,0,0,0,0c0,0.2,0.1,0.5,0.1,0.7c0,0.1,0,0.1,0,0.2c0,0.1,0,0.3,0.1,0.4c0,0.1,0,0.2,0.1,0.3
				c0,0.1,0,0.1,0,0.2c0.9,5.3,3,10.1,6,14c0.1,0.1,0.1,0.1,0.2,0.2c0.1,0.1,0.1,0.2,0.2,0.2c0.1,0.1,0.2,0.2,0.3,0.3
				c0,0,0.1,0.1,0.1,0.1c0.1,0.2,0.3,0.3,0.4,0.5c0,0,0,0,0,0c0.1,0.2,0.3,0.3,0.4,0.5c0,0,0,0,0,0c0.8,0.9,1.7,1.8,2.7,2.6
				c0,0,0.1,0.1,0.1,0.1c0,0,0,0,0,0c2.7,2.2,5.8,3.8,9.2,4.7c0,0,0,0,0.1,0c7.8,2.1,15.7-0.3,21.6-5.5l0,0c0.9-0.8,1.8-1.7,2.6-2.7
				c0.1-0.1,0.1-0.1,0.2-0.2c0-0.1,0.1-0.1,0.1-0.2c0.1-0.1,0.2-0.2,0.3-0.3c0-0.1,0.1-0.1,0.1-0.2c0.1-0.1,0.2-0.2,0.3-0.4
				c0,0,0.1-0.1,0.1-0.1c0.1-0.1,0.2-0.3,0.3-0.4c0,0,0.1-0.1,0.1-0.1c0.1-0.1,0.2-0.3,0.3-0.4c0,0,0.1-0.1,0.1-0.1
				c0.1-0.1,0.2-0.3,0.3-0.4c0,0,0.1-0.1,0.1-0.1c0.1-0.1,0.2-0.3,0.2-0.4c0-0.1,0.1-0.1,0.1-0.2c0,0,0,0,0,0
				c0.1-0.2,0.2-0.4,0.3-0.6c0,0,0,0,0-0.1c0.1-0.2,0.2-0.4,0.3-0.6c0,0,0,0,0,0C22.9,108.6,23,108.5,23,108.4z M23.7,107
				C23.7,107,23.7,107,23.7,107C23.7,107,23.7,107.1,23.7,107C23.7,107.1,23.7,107,23.7,107z"/>
		</g>
		<g id="XMLID_1282_" class="st3">
			<path id="XMLID_1059_" class="st4" d="M23.4,107.6c-0.1,0.1-0.1,0.2-0.2,0.3C23.3,107.8,23.4,107.7,23.4,107.6z"/>
			<path id="XMLID_2624_" class="st4" d="M23,108.4c0-0.1,0.1-0.2,0.1-0.3c0,0,0-0.1,0-0.1c0,0,0-0.1,0-0.1c0,0,0,0,0-0.1
				c0,0,0,0,0,0c0.1-0.1,0.1-0.2,0.2-0.3c0,0,0,0,0,0c0,0,0,0,0,0c0,0,0,0,0-0.1c0.1-0.2,0.2-0.3,0.2-0.5c0.1-0.1,0.1-0.3,0.2-0.4
				c0.1-0.2,0.2-0.3,0.2-0.5c0.1-0.1,0.1-0.3,0.2-0.4c0.1-0.2,0.1-0.3,0.2-0.5c0.1-0.1,0.1-0.3,0.2-0.4c0.1-0.2,0.1-0.3,0.2-0.5
				c0.1-0.2,0.1-0.3,0.2-0.5c0.1-0.2,0.1-0.3,0.2-0.5c0.1-0.2,0.1-0.3,0.2-0.5c0.1-0.2,0.1-0.3,0.2-0.5c0-0.2,0.1-0.3,0.1-0.5
				c0-0.2,0.1-0.3,0.1-0.5c0-0.2,0.1-0.3,0.1-0.5c0-0.2,0.1-0.3,0.1-0.5c0-0.2,0.1-0.3,0.1-0.5c0-0.2,0.1-0.3,0.1-0.5
				c0-0.2,0.1-0.4,0.1-0.5c0-0.2,0.1-0.3,0.1-0.5c0-0.2,0.1-0.4,0.1-0.6c0-0.2,0.1-0.3,0.1-0.5c0-0.2,0-0.4,0.1-0.6
				c0-0.2,0-0.3,0.1-0.5c0-0.2,0-0.4,0.1-0.6c0-0.2,0-0.3,0-0.5c0-0.2,0-0.5,0-0.7c0-0.1,0-0.3,0-0.4c0-0.4,0-0.7,0-1.1
				c0-0.6,0-1.1,0-1.7l0,0c0-0.8-0.1-1.7-0.2-2.5l0,0c-0.5-3.8-1.5-7.6-2.9-11.4c0.1,1,0.1,1.9,0.1,2.9c0,1,0,2-0.1,2.9
				c-0.2,2.2-0.5,4.5-1,6.6c-0.2,0.6-0.3,1.3-0.5,1.9c-1.5,5.2-3.9,9.9-7.2,13.9c-0.2,0.2-0.4,0.5-0.6,0.7
				c-6,6.9-14.2,10.8-22.7,10.8c-2.1,0-4.2-0.2-6.3-0.7c0.2,0.2,0.4,0.4,0.6,0.5c0,0,0.1,0.1,0.1,0.1c0,0,0,0,0,0
				c2.7,2.2,5.8,3.8,9.2,4.7c0,0,0,0,0.1,0c7.8,2.1,15.7-0.3,21.6-5.5l0,0c0.9-0.8,1.8-1.7,2.6-2.7c0.1-0.1,0.1-0.1,0.2-0.2
				c0-0.1,0.1-0.1,0.1-0.2c0.1-0.1,0.2-0.2,0.3-0.3c0-0.1,0.1-0.1,0.1-0.2c0.1-0.1,0.2-0.2,0.3-0.4c0,0,0.1-0.1,0.1-0.1
				c0.1-0.1,0.2-0.3,0.3-0.4c0,0,0.1-0.1,0.1-0.1c0.1-0.1,0.2-0.3,0.3-0.4c0,0,0.1-0.1,0.1-0.1c0.1-0.1,0.2-0.3,0.3-0.4
				c0,0,0.1-0.1,0.1-0.1c0.1-0.1,0.2-0.3,0.2-0.4c0-0.1,0.1-0.1,0.1-0.2c0,0,0,0,0,0c0.1-0.2,0.2-0.4,0.3-0.6c0,0,0,0,0-0.1
				c0.1-0.2,0.2-0.4,0.3-0.6c0,0,0,0,0,0C22.9,108.6,23,108.5,23,108.4z M23.7,107C23.7,107,23.7,107,23.7,107
				C23.7,107,23.7,107.1,23.7,107C23.7,107.1,23.7,107,23.7,107z"/>
		</g>
		<path id="XMLID_803_" class="st5" d="M-1.2,53.9c0,0-0.5,0.8-1.3,2.1c-0.8,1.3-2,3.3-3.4,5.6C-6.6,62.8-7.3,64-8,65.4
			c-0.7,1.3-1.5,2.8-2.2,4.3c-0.4,0.8-0.7,1.5-1.1,2.3c-0.2,0.4-0.4,0.8-0.5,1.2c-0.2,0.4-0.3,0.8-0.5,1.2c-0.7,1.6-1.3,3.3-1.9,4.9
			c-0.6,1.7-1.1,3.4-1.5,5.1c-0.1,0.4-0.2,0.8-0.3,1.3c-0.1,0.4-0.2,0.8-0.3,1.3c-0.1,0.4-0.2,0.8-0.2,1.3c-0.1,0.4-0.1,0.8-0.2,1.2
			c-0.3,1.6-0.4,3.3-0.5,4.8c0,0.8-0.1,1.5-0.1,2.3c0,0.4,0,0.7,0,1.1c0,0.4,0,0.7,0,1c0.1,1.4,0.2,2.6,0.3,3.7
			c0.1,0.6,0.1,1.1,0.2,1.6c0.1,0.5,0.1,0.9,0.2,1.3c0.1,0.4,0.1,0.8,0.2,1.1c0.1,0.3,0.1,0.6,0.2,0.8c0.1,0.4,0.1,0.7,0.1,0.7
			s-0.1-0.2-0.3-0.6c-0.1-0.2-0.2-0.4-0.4-0.7c-0.1-0.3-0.3-0.6-0.5-1c-0.2-0.4-0.4-0.8-0.6-1.2c-0.1-0.2-0.2-0.5-0.3-0.7
			c-0.1-0.3-0.2-0.5-0.3-0.8c-0.4-1.1-0.8-2.4-1.1-3.8c-0.3-1.4-0.5-3-0.7-4.7c-0.1-1.7-0.1-3.5,0-5.3c0-0.5,0.1-0.9,0.1-1.4
			c0.1-0.5,0.1-0.9,0.2-1.4c0.1-0.5,0.1-0.9,0.2-1.4c0.1-0.5,0.2-0.9,0.3-1.4c0.4-1.9,0.9-3.8,1.6-5.6c0.6-1.8,1.4-3.6,2.2-5.3
			c0.4-0.8,0.8-1.7,1.3-2.5c0.2-0.4,0.4-0.8,0.7-1.2c0.2-0.4,0.4-0.8,0.7-1.1c0.9-1.5,1.8-2.9,2.8-4.1c0.9-1.3,1.9-2.4,2.7-3.4
			c0.9-1,1.7-1.9,2.5-2.7c0.8-0.8,1.5-1.4,2-1.9C-1.9,54.4-1.2,53.9-1.2,53.9z"/>
	</g>
</g>
<g>
	<g id="XMLID_1247_">
		<circle id="XMLID_1248_" class="st0" cx="1.1" cy="85.6" r="58.8"/>
	</g>
	<g id="XMLID_6444_">
		<path id="XMLID_6441_" class="st6" d="M-43,88.9c0,1.2-1,2.2-2.2,2.2h-0.6c-1.2,0-2.2-1-2.2-2.2v-0.6c0-1.2,1-2.2,2.2-2.2h0.6
			c1.2,0,2.2,1,2.2,2.2V88.9z"/>
		<path id="XMLID_6440_" class="st7" d="M-48.9,83.5c7.9-4.5,28.3-18,47.7-12.7c0,0,4.1,1,10.6,6.4c0,0,35.8-2,42.4,9
			c0,0-3.5,5.9-30.3,7.3c0,0-43.4,0.4-54.7,0.1c0,0-3.5,0.3-8.2-2.6C-46.1,88-51.3,84.9-48.9,83.5z"/>
		<g id="XMLID_6408_">
			<g id="XMLID_6435_">
				<path id="XMLID_6436_" class="st8" d="M-31.1,94.5l19.3,0.5c0-3.4-1.8-7.9-4.4-7.9h-10.4C-29.3,87.1-31.1,91.1-31.1,94.5z"/>
			</g>
			<path id="XMLID_6434_" class="st8" d="M-29.6,93.3c0,4.5,3.6,8.1,8.1,8.1c4.5,0,8.1-3.6,8.1-8.1s-3.6-8-8.1-8
				C-25.9,85.3-29.6,88.8-29.6,93.3z"/>
			<circle id="XMLID_6433_" class="st9" cx="-21.4" cy="93.3" r="6.2"/>
			<circle id="XMLID_6432_" class="st10" cx="-21.4" cy="93.3" r="4.9"/>
		</g>
		<g id="XMLID_6373_">
			<path id="XMLID_6407_" class="st8" d="M36,92c0.3-0.1,1.5-0.2,1.5-0.3c-0.3-4.1-4.7-7.9-9.5-7.9c-5.3,0-9.6,4.2-9.6,9.6l17.8,0
				L36,92z"/>
			<circle id="XMLID_6406_" class="st8" cx="28" cy="93.4" r="8.1"/>
			<circle id="XMLID_6375_" class="st9" cx="28" cy="93.4" r="6.2"/>
			<circle id="XMLID_6374_" class="st10" cx="28" cy="93.4" r="4.9"/>
		</g>
		<g id="XMLID_6259_">
			<path id="XMLID_6355_" class="st10" d="M-20.5,78.2l-3.1-6.7c-6.2,1.8-11.9,4.5-16.5,7C-26.7,79.6-20.5,78.2-20.5,78.2z"/>
			<path id="XMLID_6278_" class="st10" d="M-18,72.2c0,0,4,6.9,9.1,6.9c0,0,12.2,0.8,18.3-2c-5.3-4.4-9-5.8-10.2-6.2
				C-6.6,71.1-17.9,71.5-18,72.2z"/>
		</g>
		<path id="XMLID_6255_" class="st8" d="M-7,82.6c0,0.3-0.2,0.5-0.5,0.5h-4.1c-0.3,0-0.5-0.2-0.5-0.5v-0.1c0-0.3,0.2-0.5,0.5-0.5
			h4.1C-7.2,82.1-7,82.3-7,82.6L-7,82.6z"/>
		<circle id="XMLID_5188_" class="st11" cx="45.2" cy="86.4" r="1.8"/>
	</g>
</g>
</svg>
