<?xml version="1.0" encoding="utf-8"?>
<!-- Generator: Adobe Illustrator 21.0.0, SVG Export Plug-In . SVG Version: 6.00 Build 0)  -->
<svg version="1.1" id="Layer_1" xmlns="http://www.w3.org/2000/svg" xmlns:xlink="http://www.w3.org/1999/xlink" x="0px" y="0px"
	 viewBox="0 0 121.3 121.3" style="enable-background:new 0 0 121.3 121.3;" xml:space="preserve">
<style type="text/css">
	.st0{fill:#FFFFFF;}
	.st1{fill:#C6816B;}
	.st2{fill:#A3564B;}
	.st3{fill:#8E4740;}
	.st4{font-family:'CenturySchoolbook';}
	.st5{font-size:47.6804px;}
</style>
<g id="XMLID_6909_">
	<circle id="XMLID_6916_" class="st0" cx="60.7" cy="60.7" r="60.7"/>
</g>
<g id="XMLID_7181_">
	<g id="XMLID_7188_">
		<g id="XMLID_7189_">
			
				<ellipse id="XMLID_7179_" transform="matrix(1 -5.602927e-03 5.602927e-03 1 -0.339 0.3376)" class="st1" cx="60.1" cy="60.7" rx="39.7" ry="39.7"/>
			<path id="XMLID_7186_" class="st2" d="M60.3,92.8C42.6,92.9,28.1,78.5,28,60.8c-0.1-17.7,14.2-32.2,31.9-32.3
				c17.7-0.1,32.2,14.2,32.3,31.9C92.3,78.2,78,92.7,60.3,92.8z M59.9,33.6C45,33.7,33,45.9,33.1,60.8c0.1,14.9,12.3,27,27.2,26.9
				c14.9-0.1,27-12.3,26.9-27.2C87,45.6,74.8,33.6,59.9,33.6z"/>
			
				<ellipse id="XMLID_7149_" transform="matrix(1 -5.595074e-03 5.595074e-03 1 -0.3385 0.3371)" class="st1" cx="60.1" cy="60.7" rx="27" ry="27"/>
		</g>
	</g>
	<text id="XMLID_6913_" transform="matrix(1 0 0 1 46.8289 73.3017)" class="st3 st4 st5">£</text>
</g>
</svg>
