<?xml version="1.0" encoding="utf-8"?>
<!-- Generator: Adobe Illustrator 21.0.0, SVG Export Plug-In . SVG Version: 6.00 Build 0)  -->
<svg version="1.1" id="Layer_1" xmlns="http://www.w3.org/2000/svg" xmlns:xlink="http://www.w3.org/1999/xlink" x="0px" y="0px"
	 viewBox="0 0 167.4 167.4" style="enable-background:new 0 0 167.4 167.4;" xml:space="preserve">
<style type="text/css">
	.st0{fill:#FFFFFF;}
	.st1{fill:#C6816B;}
	.st2{fill:#594A42;}
	.st3{fill:#FDDBBB;}
	.st4{fill:#EB7D86;}
</style>
<g id="XMLID_5405_">
	<g id="XMLID_3081_">
		<circle id="XMLID_3422_" class="st0" cx="83.7" cy="83.7" r="83.7"/>
	</g>
	<g id="XMLID_5426_">
		<g id="XMLID_35_">
			<path id="XMLID_3330_" class="st1" d="M17.7,95.8c-13-13-13-34.2,0-47.2c13-13,34.2-13,47.2,0c11.3,11.3,12.8,28.8,4.4,41.7
				l4.5,14.4l-14.4-4.5C46.5,108.6,29.1,107.1,17.7,95.8z"/>
		</g>
		<g id="XMLID_5429_">
			<g id="XMLID_6783_">
				<g id="XMLID_47_">
					<path id="XMLID_3309_" class="st2" d="M89.8,97.7c0,0-2.5,17.5-8.1,25.4c0,0,14.8,2.9,26.8,0.5c11.8-2.3,11.7-1.7,11.7-1.7
						L89.8,97.7z"/>
					<path id="XMLID_3857_" class="st3" d="M87.4,89.6c-2.4,19.5,9.1,36.9,26.7,39c17.5,2.1,34.4-11.8,36.8-31.3
						c2.4-19.5-9.9-37-27.4-39.1C96.6,55,89.8,70.1,87.4,89.6z"/>
					<path id="XMLID_5399_" class="st2" d="M119.9,96.8c-0.2,2.7,0.6,4.3,1.8,4.4c1.2,0.1,2.2-1.3,2.4-4.1c0.2-2.7-0.6-4.3-1.8-4.4
						C121.1,92.6,120.1,94.1,119.9,96.8z"/>
					<path id="XMLID_5402_" class="st2" d="M93,93.3c-0.2,2.7,0.6,4.3,1.8,4.4c1.2,0.1,2.2-1.3,2.4-4.1c0.2-2.7-0.6-4.3-1.8-4.4
						C94.2,89.1,93.2,90.5,93,93.3z"/>
					<path id="XMLID_40_" class="st2" d="M137.6,94.2l0.8-9.3c0,0-29.2,1.8-52.5-6.7c3.5-16.2,20.6-28.8,37.8-26.7
						c41,5,37.2,44.3,24.3,74.5c-12.1,3.5-21.8,2.9-21.8,2.9c7.1-10.1,10.7-28.9,10.7-28.9s6.2,3.2,6.5-3.3
						C143.7,92.2,137.6,94.2,137.6,94.2z"/>
				</g>
			</g>
			<path id="XMLID_3307_" class="st4" d="M101.2,109.7c-0.3,4.1,2.7,7.7,6.8,8.1c4.1,0.3,7.7-2.7,8.1-6.8L101.2,109.7z"/>
		</g>
	</g>
</g>
</svg>
