<?xml version="1.0" encoding="utf-8"?>
<!-- Generator: Adobe Illustrator 21.0.0, SVG Export Plug-In . SVG Version: 6.00 Build 0)  -->
<svg version="1.1" id="Layer_1" xmlns="http://www.w3.org/2000/svg" xmlns:xlink="http://www.w3.org/1999/xlink" x="0px" y="0px"
	 viewBox="0 0 649.3 161" style="enable-background:new 0 0 649.3 161;" xml:space="preserve">
<style type="text/css">
	.st0{fill:#7ACEB4;}
	.st1{fill:none;stroke:#E0E0E0;stroke-width:5.5968;stroke-linecap:round;stroke-miterlimit:10;stroke-dasharray:0,9.8231;}
</style>
<g id="XMLID_355_">
	<path id="XMLID_3_" class="st0" d="M619.6,158.2h-590c-14.8,0-26.8-12-26.8-26.8V29.6c0-14.8,12-26.8,26.8-26.8h590
		c14.8,0,26.8,12,26.8,26.8v101.7C646.5,146.2,634.5,158.2,619.6,158.2z"/>
	<path id="XMLID_2_" class="st1" d="M619.6,158.2h-590c-14.8,0-26.8-12-26.8-26.8V29.6c0-14.8,12-26.8,26.8-26.8h590
		c14.8,0,26.8,12,26.8,26.8v101.7C646.5,146.2,634.5,158.2,619.6,158.2z"/>
</g>
</svg>
