<?xml version="1.0" encoding="utf-8"?>
<!-- Generator: Adobe Illustrator 21.0.0, SVG Export Plug-In . SVG Version: 6.00 Build 0)  -->
<svg version="1.1" id="Layer_1" xmlns="http://www.w3.org/2000/svg" xmlns:xlink="http://www.w3.org/1999/xlink" x="0px" y="0px"
	 viewBox="0 0 667.2 667.2" style="enable-background:new 0 0 667.2 667.2;" xml:space="preserve">
<style type="text/css">
	.st0{fill:#FFFFFF;}
	.st1{fill:#CC664E;}
</style>
<g id="XMLID_5406_">
	<g id="XMLID_6928_">
		<circle id="XMLID_6929_" class="st0" cx="333.6" cy="333.6" r="333.6"/>
	</g>
</g>
<g id="XMLID_3294_">
	<path class="st1" d="M197.8,245.5c0-17.8,5.7-35.8,17.1-54.1c11.4-18.3,28.1-33.4,50-45.4c21.9-12,47.5-18,76.7-18
		c27.1,0,51.1,5,71.9,15c20.8,10,36.8,23.6,48.2,40.9c11.3,17.2,17,36,17,56.2c0,15.9-3.2,29.9-9.7,41.8c-6.5,12-14.1,22.3-23,31
		c-8.9,8.7-24.9,23.4-47.9,44c-6.4,5.8-11.5,10.9-15.3,15.3c-3.8,4.4-6.7,8.4-8.6,12.1c-1.9,3.7-3.3,7.3-4.4,11
		c-1,3.7-2.6,10.1-4.6,19.2c-3.6,19.5-14.7,29.2-33.4,29.2c-9.7,0-17.9-3.2-24.6-9.5c-6.6-6.4-10-15.8-10-28.4
		c0-15.7,2.4-29.4,7.3-40.9c4.9-11.5,11.3-21.6,19.4-30.3c8-8.7,18.9-19.1,32.6-31c12-10.5,20.6-18.4,26-23.7
		c5.3-5.3,9.8-11.3,13.5-17.8c3.7-6.6,5.5-13.7,5.5-21.3c0-15-5.6-27.6-16.7-37.9c-11.1-10.3-25.5-15.4-43.1-15.4
		c-20.6,0-35.8,5.2-45.5,15.6c-9.7,10.4-18,25.7-24.7,45.9c-6.4,21.2-18.4,31.7-36.2,31.7c-10.5,0-19.3-3.7-26.5-11.1
		C201.4,262.1,197.8,254.1,197.8,245.5z M334.8,553.3c-11.4,0-21.4-3.7-29.9-11.1c-8.5-7.4-12.8-17.7-12.8-31
		c0-11.8,4.1-21.7,12.4-29.8c8.2-8,18.3-12.1,30.3-12.1c11.8,0,21.7,4,29.8,12.1c8,8.1,12.1,18,12.1,29.8c0,13.1-4.2,23.4-12.6,30.9
		C355.6,549.6,345.9,553.3,334.8,553.3z"/>
</g>
</svg>
