<?xml version="1.0" encoding="utf-8"?>
<!-- Generator: Adobe Illustrator 21.0.0, SVG Export Plug-In . SVG Version: 6.00 Build 0)  -->
<svg version="1.1" id="Layer_1" xmlns="http://www.w3.org/2000/svg" xmlns:xlink="http://www.w3.org/1999/xlink" x="0px" y="0px"
	 viewBox="0 0 1168 654" style="enable-background:new 0 0 1168 654;" xml:space="preserve">
<style type="text/css">
	.st0{fill:#C6816B;}
	.st1{fill:#9E5A4C;}
	.st2{fill:none;stroke:#A56C63;stroke-width:0.6294;stroke-linecap:round;stroke-miterlimit:10;}
	.st3{fill:#AA695E;}
	.st4{fill:#BA7765;}
	.st5{fill:#A3564B;}
	.st6{fill:#77372A;}
	.st7{fill:#AA695E;stroke:#C6816B;stroke-width:1.2589;stroke-linecap:round;stroke-miterlimit:10;}
	.st8{fill:#AA695E;stroke:#C6816B;stroke-width:6.1251;stroke-linecap:round;stroke-miterlimit:10;}
	.st9{fill:#AA695E;stroke:#CC9283;stroke-width:2.3217;stroke-linecap:round;stroke-miterlimit:10;}
	.st10{fill:#E0E0E0;}
	.st11{fill:#5E5E5E;}
	.st12{fill:#5DA88F;}
	.st13{fill:#93C6AF;}
</style>
<g id="XMLID_5393_">
	<g id="XMLID_3576_">
		<path id="XMLID_942_" class="st0" d="M153.5,565.4"/>
		<path id="XMLID_3621_" class="st1" d="M753.2,403.5H35.6c-11.7,0-22.1-8.6-23.3-20.2c-1.3-13.4,9.2-24.6,22.3-24.6h679.9
			c9,0,16.3-7.3,16.3-16.3V267c0-12.4,10-22.4,22.4-22.4l381.9,0c11.7,0,22.1,8.6,23.3,20.2c1.3,13.4-9.2,24.6-22.3,24.6H791.9
			c-9,0-16.3,7.3-16.3,16.3v75.3C775.6,393.4,765.6,403.5,753.2,403.5z"/>
		<line id="XMLID_3726_" class="st2" x1="851" y1="253.7" x2="1131.5" y2="253.7"/>
		<path id="XMLID_3613_" class="st3" d="M871.3,641.7H614.8c-16.9,0-30.5-12.2-30.5-27.3V153.9c0-8-7.3-14.5-16.3-14.5H411.1
			c-9,0-16.3,6.5-16.3,14.5v136.3c0,15.1-13.7,27.3-30.5,27.3H129.1c-16.9,0-30.5-12.2-30.5-27.3l0-222.6
			c0-14.9,12.9-27.9,29.6-28.4c17.3-0.5,31.5,11.9,31.5,27.2v182c0,8,7.3,14.5,16.3,14.5h141.5c9,0,16.3-6.5,16.3-14.5V112.1
			c0-15.1,13.7-27.3,30.5-27.3h250.5c16.9,0,30.5,12.2,30.5,27.3v460.6c0,8,7.3,14.5,16.3,14.5h179.2V373.3
			c0-15.1,13.7-27.3,30.5-27.3h131.3c9,0,16.3-6.5,16.3-14.5V141.1c0-15.1,13.7-27.3,30.5-27.3l85.3,0c16.7,0,31.3,11.5,31.8,26.4
			c0.5,15.4-13.4,28.1-30.5,28.1h-39.7c-9,0-16.3,6.5-16.3,14.5v190.4c0,15.1-13.7,27.3-30.5,27.3H918.2c-9,0-16.3,6.5-16.3,14.5
			v199.3C901.9,629.5,888.2,641.7,871.3,641.7z"/>
		<path id="XMLID_3609_" class="st4" d="M493.6,621.3H111.5c-18,0-32.6-14.6-32.6-32.6v-95.3H35.7c-17.4,0-32.5-13.1-33.6-30.4
			c-1.2-19,13.8-34.8,32.5-34.8h76.9c18,0,32.6,14.6,32.6,32.6v79c0,9,7.3,16.3,16.3,16.3h284.4c9,0,16.3-7.3,16.3-16.3V175.7
			c0-18,14.6-32.6,32.6-32.6h376.7c9,0,16.3-7.3,16.3-16.3V33.7c0-17.4,13.1-32.5,30.4-33.6c19-1.2,34.7,13.8,34.7,32.5v143.2
			c0,18-14.6,32.6-32.6,32.6H542.5c-9,0-16.3,7.3-16.3,16.3v364.1C526.2,606.7,511.6,621.3,493.6,621.3z"/>
		<g id="XMLID_3637_">
			<path id="XMLID_3641_" class="st5" d="M304.5,331.1h-15c-0.3,0-0.6-0.3-0.6-0.6v-76.3c0-0.3,0.3-0.6,0.6-0.6h15
				c0.3,0,0.6,0.3,0.6,0.6v76.3C305,330.9,304.8,331.1,304.5,331.1z"/>
			<path id="XMLID_3640_" class="st5" d="M322.3,331.1h-15c-0.3,0-0.6-0.3-0.6-0.6v-76.3c0-0.3,0.3-0.6,0.6-0.6h15
				c0.3,0,0.6,0.3,0.6,0.6v76.3C322.8,330.9,322.6,331.1,322.3,331.1z"/>
			<ellipse id="XMLID_3639_" class="st6" cx="297" cy="292.4" rx="3.1" ry="2.8"/>
			<ellipse id="XMLID_3638_" class="st6" cx="314.7" cy="292.4" rx="3.1" ry="2.8"/>
		</g>
		<g id="XMLID_3698_">
			<path id="XMLID_3702_" class="st5" d="M831.3,412.4v-14.9c0-0.3,0.3-0.6,0.6-0.6h85.6c0.3,0,0.6,0.3,0.6,0.6v14.9
				c0,0.3-0.3,0.6-0.6,0.6h-85.6C831.5,413,831.3,412.7,831.3,412.4z"/>
			<path id="XMLID_3701_" class="st5" d="M831.3,430.2v-14.9c0-0.3,0.3-0.6,0.6-0.6h85.6c0.3,0,0.6,0.3,0.6,0.6v14.9
				c0,0.3-0.3,0.6-0.6,0.6h-85.6C831.5,430.8,831.3,430.5,831.3,430.2z"/>
			<circle id="XMLID_3700_" class="st6" cx="874.7" cy="404.9" r="3.1"/>
			<circle id="XMLID_3699_" class="st6" cx="874.7" cy="422.7" r="3.1"/>
		</g>
		<path id="XMLID_3632_" class="st0" d="M1036.8,646.7c-16-0.4-28.3-11.2-28.3-23.6V478.4c0-6.7-7-12.1-15.6-12.1H270.7
			c-16.1,0-29.2-10.2-29.2-22.7V261.4c0-6.7-7-12.2-15.7-12.2H58.1c-16,0-30-9.6-30.4-22c-0.5-12.9,12.8-23.4,29.2-23.4h213.8
			c16.1,0,29.2,10.2,29.2,22.7v182.2c0,6.7,7,12.1,15.6,12.1h722.2c16.1,0,29.2,10.2,29.2,22.7V624
			C1066.9,636.8,1053.4,647.1,1036.8,646.7z"/>
		<g id="XMLID_3616_">
			<path id="XMLID_3620_" class="st5" d="M67.4,521.2v-14.9c0-0.3,0.3-0.6,0.6-0.6h85.6c0.3,0,0.6,0.3,0.6,0.6v14.9
				c0,0.3-0.3,0.6-0.6,0.6H68C67.6,521.8,67.4,521.5,67.4,521.2z"/>
			<path id="XMLID_3619_" class="st5" d="M67.4,539V524c0-0.3,0.3-0.6,0.6-0.6h85.6c0.3,0,0.6,0.3,0.6,0.6V539
				c0,0.3-0.3,0.6-0.6,0.6H68C67.6,539.6,67.4,539.3,67.4,539z"/>
			<circle id="XMLID_3618_" class="st6" cx="110.8" cy="513.7" r="3.1"/>
			<circle id="XMLID_3617_" class="st6" cx="110.8" cy="531.5" r="3.1"/>
		</g>
		<g id="XMLID_3692_">
			<path id="XMLID_3697_" class="st5" d="M1007.5,313.2v-13.3c0-0.3,0.3-0.6,0.6-0.6h85.7c0.3,0,0.6,0.3,0.6,0.6v13.3
				c0,0.3-0.3,0.6-0.6,0.6H1008C1007.7,313.8,1007.5,313.5,1007.5,313.2z"/>
			<path id="XMLID_3696_" class="st5" d="M1007.5,329.1v-13.3c0-0.3,0.3-0.6,0.6-0.6h85.7c0.3,0,0.6,0.3,0.6,0.6v13.3
				c0,0.3-0.3,0.6-0.6,0.6H1008C1007.7,329.6,1007.5,329.4,1007.5,329.1z"/>
			<ellipse id="XMLID_3694_" class="st6" cx="1050.9" cy="306.6" rx="3.1" ry="2.8"/>
			<ellipse id="XMLID_3693_" class="st6" cx="1050.9" cy="322.4" rx="3.1" ry="2.8"/>
		</g>
		<g id="XMLID_6968_">
			<path id="XMLID_6972_" class="st5" d="M875.1,13.8V0.6c0-0.3,0.3-0.6,0.6-0.6h85.7c0.3,0,0.6,0.3,0.6,0.6v13.3
				c0,0.3-0.3,0.6-0.6,0.6h-85.7C875.3,14.4,875.1,14.2,875.1,13.8z"/>
			<path id="XMLID_6971_" class="st5" d="M875.1,29.7V16.4c0-0.3,0.3-0.6,0.6-0.6h85.7c0.3,0,0.6,0.3,0.6,0.6v13.3
				c0,0.3-0.3,0.6-0.6,0.6h-85.7C875.3,30.3,875.1,30,875.1,29.7z"/>
			<ellipse id="XMLID_6970_" class="st6" cx="918.5" cy="7.2" rx="3.1" ry="2.8"/>
			<ellipse id="XMLID_6969_" class="st6" cx="918.5" cy="23.1" rx="3.1" ry="2.8"/>
		</g>
		<g id="XMLID_3703_">
			<path id="XMLID_3707_" class="st5" d="M996.5,634.2v-11c0-0.3,0.2-0.5,0.5-0.5h82.1c0.3,0,0.5,0.2,0.5,0.5v11
				c0,0.3-0.2,0.5-0.5,0.5H997C996.7,634.7,996.5,634.5,996.5,634.2z"/>
			<path id="XMLID_3706_" class="st5" d="M996.5,647.4v-11c0-0.3,0.2-0.5,0.5-0.5h82.1c0.3,0,0.5,0.2,0.5,0.5v11
				c0,0.3-0.2,0.5-0.5,0.5H997C996.7,647.9,996.5,647.7,996.5,647.4z"/>
			<ellipse id="XMLID_3705_" class="st6" cx="1038" cy="628.7" rx="3" ry="2.3"/>
			<ellipse id="XMLID_3704_" class="st6" cx="1038" cy="641.9" rx="3" ry="2.3"/>
		</g>
		<g id="XMLID_3708_">
			<path id="XMLID_3712_" class="st5" d="M573.4,560.1v-13.3c0-0.3,0.3-0.6,0.6-0.6h85.7c0.3,0,0.6,0.3,0.6,0.6v13.3
				c0,0.3-0.3,0.6-0.6,0.6h-85.7C573.6,560.7,573.4,560.4,573.4,560.1z"/>
			<path id="XMLID_3711_" class="st5" d="M573.4,576v-13.3c0-0.3,0.3-0.6,0.6-0.6h85.7c0.3,0,0.6,0.3,0.6,0.6V576
				c0,0.3-0.3,0.6-0.6,0.6h-85.7C573.6,576.6,573.4,576.3,573.4,576z"/>
			<ellipse id="XMLID_3710_" class="st6" cx="616.8" cy="553.5" rx="3.1" ry="2.8"/>
			<ellipse id="XMLID_3709_" class="st6" cx="616.8" cy="569.3" rx="3.1" ry="2.8"/>
		</g>
		<g id="XMLID_3687_">
			<path id="XMLID_3691_" class="st5" d="M86.4,50.7V37.4c0-0.3,0.3-0.6,0.6-0.6h85.7c0.3,0,0.6,0.3,0.6,0.6v13.3
				c0,0.3-0.3,0.6-0.6,0.6H86.9C86.6,51.3,86.4,51,86.4,50.7z"/>
			<path id="XMLID_3690_" class="st5" d="M86.4,66.6V53.3c0-0.3,0.3-0.6,0.6-0.6h85.7c0.3,0,0.6,0.3,0.6,0.6v13.3
				c0,0.3-0.3,0.6-0.6,0.6H86.9C86.6,67.2,86.4,66.9,86.4,66.6z"/>
			<ellipse id="XMLID_3689_" class="st6" cx="129.8" cy="44.1" rx="3.1" ry="2.8"/>
			<ellipse id="XMLID_3688_" class="st6" cx="129.8" cy="60" rx="3.1" ry="2.8"/>
		</g>
		<g id="XMLID_943_">
			<path id="XMLID_3625_" class="st5" d="M451.9,253.1v-14.9c0-0.3,0.3-0.6,0.6-0.6h85.6c0.3,0,0.6,0.3,0.6,0.6v14.9
				c0,0.3-0.3,0.6-0.6,0.6h-85.6C452.1,253.7,451.9,253.4,451.9,253.1z"/>
			<path id="XMLID_3624_" class="st5" d="M451.9,270.8v-14.9c0-0.3,0.3-0.6,0.6-0.6h85.6c0.3,0,0.6,0.3,0.6,0.6v14.9
				c0,0.3-0.3,0.6-0.6,0.6h-85.6C452.1,271.5,451.9,271.2,451.9,270.8z"/>
			<circle id="XMLID_3623_" class="st6" cx="495.3" cy="245.6" r="3.1"/>
			<circle id="XMLID_3622_" class="st6" cx="495.3" cy="263.4" r="3.1"/>
		</g>
		<g id="XMLID_3718_">
			<path id="XMLID_3722_" class="st5" d="M320.2,166.3v-13.3c0-0.3,0.3-0.6,0.6-0.6h85.7c0.3,0,0.6,0.3,0.6,0.6v13.3
				c0,0.3-0.3,0.6-0.6,0.6h-85.7C320.5,166.9,320.2,166.7,320.2,166.3z"/>
			<path id="XMLID_3721_" class="st5" d="M320.2,182.2V169c0-0.3,0.3-0.6,0.6-0.6h85.7c0.3,0,0.6,0.3,0.6,0.6v13.3
				c0,0.3-0.3,0.6-0.6,0.6h-85.7C320.5,182.8,320.2,182.5,320.2,182.2z"/>
			<ellipse id="XMLID_3720_" class="st6" cx="363.6" cy="159.7" rx="3.1" ry="2.8"/>
			<ellipse id="XMLID_3719_" class="st6" cx="363.6" cy="175.6" rx="3.1" ry="2.8"/>
		</g>
		<g id="XMLID_433_">
			<path id="XMLID_941_" class="st5" d="M433.5,633.9h-14.9c-0.3,0-0.6-0.3-0.6-0.6v-85.6c0-0.3,0.3-0.6,0.6-0.6h14.9
				c0.3,0,0.6,0.3,0.6,0.6v85.6C434.1,633.6,433.8,633.9,433.5,633.9z"/>
			<path id="XMLID_939_" class="st5" d="M451.3,633.9h-14.9c-0.3,0-0.6-0.3-0.6-0.6v-85.6c0-0.3,0.3-0.6,0.6-0.6h14.9
				c0.3,0,0.6,0.3,0.6,0.6v85.6C451.9,633.6,451.6,633.9,451.3,633.9z"/>
			<circle id="XMLID_901_" class="st6" cx="426" cy="590.5" r="3.1"/>
			<circle id="XMLID_896_" class="st6" cx="443.8" cy="590.5" r="3.1"/>
		</g>
		<g id="XMLID_6963_">
			<path id="XMLID_6967_" class="st5" d="M15.6,495.5H0.5c-0.3,0-0.5-0.2-0.5-0.5l0-70.4c0-0.3,0.2-0.5,0.5-0.5h15.1
				c0.3,0,0.5,0.2,0.5,0.5V495C16.1,495.3,15.9,495.5,15.6,495.5z"/>
			<path id="XMLID_6966_" class="st5" d="M33.4,495.5H18.3c-0.3,0-0.5-0.2-0.5-0.5v-70.4c0-0.3,0.2-0.5,0.5-0.5h15.1
				c0.3,0,0.5,0.2,0.5,0.5V495C33.9,495.3,33.7,495.5,33.4,495.5z"/>
			<ellipse id="XMLID_6965_" class="st6" cx="8.1" cy="459.8" rx="3.1" ry="2.6"/>
			<ellipse id="XMLID_6964_" class="st6" cx="25.9" cy="459.8" rx="3.1" ry="2.6"/>
		</g>
		<g id="XMLID_3713_">
			<path id="XMLID_3717_" class="st5" d="M813.3,654h-15c-0.3,0-0.6-0.3-0.6-0.6v-76.3c0-0.3,0.3-0.6,0.6-0.6h15
				c0.3,0,0.6,0.3,0.6,0.6v76.3C813.9,653.8,813.6,654,813.3,654z"/>
			<path id="XMLID_3716_" class="st5" d="M831.1,654h-15c-0.3,0-0.6-0.3-0.6-0.6v-76.3c0-0.3,0.3-0.6,0.6-0.6h15
				c0.3,0,0.6,0.3,0.6,0.6v76.3C831.6,653.8,831.4,654,831.1,654z"/>
			<ellipse id="XMLID_3715_" class="st6" cx="805.8" cy="615.3" rx="3.1" ry="2.8"/>
			<ellipse id="XMLID_3714_" class="st6" cx="823.6" cy="615.3" rx="3.1" ry="2.8"/>
		</g>
		<g id="XMLID_3682_">
			<path id="XMLID_3686_" class="st5" d="M347.6,476.3h-14.4c-0.3,0-0.5-0.2-0.5-0.5v-63.5c0-0.3,0.2-0.5,0.5-0.5h14.4
				c0.3,0,0.5,0.2,0.5,0.5v63.5C348.1,476,347.9,476.3,347.6,476.3z"/>
			<path id="XMLID_3685_" class="st5" d="M364.7,476.3h-14.4c-0.3,0-0.5-0.2-0.5-0.5v-63.5c0-0.3,0.2-0.5,0.5-0.5h14.4
				c0.3,0,0.5,0.2,0.5,0.5v63.5C365.2,476,364.9,476.3,364.7,476.3z"/>
			<ellipse id="XMLID_3684_" class="st6" cx="340.4" cy="444" rx="3" ry="2.3"/>
			<ellipse id="XMLID_3683_" class="st6" cx="357.4" cy="444" rx="3" ry="2.3"/>
		</g>
		<g id="XMLID_3626_">
			<path id="XMLID_3630_" class="st5" d="M846.8,220.5h-14.9c-0.3,0-0.6-0.3-0.6-0.6v-85.6c0-0.3,0.3-0.6,0.6-0.6h14.9
				c0.3,0,0.6,0.3,0.6,0.6v85.6C847.4,220.2,847.2,220.5,846.8,220.5z"/>
			<path id="XMLID_3629_" class="st5" d="M864.6,220.5h-14.9c-0.3,0-0.6-0.3-0.6-0.6v-85.6c0-0.3,0.3-0.6,0.6-0.6h14.9
				c0.3,0,0.6,0.3,0.6,0.6v85.6C865.2,220.2,864.9,220.5,864.6,220.5z"/>
			<circle id="XMLID_3628_" class="st6" cx="839.4" cy="177.1" r="3.1"/>
			<circle id="XMLID_3627_" class="st6" cx="857.1" cy="177.1" r="3.1"/>
		</g>
		<g id="XMLID_3631_">
			<path id="XMLID_3636_" class="st5" d="M554.3,148.1h-15c-0.3,0-0.6-0.3-0.6-0.6V71.2c0-0.3,0.3-0.6,0.6-0.6h15
				c0.3,0,0.6,0.3,0.6,0.6v76.3C554.8,147.8,554.6,148.1,554.3,148.1z"/>
			<path id="XMLID_3635_" class="st5" d="M572,148.1h-15c-0.3,0-0.6-0.3-0.6-0.6V71.2c0-0.3,0.3-0.6,0.6-0.6h15
				c0.3,0,0.6,0.3,0.6,0.6v76.3C572.6,147.8,572.4,148.1,572,148.1z"/>
			<ellipse id="XMLID_3634_" class="st6" cx="546.7" cy="109.3" rx="3.1" ry="2.8"/>
			<ellipse id="XMLID_3633_" class="st6" cx="564.5" cy="109.3" rx="3.1" ry="2.8"/>
		</g>
		<g id="XMLID_3654_">
			<path id="XMLID_3658_" class="st5" d="M703.1,415.3h-12.5c-0.3,0-0.5-0.2-0.5-0.5v-71.5c0-0.3,0.2-0.5,0.5-0.5h12.5
				c0.3,0,0.5,0.2,0.5,0.5v71.5C703.6,415.1,703.4,415.3,703.1,415.3z"/>
			<path id="XMLID_3657_" class="st5" d="M718,415.3h-12.5c-0.3,0-0.5-0.2-0.5-0.5v-71.5c0-0.3,0.2-0.5,0.5-0.5H718
				c0.3,0,0.5,0.2,0.5,0.5v71.5C718.5,415.1,718.2,415.3,718,415.3z"/>
			<circle id="XMLID_3656_" class="st6" cx="696.9" cy="379" r="2.6"/>
			<circle id="XMLID_3655_" class="st6" cx="711.7" cy="379" r="2.6"/>
		</g>
		<g id="XMLID_3659_">
			<path id="XMLID_3663_" class="st5" d="M814.2,302.8h-12.5c-0.3,0-0.5-0.2-0.5-0.5v-71.5c0-0.3,0.2-0.5,0.5-0.5h12.5
				c0.3,0,0.5,0.2,0.5,0.5v71.5C814.7,302.5,814.5,302.8,814.2,302.8z"/>
			<path id="XMLID_3662_" class="st5" d="M829,302.8h-12.5c-0.3,0-0.5-0.2-0.5-0.5v-71.5c0-0.3,0.2-0.5,0.5-0.5H829
				c0.3,0,0.5,0.2,0.5,0.5v71.5C829.5,302.5,829.3,302.8,829,302.8z"/>
			<circle id="XMLID_3661_" class="st6" cx="807.9" cy="266.5" r="2.6"/>
			<circle id="XMLID_3660_" class="st6" cx="822.8" cy="266.5" r="2.6"/>
		</g>
		<g id="XMLID_6986_">
			<path id="XMLID_6990_" class="st5" d="M1143.9,302.8h-12.5c-0.3,0-0.5-0.2-0.5-0.5v-71.5c0-0.3,0.2-0.5,0.5-0.5h12.5
				c0.3,0,0.5,0.2,0.5,0.5v71.5C1144.4,302.5,1144.1,302.8,1143.9,302.8z"/>
			<path id="XMLID_6989_" class="st5" d="M1158.7,302.8h-12.5c-0.3,0-0.5-0.2-0.5-0.5v-71.5c0-0.3,0.2-0.5,0.5-0.5h12.5
				c0.3,0,0.5,0.2,0.5,0.5v71.5C1159.2,302.5,1159,302.8,1158.7,302.8z"/>
			<circle id="XMLID_6988_" class="st6" cx="1137.6" cy="266.5" r="2.6"/>
			<circle id="XMLID_6987_" class="st6" cx="1152.5" cy="266.5" r="2.6"/>
		</g>
		<g id="XMLID_6991_">
			<path id="XMLID_6995_" class="st5" d="M1152.6,179.8h-12.5c-0.3,0-0.5-0.2-0.5-0.5v-71.5c0-0.3,0.2-0.5,0.5-0.5h12.5
				c0.3,0,0.5,0.2,0.5,0.5v71.5C1153.1,179.5,1152.9,179.8,1152.6,179.8z"/>
			<path id="XMLID_6994_" class="st5" d="M1167.5,179.8H1155c-0.3,0-0.5-0.2-0.5-0.5v-71.5c0-0.3,0.2-0.5,0.5-0.5h12.5
				c0.3,0,0.5,0.2,0.5,0.5v71.5C1168,179.5,1167.8,179.8,1167.5,179.8z"/>
			<circle id="XMLID_6993_" class="st6" cx="1146.4" cy="143.5" r="2.6"/>
			<circle id="XMLID_6992_" class="st6" cx="1161.3" cy="143.5" r="2.6"/>
		</g>
		<g id="XMLID_3664_">
			<path id="XMLID_3681_" class="st5" d="M23.5,415.3H11c-0.3,0-0.5-0.2-0.5-0.5v-71.5c0-0.3,0.2-0.5,0.5-0.5h12.5
				c0.3,0,0.5,0.2,0.5,0.5v71.5C24,415.1,23.8,415.3,23.5,415.3z"/>
			<path id="XMLID_3680_" class="st5" d="M38.4,415.3H25.9c-0.3,0-0.5-0.2-0.5-0.5v-71.5c0-0.3,0.2-0.5,0.5-0.5h12.5
				c0.3,0,0.5,0.2,0.5,0.5v71.5C38.9,415.1,38.7,415.3,38.4,415.3z"/>
			<circle id="XMLID_3679_" class="st6" cx="17.3" cy="379" r="2.6"/>
			<circle id="XMLID_3678_" class="st6" cx="32.1" cy="379" r="2.6"/>
		</g>
		<g id="XMLID_3642_">
			<path id="XMLID_3653_" class="st5" d="M194.4,259h-14.4c-0.3,0-0.5-0.2-0.5-0.5V195c0-0.3,0.2-0.5,0.5-0.5h14.4
				c0.3,0,0.5,0.2,0.5,0.5v63.5C194.9,258.8,194.6,259,194.4,259z"/>
			<path id="XMLID_3652_" class="st5" d="M211.4,259H197c-0.3,0-0.5-0.2-0.5-0.5V195c0-0.3,0.2-0.5,0.5-0.5h14.4
				c0.3,0,0.5,0.2,0.5,0.5v63.5C211.9,258.8,211.7,259,211.4,259z"/>
			<ellipse id="XMLID_3650_" class="st6" cx="187.1" cy="226.8" rx="3" ry="2.3"/>
			<ellipse id="XMLID_3643_" class="st6" cx="204.2" cy="226.8" rx="3" ry="2.3"/>
		</g>
		<g id="XMLID_6957_">
			<path id="XMLID_6962_" class="st5" d="M37.7,259H23.2c-0.3,0-0.5-0.2-0.5-0.5V195c0-0.3,0.2-0.5,0.5-0.5h14.4
				c0.3,0,0.5,0.2,0.5,0.5v63.5C38.2,258.8,37.9,259,37.7,259z"/>
			<path id="XMLID_6961_" class="st5" d="M54.7,259H40.2c-0.3,0-0.5-0.2-0.5-0.5V195c0-0.3,0.2-0.5,0.5-0.5h14.4
				c0.3,0,0.5,0.2,0.5,0.5v63.5C55.2,258.8,55,259,54.7,259z"/>
			<ellipse id="XMLID_6960_" class="st6" cx="30.4" cy="226.8" rx="3" ry="2.3"/>
			<ellipse id="XMLID_6958_" class="st6" cx="47.5" cy="226.8" rx="3" ry="2.3"/>
		</g>
		<line id="XMLID_739_" class="st7" x1="498.4" y1="155" x2="810.6" y2="155"/>
		<line id="XMLID_3723_" class="st8" x1="159.1" y1="570.4" x2="401.1" y2="570.4"/>
		<line id="XMLID_3725_" class="st7" x1="871.6" y1="359.7" x2="1005.7" y2="359.7"/>
		<line id="XMLID_3724_" class="st9" x1="389.7" y1="453.6" x2="992.9" y2="453.6"/>
	</g>
	<g id="XMLID_4078_">
		<g id="XMLID_5392_">
			<path class="st10" d="M730.4,504.6H437.6c-5.8,0-10.5-4.7-10.5-10.5V201.2c0-5.8,4.7-10.5,10.5-10.5h292.9
				c5.8,0,10.5,4.7,10.5,10.5v292.9C740.9,499.9,736.2,504.6,730.4,504.6z"/>
			<path class="st11" d="M692,514.9H476c-32.6,0-59.2-26.5-59.2-59.2v-216c0-32.6,26.5-59.2,59.2-59.2h216
				c32.6,0,59.2,26.5,59.2,59.2v216C751.2,488.3,724.7,514.9,692,514.9z M476,201c-21.3,0-38.7,17.3-38.7,38.7v216
				c0,21.3,17.3,38.7,38.7,38.7h216c21.3,0,38.7-17.3,38.7-38.7v-216c0-21.3-17.3-38.7-38.7-38.7H476z"/>
		</g>
		<g id="XMLID_5391_">
			<path class="st12" d="M584.4,404.8H543c-14.2,0-24.7-2.8-31.5-8.5c-6.9-5.7-10.3-14.4-10.3-26.2v-52.8c0-11.8,3.4-20.5,10.3-26.3
				c6.9-5.7,17.4-8.6,31.5-8.6h41.5c2.1,0,3.7,0.5,4.7,1.4c1,1,1.4,2.5,1.4,4.7v20.6c0,2.2-0.5,3.7-1.4,4.7c-1,1-2.5,1.4-4.7,1.4
				h-34.2c-3.5,0-6.1,0.7-7.8,2.1c-1.7,1.4-2.5,3.5-2.5,6.4v40.4c0,2.8,0.8,4.9,2.5,6.2c1.7,1.3,4.3,2,7.8,2h34.2
				c2.1,0,3.7,0.5,4.7,1.4c1,1,1.4,2.5,1.4,4.7v20.2c0,2.2-0.5,3.7-1.4,4.7C588.1,404.3,586.6,404.8,584.4,404.8z M575.1,387.8
				h-28.4c-10.2,0-17-1.5-20.4-4.6c-3.4-3.1-5.1-8.3-5.1-15.6V320c0-7.5,1.8-12.8,5.3-15.9c3.5-3.1,10.2-4.7,20.2-4.7h28.4v-1.7
				h-28.4c-10.9,0-18.1,1.7-21.7,5.1c-3.6,3.4-5.4,9.1-5.4,17.2v47.6c0,7.8,1.8,13.4,5.4,16.8c3.6,3.4,10.8,5.1,21.8,5.1h28.4V387.8
				z"/>
			<path class="st12" d="M669.9,384.8c0,3.2-0.5,6.2-1.4,8.8c-0.9,2.6-2.6,4.9-5.1,6.7c-2.4,1.9-5.7,3.3-10,4.4
				c-4.2,1.1-9.6,1.6-16.1,1.6c-6.5,0-11.9-0.5-16.1-1.6c-4.2-1.1-7.5-2.5-10-4.4c-2.4-1.9-4.1-4.1-5.1-6.7s-1.4-5.6-1.4-8.8v-52.2
				c0-1.3,0.3-2.3,0.9-2.9c0.6-0.6,1.6-0.9,2.9-0.9h16.6c1.3,0,2.3,0.3,2.9,0.9c0.6,0.6,0.9,1.6,0.9,2.9v48.1c0,1.4,0.5,2.6,1.6,3.5
				c1.1,0.9,3.4,1.4,7.1,1.4c3.7,0,6.1-0.5,7.2-1.4c1.1-0.9,1.6-2.1,1.6-3.5v-48.1c0-1.3,0.3-2.3,0.9-2.9c0.6-0.6,1.6-0.9,2.9-0.9
				h16c1.3,0,2.3,0.3,2.9,0.9c0.6,0.6,0.9,1.6,0.9,2.9V384.8z M616.4,338.3v44c0,4.2,1.5,7.6,4.4,10.3c2.9,2.6,8.5,4,16.7,4
				c8.2,0,13.8-1.3,16.8-4c3-2.6,4.4-6.1,4.4-10.3v-44h-1.1v44c0,3.9-1.4,7.1-4.2,9.5c-2.8,2.4-8.1,3.6-15.9,3.6s-13.1-1.2-15.9-3.6
				c-2.8-2.4-4.2-5.6-4.2-9.5v-44H616.4z"/>
		</g>
		<g id="XMLID_1088_">
			<path class="st13" d="M580.7,475.9h-13.9c-0.4,0-0.6-0.1-0.8-0.3c-0.2-0.2-0.2-0.4-0.2-0.8v-5c0-1.1,0.1-2.1,0.3-2.8
				s0.5-1.3,1-1.8c0.4-0.5,0.9-0.8,1.5-1.1c0.6-0.3,1.2-0.5,1.8-0.7l3.9-1.2c0.3-0.1,0.5-0.2,0.6-0.3c0.1-0.2,0.2-0.4,0.2-0.7
				c0-0.3-0.1-0.5-0.2-0.6c-0.1-0.1-0.3-0.2-0.6-0.2h-6.4c-0.4,0-0.6-0.1-0.8-0.3c-0.2-0.2-0.2-0.4-0.2-0.8v-3.4
				c0-0.4,0.1-0.6,0.2-0.8c0.2-0.2,0.4-0.3,0.8-0.3h8.6c1.7,0,2.9,0.4,3.8,1.2c0.9,0.8,1.3,2,1.3,3.6v2.8c0,1.5-0.4,2.6-1.2,3.4
				c-0.8,0.8-1.9,1.4-3.3,1.8l-4,1.3c-0.3,0.1-0.5,0.2-0.6,0.3c-0.1,0.1-0.2,0.3-0.2,0.6v0.6h8.3c0.4,0,0.6,0.1,0.8,0.3
				c0.2,0.2,0.3,0.4,0.3,0.8v3.4c0,0.4-0.1,0.6-0.3,0.8C581.3,475.9,581,475.9,580.7,475.9z M570.5,466.3c-0.6,0.2-1,0.5-1.3,0.8
				c-0.2,0.3-0.3,0.9-0.3,1.6v4.6h10.2V473h-10v-4.3c0-0.7,0.1-1.1,0.3-1.4c0.2-0.3,0.6-0.5,1.1-0.7l6.8-2.3
				c0.3-0.1,0.6-0.3,0.7-0.6c0.2-0.3,0.3-0.6,0.3-1.1V460c0-1-0.3-1.6-0.8-2c-0.5-0.4-1.3-0.5-2.3-0.5h-5.9v0.3h5.9
				c0.9,0,1.6,0.1,2.1,0.5c0.5,0.3,0.8,0.9,0.8,1.8v2.7c0,0.4-0.1,0.7-0.2,0.9c-0.2,0.2-0.4,0.4-0.6,0.5L570.5,466.3z"/>
			<path class="st13" d="M594.6,475.9h-6.7c-0.4,0-0.6-0.1-0.8-0.3c-0.2-0.2-0.2-0.4-0.2-0.8v-3.5c0-0.4,0.1-0.6,0.2-0.8
				c0.2-0.2,0.4-0.2,0.8-0.2h5.5c0.7,0,1.2-0.1,1.5-0.3c0.3-0.2,0.4-0.7,0.4-1.4V468c-0.5,0.1-1,0.2-1.6,0.3
				c-0.6,0.1-1.3,0.1-2.1,0.1c-2.6,0-4.4-0.4-5.4-1.3c-1-0.9-1.5-2.2-1.5-3.9v-2.8c0-0.9,0.1-1.7,0.4-2.4c0.2-0.7,0.7-1.3,1.3-1.9
				c0.6-0.5,1.5-0.9,2.6-1.2c1.1-0.3,2.5-0.4,4.2-0.4c1.8,0,3.3,0.1,4.4,0.4c1.1,0.3,2,0.7,2.7,1.2c0.6,0.5,1.1,1.1,1.3,1.9
				s0.4,1.5,0.4,2.4v9.6c0,1.8-0.5,3.2-1.5,4.3C599.3,475.4,597.4,475.9,594.6,475.9z M589.5,473.3h5.2c1.2,0,2.2-0.2,2.9-0.7
				c0.7-0.5,1-1.4,1-2.6v-9.6c0-0.7-0.1-1.3-0.4-1.8c-0.3-0.5-0.7-0.8-1.2-1c-0.5-0.2-1.1-0.4-1.8-0.4c-0.7-0.1-1.4-0.1-2.2-0.1
				c-0.7,0-1.4,0-2,0.1c-0.6,0.1-1.2,0.2-1.7,0.5c-0.5,0.2-0.8,0.6-1.1,1c-0.3,0.4-0.4,1-0.4,1.8v2.6c0,0.7,0.1,1.3,0.4,1.8
				c0.3,0.4,0.6,0.7,1.1,0.9c0.5,0.2,1,0.3,1.6,0.4c0.6,0,1.3,0.1,2,0.1c1.3,0,2.4-0.1,3.4-0.2c1-0.2,1.6-0.6,2-1.4v5.5
				c0,1.2-0.3,2-1,2.4c-0.7,0.4-1.5,0.6-2.7,0.6h-5.2V473.3z M592.9,465.8c-0.6,0-1.3,0-1.8,0c-0.6,0-1.1-0.1-1.5-0.3
				c-0.4-0.2-0.8-0.5-1-0.9c-0.3-0.4-0.4-0.9-0.4-1.6v-2.6c0-0.7,0.1-1.2,0.4-1.7c0.3-0.4,0.6-0.7,1.1-0.9c0.4-0.2,1-0.4,1.6-0.4
				c0.6-0.1,1.2-0.1,1.9-0.1c0.7,0,1.4,0,2.1,0.1c0.6,0.1,1.2,0.2,1.7,0.4c0.5,0.2,0.9,0.5,1.1,0.9s0.4,1,0.4,1.7v2.7
				c0,0.7-0.2,1.2-0.5,1.6c-0.3,0.4-0.7,0.7-1.2,0.8c-0.5,0.2-1.1,0.3-1.7,0.3C594.1,465.8,593.5,465.8,592.9,465.8z M595.2,462.5
				v-1.7c0-0.3-0.1-0.6-0.3-0.8c-0.2-0.2-0.8-0.3-1.6-0.3c-0.9,0-1.4,0.1-1.7,0.3c-0.2,0.2-0.4,0.5-0.4,0.8v1.7
				c0,0.3,0.1,0.5,0.4,0.7c0.2,0.2,0.8,0.3,1.7,0.3c0.8,0,1.4-0.1,1.6-0.3C595.1,463.1,595.2,462.8,595.2,462.5z"/>
		</g>
	</g>
</g>
</svg>
