<?xml version="1.0" encoding="utf-8"?>
<!-- Generator: Adobe Illustrator 19.0.0, SVG Export Plug-In . SVG Version: 6.00 Build 0)  -->
<svg version="1.1" id="Layer_1" xmlns="http://www.w3.org/2000/svg" xmlns:xlink="http://www.w3.org/1999/xlink" x="0px" y="0px"
	 viewBox="-57.6 26.8 117.5 117.5" style="enable-background:new -57.6 26.8 117.5 117.5;" xml:space="preserve">
<style type="text/css">
	.st0{fill:#FFFFFF;}
	.st1{opacity:0.56;fill:#303030;}
	.st2{fill:#D7D8D9;}
	.st3{fill:#E5E5E5;}
</style>
<g>
	<g id="XMLID_3346_">
		<circle id="XMLID_3347_" class="st0" cx="1.1" cy="85.6" r="58.8"/>
	</g>
	<g id="XMLID_1235_">
		<path id="XMLID_2587_" class="st1" d="M7.6,89.4c12.8-0.5,1,25.8,4.3,37.5c0.5,1.9,2.1,3.1,4,3.1l0,0c2-0.1,3.6-1.5,4-3.4
			c2.3-11.9-5.7-39-3.1-87c0,0-8.2,2.5-9.5,14.3C6,66.2,6.9,77.8,7.6,89.4z"/>
		<g id="XMLID_1286_">
			<path id="XMLID_2582_" class="st2" d="M6.3,90.1c12.8-0.5,1,25.8,4.3,37.5c0.5,1.9,2.1,3.1,4,3.1l0,0c2-0.1,3.6-1.5,4-3.4
				c2.3-11.9-5.7-39-3.1-87c0,0-8.2,2.5-9.5,14.3C4.7,66.9,5.6,78.5,6.3,90.1z"/>
			<path id="XMLID_2553_" class="st3" d="M6.3,90.1c12.8-0.5,1,25.8,4.3,37.5c0.5,1.9,2.1,3.1,4,3.1l0,0c2-0.1,3.6-1.5,4-3.4
				c2.3-11.9-5.7-39-3.1-87c0,0-8.2,2.5-9.5,14.3C4.7,66.9,5.6,78.5,6.3,90.1z"/>
		</g>
	</g>
	<g id="XMLID_539_">
		<path id="XMLID_1229_" class="st1" d="M-17.5,46.9c1.6-0.1-0.9,6.1-0.3,16.5c0,0.7,0.7,1.3,1.4,1.3l0,0c0.4,0,1-0.4,1-0.8
			c-0.1-3.4,0-17.1,0.9-17.1c0.9,0,1.1,13.5,1,17c0,0.5,0.6,0.8,1,0.8l0,0c0.5,0,1-0.4,1-0.9c-0.3-3.5-1-17-0.1-17
			c0.9,0,1.9,13.5,2,17c0,0.4,0.6,0.8,1,0.8l0,0c0.7,0,1.3-0.6,1.3-1.4c-0.1-10.4-3-16.4-1.4-16.5l0,0c0,0.1,7.8,21.8,0.1,29.1
			c-6.2,3.5,4.6,37.4,2.2,49.3c-0.4,1.9-2.1,3.3-4,3.4l0,0c-2,0.1-3.7-1.2-4.2-3.1c-3.2-11.7,5.8-46.3-0.7-49.4
			C-25,71.2-17.6,47.8-17.5,46.9L-17.5,46.9z"/>
		<g id="XMLID_541_">
			<path id="XMLID_1228_" class="st3" d="M-18.5,46.5c1.6-0.1-0.9,6.1-0.3,16.5c0,0.7,0.7,1.3,1.4,1.3l0,0c0.4,0,1-0.4,1-0.8
				c-0.1-3.4,0-17.1,0.9-17.1c0.9,0,1.1,13.5,1,17c0,0.5,0.6,0.8,1,0.8l0,0c0.5,0,1-0.4,1-0.9c-0.3-3.5-1-17-0.1-17
				c0.9,0,1.9,13.5,2,17c0,0.4,0.6,0.8,1,0.8l0,0c0.7,0,1.3-0.6,1.3-1.4c-0.1-10.4-3-16.4-1.4-16.5l0,0c0,0.1,9.1,23.7-0.2,29.1
				c-6.2,3.5,4.9,37.4,2.5,49.4c-0.4,1.9-2.1,3.3-4,3.4l0,0c-2,0.1-3.7-1.2-4.2-3.1c-3.2-11.7,5.8-46.3-0.7-49.4
				C-26.1,70.7-18.6,47.4-18.5,46.5L-18.5,46.5z"/>
		</g>
	</g>
</g>
</svg>
