<?xml version="1.0" encoding="utf-8"?>
<!-- Generator: Adobe Illustrator 19.0.0, SVG Export Plug-In . SVG Version: 6.00 Build 0)  -->
<svg version="1.1" id="Layer_1" xmlns="http://www.w3.org/2000/svg" xmlns:xlink="http://www.w3.org/1999/xlink" x="0px" y="0px"
	 viewBox="701.9 -231 692.1 632.1" style="enable-background:new 701.9 -231 692.1 632.1;" xml:space="preserve">
<style type="text/css">
	.st0{fill:#E2E2E2;stroke:#707070;stroke-width:17.0196;stroke-miterlimit:10;}
	.st1{fill:#D89756;}
	.st2{fill:#EEEEEE;}
	.st3{fill:#C8C8C8;}
	.st4{fill:#008ED3;}
	.st5{fill:#00ADEE;}
	.st6{fill:#005070;}
	.st7{fill:#535454;}
	.st8{fill:#777A7C;}
	.st9{fill:#ADADAD;}
	.st10{fill:#898989;}
	.st11{fill:#959595;}
	.st12{fill:#7F7F7F;}
	.st13{fill:none;stroke:#878787;stroke-width:0.4122;stroke-miterlimit:10;}
	.st14{fill:#BCBCBC;}
</style>
<g id="XMLID_4078_">
	<path id="XMLID_5392_" class="st0" d="M1143.8,283.2H946.3c-24.7,0-44.7-20-44.7-44.7V41c0-24.7,20-44.7,44.7-44.7h197.5
		c24.7,0,44.7,20,44.7,44.7v197.5C1188.5,263.2,1168.5,283.2,1143.8,283.2z"/>
	<g>
		<g>
			<path class="st1" d="M1000.7,191.9h-24.1c-2,0-3.4-0.4-4.3-1.3c-0.9-0.9-1.3-2.3-1.3-4.3V85.7c0-2,0.4-3.4,1.3-4.3
				c0.9-0.9,2.3-1.3,4.3-1.3h69.3c2,0,3.4,0.4,4.3,1.3c0.9,0.9,1.3,2.3,1.3,4.3v18.5c0,2-0.4,3.4-1.3,4.3c-0.9,0.9-2.3,1.3-4.3,1.3
				h-39.6v16.2h27c2,0,3.4,0.4,4.3,1.3c0.9,0.9,1.3,2.3,1.3,4.3v18.6c0,2-0.4,3.4-1.3,4.3c-0.9,0.9-2.3,1.3-4.3,1.3h-27v30.6
				c0,2-0.4,3.4-1.3,4.3C1004.1,191.5,1002.7,191.9,1000.7,191.9z M988,177.9h1.6v-36.3h35.4V140h-35.4V95.6h48v-1.6H988V177.9z"/>
			<path class="st1" d="M1111.2,191.9h-44.7c-1.2,0-2.1-0.3-2.7-0.8c-0.5-0.5-0.8-1.4-0.8-2.7V126c0-1.2,0.3-2.1,0.8-2.7
				c0.5-0.5,1.4-0.8,2.7-0.8h44.7c1.2,0,2.1,0.3,2.7,0.8c0.5,0.5,0.8,1.4,0.8,2.7v11.3c0,1.2-0.3,2.1-0.8,2.7
				c-0.5,0.5-1.4,0.8-2.7,0.8h-26.6v7.4h18.8c1.2,0,2.1,0.3,2.7,0.8c0.5,0.5,0.8,1.4,0.8,2.7v10.3c0,1.2-0.3,2.1-0.8,2.7
				c-0.5,0.5-1.4,0.8-2.7,0.8h-18.8v8.3h26.6c1.2,0,2.1,0.3,2.7,0.8c0.5,0.5,0.8,1.4,0.8,2.7v11.3c0,1.2-0.3,2.1-0.8,2.7
				C1113.3,191.6,1112.4,191.9,1111.2,191.9z M1106,182.3h-31.5v-25h23.7v-1h-23.7v-24.2h31.5v-1h-32.5v52.1h32.5V182.3z"/>
		</g>
	</g>
	<g>
		<g>
			<path class="st1" d="M1042,257h-12.7c-0.3,0-0.6-0.1-0.7-0.2c-0.2-0.2-0.2-0.4-0.2-0.7v-4.6c0-1,0.1-1.9,0.3-2.6
				c0.2-0.7,0.5-1.2,0.9-1.6s0.8-0.8,1.3-1c0.5-0.3,1.1-0.5,1.7-0.6l3.6-1.1c0.3-0.1,0.5-0.2,0.6-0.3c0.1-0.1,0.1-0.4,0.1-0.6
				c0-0.3-0.1-0.5-0.2-0.5c-0.1-0.1-0.3-0.1-0.6-0.1h-5.8c-0.3,0-0.6-0.1-0.7-0.2s-0.2-0.4-0.2-0.7v-3.1c0-0.3,0.1-0.6,0.2-0.7
				s0.4-0.2,0.7-0.2h7.9c1.5,0,2.7,0.4,3.5,1.1c0.8,0.8,1.2,1.9,1.2,3.3v2.5c0,1.3-0.4,2.4-1.1,3.1c-0.8,0.7-1.8,1.3-3.1,1.7
				l-3.6,1.2c-0.3,0.1-0.5,0.2-0.5,0.2c-0.1,0.1-0.1,0.3-0.1,0.6v0.6h7.6c0.3,0,0.6,0.1,0.7,0.2c0.2,0.2,0.2,0.4,0.2,0.7v3.1
				c0,0.3-0.1,0.6-0.2,0.7C1042.6,256.9,1042.4,257,1042,257z M1032.7,248.2c-0.6,0.2-0.9,0.4-1.2,0.7c-0.2,0.3-0.3,0.8-0.3,1.5v4.2
				h9.3v-0.3h-9.1v-3.9c0-0.6,0.1-1,0.3-1.3s0.5-0.5,1-0.7l6.2-2.1c0.3-0.1,0.5-0.3,0.7-0.5c0.2-0.2,0.3-0.6,0.3-1v-2.4
				c0-0.9-0.3-1.5-0.8-1.8c-0.5-0.3-1.2-0.5-2.1-0.5h-5.4v0.3h5.4c0.8,0,1.4,0.1,1.9,0.4c0.5,0.3,0.7,0.8,0.7,1.6v2.4
				c0,0.3-0.1,0.6-0.2,0.8c-0.1,0.2-0.3,0.4-0.6,0.4L1032.7,248.2z"/>
			<path class="st1" d="M1058.8,237.7c0.3,0,0.6,0.1,0.7,0.2c0.2,0.2,0.2,0.4,0.2,0.7v6.8c0,0.8-0.1,1.6-0.3,2.1s-0.4,1.1-0.8,1.5
				c-0.3,0.4-0.8,0.7-1.3,1c-0.5,0.3-1.1,0.5-1.9,0.7l-2,0.6v4.7c0,0.3-0.1,0.6-0.2,0.7c-0.2,0.2-0.4,0.2-0.7,0.2h-4.3
				c-0.3,0-0.6-0.1-0.7-0.2s-0.2-0.4-0.2-0.7v-4.8c0-0.8,0.1-1.6,0.3-2.1c0.2-0.6,0.4-1.1,0.8-1.5c0.3-0.4,0.8-0.7,1.3-1
				s1.1-0.5,1.9-0.7l2.2-0.6v-2.4h-7.3c-0.3,0-0.6-0.1-0.7-0.2c-0.2-0.2-0.2-0.4-0.2-0.7v-3.2c0-0.3,0.1-0.6,0.2-0.7
				s0.4-0.2,0.7-0.2H1058.8z M1050.3,254.6h0.3v-4c0-0.3,0.1-0.6,0.2-0.8c0.1-0.2,0.3-0.3,0.6-0.4l4.6-1.8c0.3-0.1,0.6-0.3,0.7-0.5
				c0.2-0.2,0.2-0.6,0.2-1v-5.9h-9.1v0.3h8.8v5.6c0,0.3-0.1,0.6-0.2,0.8c-0.1,0.2-0.3,0.3-0.6,0.4l-4.6,1.8
				c-0.3,0.1-0.5,0.3-0.7,0.5c-0.2,0.2-0.3,0.6-0.3,1V254.6z"/>
		</g>
	</g>
</g>
<g id="XMLID_4_">
	<polygon id="XMLID_552_" class="st2" points="1394.1,190.2 1192.1,341.7 1179.4,324.8 1320.4,191.8 	"/>
	<polygon id="XMLID_551_" class="st3" points="1394.1,190.2 1192.1,341.7 1204.8,358.7 1372,260.6 	"/>
	<path id="XMLID_550_" class="st4" d="M1136,356c-1.6-2.2-4.7-2.6-6.8-1c-2.2,1.6-2.6,4.7-1,6.8l13.4,17.8l7.8-5.9L1136,356z"/>
	<path id="XMLID_546_" class="st5" d="M1162.7,391.7l-13.4-17.8l-7.8,5.9l13.4,17.8c1.6,2.2,4.7,2.6,6.8,1
		C1163.9,396.9,1164.4,393.8,1162.7,391.7z"/>
	
		<rect id="XMLID_503_" x="1152.5" y="337.1" transform="matrix(0.6001 0.7999 -0.7999 0.6001 748.9619 -785.5391)" class="st6" width="15.2" height="38.3"/>
	<path class="st4" d="M1180,350.9l12.1-9.1l-21.9-29.1c-0.7-1-2-1.3-3.1-0.8l-9.3,4.5c-1.4,0.7-1.9,2.5-0.9,3.8L1180,350.9z"/>
	<path class="st5" d="M1192.1,341.8l-12.1,9.1l22.5,30c1.2,1.6,3.6,1.8,5.1,0.3l6-6.1c1.2-1.2,1.3-3,0.3-4.4L1192.1,341.8z"/>
	
		<rect id="XMLID_463_" x="1161.6" y="349.3" transform="matrix(0.6001 0.7999 -0.7999 0.6001 762.2893 -787.9614)" class="st6" width="15.2" height="38.3"/>
</g>
<g id="XMLID_1_">
	<polygon id="XMLID_8_" class="st2" points="701.9,191.9 903.9,343.4 916.6,326.5 775.6,193.4 	"/>
	<polygon id="XMLID_7_" class="st3" points="701.9,191.9 903.9,343.4 891.2,360.3 724,262.2 	"/>
	<path id="XMLID_6_" class="st4" d="M960,357.6c1.6-2.2,4.7-2.6,6.8-1c2.2,1.6,2.6,4.7,1,6.8l-13.4,17.8l-7.8-5.9L960,357.6z"/>
	<path id="XMLID_5_" class="st5" d="M933.3,393.3l13.4-17.8l7.8,5.9l-13.4,17.8c-1.6,2.2-4.7,2.6-6.8,1
		C932.1,398.6,931.6,395.5,933.3,393.3z"/>
	
		<rect id="XMLID_3_" x="928.3" y="338.8" transform="matrix(-0.6001 0.7999 -0.7999 -0.6001 1783.8264 -175.9323)" class="st6" width="15.2" height="38.3"/>
	<path class="st4" d="M916,352.5l-12.1-9.1l21.9-29.1c0.7-1,2-1.3,3.1-0.8l9.3,4.5c1.4,0.7,1.9,2.5,0.9,3.8L916,352.5z"/>
	<path class="st5" d="M903.9,343.4l12.1,9.1l-22.5,30c-1.2,1.6-3.6,1.8-5.1,0.3l-6-6.1c-1.2-1.2-1.3-3-0.3-4.4L903.9,343.4z"/>
	
		<rect id="XMLID_2_" x="919.2" y="350.9" transform="matrix(-0.6001 0.7999 -0.7999 -0.6001 1778.9769 -149.2293)" class="st6" width="15.2" height="38.3"/>
</g>
<g id="XMLID_3876_">
	
		<rect id="XMLID_3854_" x="775.7" y="-14.3" transform="matrix(0.866 0.5 -0.5 0.866 102.8495 -394.9922)" class="st7" width="25.6" height="17.4"/>
	<path id="XMLID_3880_" class="st7" d="M775.2-3.2l-36.4,63.1c-2.9,4.9-1.2,11.3,3.8,14.1c4.9,2.9,11.3,1.2,14.1-3.8l36.4-63.1
		L775.2-3.2z M751.8,67.4c-1.3,2.3-4.2,3-6.5,1.7c-2.3-1.3-3-4.2-1.7-6.5c1.3-2.3,4.2-3,6.5-1.7C752.4,62.2,753.1,65.1,751.8,67.4z"
		/>
	<circle id="XMLID_3851_" class="st8" cx="829.7" cy="-76.9" r="74.7"/>
	<circle id="XMLID_3849_" class="st7" cx="829.7" cy="-76.9" r="70.4"/>
	<circle id="XMLID_3848_" class="st8" cx="829.7" cy="-76.9" r="55.3"/>
</g>
<g id="XMLID_925_">
	
		<rect id="XMLID_932_" x="1286.2" y="-14.3" transform="matrix(-0.866 0.5 -0.5 -0.866 2421.176 -659.9012)" class="st7" width="25.6" height="17.4"/>
	<path id="XMLID_929_" class="st7" d="M1294.4,7.1l36.4,63.1c2.9,4.9,9.2,6.6,14.1,3.8c4.9-2.9,6.6-9.2,3.8-14.1l-36.4-63.1
		L1294.4,7.1z M1337.4,60.9c2.3-1.3,5.2-0.5,6.5,1.7c1.3,2.3,0.5,5.2-1.7,6.5c-2.3,1.3-5.2,0.5-6.5-1.7
		C1334.3,65.1,1335.1,62.2,1337.4,60.9z"/>
	<circle id="XMLID_928_" class="st8" cx="1257.8" cy="-76.9" r="74.7"/>
	<circle id="XMLID_927_" class="st7" cx="1257.8" cy="-76.9" r="70.4"/>
	<circle id="XMLID_926_" class="st8" cx="1257.8" cy="-76.9" r="55.3"/>
</g>
<g id="XMLID_753_">
	<g id="XMLID_893_">
		<path id="XMLID_894_" class="st2" d="M1008.9-66.4c0,0-35.6,1.7-52.5,17.7c0,0-5.6,35.1,88.7,76v-93.7H1008.9z"/>
	</g>
	<g id="XMLID_891_">
		<path id="XMLID_892_" class="st9" d="M981.6-101.5c0,0,21,22.8,23.7,50.1c0.6,6.3,3.1,12.3,7.4,16.9c5.7,6.1,15.9,13,32.4,16
			l0-22.2L981.6-101.5z"/>
	</g>
	<g id="XMLID_889_">
		<path id="XMLID_890_" class="st9" d="M1045.1,27.3c0,0-1.7-0.9-4.6-2.6c-2.9-1.6-7-4-11.9-6.8c-2.4-1.4-5.1-3-7.9-4.6
			c-2.8-1.6-5.7-3.5-8.7-5.3c-1.5-0.9-3-1.9-4.5-2.9c-1.5-1-3.1-2-4.6-3c-3.1-2-6.2-4.1-9.2-6.3c-1.5-1.1-3-2.2-4.5-3.3
			c-1.5-1.1-2.9-2.2-4.4-3.4c-1.4-1.1-2.8-2.3-4.2-3.5c-1.4-1.1-2.7-2.3-4-3.5c-1.3-1.2-2.5-2.4-3.7-3.5c-1.1-1.2-2.3-2.4-3.4-3.5
			c-2.1-2.4-4-4.7-5.6-7c-1.6-2.3-2.9-4.5-3.9-6.4c-0.5-1-0.9-2-1.3-2.9c-0.4-0.9-0.6-1.8-0.9-2.5c-0.6-1.5-0.8-2.8-1-3.7
			c-0.2-0.9-0.3-1.3-0.3-1.3s0,0.5,0,1.4c0.1,0.9,0,2.2,0.3,3.9c0.2,0.8,0.3,1.8,0.5,2.8c0.3,1,0.6,2,0.9,3.2
			c0.4,1.1,0.9,2.3,1.4,3.5c0.2,0.6,0.5,1.2,0.9,1.8c0.3,0.6,0.7,1.3,1,1.9c0.6,1.3,1.5,2.5,2.3,3.9c0.8,1.3,1.9,2.6,2.8,4
			c1,1.3,2.1,2.6,3.2,4c1.2,1.3,2.4,2.6,3.6,3.9c2.6,2.5,5.3,5.2,8.2,7.5c1.5,1.2,2.9,2.4,4.5,3.6c1.5,1.2,3,2.3,4.6,3.5
			c3.1,2.2,6.3,4.3,9.5,6.3c3.2,2,6.4,3.8,9.5,5.6c3.1,1.7,6.2,3.3,9.2,4.7c2.9,1.5,5.8,2.7,8.4,3.9c2.6,1.2,5,2.1,7.2,3
			c2.2,0.9,4.1,1.5,5.6,2.1c1.6,0.6,2.8,0.9,3.7,1.2C1044.6,27.1,1045.1,27.3,1045.1,27.3z"/>
	</g>
	<g id="XMLID_871_">
		<g id="XMLID_885_">
			<path id="XMLID_886_" class="st9" d="M1040.8,17.8c0.3,0,0.7-0.1,0.9-0.4c0.2-0.2,0.4-0.6,0.4-0.9c0-0.3-0.1-0.7-0.4-0.9
				c-0.5-0.5-1.4-0.5-1.9,0c-0.2,0.2-0.4,0.6-0.4,0.9c0,0.4,0.1,0.7,0.4,0.9C1040.1,17.7,1040.4,17.8,1040.8,17.8z"/>
		</g>
		<g id="XMLID_874_">
			<path id="XMLID_876_" class="st9" d="M1031.4,13.2L1031.4,13.2c-0.2,0-0.4-0.1-0.6-0.1v0c-0.6-0.3-0.9-1.1-0.6-1.7l0,0
				c0.3-0.6,1.1-0.9,1.8-0.6l0,0c0.6,0.3,0.9,1.1,0.6,1.7C1032.3,12.9,1031.9,13.2,1031.4,13.2z M1022.1,8.2L1022.1,8.2
				c-0.2,0-0.4-0.1-0.6-0.2l0,0c-0.6-0.3-0.8-1.1-0.5-1.8l0,0c0.4-0.6,1.1-0.8,1.8-0.5l0,0l0,0l0,0c0.6,0.3,0.9,1.1,0.5,1.8
				C1023,8,1022.6,8.2,1022.1,8.2z M1013.1,3L1013.1,3c-0.2,0-0.5-0.1-0.7-0.2l0,0c-0.6-0.4-0.8-1.2-0.4-1.8l0,0
				c0.4-0.6,1.2-0.8,1.8-0.4l0,0c0.6,0.4,0.8,1.2,0.5,1.8C1013.9,2.8,1013.5,3,1013.1,3z M1004.2-2.6L1004.2-2.6
				c-0.2,0-0.5-0.1-0.7-0.2l0,0c-0.6-0.4-0.8-1.2-0.4-1.8l0,0c0.4-0.6,1.2-0.8,1.8-0.4l0,0c0.6,0.4,0.8,1.2,0.4,1.8
				C1005-2.8,1004.6-2.6,1004.2-2.6z M995.6-8.6L995.6-8.6c-0.3,0-0.5-0.1-0.8-0.2l0,0c-0.6-0.4-0.7-1.3-0.3-1.8l0,0
				c0.4-0.6,1.3-0.7,1.8-0.3l0,0c0,0,0,0,0,0l0,0c0.6,0.4,0.7,1.2,0.3,1.8C996.4-8.8,996-8.6,995.6-8.6z M987.3-15L987.3-15
				c-0.3,0-0.6-0.1-0.8-0.3l0,0c-0.5-0.5-0.6-1.3-0.2-1.8l0,0c0.5-0.6,1.3-0.6,1.8-0.2l0,0l0,0l0,0c0.6,0.5,0.6,1.3,0.2,1.8
				C988.1-15.2,987.7-15,987.3-15z M979.6-22.1L979.6-22.1c-0.3,0-0.7-0.1-0.9-0.4l0,0c-0.5-0.5-0.5-1.3,0-1.9l0,0
				c0.5-0.5,1.3-0.5,1.8,0l0,0c0.5,0.5,0.5,1.3,0,1.8C980.2-22.2,979.9-22.1,979.6-22.1z M972.5-29.8L972.5-29.8
				c-0.4,0-0.8-0.2-1-0.5l0,0c-0.5-0.6-0.4-1.4,0.2-1.8l0,0c0.6-0.5,1.4-0.4,1.8,0.2l0,0l0,0l0,0c0.4,0.6,0.4,1.4-0.2,1.8
				C973.1-29.9,972.8-29.8,972.5-29.8z M966.7-38.5L966.7-38.5c-0.5,0-0.9-0.2-1.1-0.7l0,0c-0.4-0.6-0.1-1.4,0.5-1.8l0,0
				c0.6-0.4,1.4-0.1,1.8,0.5l0,0l0,0l0,0c0.4,0.6,0.1,1.4-0.5,1.8C967.1-38.5,966.9-38.5,966.7-38.5z"/>
		</g>
		<g id="XMLID_872_">
			<path id="XMLID_873_" class="st9" d="M962.7-48.1c0.4,0,0.7-0.1,0.9-0.4c0.2-0.2,0.4-0.6,0.4-0.9c0-0.3-0.1-0.7-0.4-0.9
				c-0.5-0.5-1.4-0.5-1.9,0c-0.2,0.2-0.4,0.6-0.4,0.9c0,0.4,0.1,0.7,0.4,0.9C962-48.3,962.4-48.1,962.7-48.1z"/>
		</g>
	</g>
	<g id="XMLID_869_">
		<path id="XMLID_870_" class="st3" d="M1081.2-66.4c0,0,35.6,1.7,52.5,17.7c0,0,5.6,35.1-88.7,76v-93.7H1081.2z"/>
	</g>
	<g id="XMLID_867_">
		<path id="XMLID_868_" class="st10" d="M1108.5-101.5c0,0-21,22.8-23.7,50.1c-0.6,6.3-3.1,12.3-7.4,16.9c-5.7,6.1-15.9,13-32.4,16
			l0-22.2L1108.5-101.5z"/>
	</g>
	<g id="XMLID_865_">
		<path id="XMLID_866_" class="st3" d="M1089.2-193.6L1089.2-193.6c0.1,0-5.8-11.1-10.6-17.6c-0.6-0.9-1.5-1.4-2.4-1.6
			c-6-1.3-30.4-7.1-31.2-17.7v168.3c0,0,0,0,0,0s0.3,0,0.4,0c33.3,0,60.4-34.8,60.4-77.8C1105.8-160.8,1099.5-179.6,1089.2-193.6z"
			/>
	</g>
	<g id="XMLID_861_">
		<path id="XMLID_863_" class="st2" d="M1045-231c0,10.9-24.9,16.9-31,18.2c-0.9,0.2-1.7,0.8-2.4,1.6c-4.8,6.5-10.7,17.6-10.7,17.6
			l0,0c-10.3,14-16.6,32.8-16.6,53.6c0,43,27,77.8,60.4,77.8c0.1,0,0.3,0,0.3,0v-168.3C1045-230.6,1045-230.8,1045-231z M1045-218.2
			c0,0.1,0,0.3,0,0.4c0,0,0,0,0,0V-218.2z"/>
	</g>
	<g id="XMLID_859_">
		<path id="XMLID_860_" class="st10" d="M1105.8-140.3c0,0,4.4,3.6,2.7,8.7c-1.7,5.1-1.3,14.3-63.4,4.2l0.3-0.4
			C1045.4-127.9,1108.7-116.7,1105.8-140.3z"/>
	</g>
	<g id="XMLID_824_">
		<g id="XMLID_857_">
			<path id="XMLID_858_" class="st11" d="M1107.5-138.1c-0.1-0.2-0.3-0.4-0.4-0.6C1107.3-138.5,1107.4-138.3,1107.5-138.1z"/>
		</g>
		<g id="XMLID_855_">
			<path id="XMLID_856_" class="st11" d="M1108.3-136.8c-0.1-0.1-0.1-0.3-0.2-0.4C1108.1-137,1108.2-136.9,1108.3-136.8z"/>
		</g>
		<g id="XMLID_853_">
			<path id="XMLID_854_" class="st11" d="M1108.1-137.1c-0.2-0.3-0.4-0.7-0.6-1C1107.7-137.8,1107.9-137.5,1108.1-137.1z"/>
		</g>
		<g id="XMLID_851_">
			<path id="XMLID_852_" class="st2" d="M981.2-133.6l-0.1,28.1c0,26.8,63.4,64.7,63.9,65v-86.9
				C991.9-121.1,981.6-127.7,981.2-133.6z"/>
		</g>
		<g id="XMLID_849_">
			<path id="XMLID_850_" class="st11" d="M1108.5-136.1c-0.1-0.2-0.2-0.5-0.3-0.7C1108.4-136.5,1108.4-136.3,1108.5-136.1z"/>
		</g>
		<g id="XMLID_847_">
			<path id="XMLID_848_" class="st3" d="M1108.9-134.7c-0.1-0.5-0.2-0.9-0.4-1.3c2.1,6.1-2.7,15.9-63.5,8.6c0,0,0,0,0,0v86.9
				c0,0,0,0,0,0s63.9-38,63.9-65L1108.9-134.7z"/>
		</g>
		<g id="XMLID_845_">
			<path id="XMLID_846_" class="st11" d="M1107.1-138.7c-0.1-0.2-0.2-0.3-0.4-0.5C1106.9-139.1,1107-138.9,1107.1-138.7z"/>
		</g>
		<g id="XMLID_843_">
			<path id="XMLID_844_" class="st11" d="M1105.8-140.3c0.4,0.4,0.7,0.7,1,1.1C1106.2-139.9,1105.8-140.3,1105.8-140.3z"/>
		</g>
		<g id="XMLID_841_">
			<path id="XMLID_842_" class="st11" d="M981.4-135.3c0.1-0.2,0.1-0.4,0.2-0.6C981.5-135.7,981.4-135.5,981.4-135.3z"/>
		</g>
		<g id="XMLID_839_">
			<path id="XMLID_840_" class="st11" d="M981.2-134.7l0,0.5c0-0.4,0.1-0.7,0.1-1C981.3-135.1,981.3-134.9,981.2-134.7z"/>
		</g>
		<g id="XMLID_837_">
			<path id="XMLID_838_" class="st11" d="M981.5-135.9c0.1-0.2,0.1-0.4,0.2-0.6C981.7-136.3,981.6-136.1,981.5-135.9z"/>
		</g>
		<g id="XMLID_835_">
			<path id="XMLID_836_" class="st11" d="M981.2-133.6l0-0.6C981.2-134,981.2-133.8,981.2-133.6z"/>
		</g>
		<g id="XMLID_833_">
			<path id="XMLID_834_" class="st11" d="M983.4-139.2c0.3-0.4,0.6-0.8,1-1.2C984.4-140.3,983.9-139.9,983.4-139.2z"/>
		</g>
		<g id="XMLID_831_">
			<path id="XMLID_832_" class="st11" d="M983.1-138.8c0.1-0.1,0.2-0.3,0.3-0.4C983.3-139.1,983.2-138.9,983.1-138.8z"/>
		</g>
		<g id="XMLID_829_">
			<path id="XMLID_830_" class="st11" d="M982.6-138c0.2-0.3,0.3-0.5,0.5-0.8C982.9-138.6,982.7-138.3,982.6-138z"/>
		</g>
		<g id="XMLID_827_">
			<path id="XMLID_828_" class="st11" d="M982.1-137.3c0.1-0.2,0.3-0.5,0.4-0.7C982.4-137.8,982.3-137.6,982.1-137.3z"/>
		</g>
		<g id="XMLID_825_">
			<path id="XMLID_826_" class="st11" d="M981.8-136.5c0.1-0.3,0.2-0.5,0.4-0.8C982-137.1,981.9-136.8,981.8-136.5z"/>
		</g>
	</g>
	<g id="XMLID_814_">
		<polygon id="XMLID_815_" class="st10" points="1048.4,-115.2 1055.1,-115.2 1055.1,-58.8 1048.4,-56 		"/>
	</g>
	<g id="XMLID_812_">
		<polygon id="XMLID_813_" class="st10" points="1058.5,-115.2 1065.2,-115.2 1065.2,-65.2 1058.5,-61.6 		"/>
	</g>
	<g id="XMLID_810_">
		<polygon id="XMLID_811_" class="st10" points="1071.5,-116.2 1075.5,-116.2 1075.5,-71.8 1071.5,-69 		"/>
	</g>
	<g id="XMLID_808_">
		<polygon id="XMLID_809_" class="st10" points="1081.2,-116.5 1084.6,-116.5 1084.6,-78.6 1081.2,-76.2 		"/>
	</g>
	<g id="XMLID_806_">
		<path id="XMLID_807_" class="st9" d="M984.4-140.3c0,0-4.4,3.6-2.7,8.7c1.7,5.1,1.3,14.3,63.4,4.2l-0.3-0.4
			C1044.8-127.9,981.5-116.7,984.4-140.3z"/>
	</g>
	<g id="XMLID_796_">
		<polygon id="XMLID_797_" class="st9" points="1041.7,-115.2 1034.9,-115.2 1034.9,-58.8 1041.7,-56 		"/>
	</g>
	<g id="XMLID_794_">
		<polygon id="XMLID_795_" class="st9" points="1031.6,-115.2 1024.8,-115.2 1024.8,-65.2 1031.6,-61.6 		"/>
	</g>
	<g id="XMLID_792_">
		<polygon id="XMLID_793_" class="st9" points="1018.7,-116.2 1014.7,-116.2 1014.7,-71.8 1018.7,-69 		"/>
	</g>
	<g id="XMLID_790_">
		<polygon id="XMLID_791_" class="st9" points="1009,-116.5 1005.6,-116.5 1005.6,-78.6 1009,-76.2 		"/>
	</g>
	<g id="XMLID_788_">
		<path id="XMLID_789_" class="st9" d="M1045-144.3c-0.7,0-1.3,0-2,0c-1.2-0.1-2.3-0.1-3.5-0.2c-2.3-0.1-4.5-0.4-6.7-0.7
			c-2.2-0.3-4.2-0.6-6.2-1c-2-0.4-3.8-0.8-5.5-1.2c-1.7-0.4-3.2-0.9-4.6-1.3c-1.4-0.4-2.5-0.8-3.5-1.2c-1.9-0.7-3-1.2-3-1.2
			s0.3,0,0.8,0.1c0.5,0.1,1.3,0.2,2.3,0.3c2,0.3,4.8,0.6,8.3,1c1.7,0.2,3.6,0.3,5.5,0.5c2,0.2,4,0.3,6.1,0.5
			c2.1,0.1,4.3,0.3,6.6,0.3c1.1,0,2.2,0.1,3.4,0.1c0.6,0,1.3,0,1.9,0"/>
	</g>
	<g id="XMLID_786_">
		<path id="XMLID_787_" class="st10" d="M1045-148.2c0.5,0,1,0,1.5,0c1.1,0,2.3,0.1,3.4,0c1.1,0,2.3-0.1,3.4-0.1
			c2.2,0,4.4-0.2,6.6-0.3c2.1-0.1,4.2-0.3,6.1-0.5c1-0.1,1.9-0.2,2.8-0.2c0.9-0.1,1.8-0.2,2.6-0.3c1.7-0.2,3.3-0.4,4.7-0.5
			c1.4-0.2,2.6-0.4,3.6-0.6c2-0.3,3.2-0.4,3.2-0.4s-1.1,0.4-3,1.2c-1,0.4-2.1,0.8-3.4,1.3c-1.3,0.4-2.9,0.8-4.6,1.3
			c-0.8,0.2-1.7,0.5-2.6,0.7c-0.9,0.2-1.9,0.4-2.9,0.5c-2,0.4-4,0.8-6.2,1c-2.2,0.2-4.4,0.6-6.7,0.6c-1.1,0.1-2.3,0.1-3.5,0.2
			c-1.2,0-2.3,0-3.5,0c-0.5,0-1,0-1.5,0"/>
	</g>
	<g id="XMLID_784_">
		<path id="XMLID_785_" class="st10" d="M1045,27.3c0,0,1.7-0.9,4.6-2.6c2.9-1.6,7-4,11.9-6.8c2.4-1.4,5.1-3,7.9-4.6
			c2.8-1.6,5.7-3.5,8.7-5.3c1.5-0.9,3-1.9,4.5-2.9c1.5-1,3.1-2,4.6-3c3.1-2,6.2-4.1,9.2-6.3c1.5-1.1,3-2.2,4.5-3.3
			c1.5-1.1,2.9-2.2,4.4-3.4c1.4-1.1,2.8-2.3,4.2-3.5c1.4-1.1,2.7-2.3,4-3.5c1.3-1.2,2.5-2.4,3.7-3.5c1.1-1.2,2.3-2.4,3.4-3.5
			c2.1-2.4,4-4.7,5.6-7c1.6-2.3,2.9-4.5,3.9-6.4c0.5-1,0.9-2,1.3-2.9c0.4-0.9,0.6-1.8,0.9-2.5c0.6-1.5,0.8-2.8,1-3.7
			c0.2-0.9,0.3-1.3,0.3-1.3s0,0.5,0,1.4c-0.1,0.9,0,2.2-0.3,3.9c-0.2,0.8-0.3,1.8-0.5,2.8c-0.3,1-0.6,2-0.9,3.2
			c-0.4,1.1-0.9,2.3-1.4,3.5c-0.2,0.6-0.5,1.2-0.9,1.8c-0.3,0.6-0.7,1.3-1,1.9c-0.6,1.3-1.5,2.5-2.3,3.9c-0.8,1.3-1.9,2.6-2.8,4
			c-1,1.3-2.1,2.6-3.2,4c-1.2,1.3-2.4,2.6-3.6,3.9c-2.6,2.5-5.3,5.2-8.2,7.5c-1.5,1.2-2.9,2.4-4.5,3.6c-1.5,1.2-3,2.3-4.6,3.5
			c-3.1,2.2-6.3,4.3-9.5,6.3c-3.2,2-6.4,3.8-9.5,5.6c-3.1,1.7-6.2,3.3-9.2,4.7c-2.9,1.5-5.8,2.7-8.4,3.9c-2.6,1.2-5,2.1-7.2,3
			c-2.2,0.9-4.1,1.5-5.6,2.1c-1.6,0.6-2.8,0.9-3.7,1.2C1045.5,27.1,1045,27.3,1045,27.3z"/>
	</g>
	<g id="XMLID_766_">
		<g id="XMLID_780_">
			<path id="XMLID_781_" class="st10" d="M1049.3,17.8c-0.3,0-0.7-0.1-0.9-0.4c-0.2-0.2-0.4-0.6-0.4-0.9c0-0.3,0.1-0.7,0.4-0.9
				c0.5-0.5,1.4-0.5,1.9,0c0.2,0.2,0.4,0.6,0.4,0.9c0,0.4-0.1,0.7-0.4,0.9C1050,17.7,1049.7,17.8,1049.3,17.8z"/>
		</g>
		<g id="XMLID_769_">
			<path id="XMLID_771_" class="st10" d="M1057.6,12.5c-0.3-0.6-0.1-1.4,0.6-1.7l0,0c0.7-0.3,1.4-0.1,1.8,0.6l0,0
				c0.3,0.6,0.1,1.4-0.6,1.7v0c-0.2,0.1-0.4,0.1-0.6,0.1l0,0C1058.2,13.2,1057.8,12.9,1057.6,12.5z M1066.8,7.6
				c-0.4-0.6-0.1-1.4,0.5-1.8l0,0l0,0l0,0c0.6-0.4,1.4-0.1,1.8,0.5l0,0c0.3,0.6,0.1,1.4-0.5,1.8l0,0c-0.2,0.1-0.4,0.2-0.6,0.2l0,0
				C1067.5,8.2,1067.1,8,1066.8,7.6z M1075.9,2.4c-0.4-0.6-0.2-1.4,0.5-1.8l0,0c0.6-0.4,1.4-0.2,1.8,0.4l0,0
				c0.4,0.6,0.2,1.4-0.4,1.8l0,0c-0.2,0.1-0.4,0.2-0.7,0.2l0,0C1076.6,3,1076.2,2.8,1075.9,2.4z M1084.8-3.2
				c-0.4-0.6-0.2-1.4,0.4-1.8l0,0c0.6-0.4,1.4-0.2,1.8,0.4l0,0c0.4,0.6,0.2,1.4-0.4,1.8l0,0c-0.2,0.1-0.5,0.2-0.7,0.2l0,0
				C1085.5-2.6,1085.1-2.8,1084.8-3.2z M1093.5-9.1c-0.4-0.6-0.3-1.4,0.3-1.8l0,0c0,0,0,0,0,0l0,0c0.6-0.4,1.4-0.3,1.8,0.3l0,0
				c0.4,0.6,0.3,1.4-0.3,1.8l0,0c-0.2,0.2-0.5,0.2-0.8,0.2l0,0C1094.1-8.6,1093.7-8.8,1093.5-9.1z M1101.8-15.5
				c-0.5-0.5-0.4-1.4,0.2-1.8l0,0l0,0l0,0c0.5-0.5,1.4-0.4,1.8,0.2l0,0c0.5,0.5,0.4,1.4-0.2,1.8l0,0c-0.2,0.2-0.5,0.3-0.8,0.3l0,0
				C1102.4-15,1102-15.2,1101.8-15.5z M1109.6-22.5c-0.5-0.5-0.5-1.3,0-1.8l0,0c0.5-0.5,1.3-0.5,1.8,0l0,0c0.5,0.5,0.5,1.3,0,1.9
				l0,0c-0.3,0.2-0.6,0.4-0.9,0.4l0,0C1110.2-22.1,1109.9-22.2,1109.6-22.5z M1116.8-30.1c-0.6-0.5-0.7-1.3-0.2-1.8l0,0l0,0l0,0
				c0.5-0.6,1.3-0.7,1.8-0.2l0,0c0.6,0.5,0.7,1.3,0.2,1.8l0,0c-0.3,0.3-0.6,0.5-1,0.5l0,0C1117.3-29.8,1117-29.9,1116.8-30.1z
				 M1122.8-38.6c-0.6-0.4-0.9-1.1-0.5-1.8l0,0l0,0l0,0c0.4-0.6,1.1-0.9,1.8-0.5l0,0c0.6,0.4,0.9,1.1,0.5,1.8l0,0
				c-0.2,0.4-0.7,0.7-1.1,0.7l0,0C1123.2-38.5,1123-38.5,1122.8-38.6z"/>
		</g>
		<g id="XMLID_767_">
			<path id="XMLID_768_" class="st12" d="M1127.4-48.1c-0.4,0-0.7-0.1-0.9-0.4c-0.2-0.2-0.4-0.6-0.4-0.9c0-0.3,0.1-0.7,0.4-0.9
				c0.5-0.5,1.4-0.5,1.9,0c0.2,0.2,0.4,0.6,0.4,0.9c0,0.4-0.1,0.7-0.4,0.9C1128.1-48.3,1127.7-48.1,1127.4-48.1z"/>
		</g>
	</g>
	<g id="XMLID_764_">
		<path id="XMLID_765_" class="st13" d="M1045,10"/>
	</g>
	<g id="XMLID_762_">
		<path id="XMLID_763_" class="st13" d="M1035.4,14.3"/>
	</g>
	<g id="XMLID_760_">
		<path id="XMLID_761_" class="st14" d="M1047.3-222.6c0,0,0.4,0.3,1,0.9c0.7,0.5,1.6,1.3,2.8,2.1c0.6,0.4,1.3,0.8,2,1.2
			c0.7,0.4,1.5,0.9,2.3,1.3c0.8,0.5,1.6,0.8,2.5,1.2c0.9,0.4,1.7,0.8,2.6,1.1c0.9,0.3,1.8,0.7,2.7,1c0.9,0.3,1.8,0.6,2.6,0.9
			c0.9,0.2,1.7,0.5,2.5,0.7c0.8,0.2,1.6,0.4,2.3,0.5c1.4,0.4,2.6,0.6,3.4,0.7c0.8,0.2,1.3,0.3,1.3,0.3s-0.5,0-1.3,0
			c-0.9-0.1-2.1,0-3.5-0.2c-0.7-0.1-1.5-0.2-2.4-0.3c-0.8-0.2-1.7-0.3-2.6-0.5c-0.9-0.2-1.8-0.5-2.7-0.8c-0.9-0.3-1.8-0.7-2.8-1
			c-1.8-0.8-3.6-1.6-5.2-2.6c-0.8-0.5-1.5-1-2.2-1.5c-0.7-0.5-1.3-1-1.9-1.5c-1.1-1-2-1.9-2.6-2.5
			C1047.6-222.2,1047.3-222.6,1047.3-222.6z"/>
	</g>
	<g id="XMLID_758_">
		<circle id="XMLID_759_" class="st14" cx="1074.1" cy="-208.3" r="0.7"/>
	</g>
	<g id="XMLID_756_">
		<path id="XMLID_757_" class="st14" d="M1042.5-222.6c0,0-0.3,0.4-0.8,1.1c-0.6,0.6-1.4,1.5-2.6,2.5c-0.6,0.5-1.2,1-1.9,1.5
			c-0.7,0.5-1.4,1-2.2,1.5c-1.6,1-3.4,1.8-5.2,2.6c-0.9,0.3-1.9,0.7-2.8,1c-0.9,0.3-1.9,0.5-2.7,0.8c-0.9,0.2-1.8,0.4-2.6,0.5
			c-0.8,0.2-1.6,0.2-2.4,0.3c-1.5,0.2-2.7,0.2-3.5,0.2c-0.9,0-1.3,0-1.3,0s0.5-0.1,1.3-0.3c0.8-0.2,2-0.4,3.4-0.7
			c0.7-0.2,1.5-0.3,2.3-0.5c0.8-0.2,1.6-0.5,2.5-0.7c0.9-0.3,1.7-0.6,2.6-0.9c0.9-0.3,1.8-0.7,2.7-1c0.9-0.4,1.8-0.7,2.6-1.1
			c0.8-0.4,1.7-0.8,2.5-1.2c0.8-0.4,1.6-0.8,2.3-1.3c0.7-0.4,1.4-0.9,2-1.2c1.2-0.8,2.2-1.5,2.8-2.1
			C1042.1-222.3,1042.5-222.6,1042.5-222.6z"/>
	</g>
	<g id="XMLID_754_">
		<circle id="XMLID_755_" class="st14" cx="1015.8" cy="-208.3" r="0.7"/>
	</g>
</g>
</svg>
