<?xml version="1.0" encoding="utf-8"?>
<!-- Generator: Adobe Illustrator 19.0.0, SVG Export Plug-In . SVG Version: 6.00 Build 0)  -->
<svg version="1.1" id="Layer_1" xmlns="http://www.w3.org/2000/svg" xmlns:xlink="http://www.w3.org/1999/xlink" x="0px" y="0px"
	 viewBox="-57.6 26.8 117.5 117.5" style="enable-background:new -57.6 26.8 117.5 117.5;" xml:space="preserve">
<style type="text/css">
	.st0{fill:#FFFFFF;}
	.st1{fill:#9BB9DD;}
	.st2{fill:#DBDBDB;}
	.st3{fill:#8E8E8E;}
</style>
<g id="XMLID_561_">
	<g id="XMLID_3331_">
		<path id="XMLID_3333_" class="st0" d="M20.3,30c23,8,39.6,29.8,39.6,55.6c0,32.5-26.3,58.8-58.8,58.8S-57.6,118-57.6,85.6
			s26.3-58.8,58.8-58.8c4.3,0,8.5,0.5,12.5,1.3"/>
		<path id="XMLID_2588_" class="st1" d="M15.5,44.1C32.7,50,45,66.4,45,85.6c0,24.2-19.6,43.9-43.9,43.9s-43.9-19.6-43.9-43.9
			s19.6-43.9,43.9-43.9c3.2,0,6.3,0.3,9.4,1"/>
		<path id="XMLID_3332_" class="st0" d="M13.7,28.1c2.3,0.5,4.5,1.1,6.7,1.9"/>
	</g>
	<g id="XMLID_548_">
		<path id="XMLID_537_" class="st0" d="M20.3,74.7c0.1-3.6-1.7-14.7-18.9-5.5c-17.2-9.2-19,1.9-18.9,5.5c0.1,4,1.9,9.1,5.1,14.3
			c-3.6,12.2-0.8,20.7,4.4,21.7c2.3-0.6,3.4-16.6,9.4-16.4c6-0.2,7.1,15.8,9.4,16.4c5.2-1,8-9.4,4.4-21.7
			C18.4,83.8,20.2,78.7,20.3,74.7z"/>
		<g id="XMLID_2590_">
			<path class="st2" d="M-14.2,82c0,0-0.7-1.3-1-3.6c-0.1-0.6-0.2-1.2-0.2-1.8c0-0.6-0.1-1.3,0-2.1c0.1-1.4,0.5-3,1.5-4.3
				c0.5-0.7,1.1-1.2,1.8-1.7c0.7-0.5,1.4-0.7,2.1-0.9c0.4-0.1,0.7-0.1,1.1-0.2c0.3,0,0.7,0,1,0c0.7,0,1.3,0.1,1.8,0.2
				c0.6,0.1,1.1,0.2,1.5,0.3c0.4,0.1,0.8,0.2,1.1,0.4c0.6,0.2,0.9,0.4,0.9,0.4s-0.4,0-1-0.1c-0.3,0-0.7-0.1-1.1-0.1
				c-0.4,0-0.9-0.1-1.5-0.1c-0.5,0-1.1,0-1.7,0.1c-0.3,0-0.6,0.1-0.9,0.1c-0.3,0.1-0.6,0.1-0.9,0.2c-0.6,0.2-1.2,0.4-1.7,0.8
				c-0.5,0.3-1,0.8-1.3,1.3c-0.4,0.5-0.7,1.1-0.9,1.7c-0.2,0.6-0.4,1.3-0.5,1.9c-0.2,1.3-0.2,2.5-0.2,3.6c0,1.1,0.1,2,0.1,2.6
				C-14.3,81.6-14.2,82-14.2,82z"/>
		</g>
		<g id="XMLID_2591_">
			<path class="st2" d="M11.4,109.3c0,0,0.2-0.2,0.5-0.7c0.1-0.2,0.3-0.5,0.5-0.8c0.2-0.3,0.4-0.7,0.6-1.1c0.2-0.4,0.4-0.9,0.6-1.4
				c0.2-0.5,0.3-1,0.5-1.6c0.2-0.6,0.3-1.2,0.4-1.7c0.1-0.6,0.2-1.2,0.2-1.8c0-0.6,0.1-1.2,0.1-1.8c0-0.6,0.1-1.2,0-1.8
				c0-0.6,0-1.1-0.1-1.7c-0.1-0.5-0.1-1-0.2-1.5c-0.1-0.9-0.2-1.7-0.3-2.3c-0.1-0.5-0.1-0.9-0.1-0.9s0.1,0.3,0.3,0.8
				c0.1,0.3,0.2,0.6,0.3,1c0.1,0.4,0.2,0.8,0.3,1.3c0.1,0.5,0.2,1,0.3,1.5c0.1,0.5,0.1,1.1,0.2,1.7c0.1,0.6,0,1.2,0.1,1.8
				c0,0.6-0.1,1.3-0.1,1.9c0,0.6-0.2,1.3-0.3,1.9c-0.1,0.6-0.3,1.2-0.5,1.8c-0.2,0.6-0.4,1.1-0.6,1.6c-0.2,0.5-0.5,1-0.7,1.4
				c-0.5,0.8-1,1.5-1.3,1.9C11.7,109.1,11.4,109.3,11.4,109.3z"/>
		</g>
		<path id="XMLID_2611_" class="st3" d="M6.4,66.9c0,0-0.6,2.9,3.7,2.9c0,0-0.7,3.1,3.1,3.1c0,0-0.9,3.5,3.1,3.5
			c0,0-1.2,3.4,3.3,3.4c0,0,2.9-8.2-1.6-12.3C13.8,63.8,8,66.3,6.4,66.9z"/>
	</g>
</g>
</svg>
