<?xml version="1.0" encoding="utf-8"?>
<!-- Generator: Adobe Illustrator 19.0.0, SVG Export Plug-In . SVG Version: 6.00 Build 0)  -->
<svg version="1.1" id="Layer_1" xmlns="http://www.w3.org/2000/svg" xmlns:xlink="http://www.w3.org/1999/xlink" x="0px" y="0px"
	 viewBox="205 5.1 649.3 161" style="enable-background:new 205 5.1 649.3 161;" xml:space="preserve">
<style type="text/css">
	.st0{fill:#F7C85E;stroke:#E0E0E0;stroke-width:6.004;stroke-linecap:round;stroke-miterlimit:10;stroke-dasharray:0,10.5069;}
</style>
<g id="XMLID_355_">
	<path id="XMLID_3_" class="st0" d="M824.6,163.3h-590c-14.8,0-26.8-12-26.8-26.8V34.7c0-14.8,12-26.8,26.8-26.8h590
		c14.8,0,26.8,12,26.8,26.8v101.7C851.5,151.3,839.5,163.3,824.6,163.3z"/>
	<path id="XMLID_2_" class="st0" d="M824.6,163.3h-590c-14.8,0-26.8-12-26.8-26.8V34.7c0-14.8,12-26.8,26.8-26.8h590
		c14.8,0,26.8,12,26.8,26.8v101.7C851.5,151.3,839.5,163.3,824.6,163.3z"/>
</g>
</svg>
