<?xml version="1.0" encoding="utf-8"?>
<!-- Generator: Adobe Illustrator 19.0.0, SVG Export Plug-In . SVG Version: 6.00 Build 0)  -->
<svg version="1.1" id="Layer_1" xmlns="http://www.w3.org/2000/svg" xmlns:xlink="http://www.w3.org/1999/xlink" x="0px" y="0px"
	 viewBox="-56.8 27.6 115.9 115.9" style="enable-background:new -56.8 27.6 115.9 115.9;" xml:space="preserve">
<style type="text/css">
	.st0{fill:#FFFFFF;}
	.st1{fill:#EAB765;}
	.st2{fill:#D9A600;}
	.st3{fill:#FFDB05;}
	.st4{fill:#D6B60B;}
	.st5{fill:#ECBD0C;}
	.st6{fill:#FFCC05;}
	.st7{opacity:0.2;fill:#FFFFFF;}
</style>
<g>
	<g id="XMLID_7175_">
		<circle id="XMLID_7177_" class="st0" cx="1.1" cy="85.6" r="58"/>
	</g>
	<g id="XMLID_11094_">
		<ellipse id="XMLID_11648_" class="st1" cx="2.3" cy="112.8" rx="23.9" ry="7.7"/>
		<g id="XMLID_11096_">
			<polygon id="XMLID_11647_" class="st2" points="25.1,108 25.1,59.2 -20.5,59.1 -20.5,109 			"/>
			<g id="XMLID_11097_">
				<g id="XMLID_11112_">
					<g id="XMLID_11589_">
						<path id="XMLID_11646_" class="st2" d="M2.3,94c-12.6,0-22.8,4.7-22.8,10.4c0,5.7,10.2,10.4,22.8,10.4
							c12.6,0,22.8-4.7,22.8-10.4C25.1,98.7,14.9,94,2.3,94z"/>
						<path id="XMLID_11645_" class="st3" d="M2.3,95.7c-10.5,0-19,3.5-19,7.7c0,4.3,8.5,7.7,19,7.7c10.5,0,19-3.5,19-7.7
							C21.3,99.2,12.8,95.7,2.3,95.7z"/>
						<path id="XMLID_11596_" class="st4" d="M2.3,111.3l0-0.2V111h0c0.3,0,0.6,0,0.9,0l0,0.3C2.9,111.3,2.6,111.3,2.3,111.3z
							 M1.4,111.3c-0.3,0-0.6,0-0.9,0l0-0.3c0.3,0,0.6,0,0.9,0L1.4,111.3z M4.1,111.3l0-0.3c0.3,0,0.6,0,0.9,0l0,0.3
							C4.7,111.3,4.4,111.3,4.1,111.3z M-0.5,111.2c-0.3,0-0.6,0-0.9-0.1l0-0.3c0.3,0,0.6,0,0.9,0.1L-0.5,111.2z M5.9,111.2l0-0.3
							c0.3,0,0.6-0.1,0.9-0.1l0,0.3C6.6,111.1,6.3,111.2,5.9,111.2z M-2.3,111.1c-0.3,0-0.6-0.1-0.9-0.1l0-0.3
							c0.3,0,0.6,0.1,0.9,0.1L-2.3,111.1z M7.8,111l0-0.3c0.3,0,0.6-0.1,0.9-0.1l0,0.3C8.4,110.9,8.1,111,7.8,111z M-4.1,110.9
							c-0.3,0-0.6-0.1-0.9-0.1l0-0.3c0.3,0.1,0.6,0.1,0.9,0.1L-4.1,110.9z M9.6,110.7l0-0.3c0.3-0.1,0.6-0.1,0.9-0.2l0.1,0.3
							C10.2,110.6,9.9,110.7,9.6,110.7z M-5.9,110.6c-0.3-0.1-0.6-0.1-0.9-0.2l0.1-0.3c0.3,0.1,0.6,0.1,0.9,0.2L-5.9,110.6z
							 M11.4,110.4l-0.1-0.3c0.3-0.1,0.6-0.1,0.9-0.2l0.1,0.3C12,110.3,11.7,110.3,11.4,110.4z M-7.7,110.2
							c-0.3-0.1-0.6-0.2-0.9-0.2l0.1-0.3c0.3,0.1,0.6,0.2,0.9,0.2L-7.7,110.2z M13.2,109.9l-0.1-0.3c0.3-0.1,0.6-0.2,0.9-0.3
							l0.1,0.3C13.7,109.8,13.5,109.9,13.2,109.9z M-9.5,109.7c-0.3-0.1-0.6-0.2-0.9-0.3l0.1-0.3c0.3,0.1,0.6,0.2,0.9,0.3
							L-9.5,109.7z M14.9,109.4l-0.1-0.3c0.3-0.1,0.6-0.2,0.8-0.3l0.1,0.3C15.5,109.2,15.2,109.3,14.9,109.4z M-11.2,109
							c-0.3-0.1-0.6-0.2-0.8-0.4l0.1-0.3c0.3,0.1,0.5,0.2,0.8,0.4L-11.2,109z M16.6,108.7l-0.1-0.3c0.3-0.1,0.6-0.3,0.8-0.4l0.1,0.3
							C17.2,108.4,16.9,108.6,16.6,108.7z M-12.8,108.3c-0.3-0.1-0.5-0.3-0.8-0.5l0.2-0.3c0.2,0.2,0.5,0.3,0.8,0.4L-12.8,108.3z
							 M18.2,107.8l-0.2-0.3c0.3-0.2,0.5-0.3,0.7-0.5l0.2,0.2C18.8,107.5,18.5,107.7,18.2,107.8z M-14.4,107.3
							c-0.3-0.2-0.5-0.4-0.7-0.6l0.2-0.2c0.2,0.2,0.4,0.4,0.7,0.6L-14.4,107.3z M19.7,106.7l-0.2-0.2c0.2-0.2,0.4-0.4,0.6-0.6
							l0.2,0.2C20.2,106.3,20,106.5,19.7,106.7z M-15.8,106c-0.2-0.3-0.4-0.5-0.5-0.8l0.3-0.1c0.1,0.2,0.3,0.5,0.5,0.7L-15.8,106z
							 M20.9,105.3l-0.3-0.1c0.1-0.3,0.3-0.5,0.3-0.8l0.3,0.1C21.2,104.7,21.1,105,20.9,105.3z M-16.7,104.4
							c-0.1-0.3-0.1-0.6-0.1-0.9l0.3,0v0c0,0.3,0,0.6,0.1,0.8L-16.7,104.4z M21.4,103.5l-0.3,0l0.2,0l-0.2,0c0-0.3,0-0.6-0.1-0.8
							l0.3-0.1C21.4,102.8,21.4,103.2,21.4,103.5L21.4,103.5z M-16.4,102.6l-0.3-0.1c0.1-0.3,0.2-0.6,0.4-0.9l0.3,0.1
							C-16.2,102.1-16.3,102.3-16.4,102.6z M20.7,101.8c-0.1-0.2-0.3-0.5-0.5-0.7l0.2-0.2c0.2,0.3,0.4,0.5,0.5,0.8L20.7,101.8z
							 M-15.5,101.1l-0.2-0.2c0.2-0.2,0.4-0.5,0.6-0.7l0.2,0.2C-15.1,100.6-15.3,100.9-15.5,101.1z M19.6,100.5
							c-0.2-0.2-0.4-0.4-0.7-0.6l0.2-0.2c0.3,0.2,0.5,0.4,0.7,0.6L19.6,100.5z M-14.2,99.9l-0.2-0.2c0.2-0.2,0.5-0.3,0.8-0.5
							l0.2,0.3C-13.7,99.5-14,99.7-14.2,99.9z M18.1,99.4c-0.2-0.2-0.5-0.3-0.8-0.5l0.1-0.3c0.3,0.2,0.5,0.3,0.8,0.5L18.1,99.4z
							 M-12.7,98.9l-0.1-0.3c0.3-0.1,0.5-0.3,0.8-0.4l0.1,0.3C-12.2,98.6-12.4,98.8-12.7,98.9z M16.5,98.5c-0.3-0.1-0.5-0.2-0.8-0.4
							l0.1-0.3c0.3,0.1,0.6,0.2,0.8,0.4L16.5,98.5z M-11,98.1l-0.1-0.3c0.3-0.1,0.6-0.2,0.9-0.3l0.1,0.3C-10.5,97.9-10.8,98-11,98.1
							z M14.9,97.8c-0.3-0.1-0.6-0.2-0.9-0.3l0.1-0.3c0.3,0.1,0.6,0.2,0.9,0.3L14.9,97.8z M-9.3,97.5l-0.1-0.3
							c0.3-0.1,0.6-0.2,0.9-0.3l0.1,0.3C-8.8,97.4-9.1,97.4-9.3,97.5z M13.1,97.3c-0.3-0.1-0.6-0.2-0.9-0.2l0.1-0.3
							c0.3,0.1,0.6,0.2,0.9,0.2L13.1,97.3z M-7.6,97l-0.1-0.3c0.3-0.1,0.6-0.1,0.9-0.2l0.1,0.3C-7,96.9-7.3,97-7.6,97z M11.4,96.8
							c-0.3-0.1-0.6-0.1-0.9-0.2l0.1-0.3c0.3,0.1,0.6,0.1,0.9,0.2L11.4,96.8z M-5.8,96.6l-0.1-0.3c0.3-0.1,0.6-0.1,0.9-0.2l0.1,0.3
							C-5.2,96.5-5.5,96.6-5.8,96.6z M9.6,96.5c-0.3-0.1-0.6-0.1-0.9-0.1l0-0.3c0.3,0,0.6,0.1,0.9,0.1L9.6,96.5z M-4,96.3l0-0.3
							c0.3,0,0.6-0.1,0.9-0.1l0,0.3C-3.4,96.3-3.7,96.3-4,96.3z M7.8,96.2c-0.3,0-0.6-0.1-0.9-0.1l0-0.3c0.3,0,0.6,0.1,0.9,0.1
							L7.8,96.2z M-2.2,96.1l0-0.3c0.3,0,0.6-0.1,0.9-0.1l0,0.3C-1.6,96.1-1.9,96.1-2.2,96.1z M6,96c-0.3,0-0.6,0-0.9-0.1l0-0.3
							c0.3,0,0.6,0,0.9,0.1L6,96z M-0.4,96l0-0.3c0.3,0,0.6,0,0.9,0l0,0.3C0.2,95.9-0.1,96-0.4,96z M4.2,95.9c-0.3,0-0.6,0-0.9,0
							l0-0.3c0.3,0,0.6,0,0.9,0L4.2,95.9z M1.4,95.9l0-0.3c0.3,0,0.6,0,0.9,0h0v0.3h0C2,95.9,1.7,95.9,1.4,95.9z"/>
						<g id="XMLID_11593_">
							<path id="XMLID_11594_" class="st4" d="M5,101.4C5,100.5,4,100,3,100c-0.4,0-1.1,0.2-1.1,0.7c0,1.3,6.3,1,6.6,4.2
								c0.2,2.3-2.2,3.2-4.3,3.2c-0.2,0-0.4,0-0.6,0l0,1H2.5l0-1.2c-0.9-0.3-1.5-0.7-1.9-1.1l-0.2,1.2h-3l0.2-3.7h3.1
								c0,1.2,1.4,1.4,2.1,1.4c0.6,0,1.4-0.1,1.4-0.7c0-1.1-6.4-0.6-6.2-4c0.1-1.8,2.2-2.6,3.7-2.6c0.2,0,0.5,0,0.7,0l0-0.8h0.9l0,1
								c0.6,0.2,1.2,0.5,1.6,1l0.1-1h2.6l0.3,3.1H5z"/>
						</g>
						<path id="XMLID_11590_" class="st5" d="M20.9,109.3c-1.2,0.7-2.6,1.4-4.1,2c-1.3,0.5-2.7,0.9-4.1,1.2
							c-1.3,0.3-2.7,0.5-4.1,0.7c-1.3,0.2-2.7,0.3-4.1,0.3c-0.7,0-1.3,0-2,0c-0.7,0-1.4,0-2.1,0c-1.4-0.1-2.8-0.2-4.1-0.3
							c-1.4-0.2-2.8-0.4-4.1-0.7c-1.5-0.3-2.9-0.7-4.1-1.2c-1.6-0.6-3-1.2-4.1-2c-2-1.3-3.5-2.8-4-4.4c0,1.4,0,4.3,0,5.6
							c0.7,1.5,2.1,2.9,4,4.2c1.2,0.7,2.6,1.4,4.1,2c1.3,0.5,2.7,0.9,4.1,1.3c1.3,0.3,2.7,0.6,4.1,0.8c1.3,0.2,2.7,0.3,4.1,0.4
							c0.7,0,1.4,0,2.1,0c0.7,0,1.4,0,2,0c1.4-0.1,2.8-0.2,4.1-0.4c1.4-0.2,2.8-0.4,4.1-0.8c1.5-0.3,2.9-0.8,4.1-1.2
							c1.6-0.6,3-1.2,4.1-2c2-1.2,3.5-2.7,4.1-4.2c0-1.3,0-4.2,0-5.6C24.5,106.5,23,108,20.9,109.3z"/>
					</g>
					<path id="XMLID_11588_" class="st2" d="M2.3,86.7c-12.6,0-22.8,4.7-22.8,10.4c0,5.7,10.2,10.4,22.8,10.4
						c12.6,0,22.8-3.5,22.8-10.4C25.1,91.3,14.9,86.7,2.3,86.7z"/>
					<path id="XMLID_11587_" class="st3" d="M2.3,88.2c-10.5,0-19,3.5-19,7.7c0,4.3,8.5,7.7,19,7.7c10.5,0,19-3.5,19-7.7
						C21.3,91.7,12.8,88.2,2.3,88.2z"/>
					<path id="XMLID_11538_" class="st4" d="M2.3,103.8l0-0.2v-0.2h0c0.3,0,0.6,0,0.9,0l0,0.3C2.9,103.8,2.6,103.8,2.3,103.8z
						 M1.4,103.8c-0.3,0-0.6,0-0.9,0l0-0.3c0.3,0,0.6,0,0.9,0L1.4,103.8z M4.1,103.8l0-0.3c0.3,0,0.6,0,0.9,0l0,0.3
						C4.7,103.7,4.4,103.8,4.1,103.8z M-0.5,103.7c-0.3,0-0.6,0-0.9-0.1l0-0.3c0.3,0,0.6,0,0.9,0.1L-0.5,103.7z M5.9,103.7l0-0.3
						c0.3,0,0.6-0.1,0.9-0.1l0,0.3C6.6,103.6,6.3,103.6,5.9,103.7z M-2.3,103.6c-0.3,0-0.6-0.1-0.9-0.1l0-0.3c0.3,0,0.6,0.1,0.9,0.1
						L-2.3,103.6z M7.8,103.5l0-0.3c0.3,0,0.6-0.1,0.9-0.1l0,0.3C8.4,103.4,8.1,103.4,7.8,103.5z M-4.1,103.3
						c-0.3,0-0.6-0.1-0.9-0.1l0-0.3c0.3,0,0.6,0.1,0.9,0.1L-4.1,103.3z M9.6,103.2l0-0.3c0.3-0.1,0.6-0.1,0.9-0.2l0.1,0.3
						C10.2,103.1,9.9,103.2,9.6,103.2z M-5.9,103c-0.3-0.1-0.6-0.1-0.9-0.2l0.1-0.3c0.3,0.1,0.6,0.1,0.9,0.2L-5.9,103z M11.4,102.9
						l-0.1-0.3c0.3-0.1,0.6-0.1,0.9-0.2l0.1,0.3C12,102.7,11.7,102.8,11.4,102.9z M-7.7,102.6c-0.3-0.1-0.6-0.2-0.9-0.2l0.1-0.3
						c0.3,0.1,0.6,0.2,0.9,0.2L-7.7,102.6z M13.2,102.4l-0.1-0.3c0.3-0.1,0.6-0.2,0.9-0.3l0.1,0.3C13.7,102.2,13.5,102.3,13.2,102.4
						z M-9.5,102.1c-0.3-0.1-0.6-0.2-0.9-0.3l0.1-0.3c0.3,0.1,0.6,0.2,0.9,0.3L-9.5,102.1z M14.9,101.9l-0.1-0.3
						c0.3-0.1,0.6-0.2,0.8-0.3l0.1,0.3C15.5,101.6,15.2,101.7,14.9,101.9z M-11.2,101.5c-0.3-0.1-0.6-0.2-0.8-0.4l0.1-0.3
						c0.3,0.1,0.5,0.2,0.8,0.4L-11.2,101.5z M16.6,101.2l-0.1-0.3c0.3-0.1,0.6-0.3,0.8-0.4l0.1,0.3C17.2,100.9,16.9,101,16.6,101.2z
						 M-12.8,100.7c-0.3-0.1-0.5-0.3-0.8-0.5l0.2-0.3c0.2,0.2,0.5,0.3,0.8,0.5L-12.8,100.7z M18.2,100.3l-0.2-0.3
						c0.3-0.2,0.5-0.3,0.7-0.5l0.2,0.2C18.8,100,18.5,100.1,18.2,100.3z M-14.4,99.8c-0.3-0.2-0.5-0.4-0.7-0.6l0.2-0.2
						c0.2,0.2,0.4,0.4,0.7,0.6L-14.4,99.8z M19.7,99.2L19.5,99c0.2-0.2,0.4-0.4,0.6-0.6l0.2,0.2C20.2,98.7,20,99,19.7,99.2z
						 M-15.8,98.5c-0.2-0.3-0.4-0.5-0.5-0.8l0.3-0.1c0.1,0.2,0.3,0.5,0.5,0.7L-15.8,98.5z M20.9,97.8l-0.3-0.2
						c0.1-0.3,0.3-0.5,0.3-0.8l0.3,0.1C21.2,97.2,21.1,97.5,20.9,97.8z M-16.7,96.9c-0.1-0.3-0.1-0.6-0.1-0.9l0.3,0v0
						c0,0.3,0,0.6,0.1,0.8L-16.7,96.9z M21.4,96l-0.3,0l0.2,0l-0.2,0c0-0.3,0-0.6-0.1-0.8l0.3-0.1C21.4,95.3,21.4,95.6,21.4,96
						L21.4,96z M-16.4,95.1l-0.3-0.1c0.1-0.3,0.2-0.6,0.4-0.9l0.3,0.1C-16.2,94.5-16.3,94.8-16.4,95.1z M20.7,94.3
						c-0.1-0.2-0.3-0.5-0.5-0.7l0.2-0.2c0.2,0.3,0.4,0.5,0.5,0.8L20.7,94.3z M-15.5,93.5l-0.2-0.2c0.2-0.2,0.4-0.5,0.6-0.7l0.2,0.2
						C-15.1,93.1-15.3,93.3-15.5,93.5z M19.6,92.9c-0.2-0.2-0.4-0.4-0.7-0.6l0.2-0.2c0.3,0.2,0.5,0.4,0.7,0.6L19.6,92.9z
						 M-14.2,92.3l-0.2-0.2c0.2-0.2,0.5-0.3,0.8-0.5l0.2,0.3C-13.7,92-14,92.2-14.2,92.3z M18.1,91.8c-0.2-0.2-0.5-0.3-0.8-0.5
						l0.1-0.3c0.3,0.1,0.5,0.3,0.8,0.5L18.1,91.8z M-12.7,91.4l-0.1-0.3c0.3-0.1,0.5-0.3,0.8-0.4l0.1,0.3
						C-12.2,91.1-12.4,91.2-12.7,91.4z M16.5,91c-0.3-0.1-0.5-0.2-0.8-0.4l0.1-0.3c0.3,0.1,0.6,0.2,0.8,0.4L16.5,91z M-11,90.6
						l-0.1-0.3c0.3-0.1,0.6-0.2,0.9-0.3l0.1,0.3C-10.5,90.4-10.8,90.5-11,90.6z M14.9,90.3c-0.3-0.1-0.6-0.2-0.9-0.3l0.1-0.3
						c0.3,0.1,0.6,0.2,0.9,0.3L14.9,90.3z M-9.3,90l-0.1-0.3c0.3-0.1,0.6-0.2,0.9-0.3l0.1,0.3C-8.8,89.8-9.1,89.9-9.3,90z
						 M13.1,89.8c-0.3-0.1-0.6-0.2-0.9-0.2l0.1-0.3c0.3,0.1,0.6,0.2,0.9,0.2L13.1,89.8z M-7.6,89.5l-0.1-0.3
						c0.3-0.1,0.6-0.1,0.9-0.2l0.1,0.3C-7,89.4-7.3,89.4-7.6,89.5z M11.4,89.3c-0.3-0.1-0.6-0.1-0.9-0.2l0.1-0.3
						c0.3,0.1,0.6,0.1,0.9,0.2L11.4,89.3z M-5.8,89.1l-0.1-0.3c0.3-0.1,0.6-0.1,0.9-0.2l0.1,0.3C-5.2,89-5.5,89.1-5.8,89.1z M9.6,89
						c-0.3-0.1-0.6-0.1-0.9-0.1l0-0.3c0.3,0,0.6,0.1,0.9,0.1L9.6,89z M-4,88.8l0-0.3c0.3,0,0.6-0.1,0.9-0.1l0,0.3
						C-3.4,88.7-3.7,88.8-4,88.8z M7.8,88.7c-0.3,0-0.6-0.1-0.9-0.1l0-0.3c0.3,0,0.6,0.1,0.9,0.1L7.8,88.7z M-2.2,88.6l0-0.3
						c0.3,0,0.6-0.1,0.9-0.1l0,0.3C-1.6,88.5-1.9,88.6-2.2,88.6z M6,88.5c-0.3,0-0.6,0-0.9-0.1l0-0.3c0.3,0,0.6,0,0.9,0.1L6,88.5z
						 M-0.4,88.4l0-0.3c0.3,0,0.6,0,0.9,0l0,0.3C0.2,88.4-0.1,88.4-0.4,88.4z M4.2,88.4c-0.3,0-0.6,0-0.9,0l0-0.3c0.3,0,0.6,0,0.9,0
						L4.2,88.4z M1.4,88.4l0-0.3c0.3,0,0.6,0,0.9,0h0v0.3h0C2,88.4,1.7,88.4,1.4,88.4z"/>
					<g id="XMLID_11535_">
						<path id="XMLID_11536_" class="st4" d="M5,92.9C5,91.9,4,91.4,3,91.4c-0.4,0-1.1,0.2-1.1,0.7c0,1.3,6.3,1,6.6,4.2
							c0.2,2.3-2.2,3.2-4.3,3.2c-0.2,0-0.4,0-0.6,0l0,1H2.5l0-1.2C1.7,98.9,1,98.4,0.6,98l-0.2,1.2h-3l0.2-3.7h3.1
							c0,1.2,1.4,1.4,2.1,1.4c0.6,0,1.4-0.1,1.4-0.7c0-1.1-6.4-0.6-6.2-4c0.1-1.8,2.2-2.6,3.7-2.6c0.2,0,0.5,0,0.7,0l0-0.8h0.9l0,1
							c0.6,0.2,1.2,0.5,1.6,1l0.1-1h2.6l0.3,3.1H5z"/>
					</g>
					<path id="XMLID_11532_" class="st5" d="M20.9,102.5c-1.2,0.7-2.6,1.4-4.1,2c-1.3,0.5-2.7,0.9-4.1,1.2c-1.3,0.3-2.7,0.5-4.1,0.7
						c-1.3,0.2-2.7,0.3-4.1,0.3c-0.7,0-1.3,0-2,0c-0.7,0-1.4,0-2.1,0c-1.4-0.1-2.8-0.2-4.1-0.3c-1.4-0.2-2.8-0.4-4.1-0.7
						c-1.5-0.3-2.9-0.7-4.1-1.2c-1.6-0.6-3-1.2-4.1-2c-2-1.3-3.5-2.8-4-4.4c0,1.4,0,4.3,0,5.6c0.7,1.5,2.1,2.9,4,4.2
						c1.2,0.7,2.6,1.4,4.1,2c1.3,0.5,2.7,0.9,4.1,1.3c1.3,0.3,2.7,0.6,4.1,0.8c1.3,0.2,2.7,0.3,4.1,0.4c0.7,0,1.4,0,2.1,0
						c0.7,0,1.4,0,2,0c1.4-0.1,2.8-0.2,4.1-0.4c1.4-0.2,2.8-0.4,4.1-0.8c1.5-0.3,2.9-0.8,4.1-1.2c1.6-0.6,3-1.2,4.1-2
						c2-1.2,3.5-2.7,4.1-4.2c0-1.3,0-4.2,0-5.6C24.5,99.7,23,101.3,20.9,102.5z"/>
					<g id="XMLID_11474_">
						<path id="XMLID_11531_" class="st2" d="M2.3,81c-12.6,0-22.8,4.7-22.8,10.4c0,5.7,10.2,10.4,22.8,10.4
							c12.6,0,22.8-4.7,22.8-10.4C25.1,85.6,14.9,81,2.3,81z"/>
						<path id="XMLID_11530_" class="st3" d="M2.3,82.7c-10.5,0-19,3.5-19,7.7c0,4.3,8.5,7.7,19,7.7c10.5,0,19-3.5,19-7.7
							C21.3,86.2,12.8,82.7,2.3,82.7z"/>
						<path id="XMLID_11481_" class="st4" d="M2.3,98.3l0-0.1V98h0c0.3,0,0.6,0,0.9,0l0,0.3C2.9,98.3,2.6,98.3,2.3,98.3z M1.4,98.3
							c-0.3,0-0.6,0-0.9,0l0-0.3c0.3,0,0.6,0,0.9,0L1.4,98.3z M4.1,98.3l0-0.3c0.3,0,0.6,0,0.9,0l0,0.3C4.7,98.2,4.4,98.3,4.1,98.3z
							 M-0.5,98.2c-0.3,0-0.6,0-0.9-0.1l0-0.3c0.3,0,0.6,0,0.9,0.1L-0.5,98.2z M5.9,98.2l0-0.3c0.3,0,0.6-0.1,0.9-0.1l0,0.3
							C6.6,98.1,6.3,98.1,5.9,98.2z M-2.3,98.1c-0.3,0-0.6-0.1-0.9-0.1l0-0.3c0.3,0,0.6,0.1,0.9,0.1L-2.3,98.1z M7.8,98l0-0.3
							c0.3,0,0.6-0.1,0.9-0.1l0,0.3C8.4,97.9,8.1,97.9,7.8,98z M-4.1,97.9c-0.3,0-0.6-0.1-0.9-0.1l0-0.3c0.3,0.1,0.6,0.1,0.9,0.1
							L-4.1,97.9z M9.6,97.7l0-0.3c0.3-0.1,0.6-0.1,0.9-0.2l0.1,0.3C10.2,97.6,9.9,97.7,9.6,97.7z M-5.9,97.5
							c-0.3-0.1-0.6-0.1-0.9-0.2l0.1-0.3c0.3,0.1,0.6,0.1,0.9,0.2L-5.9,97.5z M11.4,97.4l-0.1-0.3c0.3-0.1,0.6-0.1,0.9-0.2l0.1,0.3
							C12,97.2,11.7,97.3,11.4,97.4z M-7.7,97.1C-8,97.1-8.3,97-8.6,96.9l0.1-0.3c0.3,0.1,0.6,0.2,0.9,0.2L-7.7,97.1z M13.2,96.9
							l-0.1-0.3c0.3-0.1,0.6-0.2,0.9-0.3l0.1,0.3C13.7,96.7,13.5,96.8,13.2,96.9z M-9.5,96.6c-0.3-0.1-0.6-0.2-0.9-0.3l0.1-0.3
							c0.3,0.1,0.6,0.2,0.9,0.3L-9.5,96.6z M14.9,96.4l-0.1-0.3c0.3-0.1,0.6-0.2,0.8-0.3l0.1,0.3C15.5,96.2,15.2,96.3,14.9,96.4z
							 M-11.2,96c-0.3-0.1-0.6-0.2-0.8-0.4l0.1-0.3c0.3,0.1,0.5,0.2,0.8,0.4L-11.2,96z M16.6,95.7l-0.1-0.3c0.3-0.1,0.6-0.3,0.8-0.4
							l0.1,0.3C17.2,95.4,16.9,95.5,16.6,95.7z M-12.8,95.2c-0.3-0.1-0.5-0.3-0.8-0.5l0.2-0.3c0.2,0.2,0.5,0.3,0.8,0.4L-12.8,95.2z
							 M18.2,94.8l-0.2-0.3c0.3-0.2,0.5-0.3,0.7-0.5l0.2,0.2C18.8,94.5,18.5,94.6,18.2,94.8z M-14.4,94.3c-0.3-0.2-0.5-0.4-0.7-0.6
							l0.2-0.2c0.2,0.2,0.4,0.4,0.7,0.6L-14.4,94.3z M19.7,93.7l-0.2-0.2c0.2-0.2,0.4-0.4,0.6-0.6l0.2,0.2
							C20.2,93.3,20,93.5,19.7,93.7z M-15.8,93c-0.2-0.3-0.4-0.5-0.5-0.8l0.3-0.1c0.1,0.2,0.3,0.5,0.5,0.7L-15.8,93z M20.9,92.3
							l-0.3-0.1c0.1-0.3,0.3-0.5,0.3-0.8l0.3,0.1C21.2,91.7,21.1,92,20.9,92.3z M-16.7,91.4c-0.1-0.3-0.1-0.6-0.1-0.9l0.3,0v0
							c0,0.3,0,0.6,0.1,0.8L-16.7,91.4z M21.4,90.5l-0.3,0l0.2,0l-0.2,0c0-0.3,0-0.6-0.1-0.8l0.3-0.1C21.4,89.8,21.4,90.1,21.4,90.5
							L21.4,90.5z M-16.4,89.6l-0.3-0.1c0.1-0.3,0.2-0.6,0.4-0.9l0.3,0.1C-16.2,89-16.3,89.3-16.4,89.6z M20.7,88.8
							c-0.1-0.2-0.3-0.5-0.5-0.7l0.2-0.2c0.2,0.3,0.4,0.5,0.5,0.8L20.7,88.8z M-15.5,88.1l-0.2-0.2c0.2-0.2,0.4-0.5,0.6-0.7l0.2,0.2
							C-15.1,87.6-15.3,87.8-15.5,88.1z M19.6,87.4c-0.2-0.2-0.4-0.4-0.7-0.6l0.2-0.2c0.3,0.2,0.5,0.4,0.7,0.6L19.6,87.4z
							 M-14.2,86.8l-0.2-0.2c0.2-0.2,0.5-0.4,0.8-0.5l0.2,0.3C-13.7,86.5-14,86.7-14.2,86.8z M18.1,86.4c-0.2-0.2-0.5-0.3-0.8-0.5
							l0.1-0.3c0.3,0.2,0.5,0.3,0.8,0.5L18.1,86.4z M-12.7,85.9l-0.1-0.3c0.3-0.1,0.5-0.3,0.8-0.4l0.1,0.3
							C-12.2,85.6-12.4,85.8-12.7,85.9z M16.5,85.5c-0.3-0.1-0.5-0.2-0.8-0.4l0.1-0.3c0.3,0.1,0.6,0.2,0.8,0.4L16.5,85.5z M-11,85.1
							l-0.1-0.3c0.3-0.1,0.6-0.2,0.9-0.3l0.1,0.3C-10.5,84.9-10.8,85-11,85.1z M14.9,84.8c-0.3-0.1-0.6-0.2-0.9-0.3l0.1-0.3
							c0.3,0.1,0.6,0.2,0.9,0.3L14.9,84.8z M-9.3,84.5l-0.1-0.3c0.3-0.1,0.6-0.2,0.9-0.3l0.1,0.3C-8.8,84.3-9.1,84.4-9.3,84.5z
							 M13.1,84.3c-0.3-0.1-0.6-0.2-0.9-0.2l0.1-0.3c0.3,0.1,0.6,0.2,0.9,0.2L13.1,84.3z M-7.6,84l-0.1-0.3c0.3-0.1,0.6-0.1,0.9-0.2
							l0.1,0.3C-7,83.9-7.3,83.9-7.6,84z M11.4,83.8c-0.3-0.1-0.6-0.1-0.9-0.2l0.1-0.3c0.3,0.1,0.6,0.1,0.9,0.2L11.4,83.8z
							 M-5.8,83.6l-0.1-0.3c0.3-0.1,0.6-0.1,0.9-0.2l0.1,0.3C-5.2,83.5-5.5,83.6-5.8,83.6z M9.6,83.5c-0.3-0.1-0.6-0.1-0.9-0.1
							l0-0.3c0.3,0,0.6,0.1,0.9,0.1L9.6,83.5z M-4,83.3l0-0.3c0.3,0,0.6-0.1,0.9-0.1l0,0.3C-3.4,83.2-3.7,83.3-4,83.3z M7.8,83.2
							c-0.3,0-0.6-0.1-0.9-0.1l0-0.3c0.3,0,0.6,0.1,0.9,0.1L7.8,83.2z M-2.2,83.1l0-0.3c0.3,0,0.6-0.1,0.9-0.1l0,0.3
							C-1.6,83-1.9,83.1-2.2,83.1z M6,83c-0.3,0-0.6,0-0.9-0.1l0-0.3c0.3,0,0.6,0,0.9,0.1L6,83z M-0.4,83l0-0.3c0.3,0,0.6,0,0.9,0
							l0,0.3C0.2,82.9-0.1,82.9-0.4,83z M4.2,82.9c-0.3,0-0.6,0-0.9,0l0-0.3c0.3,0,0.6,0,0.9,0L4.2,82.9z M1.4,82.9l0-0.3
							c0.3,0,0.6,0,0.9,0h0v0.3h0C2,82.9,1.7,82.9,1.4,82.9z"/>
						<g id="XMLID_11478_">
							<path id="XMLID_11479_" class="st4" d="M5,88.4C5,87.5,4,87,3,87c-0.4,0-1.1,0.2-1.1,0.7c0,1.3,6.3,1,6.6,4.2
								C8.8,94.1,6.3,95,4.2,95c-0.2,0-0.4,0-0.6,0l0,1H2.5l0-1.2C1.7,94.4,1,94,0.6,93.6l-0.2,1.2h-3l0.2-3.7h3.1
								c0,1.2,1.4,1.4,2.1,1.4c0.6,0,1.4-0.1,1.4-0.7c0-1.1-6.4-0.6-6.2-4c0.1-1.8,2.2-2.6,3.7-2.6c0.2,0,0.5,0,0.7,0l0-0.8h0.9l0,1
								c0.6,0.2,1.2,0.5,1.6,1l0.1-1h2.6l0.3,3.1H5z"/>
						</g>
						<path id="XMLID_11475_" class="st5" d="M20.9,96.2c-1.2,0.7-2.6,1.4-4.1,2c-1.3,0.5-2.7,0.9-4.1,1.2c-1.3,0.3-2.7,0.5-4.1,0.7
							c-1.3,0.2-2.7,0.3-4.1,0.3c-0.7,0-1.3,0-2,0c-0.7,0-1.4,0-2.1,0c-1.4-0.1-2.8-0.2-4.1-0.3c-1.4-0.2-2.8-0.4-4.1-0.7
							c-1.5-0.3-2.9-0.7-4.1-1.2c-1.6-0.6-3-1.2-4.1-2c-2-1.3-3.5-2.8-4-4.4c0,1.4,0,4.3,0,5.6c0.7,1.5,2.1,2.9,4,4.2
							c1.2,0.7,2.6,1.4,4.1,2c1.3,0.5,2.7,0.9,4.1,1.3c1.3,0.3,2.7,0.6,4.1,0.8c1.3,0.2,2.7,0.3,4.1,0.4c0.7,0,1.4,0,2.1,0
							c0.7,0,1.4,0,2,0c1.4-0.1,2.8-0.2,4.1-0.4c1.4-0.2,2.8-0.4,4.1-0.8c1.5-0.3,2.9-0.8,4.1-1.2c1.6-0.6,3-1.2,4.1-2
							c2-1.2,3.5-2.7,4.1-4.2c0-1.3,0-4.2,0-5.6C24.5,93.4,23,95,20.9,96.2z"/>
					</g>
					<g id="XMLID_11416_">
						<path id="XMLID_11473_" class="st2" d="M2.3,75.7c-12.6,0-22.8,4.7-22.8,10.4c0,5.7,10.2,10.4,22.8,10.4
							c12.6,0,22.8-4.7,22.8-10.4C25.1,80.4,14.9,75.7,2.3,75.7z"/>
						<path id="XMLID_11472_" class="st3" d="M2.3,77.4c-10.5,0-19,3.5-19,7.7c0,4.3,8.5,7.7,19,7.7c10.5,0,19-3.5,19-7.7
							C21.3,80.9,12.8,77.4,2.3,77.4z"/>
						<path id="XMLID_11423_" class="st4" d="M2.3,93l0-0.2v-0.2h0c0.3,0,0.6,0,0.9,0l0,0.3C2.9,93,2.6,93,2.3,93z M1.4,93
							c-0.3,0-0.6,0-0.9,0l0-0.3c0.3,0,0.6,0,0.9,0L1.4,93z M4.1,93l0-0.3c0.3,0,0.6,0,0.9,0l0,0.3C4.7,93,4.4,93,4.1,93z
							 M-0.5,92.9c-0.3,0-0.6,0-0.9-0.1l0-0.3c0.3,0,0.6,0,0.9,0.1L-0.5,92.9z M5.9,92.9l0-0.3c0.3,0,0.6-0.1,0.9-0.1l0,0.3
							C6.6,92.8,6.3,92.9,5.9,92.9z M-2.3,92.8c-0.3,0-0.6-0.1-0.9-0.1l0-0.3c0.3,0,0.6,0.1,0.9,0.1L-2.3,92.8z M7.8,92.7l0-0.3
							c0.3,0,0.6-0.1,0.9-0.1l0,0.3C8.4,92.6,8.1,92.7,7.8,92.7z M-4.1,92.6c-0.3,0-0.6-0.1-0.9-0.1l0-0.3c0.3,0.1,0.6,0.1,0.9,0.1
							L-4.1,92.6z M9.6,92.4l0-0.3c0.3-0.1,0.6-0.1,0.9-0.2l0.1,0.3C10.2,92.3,9.9,92.4,9.6,92.4z M-5.9,92.3
							c-0.3-0.1-0.6-0.1-0.9-0.2l0.1-0.3c0.3,0.1,0.6,0.1,0.9,0.2L-5.9,92.3z M11.4,92.1l-0.1-0.3c0.3-0.1,0.6-0.1,0.9-0.2l0.1,0.3
							C12,91.9,11.7,92,11.4,92.1z M-7.7,91.9c-0.3-0.1-0.6-0.2-0.9-0.2l0.1-0.3c0.3,0.1,0.6,0.2,0.9,0.2L-7.7,91.9z M13.2,91.6
							l-0.1-0.3c0.3-0.1,0.6-0.2,0.9-0.3l0.1,0.3C13.7,91.5,13.5,91.6,13.2,91.6z M-9.5,91.4c-0.3-0.1-0.6-0.2-0.9-0.3l0.1-0.3
							c0.3,0.1,0.6,0.2,0.9,0.3L-9.5,91.4z M14.9,91.1l-0.1-0.3c0.3-0.1,0.6-0.2,0.8-0.3l0.1,0.3C15.5,90.9,15.2,91,14.9,91.1z
							 M-11.2,90.7c-0.3-0.1-0.6-0.2-0.8-0.4l0.1-0.3c0.3,0.1,0.5,0.2,0.8,0.4L-11.2,90.7z M16.6,90.4l-0.1-0.3
							c0.3-0.1,0.6-0.3,0.8-0.4l0.1,0.3C17.2,90.1,16.9,90.3,16.6,90.4z M-12.8,90c-0.3-0.1-0.5-0.3-0.8-0.5l0.2-0.3
							c0.2,0.2,0.5,0.3,0.8,0.5L-12.8,90z M18.2,89.5l-0.2-0.3c0.3-0.2,0.5-0.3,0.7-0.5L19,89C18.8,89.2,18.5,89.4,18.2,89.5z
							 M-14.4,89c-0.3-0.2-0.5-0.4-0.7-0.6l0.2-0.2c0.2,0.2,0.4,0.4,0.7,0.6L-14.4,89z M19.7,88.4l-0.2-0.2c0.2-0.2,0.4-0.4,0.6-0.6
							l0.2,0.2C20.2,88,20,88.2,19.7,88.4z M-15.8,87.7c-0.2-0.3-0.4-0.5-0.5-0.8l0.3-0.1c0.1,0.2,0.3,0.5,0.5,0.7L-15.8,87.7z
							 M20.9,87l-0.3-0.1c0.1-0.3,0.3-0.5,0.3-0.8l0.3,0.1C21.2,86.4,21.1,86.7,20.9,87z M-16.7,86.1c-0.1-0.3-0.1-0.6-0.1-0.9
							l0.3,0v0c0,0.3,0,0.6,0.1,0.8L-16.7,86.1z M21.4,85.2l-0.3,0l0.2,0l-0.2,0c0-0.3,0-0.6-0.1-0.8l0.3-0.1
							C21.4,84.5,21.4,84.9,21.4,85.2L21.4,85.2z M-16.4,84.3l-0.3-0.1c0.1-0.3,0.2-0.6,0.4-0.9l0.3,0.1
							C-16.2,83.8-16.3,84-16.4,84.3z M20.7,83.5c-0.1-0.2-0.3-0.5-0.5-0.7l0.2-0.2c0.2,0.3,0.4,0.5,0.5,0.8L20.7,83.5z M-15.5,82.8
							l-0.2-0.2c0.2-0.2,0.4-0.5,0.6-0.7l0.2,0.2C-15.1,82.3-15.3,82.6-15.5,82.8z M19.6,82.2c-0.2-0.2-0.4-0.4-0.7-0.6l0.2-0.2
							c0.3,0.2,0.5,0.4,0.7,0.6L19.6,82.2z M-14.2,81.6l-0.2-0.2c0.2-0.2,0.5-0.3,0.8-0.5l0.2,0.3C-13.7,81.2-14,81.4-14.2,81.6z
							 M18.1,81.1c-0.2-0.2-0.5-0.3-0.8-0.5l0.1-0.3c0.3,0.1,0.5,0.3,0.8,0.5L18.1,81.1z M-12.7,80.6l-0.1-0.3
							c0.3-0.1,0.5-0.3,0.8-0.4l0.1,0.3C-12.2,80.3-12.4,80.5-12.7,80.6z M16.5,80.2c-0.3-0.1-0.5-0.2-0.8-0.4l0.1-0.3
							c0.3,0.1,0.6,0.2,0.8,0.4L16.5,80.2z M-11,79.8l-0.1-0.3c0.3-0.1,0.6-0.2,0.9-0.3l0.1,0.3C-10.5,79.6-10.8,79.7-11,79.8z
							 M14.9,79.5c-0.3-0.1-0.6-0.2-0.9-0.3l0.1-0.3c0.3,0.1,0.6,0.2,0.9,0.3L14.9,79.5z M-9.3,79.2l-0.1-0.3
							c0.3-0.1,0.6-0.2,0.9-0.3l0.1,0.3C-8.8,79.1-9.1,79.1-9.3,79.2z M13.1,79c-0.3-0.1-0.6-0.2-0.9-0.2l0.1-0.3
							c0.3,0.1,0.6,0.2,0.9,0.2L13.1,79z M-7.6,78.7l-0.1-0.3c0.3-0.1,0.6-0.1,0.9-0.2l0.1,0.3C-7,78.6-7.3,78.7-7.6,78.7z
							 M11.4,78.5c-0.3-0.1-0.6-0.1-0.9-0.2l0.1-0.3c0.3,0.1,0.6,0.1,0.9,0.2L11.4,78.5z M-5.8,78.3L-5.9,78
							c0.3-0.1,0.6-0.1,0.9-0.2l0.1,0.3C-5.2,78.2-5.5,78.3-5.8,78.3z M9.6,78.2C9.3,78.1,9,78.1,8.7,78l0-0.3
							c0.3,0,0.6,0.1,0.9,0.1L9.6,78.2z M-4,78l0-0.3c0.3,0,0.6-0.1,0.9-0.1l0,0.3C-3.4,78-3.7,78-4,78z M7.8,77.9
							c-0.3,0-0.6-0.1-0.9-0.1l0-0.3c0.3,0,0.6,0.1,0.9,0.1L7.8,77.9z M-2.2,77.8l0-0.3c0.3,0,0.6-0.1,0.9-0.1l0,0.3
							C-1.6,77.8-1.9,77.8-2.2,77.8z M6,77.7c-0.3,0-0.6,0-0.9-0.1l0-0.3c0.3,0,0.6,0,0.9,0.1L6,77.7z M-0.4,77.7l0-0.3
							c0.3,0,0.6,0,0.9,0l0,0.3C0.2,77.6-0.1,77.7-0.4,77.7z M4.2,77.6c-0.3,0-0.6,0-0.9,0l0-0.3c0.3,0,0.6,0,0.9,0L4.2,77.6z
							 M1.4,77.6l0-0.3c0.3,0,0.6,0,0.9,0h0v0.3h0C2,77.6,1.7,77.6,1.4,77.6z"/>
						<g id="XMLID_11420_">
							<path id="XMLID_11421_" class="st4" d="M5,83.1C5,82.2,4,81.7,3,81.7c-0.4,0-1.1,0.2-1.1,0.7c0,1.3,6.3,1,6.6,4.2
								c0.2,2.3-2.2,3.2-4.3,3.2c-0.2,0-0.4,0-0.6,0l0,1H2.5l0-1.2c-0.9-0.3-1.5-0.7-1.9-1.1l-0.2,1.2h-3l0.2-3.7h3.1
								c0,1.2,1.4,1.4,2.1,1.4c0.6,0,1.4-0.1,1.4-0.7c0-1.1-6.4-0.6-6.2-4c0.1-1.8,2.2-2.6,3.7-2.6c0.2,0,0.5,0,0.7,0l0-0.8h0.9l0,1
								c0.6,0.2,1.2,0.5,1.6,1l0.1-1h2.6l0.3,3.1H5z"/>
						</g>
						<path id="XMLID_11417_" class="st5" d="M20.9,89.9c-1.2,0.7-2.6,1.4-4.1,2c-1.3,0.5-2.7,0.9-4.1,1.2c-1.3,0.3-2.7,0.5-4.1,0.7
							c-1.3,0.2-2.7,0.3-4.1,0.3c-0.7,0-1.3,0-2,0c-0.7,0-1.4,0-2.1,0C-1.2,94.1-2.6,94-4,93.8c-1.4-0.2-2.8-0.4-4.1-0.7
							c-1.5-0.3-2.9-0.7-4.1-1.2c-1.6-0.6-3-1.2-4.1-2c-2-1.3-3.5-2.8-4-4.4c0,1.4,0,4.3,0,5.6c0.7,1.5,2.1,2.9,4,4.2
							c1.2,0.7,2.6,1.4,4.1,2c1.3,0.5,2.7,0.9,4.1,1.3c1.3,0.3,2.7,0.6,4.1,0.8c1.3,0.2,2.7,0.3,4.1,0.4c0.7,0,1.4,0,2.1,0
							c0.7,0,1.4,0,2,0c1.4-0.1,2.8-0.2,4.1-0.4c1.4-0.2,2.8-0.4,4.1-0.8c1.5-0.3,2.9-0.8,4.1-1.2c1.6-0.6,3-1.2,4.1-2
							c2-1.2,3.5-2.7,4.1-4.2c0-1.3,0-4.2,0-5.6C24.5,87.1,23,88.6,20.9,89.9z"/>
					</g>
					<g id="XMLID_11358_">
						<path id="XMLID_11415_" class="st2" d="M2.3,68.2c-12.6,0-22.8,4.7-22.8,10.4c0,5.7,10.2,10.4,22.8,10.4
							c12.6,0,22.8-4.7,22.8-10.4C25.1,72.8,14.9,68.2,2.3,68.2z"/>
						<path id="XMLID_11414_" class="st3" d="M2.3,69.9c-10.5,0-19,3.5-19,7.7c0,4.3,8.5,7.7,19,7.7c10.5,0,19-3.5,19-7.7
							C21.3,73.4,12.8,69.9,2.3,69.9z"/>
						<path id="XMLID_11365_" class="st4" d="M2.3,85.5l0-0.2v-0.2h0c0.3,0,0.6,0,0.9,0l0,0.3C2.9,85.5,2.6,85.5,2.3,85.5z
							 M1.4,85.5c-0.3,0-0.6,0-0.9,0l0-0.3c0.3,0,0.6,0,0.9,0L1.4,85.5z M4.1,85.5l0-0.3c0.3,0,0.6,0,0.9,0l0,0.3
							C4.7,85.4,4.4,85.4,4.1,85.5z M-0.5,85.4c-0.3,0-0.6,0-0.9-0.1l0-0.3c0.3,0,0.6,0,0.9,0.1L-0.5,85.4z M5.9,85.4l0-0.3
							C6.2,85,6.5,85,6.8,85l0,0.3C6.6,85.3,6.3,85.3,5.9,85.4z M-2.3,85.3c-0.3,0-0.6-0.1-0.9-0.1l0-0.3c0.3,0,0.6,0.1,0.9,0.1
							L-2.3,85.3z M7.8,85.2l0-0.3c0.3,0,0.6-0.1,0.9-0.1l0,0.3C8.4,85.1,8.1,85.1,7.8,85.2z M-4.1,85c-0.3,0-0.6-0.1-0.9-0.1l0-0.3
							c0.3,0.1,0.6,0.1,0.9,0.1L-4.1,85z M9.6,84.9l0-0.3c0.3-0.1,0.6-0.1,0.9-0.2l0.1,0.3C10.2,84.8,9.9,84.9,9.6,84.9z M-5.9,84.7
							c-0.3-0.1-0.6-0.1-0.9-0.2l0.1-0.3c0.3,0.1,0.6,0.1,0.9,0.2L-5.9,84.7z M11.4,84.6l-0.1-0.3c0.3-0.1,0.6-0.1,0.9-0.2l0.1,0.3
							C12,84.4,11.7,84.5,11.4,84.6z M-7.7,84.3c-0.3-0.1-0.6-0.2-0.9-0.2l0.1-0.3c0.3,0.1,0.6,0.2,0.9,0.2L-7.7,84.3z M13.2,84.1
							l-0.1-0.3c0.3-0.1,0.6-0.2,0.9-0.3l0.1,0.3C13.7,83.9,13.5,84,13.2,84.1z M-9.5,83.8c-0.3-0.1-0.6-0.2-0.9-0.3l0.1-0.3
							c0.3,0.1,0.6,0.2,0.9,0.3L-9.5,83.8z M14.9,83.5l-0.1-0.3c0.3-0.1,0.6-0.2,0.8-0.3l0.1,0.3C15.5,83.3,15.2,83.4,14.9,83.5z
							 M-11.2,83.2c-0.3-0.1-0.6-0.2-0.8-0.4l0.1-0.3c0.3,0.1,0.5,0.2,0.8,0.4L-11.2,83.2z M16.6,82.9l-0.1-0.3
							c0.3-0.1,0.6-0.3,0.8-0.4l0.1,0.3C17.2,82.6,16.9,82.7,16.6,82.9z M-12.8,82.4c-0.3-0.1-0.5-0.3-0.8-0.5l0.2-0.3
							c0.2,0.2,0.5,0.3,0.8,0.4L-12.8,82.4z M18.2,82l-0.2-0.3c0.3-0.2,0.5-0.3,0.7-0.5l0.2,0.2C18.8,81.7,18.5,81.8,18.2,82z
							 M-14.4,81.5c-0.3-0.2-0.5-0.4-0.7-0.6l0.2-0.2c0.2,0.2,0.4,0.4,0.7,0.6L-14.4,81.5z M19.7,80.9l-0.2-0.2
							c0.2-0.2,0.4-0.4,0.6-0.6l0.2,0.2C20.2,80.4,20,80.7,19.7,80.9z M-15.8,80.2c-0.2-0.3-0.4-0.5-0.5-0.8l0.3-0.1
							c0.1,0.2,0.3,0.5,0.5,0.7L-15.8,80.2z M20.9,79.5l-0.3-0.2c0.1-0.3,0.3-0.5,0.3-0.8l0.3,0.1C21.2,78.9,21.1,79.2,20.9,79.5z
							 M-16.7,78.6c-0.1-0.3-0.1-0.6-0.1-0.9l0.3,0v0c0,0.3,0,0.6,0.1,0.8L-16.7,78.6z M21.4,77.7l-0.3,0l0.2,0l-0.2,0
							c0-0.3,0-0.6-0.1-0.8l0.3-0.1C21.4,77,21.4,77.3,21.4,77.7L21.4,77.7z M-16.4,76.8l-0.3-0.1c0.1-0.3,0.2-0.6,0.4-0.9L-16,76
							C-16.2,76.2-16.3,76.5-16.4,76.8z M20.7,76c-0.1-0.2-0.3-0.5-0.5-0.7l0.2-0.2c0.2,0.3,0.4,0.5,0.5,0.8L20.7,76z M-15.5,75.2
							l-0.2-0.2c0.2-0.2,0.4-0.5,0.6-0.7l0.2,0.2C-15.1,74.8-15.3,75-15.5,75.2z M19.6,74.6c-0.2-0.2-0.4-0.4-0.7-0.6l0.2-0.2
							c0.3,0.2,0.5,0.4,0.7,0.6L19.6,74.6z M-14.2,74l-0.2-0.2c0.2-0.2,0.5-0.4,0.8-0.5l0.2,0.3C-13.7,73.7-14,73.9-14.2,74z
							 M18.1,73.5c-0.2-0.2-0.5-0.3-0.8-0.5l0.1-0.3c0.3,0.2,0.5,0.3,0.8,0.5L18.1,73.5z M-12.7,73.1l-0.1-0.3
							c0.3-0.1,0.5-0.3,0.8-0.4l0.1,0.3C-12.2,72.8-12.4,72.9-12.7,73.1z M16.5,72.7c-0.3-0.1-0.5-0.2-0.8-0.4l0.1-0.3
							c0.3,0.1,0.6,0.2,0.8,0.4L16.5,72.7z M-11,72.3l-0.1-0.3c0.3-0.1,0.6-0.2,0.9-0.3l0.1,0.3C-10.5,72.1-10.8,72.2-11,72.3z
							 M14.9,72c-0.3-0.1-0.6-0.2-0.9-0.3l0.1-0.3c0.3,0.1,0.6,0.2,0.9,0.3L14.9,72z M-9.3,71.7l-0.1-0.3c0.3-0.1,0.6-0.2,0.9-0.3
							l0.1,0.3C-8.8,71.5-9.1,71.6-9.3,71.7z M13.1,71.4c-0.3-0.1-0.6-0.2-0.9-0.2l0.1-0.3c0.3,0.1,0.6,0.2,0.9,0.2L13.1,71.4z
							 M-7.6,71.2l-0.1-0.3c0.3-0.1,0.6-0.1,0.9-0.2l0.1,0.3C-7,71.1-7.3,71.1-7.6,71.2z M11.4,71c-0.3-0.1-0.6-0.1-0.9-0.2l0.1-0.3
							c0.3,0.1,0.6,0.1,0.9,0.2L11.4,71z M-5.8,70.8l-0.1-0.3c0.3-0.1,0.6-0.1,0.9-0.2l0.1,0.3C-5.2,70.7-5.5,70.8-5.8,70.8z
							 M9.6,70.7c-0.3-0.1-0.6-0.1-0.9-0.1l0-0.3c0.3,0,0.6,0.1,0.9,0.1L9.6,70.7z M-4,70.5l0-0.3c0.3,0,0.6-0.1,0.9-0.1l0,0.3
							C-3.4,70.4-3.7,70.5-4,70.5z M7.8,70.4c-0.3,0-0.6-0.1-0.9-0.1l0-0.3c0.3,0,0.6,0.1,0.9,0.1L7.8,70.4z M-2.2,70.3l0-0.3
							c0.3,0,0.6-0.1,0.9-0.1l0,0.3C-1.6,70.2-1.9,70.3-2.2,70.3z M6,70.2c-0.3,0-0.6,0-0.9-0.1l0-0.3c0.3,0,0.6,0,0.9,0.1L6,70.2z
							 M-0.4,70.1l0-0.3c0.3,0,0.6,0,0.9,0l0,0.3C0.2,70.1-0.1,70.1-0.4,70.1z M4.2,70.1c-0.3,0-0.6,0-0.9,0l0-0.3
							c0.3,0,0.6,0,0.9,0L4.2,70.1z M1.4,70.1l0-0.3c0.3,0,0.6,0,0.9,0h0v0.3h0C2,70.1,1.7,70.1,1.4,70.1z"/>
						<g id="XMLID_11362_">
							<path id="XMLID_11363_" class="st4" d="M5,75.6C5,74.7,4,74.1,3,74.1c-0.4,0-1.1,0.2-1.1,0.7c0,1.3,6.3,1,6.6,4.2
								c0.2,2.3-2.2,3.2-4.3,3.2c-0.2,0-0.4,0-0.6,0l0,1H2.5l0-1.2c-0.9-0.3-1.5-0.7-1.9-1.1l-0.2,1.2h-3l0.2-3.7h3.1
								c0,1.2,1.4,1.4,2.1,1.4c0.6,0,1.4-0.1,1.4-0.7c0-1.1-6.4-0.6-6.2-4c0.1-1.8,2.2-2.6,3.7-2.6c0.2,0,0.5,0,0.7,0l0-0.8h0.9l0,1
								c0.6,0.2,1.2,0.5,1.6,1l0.1-1h2.6l0.3,3.1H5z"/>
						</g>
						<path id="XMLID_11359_" class="st5" d="M20.9,83.4c-1.2,0.7-2.6,1.4-4.1,2c-1.3,0.5-2.7,0.9-4.1,1.2c-1.3,0.3-2.7,0.5-4.1,0.7
							c-1.3,0.2-2.7,0.3-4.1,0.3c-0.7,0-1.3,0-2,0c-0.7,0-1.4,0-2.1,0c-1.4-0.1-2.8-0.2-4.1-0.4c-1.4-0.2-2.8-0.4-4.1-0.7
							c-1.5-0.3-2.9-0.7-4.1-1.2c-1.6-0.6-3-1.2-4.1-2c-2-1.3-3.5-2.8-4-4.4c0,1.4,0,4.3,0,5.6c0.7,1.5,2.1,2.9,4,4.2
							c1.2,0.7,2.6,1.4,4.1,2c1.3,0.5,2.7,0.9,4.1,1.3c1.3,0.3,2.7,0.6,4.1,0.8c1.3,0.2,2.7,0.3,4.1,0.4c0.7,0,1.4,0,2.1,0
							c0.7,0,1.4,0,2,0c1.4-0.1,2.8-0.2,4.1-0.4c1.4-0.2,2.8-0.4,4.1-0.8c1.5-0.3,2.9-0.8,4.1-1.2c1.6-0.6,3-1.2,4.1-2
							c2-1.2,3.5-2.7,4.1-4.2c0-1.3,0-4.2,0-5.6C24.5,80.6,23,82.1,20.9,83.4z"/>
					</g>
					<g id="XMLID_11188_">
						<path id="XMLID_11357_" class="st2" d="M2.3,61.9c-12.6,0-22.8,4.7-22.8,10.4c0,5.7,10.2,10.4,22.8,10.4
							c12.6,0,22.8-4.7,22.8-10.4C25.1,66.5,14.9,61.9,2.3,61.9z"/>
						<path id="XMLID_11356_" class="st3" d="M2.3,63.6c-10.5,0-19,3.5-19,7.7c0,4.3,8.5,7.7,19,7.7c10.5,0,19-3.5,19-7.7
							C21.3,67.1,12.8,63.6,2.3,63.6z"/>
						<path id="XMLID_11195_" class="st4" d="M2.3,79.2l0-0.2v-0.2h0c0.3,0,0.6,0,0.9,0l0,0.3C2.9,79.2,2.6,79.2,2.3,79.2z
							 M1.4,79.2c-0.3,0-0.6,0-0.9,0l0-0.3c0.3,0,0.6,0,0.9,0L1.4,79.2z M4.1,79.2l0-0.3c0.3,0,0.6,0,0.9,0l0,0.3
							C4.7,79.1,4.4,79.1,4.1,79.2z M-0.5,79.1c-0.3,0-0.6,0-0.9-0.1l0-0.3c0.3,0,0.6,0,0.9,0.1L-0.5,79.1z M5.9,79l0-0.3
							c0.3,0,0.6-0.1,0.9-0.1l0,0.3C6.6,79,6.3,79,5.9,79z M-2.3,79c-0.3,0-0.6-0.1-0.9-0.1l0-0.3c0.3,0,0.6,0.1,0.9,0.1L-2.3,79z
							 M7.8,78.9l0-0.3c0.3,0,0.6-0.1,0.9-0.1l0,0.3C8.4,78.8,8.1,78.8,7.8,78.9z M-4.1,78.7c-0.3,0-0.6-0.1-0.9-0.1l0-0.3
							c0.3,0.1,0.6,0.1,0.9,0.1L-4.1,78.7z M9.6,78.6l0-0.3c0.3-0.1,0.6-0.1,0.9-0.2l0.1,0.3C10.2,78.5,9.9,78.5,9.6,78.6z
							 M-5.9,78.4c-0.3-0.1-0.6-0.1-0.9-0.2l0.1-0.3c0.3,0.1,0.6,0.1,0.9,0.2L-5.9,78.4z M11.4,78.2L11.3,78
							c0.3-0.1,0.6-0.1,0.9-0.2l0.1,0.3C12,78.1,11.7,78.2,11.4,78.2z M-7.7,78C-8,78-8.3,77.9-8.6,77.8l0.1-0.3
							c0.3,0.1,0.6,0.2,0.9,0.2L-7.7,78z M13.2,77.8l-0.1-0.3c0.3-0.1,0.6-0.2,0.9-0.3l0.1,0.3C13.7,77.6,13.5,77.7,13.2,77.8z
							 M-9.5,77.5c-0.3-0.1-0.6-0.2-0.9-0.3l0.1-0.3c0.3,0.1,0.6,0.2,0.9,0.3L-9.5,77.5z M14.9,77.2L14.8,77
							c0.3-0.1,0.6-0.2,0.8-0.3l0.1,0.3C15.5,77,15.2,77.1,14.9,77.2z M-11.2,76.9c-0.3-0.1-0.6-0.2-0.8-0.4l0.1-0.3
							c0.3,0.1,0.5,0.2,0.8,0.4L-11.2,76.9z M16.6,76.5l-0.1-0.3c0.3-0.1,0.6-0.3,0.8-0.4l0.1,0.3C17.2,76.3,16.9,76.4,16.6,76.5z
							 M-12.8,76.1c-0.3-0.1-0.5-0.3-0.8-0.5l0.2-0.3c0.2,0.2,0.5,0.3,0.8,0.4L-12.8,76.1z M18.2,75.7l-0.2-0.3
							c0.3-0.2,0.5-0.3,0.7-0.5l0.2,0.2C18.8,75.3,18.5,75.5,18.2,75.7z M-14.4,75.1c-0.3-0.2-0.5-0.4-0.7-0.6l0.2-0.2
							c0.2,0.2,0.4,0.4,0.7,0.6L-14.4,75.1z M19.7,74.6l-0.2-0.2c0.2-0.2,0.4-0.4,0.6-0.6l0.2,0.2C20.2,74.1,20,74.4,19.7,74.6z
							 M-15.8,73.9c-0.2-0.3-0.4-0.5-0.5-0.8L-16,73c0.1,0.2,0.3,0.5,0.5,0.7L-15.8,73.9z M20.9,73.2L20.6,73
							c0.1-0.3,0.3-0.5,0.3-0.8l0.3,0.1C21.2,72.6,21.1,72.9,20.9,73.2z M-16.7,72.2c-0.1-0.3-0.1-0.6-0.1-0.9l0.3,0v0
							c0,0.3,0,0.6,0.1,0.8L-16.7,72.2z M21.4,71.3l-0.3,0l0.2,0l-0.2,0c0-0.3,0-0.6-0.1-0.8l0.3-0.1C21.4,70.7,21.4,71,21.4,71.3
							L21.4,71.3z M-16.4,70.5l-0.3-0.1c0.1-0.3,0.2-0.6,0.4-0.9l0.3,0.2C-16.2,69.9-16.3,70.2-16.4,70.5z M20.7,69.7
							c-0.1-0.2-0.3-0.5-0.5-0.7l0.2-0.2c0.2,0.3,0.4,0.5,0.5,0.8L20.7,69.7z M-15.5,68.9l-0.2-0.2c0.2-0.2,0.4-0.5,0.6-0.7l0.2,0.2
							C-15.1,68.5-15.3,68.7-15.5,68.9z M19.6,68.3c-0.2-0.2-0.4-0.4-0.7-0.6l0.2-0.2c0.3,0.2,0.5,0.4,0.7,0.6L19.6,68.3z
							 M-14.2,67.7l-0.2-0.2c0.2-0.2,0.5-0.3,0.8-0.5l0.2,0.3C-13.7,67.4-14,67.6-14.2,67.7z M18.1,67.2c-0.2-0.2-0.5-0.3-0.8-0.5
							l0.1-0.3c0.3,0.1,0.5,0.3,0.8,0.5L18.1,67.2z M-12.7,66.8l-0.1-0.3c0.3-0.1,0.5-0.3,0.8-0.4l0.1,0.3
							C-12.2,66.5-12.4,66.6-12.7,66.8z M16.5,66.4c-0.3-0.1-0.5-0.2-0.8-0.4l0.1-0.3c0.3,0.1,0.6,0.2,0.8,0.4L16.5,66.4z M-11,66
							l-0.1-0.3c0.3-0.1,0.6-0.2,0.9-0.3l0.1,0.3C-10.5,65.8-10.8,65.9-11,66z M14.9,65.7c-0.3-0.1-0.6-0.2-0.9-0.3l0.1-0.3
							c0.3,0.1,0.6,0.2,0.9,0.3L14.9,65.7z M-9.3,65.4l-0.1-0.3c0.3-0.1,0.6-0.2,0.9-0.3l0.1,0.3C-8.8,65.2-9.1,65.3-9.3,65.4z
							 M13.1,65.1c-0.3-0.1-0.6-0.2-0.9-0.2l0.1-0.3c0.3,0.1,0.6,0.2,0.9,0.2L13.1,65.1z M-7.6,64.9l-0.1-0.3
							c0.3-0.1,0.6-0.1,0.9-0.2l0.1,0.3C-7,64.8-7.3,64.8-7.6,64.9z M11.4,64.7c-0.3-0.1-0.6-0.1-0.9-0.2l0.1-0.3
							c0.3,0.1,0.6,0.1,0.9,0.2L11.4,64.7z M-5.8,64.5l-0.1-0.3c0.3-0.1,0.6-0.1,0.9-0.2l0.1,0.3C-5.2,64.4-5.5,64.4-5.8,64.5z
							 M9.6,64.3c-0.3-0.1-0.6-0.1-0.9-0.1l0-0.3C9,64,9.3,64,9.6,64L9.6,64.3z M-4,64.2l0-0.3c0.3,0,0.6-0.1,0.9-0.1l0,0.3
							C-3.4,64.1-3.7,64.2-4,64.2z M7.8,64.1C7.5,64,7.2,64,6.9,64l0-0.3c0.3,0,0.6,0.1,0.9,0.1L7.8,64.1z M-2.2,64l0-0.3
							c0.3,0,0.6-0.1,0.9-0.1l0,0.3C-1.6,63.9-1.9,63.9-2.2,64z M6,63.9c-0.3,0-0.6,0-0.9-0.1l0-0.3c0.3,0,0.6,0,0.9,0.1L6,63.9z
							 M-0.4,63.8l0-0.3c0.3,0,0.6,0,0.9,0l0,0.3C0.2,63.8-0.1,63.8-0.4,63.8z M4.2,63.8c-0.3,0-0.6,0-0.9,0l0-0.3
							c0.3,0,0.6,0,0.9,0L4.2,63.8z M1.4,63.8l0-0.3c0.3,0,0.6,0,0.9,0h0v0.3h0C2,63.7,1.7,63.8,1.4,63.8z"/>
						<g id="XMLID_11192_">
							<path id="XMLID_11193_" class="st4" d="M5,69.3C5,68.4,4,67.8,3,67.8c-0.4,0-1.1,0.2-1.1,0.7c0,1.3,6.3,1,6.6,4.2
								c0.2,2.3-2.2,3.2-4.3,3.2c-0.2,0-0.4,0-0.6,0l0,1H2.5l0-1.2c-0.9-0.3-1.5-0.7-1.9-1.1l-0.2,1.2h-3l0.2-3.7h3.1
								c0,1.2,1.4,1.4,2.1,1.4c0.6,0,1.4-0.1,1.4-0.7c0-1.1-6.4-0.6-6.2-4c0.1-1.8,2.2-2.6,3.7-2.6c0.2,0,0.5,0,0.7,0l0-0.8h0.9l0,1
								c0.6,0.2,1.2,0.5,1.6,1l0.1-1h2.6l0.3,3.1H5z"/>
						</g>
						<path id="XMLID_11189_" class="st5" d="M20.9,77.1c-1.2,0.7-2.6,1.4-4.1,2c-1.3,0.5-2.7,0.9-4.1,1.2c-1.3,0.3-2.7,0.5-4.1,0.7
							c-1.3,0.2-2.7,0.3-4.1,0.3c-0.7,0-1.3,0-2,0c-0.7,0-1.4,0-2.1,0C-1.2,81.3-2.6,81.2-4,81c-1.4-0.2-2.8-0.4-4.1-0.7
							c-1.5-0.3-2.9-0.7-4.1-1.2c-1.6-0.6-3-1.2-4.1-2c-2-1.3-3.5-2.8-4-4.4c0,1.4,0,4.3,0,5.6c0.7,1.5,2.1,2.9,4,4.2
							c1.2,0.7,2.6,1.4,4.1,2c1.3,0.5,2.7,0.9,4.1,1.3c1.3,0.3,2.7,0.6,4.1,0.8c1.3,0.2,2.7,0.3,4.1,0.4c0.7,0,1.4,0,2.1,0
							c0.7,0,1.4,0,2,0c1.4-0.1,2.8-0.2,4.1-0.4c1.4-0.2,2.8-0.4,4.1-0.8c1.5-0.3,2.9-0.8,4.1-1.2c1.6-0.6,3-1.2,4.1-2
							c2-1.2,3.5-2.7,4.1-4.2c0-1.3,0-4.2,0-5.6C24.5,74.3,23,75.8,20.9,77.1z"/>
					</g>
					<g id="XMLID_11130_">
						<path id="XMLID_11187_" class="st2" d="M2.3,55.4c-12.6,0-22.8,4.7-22.8,10.4c0,5.7,10.2,10.4,22.8,10.4
							c12.6,0,22.8-4.7,22.8-10.4C25.1,60,14.9,55.4,2.3,55.4z"/>
						<path id="XMLID_11186_" class="st3" d="M2.3,57.1c-10.5,0-19,3.5-19,7.7c0,4.3,8.5,7.7,19,7.7c10.5,0,19-3.5,19-7.7
							C21.3,60.6,12.8,57.1,2.3,57.1z"/>
						<path id="XMLID_11137_" class="st4" d="M2.3,72.7l0-0.2v-0.2h0c0.3,0,0.6,0,0.9,0l0,0.3C2.9,72.7,2.6,72.7,2.3,72.7z
							 M1.4,72.7c-0.3,0-0.6,0-0.9,0l0-0.3c0.3,0,0.6,0,0.9,0L1.4,72.7z M4.1,72.6l0-0.3c0.3,0,0.6,0,0.9,0l0,0.3
							C4.7,72.6,4.4,72.6,4.1,72.6z M-0.5,72.6c-0.3,0-0.6,0-0.9-0.1l0-0.3c0.3,0,0.6,0,0.9,0.1L-0.5,72.6z M5.9,72.5l0-0.3
							c0.3,0,0.6-0.1,0.9-0.1l0,0.3C6.6,72.5,6.3,72.5,5.9,72.5z M-2.3,72.5c-0.3,0-0.6-0.1-0.9-0.1l0-0.3c0.3,0,0.6,0.1,0.9,0.1
							L-2.3,72.5z M7.8,72.4l0-0.3C8,72,8.3,72,8.6,71.9l0,0.3C8.4,72.3,8.1,72.3,7.8,72.4z M-4.1,72.2c-0.3,0-0.6-0.1-0.9-0.1
							l0-0.3c0.3,0.1,0.6,0.1,0.9,0.1L-4.1,72.2z M9.6,72.1l0-0.3c0.3-0.1,0.6-0.1,0.9-0.2l0.1,0.3C10.2,72,9.9,72,9.6,72.1z
							 M-5.9,71.9c-0.3-0.1-0.6-0.1-0.9-0.2l0.1-0.3c0.3,0.1,0.6,0.1,0.9,0.2L-5.9,71.9z M11.4,71.7l-0.1-0.3
							c0.3-0.1,0.6-0.1,0.9-0.2l0.1,0.3C12,71.6,11.7,71.7,11.4,71.7z M-7.7,71.5c-0.3-0.1-0.6-0.2-0.9-0.2l0.1-0.3
							c0.3,0.1,0.6,0.2,0.9,0.2L-7.7,71.5z M13.2,71.3L13.1,71c0.3-0.1,0.6-0.2,0.9-0.3L14,71C13.7,71.1,13.5,71.2,13.2,71.3z
							 M-9.5,71c-0.3-0.1-0.6-0.2-0.9-0.3l0.1-0.3c0.3,0.1,0.6,0.2,0.9,0.3L-9.5,71z M14.9,70.7l-0.1-0.3c0.3-0.1,0.6-0.2,0.8-0.3
							l0.1,0.3C15.5,70.5,15.2,70.6,14.9,70.7z M-11.2,70.4c-0.3-0.1-0.6-0.2-0.8-0.4l0.1-0.3c0.3,0.1,0.5,0.2,0.8,0.4L-11.2,70.4z
							 M16.6,70l-0.1-0.3c0.3-0.1,0.6-0.3,0.8-0.4l0.1,0.3C17.2,69.8,16.9,69.9,16.6,70z M-12.8,69.6c-0.3-0.1-0.5-0.3-0.8-0.5
							l0.2-0.3c0.2,0.2,0.5,0.3,0.8,0.5L-12.8,69.6z M18.2,69.2l-0.2-0.3c0.3-0.2,0.5-0.3,0.7-0.5l0.2,0.2
							C18.8,68.8,18.5,69,18.2,69.2z M-14.4,68.6c-0.3-0.2-0.5-0.4-0.7-0.6l0.2-0.2c0.2,0.2,0.4,0.4,0.7,0.6L-14.4,68.6z M19.7,68.1
							l-0.2-0.2c0.2-0.2,0.4-0.4,0.6-0.6l0.2,0.2C20.2,67.6,20,67.9,19.7,68.1z M-15.8,67.4c-0.2-0.3-0.4-0.5-0.5-0.8l0.3-0.1
							c0.1,0.2,0.3,0.5,0.5,0.7L-15.8,67.4z M20.9,66.6l-0.3-0.1c0.1-0.3,0.3-0.5,0.3-0.8l0.3,0.1C21.2,66.1,21.1,66.4,20.9,66.6z
							 M-16.7,65.7c-0.1-0.3-0.1-0.6-0.1-0.9l0.3,0v0c0,0.3,0,0.6,0.1,0.8L-16.7,65.7z M21.4,64.8l-0.3,0l0.2,0l-0.2,0
							c0-0.3,0-0.6-0.1-0.8l0.3-0.1C21.4,64.2,21.4,64.5,21.4,64.8L21.4,64.8z M-16.4,63.9l-0.3-0.1c0.1-0.3,0.2-0.6,0.4-0.9
							l0.3,0.1C-16.2,63.4-16.3,63.7-16.4,63.9z M20.7,63.2c-0.1-0.2-0.3-0.5-0.5-0.7l0.2-0.2c0.2,0.3,0.4,0.5,0.5,0.8L20.7,63.2z
							 M-15.5,62.4l-0.2-0.2c0.2-0.2,0.4-0.5,0.6-0.7l0.2,0.2C-15.1,62-15.3,62.2-15.5,62.4z M19.6,61.8c-0.2-0.2-0.4-0.4-0.7-0.6
							L19,61c0.3,0.2,0.5,0.4,0.7,0.6L19.6,61.8z M-14.2,61.2l-0.2-0.2c0.2-0.2,0.5-0.3,0.8-0.5l0.2,0.3C-13.7,60.9-14,61-14.2,61.2
							z M18.1,60.7c-0.2-0.2-0.5-0.3-0.8-0.5l0.1-0.3c0.3,0.1,0.5,0.3,0.8,0.5L18.1,60.7z M-12.7,60.3l-0.1-0.3
							c0.3-0.1,0.5-0.3,0.8-0.4l0.1,0.3C-12.2,60-12.4,60.1-12.7,60.3z M16.5,59.9c-0.3-0.1-0.5-0.2-0.8-0.4l0.1-0.3
							c0.3,0.1,0.6,0.2,0.8,0.4L16.5,59.9z M-11,59.5l-0.1-0.3c0.3-0.1,0.6-0.2,0.9-0.3l0.1,0.3C-10.5,59.3-10.8,59.4-11,59.5z
							 M14.9,59.2c-0.3-0.1-0.6-0.2-0.9-0.3l0.1-0.3c0.3,0.1,0.6,0.2,0.9,0.3L14.9,59.2z M-9.3,58.9l-0.1-0.3
							c0.3-0.1,0.6-0.2,0.9-0.3l0.1,0.3C-8.8,58.7-9.1,58.8-9.3,58.9z M13.1,58.6c-0.3-0.1-0.6-0.2-0.9-0.2l0.1-0.3
							c0.3,0.1,0.6,0.2,0.9,0.2L13.1,58.6z M-7.6,58.4l-0.1-0.3c0.3-0.1,0.6-0.1,0.9-0.2l0.1,0.3C-7,58.2-7.3,58.3-7.6,58.4z
							 M11.4,58.2c-0.3-0.1-0.6-0.1-0.9-0.2l0.1-0.3c0.3,0.1,0.6,0.1,0.9,0.2L11.4,58.2z M-5.8,58l-0.1-0.3c0.3-0.1,0.6-0.1,0.9-0.2
							l0.1,0.3C-5.2,57.9-5.5,57.9-5.8,58z M9.6,57.8c-0.3-0.1-0.6-0.1-0.9-0.1l0-0.3c0.3,0,0.6,0.1,0.9,0.1L9.6,57.8z M-4,57.7
							l0-0.3c0.3,0,0.6-0.1,0.9-0.1l0,0.3C-3.4,57.6-3.7,57.6-4,57.7z M7.8,57.6c-0.3,0-0.6-0.1-0.9-0.1l0-0.3
							c0.3,0,0.6,0.1,0.9,0.1L7.8,57.6z M-2.2,57.5l0-0.3c0.3,0,0.6-0.1,0.9-0.1l0,0.3C-1.6,57.4-1.9,57.4-2.2,57.5z M6,57.4
							c-0.3,0-0.6,0-0.9-0.1l0-0.3c0.3,0,0.6,0,0.9,0.1L6,57.4z M-0.4,57.3l0-0.3c0.3,0,0.6,0,0.9,0l0,0.3
							C0.2,57.3-0.1,57.3-0.4,57.3z M4.2,57.3c-0.3,0-0.6,0-0.9,0l0-0.3c0.3,0,0.6,0,0.9,0L4.2,57.3z M1.4,57.2l0-0.3
							c0.3,0,0.6,0,0.9,0h0v0.3h0C2,57.2,1.7,57.2,1.4,57.2z"/>
						<g id="XMLID_11134_">
							<path id="XMLID_11135_" class="st4" d="M5,62.8C5,61.9,4,61.3,3,61.3c-0.4,0-1.1,0.2-1.1,0.7c0,1.3,6.3,1,6.6,4.2
								c0.2,2.3-2.2,3.2-4.3,3.2c-0.2,0-0.4,0-0.6,0l0,1H2.5l0-1.2c-0.9-0.3-1.5-0.7-1.9-1.1l-0.2,1.2h-3l0.2-3.7h3.1
								c0,1.2,1.4,1.4,2.1,1.4c0.6,0,1.4-0.1,1.4-0.7c0-1.1-6.4-0.6-6.2-4c0.1-1.8,2.2-2.6,3.7-2.6c0.2,0,0.5,0,0.7,0l0-0.8h0.9l0,1
								c0.6,0.2,1.2,0.5,1.6,1l0.1-1h2.6l0.3,3.1H5z"/>
						</g>
						<path id="XMLID_11131_" class="st5" d="M20.9,70.6c-1.2,0.7-2.6,1.4-4.1,2c-1.3,0.5-2.7,0.9-4.1,1.2c-1.3,0.3-2.7,0.5-4.1,0.7
							c-1.3,0.2-2.7,0.3-4.1,0.3c-0.7,0-1.3,0-2,0c-0.7,0-1.4,0-2.1,0c-1.4-0.1-2.8-0.2-4.1-0.3c-1.4-0.2-2.8-0.4-4.1-0.7
							c-1.5-0.3-2.9-0.7-4.1-1.2c-1.6-0.6-3-1.2-4.1-2c-2-1.3-3.5-2.8-4-4.4c0,1.4,0,4.3,0,5.6c0.7,1.5,2.1,2.9,4,4.2
							c1.2,0.7,2.6,1.4,4.1,2c1.3,0.5,2.7,0.9,4.1,1.3c1.3,0.3,2.7,0.6,4.1,0.8c1.3,0.2,2.7,0.3,4.1,0.4c0.7,0,1.4,0,2.1,0
							c0.7,0,1.4,0,2,0c1.4-0.1,2.8-0.2,4.1-0.4c1.4-0.2,2.8-0.4,4.1-0.8c1.5-0.3,2.9-0.8,4.1-1.2c1.6-0.6,3-1.2,4.1-2
							c2-1.2,3.5-2.7,4.1-4.2c0-1.3,0-4.2,0-5.6C24.5,67.8,23,69.3,20.9,70.6z"/>
					</g>
					<g id="XMLID_11113_">
						<path id="XMLID_11127_" class="st6" d="M2.3,48.8c-12.6,0-22.8,4.7-22.8,10.4c0,5.7,10.2,10.4,22.8,10.4
							c12.6,0,22.8-4.7,22.8-10.4C25.1,53.5,14.9,48.9,2.3,48.8z"/>
						<path id="XMLID_11124_" class="st7" d="M2.3,50.6c-10.5,0-19,3.5-19,7.7s8.5,7.7,19,7.7c10.5,0,19-3.5,19-7.7
							S12.8,50.6,2.3,50.6z"/>
						<path id="XMLID_11121_" class="st5" d="M20.9,64.1c-1.2,0.7-2.6,1.4-4.1,2c-1.3,0.5-2.7,0.9-4.1,1.2c-1.3,0.3-2.7,0.5-4.1,0.7
							c-1.3,0.2-2.7,0.3-4.1,0.3c-0.7,0-1.3,0-2,0c-0.7,0-1.4,0-2.1,0C-1.2,68.3-2.6,68.1-4,68c-1.4-0.2-2.8-0.4-4.1-0.7
							c-1.5-0.3-2.9-0.7-4.1-1.2c-1.6-0.6-3-1.2-4.1-2c-2-1.3-3.5-2.8-4-4.4c0,1.4,0,4.3,0,5.6c0.7,1.5,2.1,2.9,4,4.2
							c1.2,0.7,2.6,1.4,4.1,2c1.3,0.5,2.7,0.9,4.1,1.3c1.3,0.3,2.7,0.6,4.1,0.8c1.3,0.2,2.7,0.3,4.1,0.4c0.7,0,1.4,0,2.1,0
							c0.7,0,1.4,0,2,0c1.4-0.1,2.8-0.2,4.1-0.4c1.4-0.2,2.8-0.4,4.1-0.8c1.5-0.3,2.9-0.8,4.1-1.2c1.6-0.6,3-1.2,4.1-2
							c2-1.2,3.5-2.7,4.1-4.2c0-1.3,0-4.2,0-5.6C24.5,61.3,23,62.8,20.9,64.1z"/>
						<path id="XMLID_11118_" class="st2" d="M2.3,66.6L2.3,66.6c-9.2,0-19-2.8-19-8.1c0-5.2,9.8-8.1,19-8.1c9.2,0,19,2.8,19,8.1
							C21.3,63.8,11.5,66.6,2.3,66.6z M2.3,52.7c-9.9,0-16.8,3.1-16.8,5.8c0,2.8,6.9,5.8,16.8,5.8c9.9,0,16.8-3.1,16.8-5.8
							C19.1,55.8,12.2,52.7,2.3,52.7z"/>
					</g>
				</g>
			</g>
		</g>
	</g>
</g>
</svg>
