<?xml version="1.0" encoding="utf-8"?>
<!-- Generator: Adobe Illustrator 19.0.0, SVG Export Plug-In . SVG Version: 6.00 Build 0)  -->
<svg version="1.1" id="Layer_1" xmlns="http://www.w3.org/2000/svg" xmlns:xlink="http://www.w3.org/1999/xlink" x="0px" y="0px"
	 viewBox="-49 15.6 140.5 140.5" style="enable-background:new -49 15.6 140.5 140.5;" xml:space="preserve">
<style type="text/css">
	.st0{fill:#FFFFFF;}
	.st1{fill:#EAB765;}
</style>
<g id="XMLID_3353_">
	<g id="XMLID_3355_">
		<g id="XMLID_3356_">
			<circle id="XMLID_3357_" class="st0" cx="21.3" cy="85.8" r="70.2"/>
		</g>
	</g>
	<g>
		<g>
			<path class="st1" d="M-7.3,67.3c0-3.7,1.2-7.5,3.6-11.4c2.4-3.8,5.9-7,10.5-9.5c4.6-2.5,10-3.8,16.1-3.8c5.7,0,10.8,1.1,15.1,3.2
				c4.4,2.1,7.8,5,10.1,8.6c2.4,3.6,3.6,7.6,3.6,11.8c0,3.4-0.7,6.3-2,8.8c-1.4,2.5-3,4.7-4.8,6.5c-1.9,1.8-5.2,4.9-10.1,9.2
				c-1.3,1.2-2.4,2.3-3.2,3.2c-0.8,0.9-1.4,1.8-1.8,2.5c-0.4,0.8-0.7,1.5-0.9,2.3s-0.5,2.1-1,4c-0.7,4.1-3.1,6.1-7,6.1
				c-2,0-3.8-0.7-5.2-2c-1.4-1.3-2.1-3.3-2.1-6c0-3.3,0.5-6.2,1.5-8.6c1-2.4,2.4-4.6,4.1-6.4c1.7-1.8,4-4,6.9-6.5
				c2.5-2.2,4.3-3.9,5.5-5s2.1-2.4,2.8-3.8c0.8-1.4,1.2-2.9,1.2-4.5c0-3.2-1.2-5.8-3.5-8c-2.3-2.2-5.4-3.3-9.1-3.3
				c-4.3,0-7.5,1.1-9.6,3.3c-2.1,2.2-3.8,5.4-5.2,9.7c-1.3,4.5-3.9,6.7-7.6,6.7c-2.2,0-4.1-0.8-5.6-2.3C-6.6,70.8-7.3,69.1-7.3,67.3
				z M21.5,132c-2.4,0-4.5-0.8-6.3-2.3c-1.8-1.6-2.7-3.7-2.7-6.5c0-2.5,0.9-4.6,2.6-6.3s3.9-2.5,6.4-2.5c2.5,0,4.6,0.8,6.3,2.5
				c1.7,1.7,2.5,3.8,2.5,6.3c0,2.8-0.9,4.9-2.7,6.5C25.9,131.2,23.8,132,21.5,132z"/>
		</g>
	</g>
</g>
<text id="XMLID_7223_" transform="matrix(1 0 0 1 119.3416 96.3946)" class="st1" style="font-family:'ArialRoundedMTBold'; font-size:22.3484px;">?</text>
</svg>
