<?xml version="1.0" encoding="utf-8"?>
<!-- Generator: Adobe Illustrator 19.0.0, SVG Export Plug-In . SVG Version: 6.00 Build 0)  -->
<svg version="1.1" id="Layer_1" xmlns="http://www.w3.org/2000/svg" xmlns:xlink="http://www.w3.org/1999/xlink" x="0px" y="0px"
	 viewBox="-57.6 26.8 117.5 117.5" style="enable-background:new -57.6 26.8 117.5 117.5;" xml:space="preserve">
<style type="text/css">
	.st0{fill:#FFFFFF;}
	.st1{fill:#FCCC00;}
	.st2{fill:#F9E4BB;}
</style>
<g id="XMLID_7183_">
	<circle id="XMLID_7184_" class="st0" cx="1.1" cy="85.6" r="58.8"/>
</g>
<g id="XMLID_11053_">
	<path id="XMLID_11098_" class="st1" d="M27.6,66.7c0.2-5-2.4-20.6-26.4-7.7c-24.1-12.9-26.6,2.7-26.4,7.7c0.2,5.6,2.7,12.7,7.1,20
		c-5.1,17.2-1.1,29,6.2,30.4c3.2-0.8,4.8-23.2,13.2-22.9c8.4-0.3,10,22.1,13.2,22.9c7.3-1.4,11.2-13.2,6.2-30.4
		C24.9,79.5,27.4,72.4,27.6,66.7z"/>
	<g id="XMLID_11095_">
		<path class="st2" d="M-20.8,76.9c0,0-0.2-0.5-0.5-1.3c-0.3-0.9-0.7-2.1-0.9-3.7c-0.1-0.8-0.2-1.6-0.3-2.5c0-0.9-0.1-1.9,0-2.9
			c0.2-2,0.7-4.2,2-6.1c0.3-0.5,0.7-0.9,1.1-1.3c0.4-0.4,0.9-0.8,1.4-1c0.9-0.7,2-1,3-1.2c0.5-0.1,1-0.2,1.5-0.2c0.5,0,1,0,1.4,0
			c0.9,0,1.8,0.1,2.6,0.3c0.4,0.1,0.8,0.1,1.1,0.2c0.3,0.1,0.7,0.2,1,0.3c0.6,0.2,1.1,0.3,1.6,0.5c0.8,0.3,1.3,0.5,1.3,0.5
			s-0.5,0-1.4-0.1c-0.4-0.1-1-0.1-1.6-0.1C-8.2,58.1-8.9,58-9.7,58c-0.8,0-1.6,0-2.4,0.1c-0.4,0.1-0.8,0.1-1.3,0.2
			c-0.4,0.1-0.8,0.2-1.3,0.3c-0.8,0.3-1.7,0.6-2.4,1.1c-0.4,0.2-0.7,0.6-1,0.8c-0.3,0.3-0.6,0.7-0.9,1c-0.5,0.7-1,1.6-1.2,2.4
			c-0.3,0.9-0.5,1.8-0.7,2.7c-0.3,1.8-0.3,3.6-0.3,5.1c0,1.5,0.1,2.8,0.2,3.7C-20.9,76.4-20.8,76.9-20.8,76.9z"/>
	</g>
	<g id="XMLID_11092_">
		<path class="st2" d="M15.1,115.2c0,0,0.3-0.3,0.7-1c0.2-0.3,0.5-0.7,0.7-1.2c0.3-0.5,0.5-1,0.8-1.6c0.2-0.6,0.6-1.2,0.8-2
			c0.3-0.7,0.5-1.5,0.7-2.2c0.2-0.8,0.4-1.6,0.5-2.4c0.1-0.8,0.3-1.7,0.3-2.6c0.1-0.9,0.2-1.7,0.2-2.6c0-0.9,0.1-1.7,0-2.5
			c0-0.8-0.1-1.6-0.1-2.4c-0.1-0.7-0.2-1.5-0.2-2.1c-0.1-0.7-0.1-1.3-0.2-1.8c-0.1-0.5-0.2-1-0.2-1.4C19,88.8,19,88.3,19,88.3
			s0.1,0.4,0.4,1.2c0.1,0.4,0.2,0.8,0.4,1.3c0.1,0.3,0.2,0.5,0.2,0.8c0.1,0.3,0.1,0.6,0.2,0.9c0.1,0.7,0.3,1.4,0.4,2.1
			c0.1,0.8,0.2,1.6,0.3,2.4c0.1,0.8,0.1,1.7,0.1,2.6c0,0.9-0.1,1.8-0.1,2.7c-0.1,0.9-0.3,1.8-0.4,2.6c-0.2,0.9-0.4,1.7-0.7,2.5
			c-0.3,0.8-0.5,1.6-0.9,2.3c-0.3,0.7-0.7,1.3-1,1.9c-0.7,1.2-1.4,2-1.9,2.6C15.5,114.9,15.1,115.2,15.1,115.2z"/>
	</g>
</g>
</svg>
