<?xml version="1.0" encoding="utf-8"?>
<!-- Generator: Adobe Illustrator 19.0.0, SVG Export Plug-In . SVG Version: 6.00 Build 0)  -->
<svg version="1.1" id="Layer_1" xmlns="http://www.w3.org/2000/svg" xmlns:xlink="http://www.w3.org/1999/xlink" x="0px" y="0px"
	 viewBox="-60.4 27.4 118.2 118.2" style="enable-background:new -60.4 27.4 118.2 118.2;" xml:space="preserve">
<style type="text/css">
	.st0{fill:none;}
	.st1{fill:#D8D8D8;}
	.st2{fill:#BA7765;}
	.st3{fill:#B5B5B5;}
	.st4{fill:#E5B65A;}
	.st5{fill:#FFFFFF;}
	.st6{fill:#F3F3F3;}
	.st7{fill:#231F20;}
	.st8{fill:#4F565B;}
	.st9{fill:#171C21;}
	.st10{fill:#D0D2D3;}
	.st11{fill:#00ADEE;}
	.st12{fill:#008ED3;}
	.st13{fill:#0C7E88;}
	.st14{fill:#E2E2E2;}
	.st15{clip-path:url(#XMLID_4_);}
	.st16{fill:none;stroke:#828282;stroke-width:1.4689;stroke-miterlimit:10;}
	.st17{fill:#EAECE7;}
	.st18{fill:url(#XMLID_5_);}
	.st19{fill:#EDEDED;}
</style>
<pattern  x="-60" y="145.1" width="3" height="3" patternUnits="userSpaceOnUse" id="New_Pattern" viewBox="0 -3 3 3" style="overflow:visible;">
	<g id="XMLID_970_">
		<polygon id="XMLID_972_" class="st0" points="0,-3 3,-3 3,0 0,0 		"/>
		<path id="XMLID_971_" class="st1" d="M2.3-1.5c0,0.4-0.4,0.8-0.8,0.8S0.7-1.1,0.7-1.5s0.4-0.8,0.8-0.8S2.3-1.9,2.3-1.5z"/>
	</g>
</pattern>
<g id="XMLID_6918_">
	<path id="XMLID_6910_" class="st2" d="M6.1,64.7l0.5,1.8l-1,1.8c0,0,0.9,10.6,8.9,11.6l1.3-1l27.5-6.8l-8.6-23.6L16,36.9l-9.5,12
		L6.1,64.7z"/>
	<path id="XMLID_6924_" class="st3" d="M-45.2,107.4l8.7,13.9l21,5.2l16.9-18.7L14,83.9c0,0-10.1,0.7-13.9-17L-45.2,107.4z"/>
	<path id="XMLID_6920_" class="st4" d="M1.1,65.1L2,73.8c0,0,5.5,9.6,8.7,9.9c3.2,0.3,7.2,0.3,7.2,0.1c0-0.2-0.7-4.8-0.7-4.8
		l-2.6,0.5l-2.1,0.9l-3.8-3l-3.5-6l0.1-3.1L6.5,67l0.1-1.8l-3.3-0.1L1.1,65.1z"/>
	<g id="XMLID_5446_">
		<path id="XMLID_7560_" class="st5" d="M33.9,39.6c0.6,0.5,1.2,0.9,1.8,1.4c0.2,0.2,0.5,0.4,0.7,0.6c0.5,0.5,1.1,0.9,1.6,1.4
			c0.3,0.3,0.6,0.6,0.9,0.9c0.5,0.5,0.9,0.9,1.4,1.4c0.3,0.3,0.6,0.6,0.9,0.9c0.5,0.6,1,1.1,1.6,1.7c0.1,0.3,0.3,0.5,0.5,0.6
			c0.5,0.6,1.1,1.3,1.6,1.9c0.1,0.3,0.2,0.5,0.5,0.6c0.4,0.6,0.9,1.2,1.3,1.8c0.1,0.3,0.2,0.5,0.5,0.7c0.4,0.7,0.9,1.4,1.3,2
			c0.2,0.3,0.4,0.6,0.6,0.9c0.4,0.7,0.8,1.4,1.2,2c0.1,0.2,0.2,0.5,0.4,0.7c0.4,0.7,0.7,1.5,1.1,2.2c0.1,0.2,0.3,0.5,0.4,0.7
			c0.2,0.8,0.6,1.5,1,2.3c0.1,0.4,0.2,0.8,0.5,1.1c1.4,4.1,2.6,8.2,3.2,12.5c0.2,1.3,0.1,2.6,0.6,3.8c0,3,0,6,0,8.9
			c-0.2,0.1-0.2,0.2-0.2,0.4c-0.3,4.6-1.3,9.1-2.6,13.4c-0.2,0.7-0.4,1.3-0.7,2c-0.8,1.9-1.6,3.8-2.4,5.7c-0.4,0.8-0.9,1.7-1.3,2.5
			c-0.3,0.5-0.7,1-1,1.5c-3.2,5.3-7.1,10-11.7,14.1c-3.1,2.7-6.4,5-9.9,7.1c-0.8,0.4-1.7,0.9-2.5,1.3c-1.9,0.8-3.8,1.7-5.7,2.5
			c-0.7,0.2-1.3,0.5-2,0.7c-3.4,1.1-6.8,1.9-10.3,2.4c-1.2,0.2-2.4,0.1-3.5,0.6c-3.1,0-6.1,0-9.2,0c-0.2-0.4-0.5-0.2-0.8-0.2
			c-1.4-0.2-2.9-0.3-4.3-0.6c-3.7-0.5-7.3-1.6-10.9-2.8c-0.3-0.2-0.7-0.4-1.1-0.4c-0.7-0.4-1.5-0.7-2.3-0.9
			c-0.2-0.1-0.5-0.3-0.7-0.4c-0.8-0.4-1.5-0.7-2.3-1.1c-0.2-0.1-0.5-0.2-0.7-0.4c-0.7-0.4-1.4-0.8-2-1.1c-0.3-0.2-0.6-0.4-1-0.6
			c-0.7-0.4-1.4-0.8-2-1.3c-0.2-0.2-0.4-0.4-0.7-0.5c-0.6-0.4-1.2-0.9-1.8-1.3c-0.3-0.3-0.6-0.5-0.9-0.7c-0.5-0.4-1.1-0.9-1.6-1.3
			c-0.1-0.2-0.3-0.4-0.6-0.5c-0.6-0.5-1.1-1-1.7-1.6c-0.3-0.3-0.6-0.6-0.9-0.9c-0.5-0.5-0.9-0.9-1.4-1.4c-0.3-0.3-0.6-0.6-0.9-0.9
			c-0.5-0.5-0.9-1.1-1.4-1.6c-0.2-0.2-0.4-0.5-0.6-0.7c-0.5-0.6-0.9-1.2-1.4-1.8c-0.1-0.2-0.3-0.3-0.4-0.5c-0.5-0.7-1-1.4-1.4-2
			c-0.2-0.3-0.4-0.6-0.7-1c-0.4-0.7-0.9-1.4-1.3-2.2c-0.1-0.3-0.2-0.6-0.5-0.8c-0.3-0.6-0.6-1.2-1-1.7c-0.2-0.4-0.4-0.8-0.6-1.3
			c-0.2-0.7-0.5-1.3-0.9-2c0-0.3-0.1-0.5-0.3-0.7c-0.3-0.8-0.6-1.5-0.9-2.3c-0.1-0.3-0.2-0.7-0.4-0.9c0-0.2,0-0.4-0.1-0.6
			c-1.9-3.2-2.8-7-3.4-10.9c-0.2-1.1-0.1-2.2-0.6-3.3c0-3.2,0-6.4,0-9.6c0.2-0.1,0.2-0.2,0.2-0.3c0.4-5,1.5-9.8,3.1-14.5
			c0.2-0.7,0.5-1.4,0.7-2.1c1-2.1,2-4.3,3-6.4c0.5-0.9,1-1.8,1.6-2.7c2-3,4.2-6,6.6-8.7c3.6-4,7.8-7.4,12.3-10.4
			c0.9-0.5,1.8-1.1,2.7-1.6c2.1-1,4.3-2,6.4-3.1c0.7-0.3,1.4-0.5,2.1-0.8c0.3-0.1,0.5-0.2,0.8-0.2c9.5-3.2,19.1-4,29-2.4
			c3.4,0.6,6.7,1.6,10.1,2.5c0.3,0.2,0.6,0.3,0.9,0.4c0.8,0.3,1.5,0.6,2.3,0.9c0.2,0.2,0.4,0.3,0.7,0.3c0.6,0.4,1.3,0.7,2,0.9
			c0.4,0.2,0.8,0.4,1.3,0.6c0.6,0.3,1.2,0.6,1.8,0.9c0.2,0.3,0.5,0.4,0.8,0.5 M6.9,75.8c-0.1-0.1-0.2-0.2-0.2-0.3
			c-0.4-0.8-0.8-1.5-1.3-2.3c-0.1-0.3-0.3-0.6-0.4-0.9c-0.6-1.9-1.1-3.8,0.9-5.2c0.2-0.2,0.4-0.4,0-0.5c-2.8-1.1-4.2-0.1-4.1,2.9
			c0,1.6,0.5,3.1,1.3,4.4c0.1,0.3,0.2,0.5,0.4,0.7c0.3,0.9,0.8,1.6,1.4,2.3c0.1,0.4,0.4,0.7,0.7,1c0.3,0.6,0.7,1.1,1.2,1.5
			c1,1.2,2.1,2.2,3.4,2.9c0.6,0.5,1.3,0.9,2.1,1.1c2.6,0.8,4.3-0.5,4-3.3c0-0.3,0.1-0.7-0.3-0.8s-0.6,0.2-0.7,0.6
			c-0.5,1.2-1,1.4-2.2,1.1c-0.5-0.1-1-0.3-1.5-0.5c-1.1-0.7-2-1.6-2.9-2.5C7.9,77.2,7.4,76.5,6.9,75.8z M7.4,73.9
			c0.2,0.4,0.4,0.8,0.7,1.1c0.1,0.2,0.2,0.2,0.4,0.1c1.9-0.9,3.8-1.6,5.6-2.7c0.8-0.3,1.6-0.6,2.3-1.1c2.5-1.2,5-2.5,7.3-3.9
			c1-0.4,1.9-0.9,2.7-1.6c2.2-1.2,4.2-2.5,6.3-3.9c0.7-0.5,1.3-0.9,0.1-1.5c0.4-0.6,2.3-0.7,0.7-2c-0.2-0.3-0.3-0.2-0.4,0
			c-0.1,0.1-0.2,0.1-0.3,0.2c-0.5,0-0.8,0.8-1.3,0.3c-0.2-0.8-0.7-0.3-1-0.1c-2.1,1.3-4.2,2.7-6.3,4c-1,0.4-1.9,1-2.7,1.6
			c-2.5,1.4-5,2.8-7.5,4.2c-0.8,0.4-1.5,0.7-2.3,1.1c-1.1,0.5-2.2,0.9-3.2,1.4C6.2,71.9,6.2,71.9,7.4,73.9z M13.9,60.1
			c0.4-0.7,0.6-1.4,0.8-2.1c0.8-1.8,1.5-3.6,2-5.5c0.3-0.6,0.5-1.2,0.6-1.8c0.5-1.2,0.8-2.5,1.2-3.7c0.3-0.8,0-1-0.7-0.9
			c0-0.2,0-0.5,0-0.7c0-0.4,0.6-1-0.3-1.3c-0.9-0.2-1,0.3-1.1,0.9c-0.1,0.5-0.3,0.8-0.8,0.4c-0.6-0.4-0.7,0-0.9,0.5
			c-0.5,1.6-1.1,3.1-1.5,4.8c-0.6,1.8-1.3,3.5-1.9,5.3c-0.2,0.7-0.5,1.4-0.7,2c-0.8,1.9-1.6,3.8-2.4,5.7c-0.5,0.7-0.8,1.5-1.1,2.3
			c-0.5,0.8-1,1.7-1.2,2.7c2.4-2.1,4.6-4.4,6.8-6.7C13.3,61.5,13.7,60.9,13.9,60.1z M11.8,79.2c0.2,0.2,0.4,0.4,0.7,0.4
			c0.3,0.3,0.5,0,0.7,0c1.6-0.6,3.2-1.2,4.8-1.9c0.6-0.1,1.2-0.3,1.8-0.6c1.6-0.5,3.2-1,4.8-1.5c0.6-0.2,1.2-0.4,1.8-0.6
			c1.5-0.4,3-0.9,4.6-1.3c0.6-0.2,1.2-0.3,1.8-0.5c1.2-0.3,2.4-0.6,3.6-0.9c0.3-0.1,0.9-0.1,0.7-0.6c-0.3-0.9,0.3-0.8,0.8-0.9
			c0.4,0,0.8,0.1,1.1-0.2c0-1.3-0.6-1.7-1.8-1.3c-0.2,0.1-0.5,0.1-0.6-0.2c0.3-0.5,0.3-0.8-0.4-0.7c-0.3,0.1-0.7,0.2-1,0.3
			c-1.5,0.2-2.9,0.6-4.3,1c-0.6,0.2-1.2,0.3-1.8,0.5c-1.5,0.5-3.1,0.9-4.6,1.4c-0.6,0.2-1.2,0.4-1.8,0.6c-1.7,0.5-3.4,1-5,1.7
			c-0.6,0.1-1.2,0.3-1.8,0.6c-2.2,0.7-4.4,1.6-6.6,2.6C10.2,77.9,10.9,78.7,11.8,79.2z M-25.5,122.8c2.1,0.6,3.9,0.2,4.6-1.1
			c1.7-3.2,3.8-6.2,5.8-9.3c1.1-1.5,2.3-3.1,3.4-4.6c2.1-2.4,4.1-4.9,6.3-7.3c3.9-4.3,8.2-8.1,12.6-11.8c1.7-1.3,3.4-2.5,5.2-3.8
			c-0.6-0.2-1.1-0.4-1.6-0.5c-0.7-0.4-1.4-0.9-2.1-1.3c-0.2-0.2-0.5-0.4-0.7-0.5c-0.5-0.5-1.1-0.9-1.6-1.4c-0.2-0.2-0.5-0.5-0.7-0.7
			c-0.5-0.5-0.9-1.1-1.4-1.6c-0.2-0.3-0.5-0.6-0.7-0.9c-0.4-0.6-0.8-1.2-1.2-1.8C2.3,76,2.2,75.7,2,75.5c-0.4-0.8-0.7-1.7-1.1-2.5
			c-0.1-0.3-0.2-0.6-0.3-1c-0.2-0.9-0.4-1.8-0.6-2.7c0.1-0.3,0.2-0.6,0-0.9c-1.3,0.8-2.5,1.7-3.6,2.6c-4.3,3.1-8.3,6.7-12.1,10.4
			c-5,4.9-9.6,10.1-13.7,15.7c-1.1,1.3-2,2.7-2.9,4.1c-2.3,3.1-4.3,6.3-6.1,9.7c-0.3,0.4-0.2,0.9-0.1,1.4c0.1,0.9,0.5,1.8,1.1,2.5
			c0.1,0.4,0.4,0.7,0.7,1c0.4,0.6,0.8,1.1,1.4,1.6c0.2,0.3,0.4,0.5,0.7,0.7c0.5,0.6,1.1,1.1,1.8,1.4c0.3,0.3,0.6,0.5,1,0.7
			c0.6,0.5,1.3,0.9,2.1,1.2c0.2,0.1,0.3,0.2,0.5,0.3c0.9,0.5,1.9,0.9,3,1.1C-26.1,122.8-25.8,122.8-25.5,122.8z M9.7,68.8
			c2.5-1,4.8-2.3,7.1-3.6c0.3-0.1,0.5-0.4,0.7-0.6c3.2-3.5,6.3-7,9.1-10.8c0.2-0.2,1.4-0.8,0-1.2c-0.2-0.1,0-0.3,0-0.5
			c0.2-0.4,0.4-0.7,0.7-1.1c0.3-0.3,0.6-0.6,0-0.8c-0.4-0.1-0.8-0.9-1.3-0.2c-0.4,0.5-0.7,1.1-1.1,1.6c-0.6-0.8-1.1-0.7-1.6,0
			c-0.2,0.2-0.4,0.5-0.6,0.7c-4.8,6-9.7,11.8-15.4,17c-0.1,0.1-0.3,0.2-0.2,0.5C8.1,69.7,8.9,69.3,9.7,68.8z"/>
		<path id="XMLID_6919_" class="st6" d="M33.9,39.6"/>
		<path id="XMLID_7454_" class="st6" d="M33.5,58.4c-0.1,0-0.3,0-0.4,0C33.2,58.2,33.3,58.1,33.5,58.4z"/>
		<path id="XMLID_7453_" class="st6" d="M5.9,67.1c0-0.2,0-0.3,0-0.5C6.3,66.7,6.1,66.9,5.9,67.1z"/>
	</g>
</g>
<g>
	<g id="XMLID_5442_">
		<circle id="XMLID_5443_" class="st5" cx="-1.4" cy="86.5" r="58.8"/>
	</g>
	<g id="XMLID_28_">
		<g id="XMLID_50_">
			<g id="XMLID_60_">
				<g id="XMLID_908_">
					<g>
						<path class="st7" d="M40.1,76.2h-4.2v-1.6L32,73.7v22.4l3.8-0.9v-1.6h4.2c0.7,0,1.3-0.6,1.3-1.3V77.5
							C41.4,76.8,40.8,76.2,40.1,76.2z M38.8,91h-2.9V78.8h2.9V91z"/>
					</g>
				</g>
				<g id="XMLID_382_">
					<g>
						<path class="st7" d="M-36.8,74.6v1.6H-41c-0.7,0-1.3,0.6-1.3,1.3v14.8c0,0.7,0.6,1.3,1.3,1.3h4.2v1.6l3.8,0.9V73.7L-36.8,74.6
							z M-36.8,91h-2.9V78.8h2.9V91z"/>
					</g>
				</g>
			</g>
			<circle id="XMLID_55_" class="st8" cx="-0.5" cy="84.9" r="35.2"/>
			<circle id="XMLID_52_" class="st9" cx="-0.5" cy="84.9" r="33.7"/>
			<circle id="XMLID_51_" class="st8" cx="-0.5" cy="84.9" r="26.1"/>
		</g>
		<g id="XMLID_29_">
			<g id="XMLID_36_">
				<path id="XMLID_39_" class="st10" d="M7,97.4c1.7,0,4-1.3,6-3l10.2,10.2l2.1-2.1L15,92.3c1.8-2,3-4.3,3-6
					c0-4-7.1-11.1-11.1-11.1c-4,0-11.1,7.1-11.1,11.1C-4.1,90.4,2.9,97.4,7,97.4z M6.1,80.6c-0.6-0.6-0.6-1.6,0-2.2
					c0.6-0.6,1.6-0.6,2.2,0l6.6,6.6c0.6,0.6,0.6,1.6,0,2.2c-0.6,0.6-1.6,0.6-2.2,0L6.1,80.6z M2.6,84.2c-0.6-0.6-0.6-1.6,0-2.2
					c0.6-0.6,1.6-0.6,2.2,0l6.6,6.6c0.6,0.6,0.6,1.6,0,2.2c-0.6,0.6-1.6,0.6-2.2,0L2.6,84.2z M-1,87.7c-0.6-0.6-0.6-1.6,0-2.2
					c0.6-0.6,1.6-0.6,2.2,0L7.9,92c0.6,0.6,0.6,1.6,0,2.2c-0.6,0.6-1.6,0.6-2.2,0L-1,87.7z"/>
			</g>
			<circle id="XMLID_35_" class="st11" cx="37" cy="116.3" r="1.3"/>
			
				<rect id="XMLID_34_" x="28.7" y="100.8" transform="matrix(-0.7071 0.7071 -0.7071 -0.7071 130.5135 166.2906)" class="st12" width="4.3" height="18.7"/>
			
				<rect id="XMLID_31_" x="24.4" y="105.4" transform="matrix(-0.7071 0.7071 -0.7071 -0.7071 120.2263 162.0277)" class="st11" width="4.3" height="1"/>
			
				<rect id="XMLID_30_" x="25.9" y="106.9" transform="matrix(-0.7071 0.7071 -0.7071 -0.7071 123.7665 163.4968)" class="st11" width="4.3" height="1"/>
		</g>
	</g>
</g>
<g>
	<g id="XMLID_6781_">
		<path id="XMLID_933_" class="st5" d="M17.9,30.6c23.2,8,39.8,30,39.8,55.9c0,32.6-26.5,59.1-59.1,59.1s-59.1-26.5-59.1-59.1
			S-34,27.4-1.4,27.4c4.3,0,8.5,0.5,12.6,1.3"/>
		<path id="XMLID_6895_" class="st5" d="M11.2,28.7c2.3,0.5,4.5,1.1,6.7,1.9"/>
	</g>
	<g id="XMLID_947_">
		<path id="XMLID_936_" class="st13" d="M12.9,29.1L1.5,63.5l7.1,2.4l11.4-34.5C17.7,30.5,15.3,29.7,12.9,29.1z"/>
		<path id="XMLID_554_" class="st14" d="M-3.5,78c-0.2,0.7-0.9,1-1.6,0.8c-5-1.5-24.8-7.1-43-4.4c-3.5,0.5-6.2,3.3-6.8,6.8
			c-0.8,4.8-0.7,11.5,4.7,16c2.8,2.3,6.4,3.5,10,3.4c6.5-0.2,20.3-1.8,36.3-11.4c1.7-1,2.9-2.6,3.8-4.4c0.3-0.7,0.9-1.4,1.9-1.7
			c0.7-0.2,1.2-0.8,1.5-1.5l5.4-15.7l-7.1-2.4L-3.5,78z"/>
		<g id="XMLID_944_">
			<defs>
				<path id="XMLID_408_" d="M-39.8,95.3c-2.3,0-4.5-0.7-6.1-2.1c-2.8-2.3-3.7-6-2.9-11.1c0.2-1.2,1.1-2.2,2.3-2.4
					c3-0.5,6.3-0.7,9.8-0.7c10.4,0,20.3,2.1,26.4,3.6l1.7,3.5c-13.7,7.5-25.1,8.9-31,9.1L-39.8,95.3z"/>
			</defs>
			<clipPath id="XMLID_4_">
				<use xlink:href="#XMLID_408_"  style="overflow:visible;"/>
			</clipPath>
			<g id="XMLID_44_" class="st15">
				<line class="st16" x1="-62" y1="83.2" x2="-0.7" y2="72.1"/>
				<line class="st16" x1="-60.3" y1="86.1" x2="1.1" y2="75"/>
				<line class="st16" x1="-58.5" y1="88.9" x2="2.8" y2="77.9"/>
				<line class="st16" x1="-56.8" y1="91.8" x2="4.5" y2="80.7"/>
				<line class="st16" x1="-55.1" y1="94.7" x2="6.3" y2="83.6"/>
				<line class="st16" x1="-53.3" y1="97.5" x2="8" y2="86.5"/>
			</g>
		</g>
	</g>
	<g id="XMLID_397_">
		<circle id="XMLID_948_" class="st17" cx="23.3" cy="91.1" r="14.1"/>
		<pattern  id="XMLID_5_" xlink:href="#New_Pattern" patternTransform="matrix(1.0733 0 0 1.0733 585.0998 612.2286)">
		</pattern>
		<circle id="XMLID_960_" class="st18" cx="23.2" cy="91" r="14.1"/>
		<ellipse id="XMLID_958_" class="st19" cx="23.3" cy="120.6" rx="7.8" ry="1.5"/>
		<path id="XMLID_957_" class="st13" d="M18.9,106c0,0,4.4,1.7,8.6,0l-3,14.1c-0.3,1.3-2.2,1.3-2.5,0L18.9,106z"/>
	</g>
</g>
</svg>
