<?xml version="1.0" encoding="utf-8"?>
<!-- Generator: Adobe Illustrator 19.0.0, SVG Export Plug-In . SVG Version: 6.00 Build 0)  -->
<svg version="1.1" id="Layer_1" xmlns="http://www.w3.org/2000/svg" xmlns:xlink="http://www.w3.org/1999/xlink" x="0px" y="0px"
	 viewBox="-35 2.7 167.4 167.4" style="enable-background:new -35 2.7 167.4 167.4;" xml:space="preserve">
<style type="text/css">
	.st0{fill:#FFFFFF;}
	.st1{fill:#C6816B;}
	.st2{fill:#594A42;}
	.st3{fill:#FDDBBB;}
	.st4{fill:#EB7D86;}
	.st5{fill:#707070;}
	.st6{font-family:'ArialRoundedMTBold';}
	.st7{font-size:144.1029px;}
	.st8{fill:none;stroke:#F9F9F9;stroke-width:14.1083;stroke-miterlimit:10;}
</style>
<g id="XMLID_5405_">
	<g id="XMLID_3081_">
		<circle id="XMLID_3422_" class="st0" cx="48.7" cy="86.4" r="83.7"/>
	</g>
	<g id="XMLID_5426_">
		<g id="XMLID_35_">
			<path id="XMLID_3330_" class="st1" d="M-17.3,98.5c-13-13-13-34.2,0-47.2s34.2-13,47.2,0C41.2,62.6,42.7,80.1,34.3,93l4.5,14.4
				l-14.4-4.5C11.5,111.3-5.9,109.8-17.3,98.5z"/>
		</g>
		<g id="XMLID_5429_">
			<g id="XMLID_6783_">
				<g id="XMLID_47_">
					<path id="XMLID_3309_" class="st2" d="M54.8,100.4c0,0-2.5,17.5-8.1,25.4c0,0,14.8,2.9,26.8,0.5c11.8-2.3,11.7-1.7,11.7-1.7
						L54.8,100.4z"/>
					<path id="XMLID_3857_" class="st3" d="M52.4,92.3c-2.4,19.5,9.1,36.9,26.7,39c17.5,2.1,34.4-11.8,36.8-31.3
						c2.4-19.5-9.9-37-27.4-39.1C61.6,57.7,54.8,72.8,52.4,92.3z"/>
					<path id="XMLID_5399_" class="st2" d="M84.9,99.5c-0.2,2.7,0.6,4.3,1.8,4.4c1.2,0.1,2.2-1.3,2.4-4.1c0.2-2.7-0.6-4.3-1.8-4.4
						C86.1,95.3,85.1,96.8,84.9,99.5z"/>
					<path id="XMLID_5402_" class="st2" d="M58,96c-0.2,2.7,0.6,4.3,1.8,4.4c1.2,0.1,2.2-1.3,2.4-4.1c0.2-2.7-0.6-4.3-1.8-4.4
						C59.2,91.8,58.2,93.2,58,96z"/>
					<path id="XMLID_40_" class="st2" d="M102.6,96.9l0.8-9.3c0,0-29.2,1.8-52.5-6.7c3.5-16.2,20.6-28.8,37.8-26.7
						c41,5,37.2,44.3,24.3,74.5c-12.1,3.5-21.8,2.9-21.8,2.9c7.1-10.1,10.7-28.9,10.7-28.9s6.2,3.2,6.5-3.3
						C108.7,94.9,102.6,96.9,102.6,96.9z"/>
				</g>
			</g>
			<path id="XMLID_3307_" class="st4" d="M66.2,112.4c-0.3,4.1,2.7,7.7,6.8,8.1c4.1,0.3,7.7-2.7,8.1-6.8L66.2,112.4z"/>
		</g>
	</g>
</g>
<g id="XMLID_3283_">
	<g id="XMLID_5406_">
		<g id="XMLID_6928_">
			<circle id="XMLID_6929_" class="st0" cx="48.7" cy="86.3" r="83.6"/>
		</g>
	</g>
	<text id="XMLID_3294_" transform="matrix(1 0 0 1 8.3347 139.6879)" class="st5 st6 st7">?</text>
</g>
<g id="XMLID_1_">
	<g id="XMLID_11_">
		<circle id="XMLID_12_" class="st0" cx="48.7" cy="86.4" r="83.1"/>
	</g>
	<g id="XMLID_2_">
		<g id="XMLID_6900_">
			<path id="XMLID_10_" class="st5" d="M-16.8,98.4c-13-13-13-33.9,0-46.9c13-13,33.9-13,46.9,0c11.3,11.2,12.7,28.6,4.4,41.4
				l4.5,14.3l-14.3-4.4C11.7,111.1-5.6,109.6-16.8,98.4z"/>
		</g>
		<g id="XMLID_3_">
			<g id="XMLID_5_">
				<g id="XMLID_6786_">
					<path id="XMLID_9_" class="st2" d="M54.7,100.3c0,0-2.5,17.4-8.1,25.2c0,0,14.7,2.8,26.6,0.5c11.7-2.3,11.6-1.7,11.6-1.7
						L54.7,100.3z"/>
					<path id="XMLID_8_" class="st3" d="M52.4,92.2c-2.4,19.3,9.1,36.6,26.5,38.7c17.4,2.1,34.2-11.7,36.5-31.1
						c2.4-19.3-9.8-36.7-27.2-38.8C61.5,57.9,54.7,72.9,52.4,92.2z"/>
					<path id="XMLID_7_" class="st2" d="M84.6,99.4c-0.2,2.7,0.6,4.3,1.8,4.4c1.1,0.1,2.2-1.3,2.4-4.1c0.2-2.7-0.6-4.3-1.8-4.4
						C85.8,95.2,84.8,96.7,84.6,99.4z"/>
					<path id="XMLID_6_" class="st2" d="M57.9,95.9c-0.2,2.7,0.6,4.3,1.8,4.4c1.1,0.1,2.2-1.3,2.4-4.1c0.2-2.7-0.6-4.3-1.8-4.4
						C59.1,91.7,58.1,93.1,57.9,95.9z"/>
					<path id="XMLID_5403_" class="st2" d="M102.3,96.8l0.8-9.2c0,0-29,1.8-52.2-6.7c3.4-16.1,20.4-28.6,37.5-26.5
						c40.7,5,36.9,44,24.1,74c-12,3.4-21.6,2.9-21.6,2.9c7-10,10.6-28.7,10.6-28.7s6.1,3.2,6.5-3.3
						C108.2,94.8,102.3,96.8,102.3,96.8z"/>
				</g>
			</g>
			<path id="XMLID_4_" class="st4" d="M66,112.2c-0.3,4.1,2.7,7.7,6.8,8c4.1,0.3,7.7-2.7,8-6.8L66,112.2z"/>
		</g>
	</g>
</g>
<g id="XMLID_2622_">
	<circle id="XMLID_3425_" class="st0" cx="48.7" cy="86.4" r="83.1"/>
	<g id="XMLID_3410_">
		<g id="XMLID_3418_">
			<path id="XMLID_3421_" class="st5" d="M50,133.7c-15.6,0-30.8-4.3-44-12.4c-12.8-7.9-23.3-19-30.4-32.3l-1.6-3l1.6-3
				c7.1-13.3,17.6-24.4,30.4-32.3c13.2-8.1,28.4-12.4,44-12.4c15.6,0,30.8,4.3,44,12.4c12.8,7.9,23.3,19,30.4,32.3l1.6,3l-1.6,3
				c-7.1,13.3-17.6,24.4-30.4,32.3C80.8,129.4,65.6,133.7,50,133.7z"/>
		</g>
		<circle id="XMLID_3417_" class="st8" cx="50" cy="86" r="33"/>
		<circle id="XMLID_3416_" class="st0" cx="35.4" cy="69.5" r="15.1"/>
	</g>
</g>
</svg>
