<?xml version="1.0" encoding="utf-8"?>
<!-- Generator: Adobe Illustrator 19.0.0, SVG Export Plug-In . SVG Version: 6.00 Build 0)  -->
<svg version="1.1" id="Layer_1" xmlns="http://www.w3.org/2000/svg" xmlns:xlink="http://www.w3.org/1999/xlink" x="0px" y="0px"
	 viewBox="-35 2.7 167.4 167.4" style="enable-background:new -35 2.7 167.4 167.4;" xml:space="preserve">
<style type="text/css">
	.st0{fill:#FFFFFF;}
	.st1{fill:#C6816B;}
	.st2{fill:#594A42;}
	.st3{fill:#FDDBBB;}
	.st4{fill:#EB7D86;}
	.st5{fill:#707070;}
</style>
<g id="XMLID_5405_">
	<g id="XMLID_3081_">
		<circle id="XMLID_3422_" class="st0" cx="48.7" cy="86.4" r="83.7"/>
	</g>
	<g id="XMLID_5426_">
		<g id="XMLID_35_">
			<path id="XMLID_3330_" class="st1" d="M-17.3,98.5c-13-13-13-34.2,0-47.2s34.2-13,47.2,0C41.2,62.6,42.7,80.1,34.3,93l4.5,14.4
				l-14.4-4.5C11.5,111.3-5.9,109.8-17.3,98.5z"/>
		</g>
		<g id="XMLID_5429_">
			<g id="XMLID_6783_">
				<g id="XMLID_47_">
					<path id="XMLID_3309_" class="st2" d="M54.8,100.4c0,0-2.5,17.5-8.1,25.4c0,0,14.8,2.9,26.8,0.5c11.8-2.3,11.7-1.7,11.7-1.7
						L54.8,100.4z"/>
					<path id="XMLID_3857_" class="st3" d="M52.4,92.3c-2.4,19.5,9.1,36.9,26.7,39c17.5,2.1,34.4-11.8,36.8-31.3
						c2.4-19.5-9.9-37-27.4-39.1C61.6,57.7,54.8,72.8,52.4,92.3z"/>
					<path id="XMLID_5399_" class="st2" d="M84.9,99.5c-0.2,2.7,0.6,4.3,1.8,4.4c1.2,0.1,2.2-1.3,2.4-4.1c0.2-2.7-0.6-4.3-1.8-4.4
						C86.1,95.3,85.1,96.8,84.9,99.5z"/>
					<path id="XMLID_5402_" class="st2" d="M58,96c-0.2,2.7,0.6,4.3,1.8,4.4c1.2,0.1,2.2-1.3,2.4-4.1c0.2-2.7-0.6-4.3-1.8-4.4
						C59.2,91.8,58.2,93.2,58,96z"/>
					<path id="XMLID_40_" class="st2" d="M102.6,96.9l0.8-9.3c0,0-29.2,1.8-52.5-6.7c3.5-16.2,20.6-28.8,37.8-26.7
						c41,5,37.2,44.3,24.3,74.5c-12.1,3.5-21.8,2.9-21.8,2.9c7.1-10.1,10.7-28.9,10.7-28.9s6.2,3.2,6.5-3.3
						C108.7,94.9,102.6,96.9,102.6,96.9z"/>
				</g>
			</g>
			<path id="XMLID_3307_" class="st4" d="M66.2,112.4c-0.3,4.1,2.7,7.7,6.8,8.1c4.1,0.3,7.7-2.7,8.1-6.8L66.2,112.4z"/>
		</g>
	</g>
</g>
<g id="XMLID_3283_">
	<g id="XMLID_5406_">
		<g id="XMLID_6928_">
			<circle id="XMLID_6929_" class="st0" cx="48.7" cy="86.3" r="83.6"/>
		</g>
	</g>
	<g>
		<path class="st5" d="M14.7,64.2c0-4.5,1.4-9,4.3-13.5c2.9-4.6,7-8.4,12.5-11.4c5.5-3,11.9-4.5,19.2-4.5c6.8,0,12.8,1.3,18,3.8
			c5.2,2.5,9.2,5.9,12.1,10.2c2.8,4.3,4.3,9,4.3,14.1c0,4-0.8,7.5-2.4,10.5c-1.6,3-3.5,5.6-5.8,7.8c-2.2,2.2-6.2,5.9-12,11
			C63.2,93.6,62,94.9,61,96c-1,1.1-1.7,2.1-2.1,3c-0.5,0.9-0.8,1.8-1.1,2.7c-0.3,0.9-0.6,2.5-1.2,4.8c-0.9,4.9-3.7,7.3-8.4,7.3
			c-2.4,0-4.5-0.8-6.2-2.4c-1.7-1.6-2.5-4-2.5-7.1c0-3.9,0.6-7.4,1.8-10.2c1.2-2.9,2.8-5.4,4.9-7.6c2-2.2,4.7-4.8,8.2-7.8
			c3-2.6,5.2-4.6,6.5-5.9s2.5-2.8,3.4-4.5c0.9-1.6,1.4-3.4,1.4-5.3c0-3.8-1.4-6.9-4.2-9.5c-2.8-2.6-6.4-3.9-10.8-3.9
			c-5.2,0-9,1.3-11.4,3.9c-2.4,2.6-4.5,6.4-6.2,11.5c-1.6,5.3-4.6,8-9.1,8c-2.6,0-4.8-0.9-6.6-2.8C15.6,68.4,14.7,66.3,14.7,64.2z
			 M49,141.3c-2.9,0-5.4-0.9-7.5-2.8c-2.1-1.9-3.2-4.4-3.2-7.8c0-3,1-5.4,3.1-7.5c2.1-2,4.6-3,7.6-3c3,0,5.4,1,7.5,3
			c2,2,3,4.5,3,7.5c0,3.3-1.1,5.9-3.2,7.7C54.2,140.4,51.8,141.3,49,141.3z"/>
	</g>
</g>
</svg>
