<?xml version="1.0" encoding="utf-8"?>
<!-- Generator: Adobe Illustrator 19.0.0, SVG Export Plug-In . SVG Version: 6.00 Build 0)  -->
<svg version="1.1" id="Layer_1" xmlns="http://www.w3.org/2000/svg" xmlns:xlink="http://www.w3.org/1999/xlink" x="0px" y="0px"
	 viewBox="-57.6 26.8 117.5 117.5" style="enable-background:new -57.6 26.8 117.5 117.5;" xml:space="preserve">
<style type="text/css">
	.st0{fill:#FFFFFF;}
	.st1{fill:none;stroke:#F7C85E;stroke-width:1.461;stroke-miterlimit:10;}
	.st2{fill:none;stroke:#EFBE5E;stroke-width:2.299;stroke-miterlimit:10;}
	.st3{fill:#EFBE5E;}
	.st4{fill:#F9F97A;}
	.st5{fill:#F7C85E;}
	.st6{fill:#D3A553;}
</style>
<g>
	<g id="XMLID_7199_">
		<path id="XMLID_7202_" class="st0" d="M20.3,30c23,8,39.6,29.8,39.6,55.6c0,32.5-26.3,58.8-58.8,58.8S-57.6,118-57.6,85.6
			s26.3-58.8,58.8-58.8c4.3,0,8.5,0.5,12.5,1.3"/>
		<path id="XMLID_7200_" class="st0" d="M13.7,28.1c2.3,0.5,4.5,1.1,6.7,1.9"/>
	</g>
	<g id="XMLID_11016_">
		<circle id="XMLID_11023_" class="st1" cx="6.7" cy="76.8" r="3.8"/>
		<circle id="XMLID_11022_" class="st1" cx="11.8" cy="72.4" r="3.8"/>
		<circle id="XMLID_11021_" class="st1" cx="17.3" cy="67" r="3.8"/>
		<circle id="XMLID_11020_" class="st1" cx="21.8" cy="61.2" r="3.8"/>
		<circle id="XMLID_11019_" class="st1" cx="27.2" cy="55.9" r="3.8"/>
		<circle id="XMLID_11018_" class="st1" cx="31.2" cy="49.6" r="3.8"/>
		<circle id="XMLID_11017_" class="st1" cx="34.9" cy="42.6" r="3.8"/>
	</g>
	<g id="XMLID_11008_">
		<circle id="XMLID_11015_" class="st1" cx="-4.4" cy="76.8" r="3.8"/>
		<circle id="XMLID_11014_" class="st1" cx="-9.5" cy="72.4" r="3.8"/>
		<circle id="XMLID_11013_" class="st1" cx="-15" cy="67" r="3.8"/>
		<circle id="XMLID_11012_" class="st1" cx="-19.5" cy="61.2" r="3.8"/>
		<circle id="XMLID_11011_" class="st1" cx="-24.9" cy="55.9" r="3.8"/>
		<circle id="XMLID_11010_" class="st1" cx="-28.9" cy="49.6" r="3.8"/>
		<circle id="XMLID_11009_" class="st1" cx="-32.6" cy="42.6" r="3.8"/>
	</g>
	<circle id="XMLID_11007_" class="st2" cx="1" cy="84.7" r="6.2"/>
	<g id="XMLID_10996_">
		<g id="XMLID_11005_">
			<path id="XMLID_11006_" class="st3" d="M9.8,82c-3.5,0.6-6.6,2.4-8.7,5c-2.6-3.2-6.6-5.2-11.1-5.2c-2.5,0-4.9,0.6-6.9,1.8
				c-4.4,2.4-7.4,7.2-7.4,12.6c0,1.5,0.3,3,0.7,4.4c2.5,11.1,24.7,25,24.7,25s22.2-13.9,24.7-25c0.5-1.4,0.7-2.9,0.7-4.4
				c0-5.4-3-10.1-7.4-12.6c-2.1-1.1-4.4-1.8-6.9-1.8C11.3,81.8,10.5,81.9,9.8,82"/>
		</g>
		<g id="XMLID_11002_">
			<path id="XMLID_11004_" class="st4" d="M9.3,83.2C6,83.8,3.1,85.5,1,88c-2.5-3-6.2-4.9-10.4-4.9c-2.4,0-4.6,0.6-6.5,1.7
				c-4.2,2.3-7,6.7-7,11.9c0,1.5,0.2,2.9,0.7,4.2C-19.9,111.2,1,124.4,1,124.4s20.9-13.2,23.3-23.6c0.4-1.3,0.7-2.7,0.7-4.2
				c0-5.1-2.8-9.5-7-11.9c-1.9-1.1-4.2-1.7-6.5-1.7C10.7,83.1,10,83.1,9.3,83.2"/>
		</g>
		<g id="XMLID_11000_">
			<path id="XMLID_11001_" class="st5" d="M7,88.9c-2.4,0.4-4.5,1.6-6,3.4c-1.8-2.2-4.5-3.6-7.6-3.6c-1.7,0-3.3,0.4-4.7,1.2
				c-3,1.7-5.1,4.9-5.1,8.6c0,1.1,0.2,2.1,0.5,3c1.7,7.6,16.9,17.2,16.9,17.2s15.2-9.6,16.9-17.2c0.3-1,0.5-2,0.5-3
				c0-3.7-2.1-6.9-5.1-8.6c-1.4-0.8-3-1.2-4.8-1.2C8.1,88.8,7.5,88.8,7,88.9"/>
		</g>
		<g id="XMLID_10997_">
			<path id="XMLID_10998_" class="st6" d="M5.2,93.3c-1.7,0.3-3.2,1.2-4.2,2.4c-1.3-1.5-3.2-2.5-5.3-2.5c-1.2,0-2.3,0.3-3.3,0.9
				c-2.1,1.2-3.6,3.5-3.6,6.1c0,0.7,0.1,1.5,0.3,2.1C-9.7,107.6,1,114.4,1,114.4s10.7-6.7,11.9-12.1c0.2-0.7,0.3-1.4,0.3-2.1
				c0-2.6-1.4-4.9-3.6-6.1c-1-0.5-2.1-0.9-3.3-0.9C6,93.3,5.6,93.3,5.2,93.3"/>
		</g>
	</g>
</g>
</svg>
