<?xml version="1.0" encoding="utf-8"?>
<!-- Generator: Adobe Illustrator 19.0.0, SVG Export Plug-In . SVG Version: 6.00 Build 0)  -->
<svg version="1.1" id="Layer_1" xmlns="http://www.w3.org/2000/svg" xmlns:xlink="http://www.w3.org/1999/xlink" x="0px" y="0px"
	 viewBox="-57.6 26.8 117.5 117.5" style="enable-background:new -57.6 26.8 117.5 117.5;" xml:space="preserve">
<style type="text/css">
	.st0{fill:#FFFFFF;}
	.st1{fill:#E55757;}
	.st2{fill:#FFFFFF;stroke:#E8BC05;stroke-width:0.8951;stroke-miterlimit:10;}
	.st3{fill:none;stroke:#FCCC00;stroke-width:0.8951;stroke-miterlimit:10;}
	.st4{fill:#E5B900;}
	.st5{fill:#CAAF2A;}
	.st6{fill:#049BD8;}
	.st7{fill:none;stroke:#049BD8;stroke-width:0.2134;stroke-miterlimit:10;}
	.st8{fill:#FCCC00;}
	.st9{fill:#F5F5F4;}
</style>
<g>
	<g id="XMLID_7193_">
		<circle id="XMLID_7194_" class="st0" cx="1.1" cy="85.6" r="58.8"/>
	</g>
	<g id="XMLID_10983_">
		<path id="XMLID_11042_" class="st1" d="M24.4,31.6c6.6,2.9,12.4,6.7,17.4,11.6L13.1,97.5L-8.1,92L24.4,31.6z"/>
		<path id="XMLID_11041_" class="st1" d="M-21,31.1c-6.7,2.8-12.7,6.5-17.9,11.4l29.1,54.9l21.2-5.6L-21,31.1z"/>
		<circle id="XMLID_11040_" class="st2" cx="1.7" cy="98.1" r="26.3"/>
		<circle id="XMLID_11039_" class="st3" cx="1.7" cy="98.1" r="24.5"/>
		<circle id="XMLID_11038_" class="st4" cx="1.7" cy="98.1" r="22.1"/>
		<path id="XMLID_11037_" class="st5" d="M21.3,89.3"/>
		<path id="XMLID_11036_" class="st6" d="M6.8,106.8"/>
		<path id="XMLID_11035_" class="st7" d="M4.5,112.5"/>
		<path id="XMLID_11034_" class="st8" d="M1.7,89.3c9,0,17,3.4,22.1,8.7c-0.1-12.2-9.9-22-22.1-22c-12.2,0-22.1,9.8-22.1,22
			C-15.3,92.7-7.3,89.3,1.7,89.3z"/>
		<g>
			<path class="st0" d="M-8.7,87.2l-0.1,0.1l-2.5-3l0.1-0.1L-8.7,87.2z"/>
			<path class="st0" d="M-5.6,85.1l-0.1,0.1l-4.1-1.8l0,0l1.9,3.1L-8,86.6l-2.1-3.3l0.1-0.1l4.1,1.8l0,0l-1.9-3.1l0.1-0.1L-5.6,85.1
				z"/>
			<path class="st0" d="M-2.8,82.7L-2.8,82.7c0.2,0.4,0.1,0.7,0,1C-3,84-3.2,84.2-3.6,84.4c-0.4,0.1-0.8,0.1-1.1-0.1
				c-0.3-0.2-0.6-0.6-0.8-1l-0.2-0.6c-0.2-0.5-0.2-0.9-0.1-1.3c0.1-0.4,0.4-0.7,0.8-0.8c0.4-0.1,0.7-0.1,1,0
				c0.3,0.1,0.5,0.4,0.7,0.7v0l-0.1,0C-3.5,81-3.7,80.8-4,80.7c-0.3-0.1-0.6-0.1-0.9,0c-0.4,0.1-0.6,0.4-0.7,0.7
				c-0.1,0.4-0.1,0.7,0.1,1.2l0.2,0.6c0.2,0.4,0.4,0.8,0.7,1c0.3,0.2,0.7,0.2,1,0.1c0.4-0.1,0.6-0.3,0.7-0.6c0.1-0.2,0.2-0.5,0-0.9
				L-2.8,82.7z"/>
			<path class="st0" d="M-1.6,83.5l2-0.3l0,0.1l-2.1,0.3l-0.6-3.9l0.1,0L-1.6,83.5z"/>
			<path class="st0" d="M3.5,79.5l0,2.7c0,0.4-0.1,0.8-0.4,1c-0.2,0.2-0.6,0.3-1,0.3c-0.4,0-0.7-0.1-1-0.4c-0.2-0.2-0.4-0.6-0.4-1
				l0-2.7l0.1,0l0,2.7c0,0.4,0.1,0.7,0.3,0.9c0.2,0.2,0.5,0.3,0.9,0.3c0.3,0,0.6-0.1,0.9-0.3c0.2-0.2,0.3-0.5,0.3-0.9l0-2.7
				L3.5,79.5z"/>
			<path class="st0" d="M6.7,83.1c0-0.2,0-0.5-0.1-0.6c-0.1-0.2-0.4-0.4-0.8-0.6c-0.4-0.2-0.7-0.4-0.9-0.6c-0.2-0.2-0.2-0.4-0.2-0.7
				C4.8,80.2,5,80,5.2,79.9c0.3-0.1,0.6-0.1,1-0.1c0.4,0.1,0.7,0.2,0.9,0.5c0.2,0.3,0.3,0.6,0.2,0.9l0,0l-0.1,0
				c0.1-0.3,0-0.5-0.2-0.8c-0.2-0.2-0.4-0.4-0.8-0.5c-0.3-0.1-0.6-0.1-0.9,0.1c-0.2,0.1-0.4,0.3-0.4,0.5c0,0.2,0,0.4,0.1,0.6
				c0.1,0.2,0.4,0.4,0.8,0.6c0.4,0.2,0.7,0.4,0.9,0.6c0.2,0.2,0.2,0.5,0.2,0.8c-0.1,0.3-0.2,0.5-0.5,0.6c-0.3,0.1-0.6,0.1-1,0.1
				c-0.4-0.1-0.7-0.2-0.9-0.5c-0.2-0.2-0.3-0.5-0.2-0.9l0,0l0.1,0c-0.1,0.3,0,0.6,0.2,0.8c0.2,0.2,0.5,0.4,0.8,0.4
				c0.3,0.1,0.6,0.1,0.9-0.1C6.5,83.5,6.7,83.3,6.7,83.1z"/>
			<path class="st0" d="M7.5,84.3l-0.1,0l1.3-3.7l0.1,0L7.5,84.3z"/>
			<path class="st0" d="M9.6,84.8l0,0.2l0,0l0.2-0.2l2.8-2.5l0.1,0.1l-3.1,2.8l-0.2-0.1L9.9,81l0.1,0.1L9.6,84.8z"/>
			<path class="st0" d="M14,85.9l-1.6-1.2l-1.1,1.4l1.8,1.4L13,87.6l-1.9-1.5l2.4-3.1l1.9,1.5l-0.1,0.1l-1.8-1.4l-1,1.3l1.6,1.2
				L14,85.9z"/>
		</g>
		<polygon id="XMLID_11030_" class="st0" points="1.9,111 2.7,113.3 5.1,113.4 3.2,114.8 3.9,117.1 1.9,115.8 -0.1,117.1 0.6,114.8 
			-1.3,113.4 1.1,113.3 		"/>
		<polygon id="XMLID_11028_" class="st0" points="8.9,111 9.5,112.5 11.1,112.6 9.8,113.6 10.2,115.1 8.9,114.2 7.6,115.1 8,113.6 
			6.8,112.6 8.4,112.5 		"/>
		<polygon id="XMLID_11027_" class="st0" points="-5.2,111 -4.6,112.5 -3,112.6 -4.3,113.6 -3.9,115.1 -5.2,114.2 -6.5,115.1 
			-6.1,113.6 -7.3,112.6 -5.7,112.5 		"/>
		<g>
			<path class="st9" d="M-1.5,97.4h-3.3c-0.1,0-0.2,0-0.2-0.1c0,0-0.1-0.1-0.1-0.2v-0.9c0-0.1,0-0.2,0.1-0.2c0,0,0.1-0.1,0.2-0.1
				h0.8v-2.5h-0.7c-0.1,0-0.2,0-0.2-0.1c0,0-0.1-0.1-0.1-0.2v-0.9c0-0.1,0-0.2,0.1-0.2c0,0,0.1-0.1,0.2-0.1h2.2c0.1,0,0.2,0,0.2,0.1
				c0,0,0.1,0.1,0.1,0.2v3.7h0.7c0.1,0,0.2,0,0.2,0.1c0,0,0.1,0.1,0.1,0.2v0.9c0,0.1,0,0.2-0.1,0.2C-1.3,97.4-1.4,97.4-1.5,97.4z"/>
			<path class="st9" d="M2.3,97.4h-2.4c-0.1,0-0.2,0-0.2-0.1s-0.1-0.1-0.1-0.2v-0.9c0-0.1,0-0.2,0.1-0.2c0,0,0.1-0.1,0.2-0.1h2
				C2,96,2,96,2.1,95.9c0,0,0-0.1,0-0.2c0-0.1,0-0.1,0-0.2c0,0-0.1-0.1-0.1-0.1l-1.1-0.2c-0.3,0-0.6-0.2-0.8-0.3
				c-0.2-0.2-0.3-0.5-0.3-0.9v-0.8c0-0.4,0.1-0.7,0.4-1C0.3,92.1,0.7,92,1.2,92h2.1c0.1,0,0.2,0,0.2,0.1c0,0,0.1,0.1,0.1,0.2v0.9
				c0,0.1,0,0.2-0.1,0.2c0,0-0.1,0.1-0.2,0.1H1.6c-0.1,0-0.1,0-0.1,0.1c0,0-0.1,0.1-0.1,0.2c0,0.1,0,0.1,0.1,0.2
				c0,0,0.1,0.1,0.1,0.1l1.1,0.2c0.3,0,0.6,0.2,0.8,0.3c0.2,0.2,0.3,0.5,0.3,0.9v0.8c0,0.4-0.1,0.7-0.4,1
				C3.1,97.3,2.8,97.4,2.3,97.4z"/>
			<path class="st9" d="M7.3,97.4H6.1c-0.1,0-0.2,0-0.2-0.1c0,0-0.1-0.1-0.1-0.2v-3.7H4.7c-0.1,0-0.2,0-0.2-0.1c0,0-0.1-0.1-0.1-0.2
				v-0.9c0-0.1,0-0.2,0.1-0.2S4.6,92,4.7,92h3.9c0.1,0,0.2,0,0.2,0.1c0,0,0.1,0.1,0.1,0.2v0.9c0,0.1,0,0.2-0.1,0.2
				c0,0-0.1,0.1-0.2,0.1H7.6v3.7c0,0.1,0,0.2-0.1,0.2C7.4,97.4,7.4,97.4,7.3,97.4z"/>
			<path class="st9" d="M-9.2,105.4h-1.2c-0.1,0-0.2,0-0.2-0.1c0,0-0.1-0.1-0.1-0.2v-4.8c0-0.1,0-0.2,0.1-0.2c0,0,0.1-0.1,0.2-0.1
				h2.3c0.7,0,1.1,0.1,1.4,0.4c0.2,0.3,0.4,0.6,0.4,1.1v1c0,0.4-0.1,0.8-0.4,1.1c-0.2,0.3-0.7,0.4-1.4,0.4H-9v1.2
				c0,0.1,0,0.2-0.1,0.2S-9.2,105.4-9.2,105.4z M-9,101.5v1.1h0.7c0.1,0,0.2,0,0.3-0.1c0-0.1,0.1-0.2,0.1-0.3v-0.4
				c0-0.1,0-0.2-0.1-0.3c0-0.1-0.1-0.1-0.3-0.1H-9z"/>
			<path class="st9" d="M-1.3,105.4h-3.8c-0.1,0-0.2,0-0.2-0.1c0,0-0.1-0.1-0.1-0.2v-4.8c0-0.1,0-0.2,0.1-0.2c0,0,0.1-0.1,0.2-0.1
				H-4c0.1,0,0.2,0,0.2,0.1c0,0,0.1,0.1,0.1,0.2v3.7h1v-1.2c0-0.1,0-0.2,0.1-0.2c0,0,0.1-0.1,0.2-0.1h1.1c0.1,0,0.2,0,0.2,0.1
				c0,0,0.1,0.1,0.1,0.2v2.4c0,0.1,0,0.2-0.1,0.2C-1.2,105.4-1.2,105.4-1.3,105.4z"/>
			<path class="st9" d="M1.5,105.2c0,0.1,0,0.2-0.1,0.2c0,0-0.1,0.1-0.2,0.1H0.1c-0.1,0-0.2,0-0.2-0.1c0,0-0.1-0.1-0.1-0.2v-2
				c0-0.1,0-0.3,0.1-0.5c0-0.2,0.1-0.4,0.2-0.7l0.6-1.7c0-0.1,0.1-0.1,0.1-0.2c0.1,0,0.1-0.1,0.2-0.1h2c0.1,0,0.2,0,0.2,0.1
				c0.1,0,0.1,0.1,0.1,0.2l0.7,1.7c0.1,0.3,0.2,0.5,0.2,0.7c0,0.2,0.1,0.4,0.1,0.5v2c0,0.1,0,0.2-0.1,0.2c0,0-0.1,0.1-0.2,0.1H3.1
				c-0.1,0-0.2,0-0.2-0.1s-0.1-0.1-0.1-0.2v-1H1.5V105.2z M1.9,101.6l-0.3,1.1h1.2l-0.3-1.1c0,0,0-0.1-0.1-0.1s0,0-0.1,0H2.1
				C2,101.5,2,101.5,1.9,101.6C2,101.6,1.9,101.6,1.9,101.6z"/>
			<path class="st9" d="M9.2,105.4H7.4c-0.6,0-1.1-0.1-1.4-0.4c-0.3-0.2-0.5-0.6-0.5-1.1v-2.3c0-0.5,0.1-0.9,0.5-1.2
				c0.3-0.3,0.8-0.4,1.4-0.4h1.8c0.1,0,0.2,0,0.2,0.1c0,0,0.1,0.1,0.1,0.2v0.9c0,0.1,0,0.2-0.1,0.2c0,0-0.1,0.1-0.2,0.1H7.7
				c-0.2,0-0.3,0-0.3,0.1c-0.1,0.1-0.1,0.2-0.1,0.3v1.8c0,0.1,0,0.2,0.1,0.3c0.1,0.1,0.2,0.1,0.3,0.1h1.5c0.1,0,0.2,0,0.2,0.1
				c0,0,0.1,0.1,0.1,0.2v0.9c0,0.1,0,0.2-0.1,0.2C9.3,105.4,9.3,105.4,9.2,105.4z"/>
			<path class="st9" d="M14.2,105.4h-3.5c-0.1,0-0.2,0-0.2-0.1c0,0-0.1-0.1-0.1-0.2v-4.8c0-0.1,0-0.2,0.1-0.2c0,0,0.1-0.1,0.2-0.1
				h3.5c0.1,0,0.2,0,0.2,0.1c0,0,0.1,0.1,0.1,0.2v0.9c0,0.1,0,0.2-0.1,0.2s-0.1,0.1-0.2,0.1h-2.1v0.6h1.5c0.1,0,0.2,0,0.2,0.1
				c0,0,0.1,0.1,0.1,0.2v0.8c0,0.1,0,0.2-0.1,0.2c0,0-0.1,0.1-0.2,0.1h-1.5v0.6h2.1c0.1,0,0.2,0,0.2,0.1c0,0,0.1,0.1,0.1,0.2v0.9
				c0,0.1,0,0.2-0.1,0.2S14.3,105.4,14.2,105.4z"/>
		</g>
	</g>
</g>
</svg>
