<?xml version="1.0" encoding="utf-8"?>
<!-- Generator: Adobe Illustrator 19.0.0, SVG Export Plug-In . SVG Version: 6.00 Build 0)  -->
<svg version="1.1" id="Layer_1" xmlns="http://www.w3.org/2000/svg" xmlns:xlink="http://www.w3.org/1999/xlink" x="0px" y="0px"
	 viewBox="-57.6 26.8 117.5 117.5" style="enable-background:new -57.6 26.8 117.5 117.5;" xml:space="preserve">
<style type="text/css">
	.st0{fill:#FFFFFF;}
	.st1{fill:#E8E8E8;}
	.st2{fill:#B2B2B2;}
	.st3{fill:#9B9B9B;}
</style>
<g>
	<g id="XMLID_3317_">
		<circle id="XMLID_3318_" class="st0" cx="1.1" cy="85.6" r="58.8"/>
	</g>
	<g id="XMLID_7188_">
		<g id="XMLID_7189_">
			<circle id="XMLID_7179_" class="st1" cx="1.2" cy="85.6" r="38.5"/>
			<path id="XMLID_7186_" class="st2" d="M1.4,116.7c-17.1,0.1-31.2-13.8-31.3-30.9C-30,68.6-16.1,54.6,1,54.5
				c17.1-0.1,31.2,13.8,31.3,30.9C32.4,102.6,18.5,116.6,1.4,116.7z M1.1,59.4c-14.4,0.1-26.1,11.9-26,26.3
				c0.1,14.4,11.9,26.1,26.3,26c14.4-0.1,26.1-11.9,26-26.3C27.3,71,15.5,59.3,1.1,59.4z"/>
			<circle id="XMLID_7149_" class="st1" cx="1.2" cy="85.6" r="26.2"/>
		</g>
	</g>
	<g id="XMLID_569_">
		<path id="XMLID_586_" class="st3" d="M0.2,81h8.3v1.9H0.7c0.2,1.2,0.3,2.5,0.3,3.7c0,2.1-0.3,4-1,5.6c3.1,1.3,5.4,1.9,7.1,1.9
			c0.9,0,1.6-0.3,2.1-0.9c0.6-0.6,1-1.6,1.3-3.1l1.5,0.3c-0.4,2.7-1.2,4.7-2.4,6c-1.2,1.3-2.5,2-3.9,2c-0.9,0-1.9-0.2-2.9-0.7
			c-1.1-0.5-2.5-1.4-4.4-2.8c-0.9,1.2-1.9,2.1-3,2.6c-1.1,0.6-2,0.9-2.9,0.9c-1.4,0-2.5-0.4-3.4-1.3c-0.9-0.8-1.4-1.9-1.4-3.2
			c0-1.2,0.4-2.2,1.3-3s2-1.2,3.5-1.2c1.2,0,2.9,0.6,5.3,1.6l0-0.8c0-2.7-0.6-5.3-1.7-7.8h-6.5V81h5.6c-0.9-2.4-1.4-4.6-1.4-6.5
			c0-2.4,0.9-4.4,2.6-6.1c1.7-1.6,4.1-2.4,6.9-2.4c2.2,0,4,0.6,5.3,1.7c1.3,1.2,2,2.6,2,4.3c0,1.1-0.3,1.9-0.9,2.6
			c-0.6,0.7-1.3,1-2.1,1c-0.7,0-1.2-0.2-1.6-0.7c-0.4-0.5-0.7-1.1-0.7-1.9c0-0.8,0.3-1.4,0.9-1.9c0.6-0.5,0.9-0.9,1-1
			c0.1-0.1,0.1-0.2,0.1-0.4c0-0.5-0.3-1-1-1.4c-0.7-0.4-1.7-0.6-3.1-0.6c-1.7,0-3,0.5-4.1,1.4c-1,0.9-1.5,2.1-1.5,3.4
			c0,0.6,0.1,1.3,0.2,1.9C-2,74.9-1.6,76-1,77.5C-0.5,78.8-0.1,79.9,0.2,81z M-2.9,94.1c-1.5-1.1-2.6-1.8-3.1-2
			c-0.6-0.3-1.2-0.4-1.7-0.4c-0.9,0-1.6,0.2-2.1,0.7s-0.8,1.1-0.8,1.9c0,0.8,0.3,1.4,0.9,1.9S-8.5,97-7.6,97
			C-5.8,97-4.2,96-2.9,94.1z"/>
	</g>
</g>
</svg>
