<?xml version="1.0" encoding="utf-8"?>
<!-- Generator: Adobe Illustrator 21.0.0, SVG Export Plug-In . SVG Version: 6.00 Build 0)  -->
<svg version="1.1" id="Layer_1" xmlns="http://www.w3.org/2000/svg" xmlns:xlink="http://www.w3.org/1999/xlink" x="0px" y="0px"
	 viewBox="0 0 655.1 655.4" style="enable-background:new 0 0 655.1 655.4;" xml:space="preserve">
<style type="text/css">
	.st0{fill:#FFFFFF;}
	.st1{fill:#C6816B;}
	.st2{fill:#A3564B;}
	.st3{fill:#77372A;}
	.st4{fill:#A56C63;}
</style>
<g id="XMLID_62_">
	<g id="XMLID_6781_">
		<circle id="XMLID_6895_" class="st0" cx="327.6" cy="327.9" r="327.6"/>
	</g>
	<g id="XMLID_6875_">
		<g id="XMLID_7225_">
			<g id="XMLID_7233_">
				<path id="XMLID_7184_" class="st1" d="M450.6,83.8c-22.2,0-40.1,18-40.1,40.1v77.2h-63.9c-22.2,0-40.1,18-40.1,40.1
					s18,40.1,40.1,40.1h104.1c22.2,0,40.1-18,40.1-40.1V123.9C490.7,101.7,472.7,83.8,450.6,83.8z"/>
			</g>
			<g id="XMLID_7226_">
				<g id="XMLID_7232_">
					<path id="XMLID_7182_" class="st2" d="M500.7,125.9H400.4c-2.7,0-4.9,2.2-4.9,4.9v29c0,2.7,2.2,4.9,4.9,4.9h100.3
						c2.7,0,4.9-2.2,4.9-4.9v-29C505.6,128.1,503.4,125.9,500.7,125.9z"/>
				</g>
				<g id="XMLID_7231_">
					<path id="XMLID_7185_" class="st2" d="M500.7,83.1H400.4c-2.7,0-4.9,2.2-4.9,4.9v29c0,2.7,2.2,4.9,4.9,4.9h100.3
						c2.7,0,4.9-2.2,4.9-4.9V88C505.6,85.3,503.4,83.1,500.7,83.1z"/>
				</g>
				<g id="XMLID_7230_">
					<ellipse id="XMLID_7234_" class="st3" cx="450.6" cy="145.3" rx="4" ry="7.5"/>
				</g>
				<g id="XMLID_7227_">
					<ellipse id="XMLID_7243_" class="st3" cx="450.6" cy="102.5" rx="4" ry="7.5"/>
				</g>
			</g>
		</g>
		<g id="XMLID_7221_">
			<path id="XMLID_7245_" class="st1" d="M309.4,465.8h-64v-77.2c0-22.2-18-40.1-40.1-40.1s-40.1,18-40.1,40.1v117.3
				c0,22.2,18,40.1,40.1,40.1h104.1c22.2,0,40.1-18,40.1-40.1C349.5,483.7,331.6,465.8,309.4,465.8z"/>
		</g>
		<g id="XMLID_7220_">
			<path id="XMLID_7248_" class="st1" d="M328,0c-9.8,0-19.5,0.6-29.1,1.5v652.2c9.6,0.8,19.3,1.5,29.1,1.5c13.2,0,26.1-1,38.9-2.5
				V2.5C354.1,1,341.1,0,328,0z"/>
		</g>
		<g id="XMLID_7216_">
			<path id="XMLID_7251_" class="st4" d="M309.5,0.9v653.3c2,0.1,4.1,0.2,6.1,0.3V0.6C313.5,0.7,311.5,0.8,309.5,0.9z"/>
		</g>
		<g id="XMLID_6945_">
			<g id="XMLID_7177_">
				<path id="XMLID_7180_" class="st2" d="M255.5,390.6H155.2c-2.7,0-4.9,2.2-4.9,4.9v29c0,2.7,2.2,4.9,4.9,4.9h100.3
					c2.7,0,4.9-2.2,4.9-4.9v-29C260.4,392.8,258.2,390.6,255.5,390.6z"/>
			</g>
			<g id="XMLID_7132_">
				<path id="XMLID_7252_" class="st2" d="M255.5,347.8H155.2c-2.7,0-4.9,2.2-4.9,4.9v29c0,2.7,2.2,4.9,4.9,4.9h100.3
					c2.7,0,4.9-2.2,4.9-4.9v-29C260.4,350,258.2,347.8,255.5,347.8z"/>
			</g>
			<g id="XMLID_7130_">
				<ellipse id="XMLID_7253_" class="st3" cx="205.3" cy="410" rx="4" ry="7.5"/>
			</g>
			<g id="XMLID_7128_">
				<ellipse id="XMLID_7254_" class="st3" cx="205.3" cy="367.2" rx="4" ry="7.5"/>
			</g>
		</g>
	</g>
</g>
</svg>
