<?xml version="1.0" encoding="utf-8"?>
<!-- Generator: Adobe Illustrator 19.0.0, SVG Export Plug-In . SVG Version: 6.00 Build 0)  -->
<svg version="1.1" id="Layer_1" xmlns="http://www.w3.org/2000/svg" xmlns:xlink="http://www.w3.org/1999/xlink" x="0px" y="0px"
	 viewBox="-57.6 26.8 117.5 117.5" style="enable-background:new -57.6 26.8 117.5 117.5;" xml:space="preserve">
<style type="text/css">
	.st0{fill:#FFFFFF;}
	.st1{fill:#B12E36;}
	.st2{fill:#C9C9C9;}
	.st3{fill:#416192;}
	.st4{fill:#941F18;}
	.st5{fill:#3A4E71;}
	.st6{fill:#BCBCBA;}
	.st7{fill:none;stroke:#445D85;stroke-width:0.701;stroke-linecap:round;stroke-miterlimit:10;}
</style>
<g>
	<g id="XMLID_1254_">
		<circle id="XMLID_1255_" class="st0" cx="1.2" cy="85.6" r="58.8"/>
	</g>
	<g id="XMLID_49_">
		<polygon id="XMLID_3181_" class="st1" points="-9.9,64.6 -12.8,61.8 -14.7,63.8 -14.8,65.3 -16.1,66.7 -12.1,66.8 		"/>
		<path id="XMLID_3178_" class="st2" d="M34.4,52.3C34.4,52.3,34.4,52.3,34.4,52.3C34.4,52.3,34.4,52.3,34.4,52.3
			C31.2,49.9,17.2,64,14,67.3c-0.4,0.4-1,0.7-1.6,0.6l-10-0.4l0,0l-4-0.2l-10.5-0.5h0l-4-0.2l-12.2-0.5c-0.5,0-0.9,0.2-1.2,0.5
			l-3.4,3.4c-0.3,0.3,0.1,0.9,0.5,0.6l0.7-0.5c0.1-0.1,0.2-0.1,0.3-0.1c13.2,2.3,24.5,5.3,31.5,10c0.4,0.3,0.4,0.8,0.1,1.1
			l-20.9,21.3c-0.1,0.1-0.3,0.2-0.5,0.2l-3.5,8.8c0,0.1,0,0.2,0,0.2l-1.1,1.9l0,0l0.3-0.2l60.2-61C34.5,52.5,34.5,52.4,34.4,52.3z"
			/>
		<path id="XMLID_3171_" class="st3" d="M-21.4,102.8l-11.2-0.7c-0.3,0-0.6,0.1-0.9,0.3l-2.9,3c-0.2,0.2-0.2,0.6,0.1,0.7l11.2,5.2
			c0.1,0.1,0.2,0.2,0.2,0.3L-21.4,102.8C-21.3,102.8-21.3,102.8-21.4,102.8z"/>
		<polygon id="XMLID_3167_" class="st1" points="5.1,64.8 2.2,62 0.3,63.9 0.2,65.5 -1.6,67.3 2.4,67.5 		"/>
		<polygon id="XMLID_1346_" class="st4" points="22.3,101.8 23.9,101.7 25.8,99.7 22.9,96.9 20.7,99.1 21,103.1 		"/>
		<polygon id="XMLID_1258_" class="st4" points="21.9,86.8 23.5,86.7 25.4,84.7 22.5,81.9 19.9,84.6 20.1,88.6 		"/>
		<path id="XMLID_1238_" class="st5" d="M-15.1,109c0-0.1,0-0.2,0-0.3l-8.9,3.9c0.2,0,0.3,0.1,0.4,0.2l5.4,11.1
			c0.1,0.3,0.5,0.3,0.7,0.1l2.9-3c0.2-0.2,0.3-0.5,0.3-0.9L-15.1,109z"/>
		<path id="XMLID_1002_" class="st6" d="M34.6,52.5l-60.2,61l1.5-0.9c0.1,0,0.1-0.1,0.2-0.1l8.9-3.9c0-0.1,0.1-0.2,0.2-0.3L6.1,87.1
			c0.3-0.3,0.9-0.3,1.1,0.1c4.8,6.9,8,18.2,10.5,31.4c0,0.1,0,0.2-0.1,0.3l-0.4,0.7c-0.3,0.4,0.3,0.9,0.6,0.5l3.4-3.4
			c0.3-0.3,0.5-0.8,0.5-1.2L21,103.1l0,0l-0.2-4l0,0l-0.6-10.5l0,0l-0.2-4l0,0l-0.6-10c0-0.6,0.2-1.2,0.6-1.6
			C23.1,69.8,36.5,56,34.6,52.5z"/>
		<path id="XMLID_937_" class="st7" d="M29.5,55.3c0,0,4.4-2,2.2,1.9"/>
	</g>
</g>
</svg>
