<?xml version="1.0" encoding="utf-8"?>
<!-- Generator: Adobe Illustrator 19.0.0, SVG Export Plug-In . SVG Version: 6.00 Build 0)  -->
<svg version="1.1" id="Layer_1" xmlns="http://www.w3.org/2000/svg" xmlns:xlink="http://www.w3.org/1999/xlink" x="0px" y="0px"
	 viewBox="-57.6 26.8 117.5 117.5" style="enable-background:new -57.6 26.8 117.5 117.5;" xml:space="preserve">
<style type="text/css">
	.st0{fill:#FFFFFF;}
	.st1{fill:#B2B2B2;}
	.st2{fill:#E8E8E8;}
	.st3{fill:#F4F4F4;}
	.st4{fill:#E2E2E2;}
	.st5{fill:#EFEFEF;}
	.st6{fill:#C9CFD1;}
</style>
<g id="XMLID_509_">
	<g id="XMLID_3324_">
		<circle id="XMLID_3325_" class="st0" cx="1.1" cy="85.6" r="58.8"/>
	</g>
	<g id="XMLID_3278_">
		<g id="XMLID_5197_">
			<path id="XMLID_5495_" class="st1" d="M28.6,75.8c4.3,1.5,7.8,4.6,9.8,8.7c1.9,4,2.3,8.4,0.9,12.6c0-0.1,0.1-0.3,0.1-0.4
				c1.5-4.3,1.2-8.9-0.8-13c-2-4.1-5.5-7.2-9.8-8.7c-4.3-1.5-8.9-1.2-13,0.8c-4.1,2-7.2,5.5-8.7,9.8c0,0.1-0.1,0.3-0.1,0.4
				c1.5-4.1,4.5-7.4,8.5-9.4C19.6,74.6,24.3,74.3,28.6,75.8z"/>
			<path id="XMLID_5492_" class="st1" d="M18.8,104.1c7.6,2.6,15.9-1.4,18.5-9c0-0.1,0.1-0.3,0.1-0.4c-2.8,7.3-10.9,11.2-18.3,8.6
				c-7.4-2.6-11.5-10.6-9.1-18.1c-0.1,0.1-0.1,0.3-0.1,0.4C7.2,93.2,11.3,101.4,18.8,104.1z"/>
			<path id="XMLID_5205_" class="st2" d="M17.7,107.3c4.3,1.5,8.9,1.2,13-0.8c4-1.9,7-5.3,8.5-9.4c1.3-4.2,1-8.7-0.9-12.6
				c-2-4.1-5.5-7.2-9.8-8.7s-8.9-1.2-13,0.8c-4,1.9-7,5.3-8.5,9.4C5.7,90.2,6,94.6,8,98.6C9.9,102.7,13.4,105.8,17.7,107.3z
				 M11.2,87c2.3-6.7,9.6-10.3,16.3-7.9c6.7,2.3,10.3,9.6,7.9,16.3c0,0.1-0.1,0.2-0.1,0.4c0,0.1-0.1,0.2-0.1,0.4
				c-2.3,6.7-9.6,10.3-16.3,7.9c-6.7-2.3-10.3-9.6-7.9-16.3c0-0.1,0.1-0.2,0.1-0.4C11.1,87.2,11.1,87.1,11.2,87z"/>
		</g>
		<polygon id="XMLID_5196_" class="st0" points="29,69.2 29,70 27.5,70.3 27.5,69.2 28.4,69 		"/>
		<path id="XMLID_5155_" class="st3" d="M27.5,70.3c0,0-0.6,0.2-1,0.2c0,0-0.6-0.3-0.6-0.8l1.7-0.5L27.5,70.3z"/>
		<path id="XMLID_5109_" class="st0" d="M27.5,70.3c0,0,0.1,0.8,0.2,1.1c0,0-1-0.4-1.3-0.9L27.5,70.3z"/>
		<path id="XMLID_5101_" class="st3" d="M29,70c0,0,1.5,0.2,2.4-0.1L29,69.2L29,70z"/>
		<path id="XMLID_5036_" class="st3" d="M29,70l0.3,0.8l-1.6,0.5c0,0-0.4-0.7-0.2-1.1L29,70z"/>
		<polygon id="XMLID_3875_" class="st0" points="29.3,70.9 31.4,70 29,70 		"/>
		<polygon id="XMLID_3351_" class="st4" points="31,70.1 31.2,70.4 31.4,70 		"/>
		<polygon id="XMLID_3350_" class="st3" points="31.2,70.4 30.9,71.3 30.6,71.4 29.9,70.6 31,70.1 		"/>
		<path id="XMLID_3349_" class="st0" d="M29.3,70.9l0,1.3c0,0-0.9-0.2-1.6-0.8L29.3,70.9z"/>
		<polygon id="XMLID_3305_" class="st5" points="29.3,72.1 30.6,71.4 29.9,70.6 29.3,70.9 		"/>
		<path id="XMLID_3304_" class="st5" d="M30.5,72.6c-0.4-0.1-0.8-0.2-1.2-0.4l1.2-0.7L30.5,72.6z"/>
		<polygon id="XMLID_3303_" class="st0" points="30.6,71.4 30.9,71.3 30.5,72.6 		"/>
		<path id="XMLID_3302_" class="st4" d="M30.5,72.6c0,0-3.8-1.2-4.6-2.8l0.9,2.9l3.3,1.1L30.5,72.6z"/>
		<polygon id="XMLID_3301_" class="st0" points="33.8,70.8 33.3,71.5 34.3,72.6 34.9,71.8 34.4,71 		"/>
		<path id="XMLID_3300_" class="st3" d="M34.3,72.6c0,0,0.4,0.5,0.7,0.8c0,0,0.7,0.1,1-0.2l-1-1.4L34.3,72.6z"/>
		<path id="XMLID_3299_" class="st0" d="M34.3,72.6c0,0-0.5,0.6-0.8,0.7c0,0,1,0.3,1.5,0.1L34.3,72.6z"/>
		<path id="XMLID_3298_" class="st3" d="M33.3,71.5c0,0-1.3-0.8-1.9-1.5l2.4,0.8L33.3,71.5z"/>
		<path id="XMLID_3297_" class="st3" d="M33.3,71.5L32.5,72l0.9,1.4c0,0,0.8-0.3,0.8-0.7L33.3,71.5z"/>
		<polygon id="XMLID_3296_" class="st0" points="32.5,72 31.4,70 33.3,71.5 		"/>
		<polygon id="XMLID_3295_" class="st4" points="31.6,70.4 31.2,70.4 31.4,70 		"/>
		<polygon id="XMLID_3293_" class="st3" points="31.2,70.4 30.9,71.3 31.2,71.6 32.2,71.4 31.6,70.4 		"/>
		<path id="XMLID_3292_" class="st0" d="M32.5,72l-0.8,1c0,0,0.9,0.4,1.8,0.4L32.5,72z"/>
		<polygon id="XMLID_3291_" class="st5" points="31.7,73 31.2,71.6 32.2,71.4 32.5,72 		"/>
		<path id="XMLID_3290_" class="st5" d="M30.5,72.6c0.4,0.2,0.8,0.3,1.2,0.4l-0.5-1.3L30.5,72.6z"/>
		<polygon id="XMLID_3289_" class="st0" points="31.2,71.6 30.9,71.3 30.5,72.6 		"/>
		<path id="XMLID_3288_" class="st4" d="M30.5,72.6c0,0,3.8,1.4,5.4,0.6L33.4,75l-3.3-1.2L30.5,72.6z"/>
		<path id="XMLID_3285_" class="st6" d="M34.4,74.3c-1.8,0-4-0.7-4.2-0.8c-0.2-0.1-2.4-0.9-3.8-2l1,7.7l0.8,0.2l0.7,0.4L34.4,74.3z"
			/>
		<path id="XMLID_3281_" class="st2" d="M33.9,74.5c-1.7,0.1-3.7-0.6-3.9-0.7c-0.2-0.1-2.2-0.8-3.5-1.9l0.8,7.6l0.7,0.1l0.7,0.3
			L33.9,74.5z"/>
		<path id="XMLID_3280_" class="st1" d="M29.1,82.5c0.6-0.7,3.2-3.6,9.7-6.9c0.2-0.1,0.3-0.4,0.2-0.6c-0.3-0.5-0.9-1.5-1.8-1.9
			c-0.4-0.2-0.9-0.2-1.3,0.1c-1.6,1-6.9,4.6-8.5,8.5c0,0.1,0,0.1,0.1,0.2c0.2,0.1,0.7,0.5,1.3,0.7C28.8,82.6,29,82.6,29.1,82.5z"/>
		<path id="XMLID_3279_" class="st1" d="M25.5,81.2c0-1-0.3-4.8-3.4-11.4c-0.1-0.2,0-0.5,0.2-0.5c0.6-0.2,1.6-0.6,2.6-0.4
			c0.5,0.1,0.8,0.4,1,0.9c0.6,1.8,2.6,7.9,1.5,12c0,0.1-0.1,0.1-0.2,0.1c-0.2,0-0.8-0.1-1.4-0.3C25.6,81.5,25.5,81.4,25.5,81.2z"/>
	</g>
	<g id="XMLID_3228_">
		<g id="XMLID_3263_">
			<path id="XMLID_3275_" class="st1" d="M1.6,64.7c5.7,0,11.1,2.2,15.2,6.2c3.9,3.9,6.2,9.1,6.3,14.6c0-0.2,0-0.4,0-0.5
				c0-5.7-2.3-11.1-6.3-15.1c-4.1-4-9.5-6.3-15.2-6.2S-9.5,65.9-13.5,70c-4,4.1-6.3,9.5-6.2,15.2c0,0.2,0,0.4,0,0.5
				c0.1-5.5,2.3-10.7,6.2-14.7C-9.5,67-4.1,64.8,1.6,64.7z"/>
			<path id="XMLID_3272_" class="st1" d="M1.8,102.3C11.8,102.3,20,94.1,20,84c0-0.2,0-0.4,0-0.5c-0.3,9.8-8.3,17.8-18.2,17.8
				c-9.9,0-18-7.8-18.3-17.7c0,0.2,0,0.4,0,0.5C-16.5,94.2-8.3,102.4,1.8,102.3z"/>
			<path id="XMLID_3264_" class="st2" d="M1.8,106.6c5.7,0,11.1-2.3,15.1-6.3c3.9-3.9,6.1-9.1,6.2-14.7C23,80.1,20.8,74.9,16.8,71
				c-4.1-4-9.5-6.3-15.2-6.2S-9.5,67-13.5,71.1c-3.9,3.9-6.1,9.1-6.2,14.7c0.2,5.5,2.4,10.7,6.3,14.6C-9.3,104.4-4,106.6,1.8,106.6z
				 M-14.4,85.2c0-8.9,7.2-16.1,16.1-16.2c8.9,0,16.1,7.2,16.2,16.1c0,0.2,0,0.3,0,0.5c0,0.2,0,0.3,0,0.5c0,8.9-7.2,16.1-16.1,16.2
				c-8.9,0-16.1-7.2-16.2-16.1c0-0.2,0-0.3,0-0.5C-14.4,85.6-14.4,85.4-14.4,85.2z"/>
		</g>
		<polygon id="XMLID_3262_" class="st0" points="-0.6,56.7 -0.3,57.8 -1.9,58.7 -2.4,57.4 -1.4,56.7 		"/>
		<path id="XMLID_3261_" class="st3" d="M-1.9,58.7c0,0-0.7,0.5-1.1,0.6c0,0-0.9-0.1-1.1-0.7l1.8-1.3L-1.9,58.7z"/>
		<path id="XMLID_3260_" class="st0" d="M-1.9,58.7c0,0,0.4,0.9,0.7,1.2c0,0-1.4,0-1.8-0.5L-1.9,58.7z"/>
		<path id="XMLID_3259_" class="st3" d="M-0.3,57.8c0,0,1.8-0.4,2.8-1.1l-3.2,0L-0.3,57.8z"/>
		<path id="XMLID_3258_" class="st3" d="M-0.3,57.8l0.7,0.9l-1.6,1.2c0,0-0.8-0.7-0.7-1.2L-0.3,57.8z"/>
		<polygon id="XMLID_3257_" class="st0" points="0.4,58.6 2.6,56.7 -0.3,57.8 		"/>
		<polygon id="XMLID_3256_" class="st4" points="2.2,57 2.6,57.3 2.6,56.7 		"/>
		<polygon id="XMLID_3255_" class="st3" points="2.6,57.3 2.6,58.5 2.2,58.7 1.1,58 2.2,57 		"/>
		<path id="XMLID_3254_" class="st0" d="M0.4,58.6L1,60.1c0,0-1.2,0.2-2.3-0.2L0.4,58.6z"/>
		<polygon id="XMLID_3253_" class="st5" points="1,60.1 2.2,58.7 1.1,58 0.4,58.6 		"/>
		<path id="XMLID_3252_" class="st5" d="M2.6,60.1c-0.5,0-1.1,0-1.6,0l1.2-1.4L2.6,60.1z"/>
		<polygon id="XMLID_3251_" class="st0" points="2.2,58.7 2.6,58.5 2.6,60.1 		"/>
		<path id="XMLID_3250_" class="st4" d="M2.6,60.1c0,0-5,0.1-6.7-1.4l2.2,3.1l4.4,0L2.6,60.1z"/>
		<polygon id="XMLID_3249_" class="st0" points="5.8,56.7 5.4,57.7 7.1,58.7 7.5,57.4 6.6,56.7 		"/>
		<path id="XMLID_3248_" class="st3" d="M7.1,58.7c0,0,0.7,0.5,1.1,0.6c0,0,0.9-0.1,1.1-0.7l-1.8-1.3L7.1,58.7z"/>
		<path id="XMLID_3247_" class="st0" d="M7.1,58.7c0,0-0.4,0.9-0.7,1.2c0,0,1.4,0,1.8-0.5L7.1,58.7z"/>
		<path id="XMLID_3246_" class="st3" d="M5.4,57.7c0,0-1.9-0.4-2.9-1l3.2,0L5.4,57.7z"/>
		<path id="XMLID_3245_" class="st3" d="M5.4,57.7l-0.7,0.9l1.6,1.2c0,0,0.8-0.7,0.7-1.2L5.4,57.7z"/>
		<polygon id="XMLID_3244_" class="st0" points="4.7,58.6 2.6,56.7 5.4,57.7 		"/>
		<polygon id="XMLID_3243_" class="st4" points="3,57 2.6,57.3 2.6,56.7 		"/>
		<polygon id="XMLID_3242_" class="st3" points="2.6,57.3 2.6,58.5 3,58.7 4.1,58 3,57 		"/>
		<path id="XMLID_3241_" class="st0" d="M4.7,58.6l-0.6,1.5c0,0,1.2,0.2,2.3-0.3L4.7,58.6z"/>
		<polygon id="XMLID_3240_" class="st5" points="4.2,60.1 3,58.7 4.1,58 4.7,58.6 		"/>
		<path id="XMLID_3239_" class="st5" d="M2.6,60.1c0.5,0,1.1,0,1.6,0L3,58.7L2.6,60.1z"/>
		<polygon id="XMLID_3238_" class="st0" points="3,58.7 2.6,58.5 2.6,60.1 		"/>
		<path id="XMLID_3237_" class="st4" d="M2.6,60.1c0,0,5,0.1,6.6-1.5L7,61.8l-4.4,0L2.6,60.1z"/>
		<path id="XMLID_3234_" class="st6" d="M7.9,60.5c-2.1,0.8-5,0.8-5.4,0.8c-0.3,0-3.2,0-5.4-0.8l4.4,8.7l1-0.1l1,0.1L7.9,60.5z"/>
		<path id="XMLID_3231_" class="st2" d="M7.5,61c-2,0.8-4.6,0.8-4.9,0.8c-0.3,0-2.9,0-4.9-0.8l4,8.7l0.9-0.1l0.9,0.1L7.5,61z"/>
		<path id="XMLID_3230_" class="st1" d="M5,72.5c0.4-1.1,2.4-5.5,8.7-12.2c0.2-0.2,0.2-0.5,0-0.7c-0.6-0.5-1.7-1.4-2.9-1.5
			c-0.6-0.1-1.2,0.2-1.5,0.6C7.7,60.5,2.9,67,2.6,72.3c0,0.1,0.1,0.2,0.1,0.2c0.3,0.1,1,0.3,1.8,0.3C4.7,72.8,4.9,72.7,5,72.5z"/>
		<path id="XMLID_3229_" class="st1" d="M0.2,72.5c-0.4-1.1-2.4-5.5-8.8-12.1c-0.2-0.2-0.2-0.5,0-0.7c0.6-0.5,1.7-1.4,2.9-1.6
			c0.6-0.1,1.2,0.2,1.5,0.6c1.5,1.9,6.3,8.3,6.7,13.6c0,0.1-0.1,0.2-0.1,0.2c-0.3,0.1-1,0.3-1.8,0.3C0.5,72.8,0.3,72.7,0.2,72.5z"/>
	</g>
	<g id="XMLID_510_">
		<g id="XMLID_3210_">
			<path id="XMLID_3225_" class="st1" d="M-28.1,75.8c-4.3,1.5-7.8,4.6-9.8,8.7c-1.9,4-2.3,8.4-0.9,12.6c0-0.1-0.1-0.3-0.1-0.4
				c-1.5-4.3-1.2-8.9,0.8-13c2-4.1,5.5-7.2,9.8-8.7c4.3-1.5,8.9-1.2,13,0.8c4.1,2,7.2,5.5,8.7,9.8c0,0.1,0.1,0.3,0.1,0.4
				c-1.5-4.1-4.5-7.4-8.5-9.4C-19.1,74.6-23.8,74.3-28.1,75.8z"/>
			<path id="XMLID_3222_" class="st1" d="M-18.3,104.1c-7.6,2.6-15.9-1.4-18.5-9c0-0.1-0.1-0.3-0.1-0.4c2.8,7.3,10.9,11.2,18.3,8.6
				c7.4-2.6,11.5-10.6,9.1-18.1c0.1,0.1,0.1,0.3,0.1,0.4C-6.7,93.2-10.8,101.4-18.3,104.1z"/>
			<path id="XMLID_3211_" class="st2" d="M-7.5,98.6c1.9-4,2.3-8.4,0.9-12.6c-1.5-4.1-4.5-7.4-8.5-9.4c-4.1-2-8.7-2.3-13-0.8
				s-7.8,4.6-9.8,8.7c-1.9,4-2.3,8.4-0.9,12.6c1.5,4.1,4.5,7.4,8.5,9.4c4.1,2,8.7,2.3,13,0.8C-12.9,105.8-9.5,102.7-7.5,98.6z
				 M-10.5,87.3c0,0.1,0.1,0.2,0.1,0.4c2.3,6.7-1.3,14-7.9,16.3c-6.7,2.3-14-1.3-16.3-7.9c0-0.1-0.1-0.2-0.1-0.4
				c0-0.1-0.1-0.2-0.1-0.4c-2.3-6.7,1.3-14,7.9-16.3c6.7-2.3,14,1.3,16.3,7.9C-10.6,87.1-10.6,87.2-10.5,87.3z"/>
		</g>
		<polygon id="XMLID_3209_" class="st0" points="-28.5,69.2 -28.5,70 -27,70.3 -27,69.2 -27.9,69 		"/>
		<path id="XMLID_3208_" class="st3" d="M-27,70.3c0,0,0.6,0.2,1,0.2c0,0,0.6-0.3,0.6-0.8l-1.7-0.5L-27,70.3z"/>
		<path id="XMLID_3207_" class="st0" d="M-27,70.3c0,0-0.1,0.8-0.2,1.1c0,0,1-0.4,1.3-0.9L-27,70.3z"/>
		<path id="XMLID_3206_" class="st3" d="M-28.5,70c0,0-1.5,0.2-2.4-0.1l2.4-0.8L-28.5,70z"/>
		<path id="XMLID_3205_" class="st3" d="M-28.5,70l-0.3,0.8l1.6,0.5c0,0,0.4-0.7,0.2-1.1L-28.5,70z"/>
		<polygon id="XMLID_3204_" class="st0" points="-28.8,70.9 -30.9,70 -28.5,70 		"/>
		<polygon id="XMLID_3203_" class="st4" points="-30.5,70.1 -30.7,70.4 -30.9,70 		"/>
		<polygon id="XMLID_3202_" class="st3" points="-30.7,70.4 -30.4,71.3 -30.1,71.4 -29.4,70.6 -30.5,70.1 		"/>
		<path id="XMLID_3201_" class="st0" d="M-28.8,70.9l0,1.3c0,0,0.9-0.2,1.6-0.8L-28.8,70.9z"/>
		<polygon id="XMLID_3200_" class="st5" points="-28.8,72.1 -30.1,71.4 -29.4,70.6 -28.8,70.9 		"/>
		<path id="XMLID_3199_" class="st5" d="M-30,72.6c0.4-0.1,0.8-0.2,1.2-0.4l-1.2-0.7L-30,72.6z"/>
		<polygon id="XMLID_3169_" class="st0" points="-30.1,71.4 -30.4,71.3 -30,72.6 		"/>
		<path id="XMLID_3168_" class="st4" d="M-30,72.6c0,0,3.8-1.2,4.6-2.8l-0.9,2.9l-3.3,1.1L-30,72.6z"/>
		<polygon id="XMLID_3166_" class="st0" points="-33.3,70.8 -32.8,71.5 -33.8,72.6 -34.4,71.8 -33.9,71 		"/>
		<path id="XMLID_3163_" class="st3" d="M-33.8,72.6c0,0-0.4,0.5-0.7,0.8c0,0-0.7,0.1-1-0.2l1-1.4L-33.8,72.6z"/>
		<path id="XMLID_3155_" class="st0" d="M-33.8,72.6c0,0,0.5,0.6,0.8,0.7c0,0-1,0.3-1.5,0.1L-33.8,72.6z"/>
		<path id="XMLID_3150_" class="st3" d="M-32.8,71.5c0,0,1.3-0.8,1.9-1.5l-2.4,0.8L-32.8,71.5z"/>
		<path id="XMLID_3149_" class="st3" d="M-32.8,71.5L-32,72l-0.9,1.4c0,0-0.8-0.3-0.8-0.7L-32.8,71.5z"/>
		<polygon id="XMLID_3142_" class="st0" points="-32,72 -30.9,70 -32.8,71.5 		"/>
		<polygon id="XMLID_3141_" class="st4" points="-31.1,70.4 -30.7,70.4 -30.9,70 		"/>
		<polygon id="XMLID_3018_" class="st3" points="-30.7,70.4 -30.4,71.3 -30.7,71.6 -31.7,71.4 -31.1,70.4 		"/>
		<path id="XMLID_3017_" class="st0" d="M-32,72l0.8,1c0,0-0.9,0.4-1.8,0.4L-32,72z"/>
		<polygon id="XMLID_3012_" class="st5" points="-31.2,73 -30.7,71.6 -31.7,71.4 -32,72 		"/>
		<path id="XMLID_2706_" class="st5" d="M-30,72.6c-0.4,0.2-0.8,0.3-1.2,0.4l0.5-1.3L-30,72.6z"/>
		<polygon id="XMLID_2647_" class="st0" points="-30.7,71.6 -30.4,71.3 -30,72.6 		"/>
		<path id="XMLID_2625_" class="st4" d="M-30,72.6c0,0-3.8,1.4-5.4,0.6l2.5,1.8l3.3-1.2L-30,72.6z"/>
		<path id="XMLID_955_" class="st6" d="M-33.9,74.3c1.8,0,4-0.7,4.2-0.8c0.2-0.1,2.4-0.9,3.8-2l-1,7.7l-0.8,0.2l-0.7,0.4L-33.9,74.3
			z"/>
		<path id="XMLID_821_" class="st2" d="M-33.5,74.5c1.7,0.1,3.7-0.6,3.9-0.7c0.2-0.1,2.2-0.8,3.5-1.9l-0.8,7.6l-0.7,0.1l-0.7,0.3
			L-33.5,74.5z"/>
		<path id="XMLID_634_" class="st1" d="M-28.6,82.5c-0.6-0.7-3.2-3.6-9.7-6.9c-0.2-0.1-0.3-0.4-0.2-0.6c0.3-0.5,0.9-1.5,1.8-1.9
			c0.4-0.2,0.9-0.2,1.3,0.1c1.6,1,6.9,4.6,8.5,8.5c0,0.1,0,0.1-0.1,0.2c-0.2,0.1-0.7,0.5-1.3,0.7C-28.3,82.6-28.5,82.6-28.6,82.5z"
			/>
		<path id="XMLID_512_" class="st1" d="M-25,81.2c0-1,0.3-4.8,3.4-11.4c0.1-0.2,0-0.5-0.2-0.5c-0.6-0.2-1.6-0.6-2.6-0.4
			c-0.5,0.1-0.8,0.4-1,0.9c-0.6,1.8-2.6,7.9-1.5,12c0,0.1,0.1,0.1,0.2,0.1c0.2,0,0.8-0.1,1.4-0.3C-25.1,81.5-25,81.4-25,81.2z"/>
	</g>
</g>
</svg>
