<?xml version="1.0" encoding="utf-8"?>
<!-- Generator: Adobe Illustrator 19.0.0, SVG Export Plug-In . SVG Version: 6.00 Build 0)  -->
<svg version="1.1" id="Layer_1" xmlns="http://www.w3.org/2000/svg" xmlns:xlink="http://www.w3.org/1999/xlink" x="0px" y="0px"
	 viewBox="-58.4 26.1 119 119" style="enable-background:new -58.4 26.1 119 119;" xml:space="preserve">
<style type="text/css">
	.st0{fill:#FFFFFF;}
	.st1{fill:#F3F3F3;}
	.st2{fill:#C2B9BE;}
	.st3{opacity:0.1;}
	.st4{fill:#B12E36;}
	.st5{opacity:5.000000e-002;}
	.st6{opacity:0.2;}
	.st7{fill:#A39DA1;}
	.st8{fill:#CFC5CA;}
	.st9{fill:#595959;}
	.st10{fill:#8F8B8E;}
</style>
<g>
	<g id="XMLID_1275_">
		<circle id="XMLID_1276_" class="st0" cx="1.1" cy="85.6" r="59.5"/>
	</g>
	<g id="XMLID_1268_">
		<g id="XMLID_1269_">
			<path id="XMLID_1272_" class="st1" d="M37.3,38"/>
			<path id="XMLID_1271_" class="st1" d="M36.8,57.2c-0.2,0-0.3,0-0.5,0C36.5,57,36.7,56.8,36.8,57.2z"/>
			<path id="XMLID_1270_" class="st1" d="M8.6,65.9c0-0.2,0-0.3,0-0.5C9,65.5,8.9,65.7,8.6,65.9z"/>
		</g>
	</g>
	<g id="XMLID_1147_">
		<g id="XMLID_1148_">
			<path id="XMLID_1151_" class="st2" d="M0.7,112.7c-9.7,0-17,1.6-19.8,3.7c0,0,0,0,0,0c0,0.1-0.1,0.2-0.1,0.2
				c1.3,2.4,2.6,4.2,4.7,6c3.4,0.8,10.2,1.9,14.8,2.1c6.9,0.2,13.6-0.5,18-1.8c1.7-1.6,3.3-3.3,4.6-5.4
				C20.3,114.9,11.6,112.8,0.7,112.7z"/>
			<path id="XMLID_1150_" class="st3" d="M-7.7,121.3c3.6,0.5,7.3,0.9,11,1c4.1,0.1,8.3-0.2,12.3-1.2c1.5-0.4,3-0.9,4.4-1.4
				c0.6-0.2,1.2-0.6,1.9-0.7c0.3-0.5,0.7-1,1-1.5c-2.5-2.7-11.3-4.8-22.2-4.9c-9.7,0-17,1.6-19.8,3.7c0,0,0,0,0,0
				c0,0.1-0.1,0.2-0.1,0.2c0.4,0.7,0.7,1.3,1.1,1.9C-15.3,120-13.4,120.6-7.7,121.3z"/>
			<path id="XMLID_1149_" class="st3" d="M0.1,123.8c-3.9,0-6.9-0.5-10.5-1.1c-1.7-0.3-4-0.9-5.7-1.4c0.5,0.5,0.9,1,1.5,1.5
				c3.4,0.8,10.2,1.9,14.8,2.1c6.9,0.2,13.6-0.5,18-1.8c0.6-0.5,1.1-1.1,1.7-1.7C13.6,123.6,6.9,123.8,0.1,123.8z"/>
		</g>
	</g>
	<g id="XMLID_1092_">
		<path id="XMLID_1144_" class="st4" d="M25.3,62.9c-0.6-3.5-3.2-7.2-3.2-7.2L1.6,57V57l-18.5-1.5c0,0-2.6,3.7-3.2,7.1
			c-0.6,3.4-0.6,50.7-0.6,50.7s0,4.1,5.3,5.9c5.3,1.9,16.4,2.3,16.4,2.3h0.8h3.5c0,0,8.7-0.2,14-1.9c5.3-1.8,5.6-6.1,5.6-6.1
			S25.8,66.4,25.3,62.9z"/>
		<path id="XMLID_1139_" class="st3" d="M24.9,113.3c0,0,0.9-46.9,0.4-50.4c-0.6-3.5-3.2-7.2-3.2-7.2L1.6,57V57l-18.5-1.5
			c0,0-2.4,3.4-3.1,6.8c0,0,0,0,0,0h0c0,0.1,0,0.2-0.1,0.4c-0.6,3.4-0.6,50.7-0.6,50.7s0,4.1,5.3,6c0.8,0.3,1.7,0.5,2.6,0.7
			c0,0,0-0.1,0-0.1c5.6,1.3,13.7,1.6,13.7,1.6h4.3c0,0,8.7-0.2,14-1.9c1.2-0.4,2.2-0.9,2.9-1.5c0,0,0,0,0,0c1.8-1.5,2.4-3.2,2.6-4.1
			C24.8,114.1,24.9,113.3,24.9,113.3z M6.2,119.7c-5,0-10.1-0.2-15-1c-1.3-0.2-2.7-0.5-4-0.9c-0.3-8.1,0.1-16.2,0-24.3
			c-0.1-6.9-0.6-13.7-0.7-20.6c0-2.4,0.2-4.8,0.5-7.1c1.1,0.3,2.3,0.6,3.4,0.8c4.9,1,9.8,1.4,14.8,1.1c4.8-0.3,9.4-1.4,14-2.5
			c0.5-0.1,1.1-0.3,1.6-0.4c0,0.1,2.2-0.9,2.2-0.8c0.8,7.6,0.1,19.7,0.3,27.4c0.3,9.4,0,14.7-0.4,24
			C18.7,118.8,11.6,119.7,6.2,119.7z"/>
		<path id="XMLID_1127_" class="st5" d="M5.2,67.8c4.8-0.3,9.4-1.4,14-2.5c2.1-0.5,4.5-1.2,6.1-2.6c-0.7-3.4-3.1-6.9-3.1-6.9L1.6,57
			V57l-18.5-1.5c0,0-2.4,3.5-3.1,6.8c2.8,2.6,6.7,3.6,10.4,4.3C-4.7,67.7,0.2,68.1,5.2,67.8z M6.2,119.7c-5,0-10.1-0.2-15.1-1
			c-4.3-0.7-9.1-2.1-11.7-5.4c0,0,0,0,0,0s0,4.1,5.3,5.9c5.3,1.9,16.3,2.3,16.3,2.3h4.3c0,0,8.7-0.2,14-1.9c5.3-1.8,5.6-6.1,5.6-6.1
			s0-0.1,0-0.4C21.2,118.6,13.1,119.7,6.2,119.7z"/>
		<path id="XMLID_1125_" class="st6" d="M1.1,62.6c7.7,0.3,15.6-1,21.9-5.5c-0.5-0.8-0.9-1.4-0.9-1.4L1.6,57V57l-18.5-1.5
			c0,0-0.3,0.6-0.9,1.4c0.5,0.5,1.1,1,1.7,1.4C-10.9,61.3-4.2,62.4,1.1,62.6z"/>
	</g>
	<g id="XMLID_505_">
		<g id="XMLID_562_">
			<path id="XMLID_570_" class="st7" d="M2.8,46.6c-11.6,0-21,3.2-21,7.1c0,3.9,9.4,7.1,21,7.1c11.6,0,21-3.2,21-7.1
				C23.8,49.7,14.4,46.6,2.8,46.6z"/>
			<path id="XMLID_565_" class="st3" d="M2.8,46.6c-11.6,0-21,3.2-21,7.1c0,1.8,2,3.4,5.3,4.7c-0.2-0.3-0.4-0.7-0.6-1.1
				c-1.4-5,10.7-7.2,14.7-7.3c3.6-0.1,7.5-0.6,11.1,0c2.4,0.4,5.7,2.3,5.7,4.1c0.1,2.6-1.2,3.7-2.1,5.2c2.4-1.2,7.8-4,7.8-5.5
				C23.8,49.7,14.4,46.6,2.8,46.6z"/>
		</g>
		<g id="XMLID_507_">
			<path id="XMLID_508_" class="st8" d="M2.8,46.6c-11.6,0-21,3.2-21,7.1c0,3.9,9.4,7.1,21,7.1c11.6,0,21-3.2,21-7.1
				C23.8,49.7,14.4,46.6,2.8,46.6z M2.8,57.8c-10.3,0-18.1-1.5-18.1-4.7c0-3.2,8-5.1,18.3-5.1c10.3,0,18,1.9,18,5.1
				C21,56.4,13.1,57.8,2.8,57.8z"/>
		</g>
		<path id="XMLID_506_" class="st9" d="M9.4,49.8c0,0-3.7,0.1-5.8,0.6c-3.4,0.9,0.1,4.1,3.3,3.9s7.3-2.1,7.3-2.1L9.4,49.8z"/>
	</g>
	<g id="XMLID_7_">
		<path id="XMLID_497_" class="st10" d="M19.7,38.7c-1.8-1.2-4.3-1.4-6.5,0.6c-2.2,2.1-2.2,3.5-2.5,6.5c-0.3,3-0.8,3.7-0.8,4.5
			c0,0.9,4.6,2.3,4.7,2c0.3-0.7,1.4-3,4.4-6C22.1,43.3,21.5,39.8,19.7,38.7z M17.4,45.7c-0.8,0.5-1.7,0.4-1.7,0.4s-0.6,0-1-0.2
			c-0.4-0.2-1.8-0.8-2.2-1.7c-0.5-1.1,0.1-2.5,0.9-3.4c1-1.2,2.7-2,4.1-1.5c1.2,0.5,2,1.8,1.9,3.1C19.3,43.8,18.5,45,17.4,45.7z"/>
		<path id="XMLID_461_" class="st2" d="M19.2,38.1c-1.8-1.2-4.3-1.4-6.5,0.6c-2.2,2.1-2.2,3.5-2.5,6.5c-0.3,3-0.8,3.7-0.8,4.5
			c0,0.9,4.5,3.1,4.8,2.4c0.3-0.7,1.3-3.4,4.3-6.4C21.6,42.8,21,39.3,19.2,38.1z M16.9,45.2c-0.8,0.5-1.7,0.4-1.7,0.4s-0.6,0-1-0.2
			c-0.4-0.2-1.8-0.8-2.2-1.7c-0.5-1.1,0.1-2.5,0.9-3.4c1-1.2,2.7-2,4.1-1.5c1.2,0.5,2,1.8,1.9,3.1C18.8,43.3,18,44.5,16.9,45.2z"/>
	</g>
</g>
</svg>
