<?xml version="1.0" encoding="utf-8"?>
<!-- Generator: Adobe Illustrator 19.0.0, SVG Export Plug-In . SVG Version: 6.00 Build 0)  -->
<svg version="1.1" id="Layer_1" xmlns="http://www.w3.org/2000/svg" xmlns:xlink="http://www.w3.org/1999/xlink" x="0px" y="0px"
	 viewBox="-58.4 26.1 119 119" style="enable-background:new -58.4 26.1 119 119;" xml:space="preserve">
<style type="text/css">
	.st0{fill:#FFFFFF;}
	.st1{fill:#B7B7B7;}
	.st2{fill:#D3D3D3;}
	.st3{fill:#898989;}
	.st4{fill:#DCBE8D;}
	.st5{fill:#4E2D18;}
	.st6{fill:none;stroke:#E5E5E5;stroke-width:0.2917;stroke-miterlimit:10;}
	.st7{fill:none;stroke:#E0E0E0;stroke-width:0.2917;stroke-miterlimit:10;}
	.st8{fill:none;stroke:#D8D8D8;stroke-width:0.2917;stroke-miterlimit:10;}
</style>
<g>
	<g id="XMLID_1260_">
		<path id="XMLID_1262_" class="st0" d="M20.6,29.3c23.3,8.1,40.1,30.2,40.1,56.3c0,32.9-26.6,59.5-59.5,59.5s-59.5-26.6-59.5-59.5
			s26.6-59.5,59.5-59.5c4.4,0,8.6,0.5,12.7,1.4"/>
		<path id="XMLID_1261_" class="st0" d="M13.8,27.4c2.3,0.5,4.6,1.1,6.7,1.9"/>
	</g>
	<g id="XMLID_111_">
		<path id="XMLID_314_" class="st1" d="M-42.5,101.7c0,0,9.1,9.5,25.8,14.3L54.1,71c0,0-6.8,4.8-15.5-3.9L-42.5,101.7z"/>
		<path id="XMLID_152_" class="st2" d="M-38.7,102.4c-2.5,0-4.9-1.4-6-3.8c-1.5-3.3-0.1-7.3,3.2-8.8l74.7-34.8
			c3.3-1.5,7.3-0.1,8.8,3.2c1.5,3.3,0.1,7.3-3.2,8.8l-74.7,34.8C-36.8,102.2-37.8,102.4-38.7,102.4z"/>
		<path id="XMLID_147_" class="st3" d="M-39.2,89.5c-1.6,0-3.1,0.6-4.2,1.5c-1.4,1.2-2.3,3-2.3,5c0,3.6,2.9,6.6,6.6,6.6
			c1.2,0,2.3-0.3,3.2-0.9c2-1.1,3.3-3.3,3.3-5.7C-32.7,92.5-35.6,89.5-39.2,89.5z"/>
		<g id="XMLID_129_">
			<path id="XMLID_144_" class="st4" d="M-35.3,96.2c0-2.4-2-4.4-4.4-4.4c-1.1,0-2.1,0.4-2.8,1c0.6-0.4,1.4-0.6,2.2-0.6
				c2.4,0,4.4,2,4.4,4.4c0,1.4-0.6,2.6-1.6,3.4C-36.2,99.3-35.3,97.8-35.3,96.2z"/>
			<path id="XMLID_143_" class="st5" d="M-35.9,96.7c0-2.4-2-4.4-4.4-4.4c-0.8,0-1.5,0.2-2.2,0.6c-1,0.8-1.6,2-1.6,3.4
				c0,2.4,2,4.4,4.4,4.4c0.8,0,1.5-0.2,2.2-0.6C-36.5,99.2-35.9,98-35.9,96.7z"/>
		</g>
		<line id="XMLID_128_" class="st6" x1="-35.3" y1="89.1" x2="36" y2="55.9"/>
		<line id="XMLID_126_" class="st7" x1="-33" y1="90.2" x2="38.2" y2="57"/>
		<line id="XMLID_125_" class="st8" x1="-31.4" y1="91.8" x2="39.8" y2="58.6"/>
	</g>
</g>
</svg>
