<?xml version="1.0" encoding="utf-8"?>
<!-- Generator: Adobe Illustrator 21.0.0, SVG Export Plug-In . SVG Version: 6.00 Build 0)  -->
<svg version="1.1" id="Layer_1" xmlns="http://www.w3.org/2000/svg" xmlns:xlink="http://www.w3.org/1999/xlink" x="0px" y="0px"
	 viewBox="0 0 90.3 90.3" style="enable-background:new 0 0 90.3 90.3;" xml:space="preserve">
<style type="text/css">
	.st0{fill:#FFFFFF;}
	.st1{fill:#F8CB33;}
	.st2{fill:none;}
	.st3{fill:#DCA900;}
	.st4{fill:#FFEE00;}
	.st5{fill:none;stroke:#DCA900;stroke-width:0.2887;stroke-miterlimit:10;}
</style>
<g>
	<g id="XMLID_6926_">
		<circle id="XMLID_6935_" class="st0" cx="45.2" cy="45.2" r="45.2"/>
	</g>
	<g id="XMLID_7307_">
		<g id="XMLID_7506_">
			<rect id="XMLID_7306_" x="37.4" y="56.4" class="st1" width="2.1" height="0.5"/>
		</g>
		<g id="XMLID_7504_">
			<rect id="XMLID_7305_" x="37.1" y="55.5" class="st1" width="0.5" height="2.2"/>
		</g>
		<g id="XMLID_7502_">
			<rect id="XMLID_7304_" x="37.4" y="51.2" class="st1" width="2.1" height="0.5"/>
		</g>
		<g id="XMLID_7500_">
			<rect id="XMLID_7303_" x="37.1" y="50.4" class="st1" width="0.5" height="2.2"/>
		</g>
		<g id="XMLID_7498_">
			<rect id="XMLID_7302_" x="37.4" y="53.8" class="st1" width="2.1" height="0.5"/>
		</g>
		<g id="XMLID_7496_">
			<rect id="XMLID_7301_" x="37.1" y="52.9" class="st1" width="0.5" height="2.2"/>
		</g>
		<g id="XMLID_7421_">
			<g id="XMLID_7450_">
				<path id="XMLID_7300_" class="st2" d="M55.8,60c-0.1,0-0.3,0-0.4,0c-0.1,0-0.1,0-0.1,0l-0.2,0c-0.3,0-0.6,0-0.9,0l-0.8,0l-1.6,0
					c-2.1,0-4.3,0-6.4,0l-0.4,0l0,0.1c0,0.2,0,0.3,0.1,0.5l0.9,0l2.5,0l2.5,0c1.9,0,3.7,0,5.6-0.1c0.1-0.2,0.3-0.4,0.4-0.6
					c-0.1,0-0.3,0-0.4,0C56.4,60,56.1,60,55.8,60z"/>
				<path id="XMLID_7299_" class="st2" d="M51.9,54.8L51.9,54.8c0.1,0,0.1,0,0.2,0c0,0,0.1,0,0.1,0c0.1,0,0.2,0,0.2,0
					c0.1,0,0.3,0,0.4-0.1c0.1,0,0.2-0.1,0.2-0.1c0,0,0,0,0-0.1c0,0,0,0,0,0s0,0,0,0l0,0l0-0.1l0,0l0,0l0,0c0,0,0,0,0-0.1
					c0,0,0-0.1,0-0.1c0,0,0,0-0.1-0.1c0,0-0.1,0-0.1-0.1c-0.1,0-0.2-0.1-0.4-0.1c-0.1,0-0.1,0-0.2,0c0,0-0.1,0-0.1,0
					c0,0-0.1,0-0.1,0l0,0l0,0l-0.5,0l-0.5,0c-0.3,0-0.7,0-1,0l-1,0l-1,0l-1,0c-0.2,0-0.3,0-0.5,0c-0.1,0-0.3,0-0.4,0
					c-0.3,0-0.5,0.1-0.7,0.2c-0.1,0.1-0.2,0.1-0.2,0.2c0,0,0,0,0,0.1c0,0,0,0,0,0l0,0l0,0c0,0,0,0,0,0l0,0.1L51.9,54.8L51.9,54.8z"
					/>
				<path id="XMLID_7298_" class="st2" d="M34.2,60.7C34.2,60.7,34.2,60.7,34.2,60.7C34.2,60.7,34.2,60.7,34.2,60.7z"/>
				<polygon id="XMLID_7297_" class="st1" points="45,54.7 45,54.7 45,54.7 				"/>
				<path id="XMLID_7490_" class="st1" d="M45.2,54.7l-0.2,0l0,0l-0.1,0l0,0l-0.1,0l-0.1,0c-0.1,0-0.1,0-0.2,0
					c-0.1,0-0.2-0.1-0.3-0.1c-0.1,0-0.2-0.1-0.2-0.1c0,0,0,0,0,0c0,0,0,0,0,0c0,0,0,0,0,0s0,0,0,0l-0.1,0L43,54.5c0,0.1,0,0.1,0,0.2
					c0,0.1,0.1,0.1,0.1,0.2c0,0.1,0.1,0.1,0.1,0.2c0,0.1,0.1,0.1,0.1,0.1c0.2,0.2,0.3,0.3,0.5,0.4c0,0,0.1,0,0.1,0.1
					c0.1,0.1,0.3,0.1,0.4,0.1c0.1,0,0.2,0,0.2,0.1l0.1,0c0,0,0.1,0,0.1,0l0,0l0,0l0.2,0l0,0C45.1,55.4,45.1,55.1,45.2,54.7
					L45.2,54.7z"/>
				<path id="XMLID_7295_" class="st1" d="M34.2,60.7C34.2,60.7,34.2,60.7,34.2,60.7L34.2,60.7C34,60.7,34.1,60.7,34.2,60.7z"/>
				<path id="XMLID_7294_" class="st1" d="M53,54.5L53,54.5L53,54.5C53,54.4,53,54.5,53,54.5L53,54.5L53,54.5L53,54.5L53,54.5z"/>
				<path id="XMLID_7293_" class="st1" d="M46.5,62.2C46.5,62.2,46.5,62.2,46.5,62.2L46.5,62.2C46.5,62.2,46.5,62.2,46.5,62.2
					L46.5,62.2z"/>
				<path id="XMLID_7292_" class="st1" d="M53.5,47L53.5,47c-0.1,0-0.1,0-0.2,0L53.5,47z"/>
				<path id="XMLID_7291_" class="st1" d="M51.9,53L51.9,53C51.9,53,51.9,53,51.9,53L51.9,53z"/>
				<path id="XMLID_7290_" class="st1" d="M51.7,55.9C51.8,55.9,51.8,55.9,51.7,55.9l0.1,0L51.7,55.9z"/>
				<path id="XMLID_7289_" class="st1" d="M44.1,54.3C44.1,54.3,44.1,54.3,44.1,54.3C44.1,54.3,44.1,54.3,44.1,54.3
					C44.2,54.3,44.2,54.3,44.1,54.3c0.1,0.1,0.1,0.1,0.2,0.2c0.1,0,0.2,0.1,0.3,0.1c0.1,0,0.1,0,0.2,0l0.1,0l0.1,0l0.2,0l0-0.1
					c0,0,0,0,0,0l0,0l0,0c0,0,0,0,0,0c0,0,0,0,0-0.1c0,0,0.1-0.1,0.2-0.2c0.2-0.1,0.4-0.2,0.7-0.2c0.1,0,0.3,0,0.4,0
					c0.1,0,0.3,0,0.5,0l1,0l1,0l1,0c0.3,0,0.7,0,1,0l0.5,0l0.5,0l0,0l0,0c0,0,0.1,0,0.1,0c0,0,0.1,0,0.1,0c0.1,0,0.1,0,0.2,0
					c0.1,0,0.3,0,0.4,0.1c0,0,0.1,0,0.1,0.1c0,0,0,0,0.1,0.1c0,0,0,0,0,0.1c0,0,0,0,0,0.1l0,0l0,0l0,0l0,0c0,0,0,0,0,0l0,0l0,0l0,0
					l0,0l0,0l0,0.1l0,0c0,0,0,0,0,0s0,0,0,0c0,0,0,0,0,0.1c0,0-0.1,0.1-0.2,0.1c-0.1,0-0.2,0-0.4,0.1c-0.1,0-0.1,0-0.2,0
					c0,0-0.1,0-0.1,0c0,0-0.1,0-0.1,0l-0.1,0l-0.1,0l-6.7-0.1l0,0c0,0.4,0,0.7-0.1,1.1l0,0l6.7,0.1c0,0,0,0-0.1,0l0.1,0l0,0
					c0,0,0.1,0,0.1,0c0.1,0,0.1,0,0.2,0c0.1,0,0.2,0,0.3,0c0.2,0,0.5,0,0.7-0.1c0.1,0,0.3-0.1,0.4-0.2c0.1-0.1,0.3-0.2,0.4-0.3
					c0.1-0.1,0.2-0.3,0.2-0.4c0-0.1,0-0.1,0.1-0.2l0-0.1c0,0,0,0,0,0l0-0.1l0,0l0,0l0,0l0,0l0-0.1l0-0.1c0-0.1,0-0.1,0-0.2
					c0-0.1-0.1-0.3-0.2-0.4c-0.1-0.1-0.2-0.3-0.3-0.4c-0.1-0.1-0.2-0.2-0.4-0.2C53,53,52.8,53,52.5,52.9c-0.1,0-0.2,0-0.3,0
					c-0.1,0-0.1,0-0.2,0c0,0-0.1,0-0.1,0l0,0l-0.1,0c0,0,0,0,0,0l-0.5,0L51,53c-0.3,0-0.7,0-1,0l-1,0l-1,0l-1,0c-0.2,0-0.4,0-0.5,0
					c-0.2,0-0.4,0-0.5,0c-0.4,0.1-0.8,0.1-1.1,0.4c-0.2,0.1-0.4,0.3-0.5,0.5C44.2,54,44.1,54.1,44.1,54.3
					C44.1,54.3,44.1,54.3,44.1,54.3L44.1,54.3C44.1,54.3,44.1,54.3,44.1,54.3z"/>
				<g id="XMLID_7288_">
					<path class="st3" d="M45.5,55c2.4-0.1,4.9-0.1,7.3,0C50.4,55.1,47.9,55.1,45.5,55z"/>
				</g>
				<g id="XMLID_7287_">
					<path class="st3" d="M44.5,54.1c0.5-0.8,1.4-1,2.3-0.9l2.6,0l2.6,0.1c0.4,0,0.9,0,1.3,0.1c0.4,0.1,0.7,0.5,0.7,1
						c0-0.4-0.3-0.8-0.8-0.9c-0.4-0.2-0.8-0.1-1.3-0.1l-2.6,0l-2.6-0.1C45.9,53.2,45,53.4,44.5,54.1z"/>
				</g>
				<g id="XMLID_7286_">
					<path class="st4" d="M45.7,54c0.6-0.1,1.1-0.2,1.7-0.2l1.7,0c1.1,0,2.3,0,3.4,0.1c-1.1,0-2.3,0-3.4,0l-1.7,0
						C46.8,53.9,46.3,53.9,45.7,54z"/>
				</g>
				<polygon id="XMLID_7285_" class="st1" points="46.5,46.8 46.4,46.8 46.3,46.8 				"/>
				<path id="XMLID_7284_" class="st1" d="M56.4,46.3L56.4,46.3C56.4,46.3,56.4,46.3,56.4,46.3z"/>
				<polygon id="XMLID_7283_" class="st1" points="56,44.3 56.2,44.3 56.1,44.3 56,44.3 				"/>
				<path id="XMLID_7468_" class="st1" d="M45.1,60.3l0-0.1l0,0l0-0.1l0-0.3c0-0.2,0-0.4,0-0.6c0-0.2,0-0.4,0-0.7c0-0.2,0-0.3,0-0.5
					c0-0.4,0-0.7,0-1.1l0-0.3l0-0.8l-0.2,0l0,0l0,0c-0.1,0-0.1,0-0.1,0l-0.1,0c-0.1,0-0.2,0-0.2-0.1c-0.1,0-0.3-0.1-0.4-0.1
					c0,0.1,0,0.1,0,0.2l0,0.3l0,0.8c0,0.4,0,0.8,0,1.1c0,0.2,0,0.3,0,0.5c0,0.2,0,0.5,0,0.7c0,0.2,0,0.4,0,0.6l0,0.3l0,0.1l0,0.1
					l0,0.1c0,0.1,0,0.2,0,0.4l1.2,0C45.1,60.6,45.1,60.4,45.1,60.3z M44.2,60.1L44.2,60.1L44.2,60.1C44.2,60.1,44.2,60.1,44.2,60.1z
					"/>
				<path id="XMLID_7280_" class="st1" d="M43.9,59.7c0-0.2,0-0.4,0-0.6c0-0.2,0-0.5,0-0.7c-0.4-0.1-0.7-0.2-1-0.4
					c-0.2-0.1-0.3-0.3-0.5-0.4c-0.1-0.1-0.1-0.2-0.2-0.2c-0.1-0.1-0.1-0.2-0.2-0.3c-0.2-0.4-0.4-0.8-0.6-1.3
					c-0.1-0.5-0.2-0.9-0.3-1.4c-0.1-0.5-0.1-1-0.1-1.5c0-1,0.1-2,0.5-2.8c0.2-0.4,0.4-0.8,0.8-1.1c0.3-0.3,0.7-0.5,1.1-0.7
					c0.4-0.2,0.9-0.2,1.4-0.3c0.2,0,0.5,0,0.7,0c0.1,0,0.2,0,0.4,0l0.2,0l0.1,0l0.1,0l0.1,0l0.1,0l7.2,0.1l0.1,0l0.1,0l0.1,0l0.1,0
					c0.1,0,0.1,0,0.2,0c0.1,0,0.2,0,0.4,0c0.2,0,0.5,0,0.7,0.1c0.5,0.1,0.9,0.3,1.2,0.6c0.3,0.3,0.6,0.7,0.8,1.2l0.1,0.2
					c0,0.1,0,0.1,0.1,0.2c0,0.1,0.1,0.2,0.1,0.4l0,0.1l0,0.1l0,0.2l0.1,0.4c0.1,0.7,0.2,1.3,0.3,2l1.3-0.3c-0.1-0.6-0.1-1.3-0.2-1.9
					L58.7,51l0-0.2l0-0.1l0-0.1c0-0.2-0.1-0.3-0.1-0.5c0-0.1,0-0.2-0.1-0.2l-0.1-0.2c-0.2-0.6-0.6-1.2-1.1-1.7
					c-0.5-0.5-1.2-0.8-1.8-1c-0.3-0.1-0.7-0.1-1-0.1c-0.2,0-0.3,0-0.5,0c-0.1,0-0.2,0-0.3,0c0,0-0.1,0-0.1,0c0,0,0,0,0,0l0.1,0
					l-0.2,0c0,0,0.1,0,0.1,0l-7-0.2l0.1,0l-0.1,0l0.1,0l-0.1,0l-0.1,0c-0.1,0-0.1,0-0.2,0c-0.1,0-0.3,0-0.4,0c-0.3,0-0.6,0-0.9,0
					c-0.6,0-1.2,0.1-1.8,0.3c-0.6,0.2-1.1,0.5-1.6,1c-0.5,0.4-0.8,1-1.1,1.5c-0.3,0.6-0.4,1.1-0.5,1.7c-0.1,0.3-0.1,0.6-0.1,0.9
					c0,0.1,0,0.3,0,0.4l0,0.2l0,0.1l0,0.1l0,0.1c0,0.6,0,1.1,0.1,1.7c0.1,0.6,0.2,1.1,0.3,1.7c0.2,0.6,0.4,1.1,0.7,1.7
					c0.1,0.1,0.2,0.3,0.3,0.4c0.1,0.1,0.2,0.3,0.3,0.4c0.2,0.2,0.5,0.5,0.7,0.7c0.5,0.4,1.2,0.7,1.8,0.7c0.1,0,0.1,0,0.2,0l0-0.1
					L43.9,59.7z"/>
				<path id="XMLID_7279_" class="st1" d="M55.8,58.2c-0.1,0-0.3,0-0.4,0c-0.1,0-0.2,0-0.3,0l-0.2,0c-0.1,0-0.3,0-0.4,0
					c-0.1,0-0.2,0-0.4,0l-0.8,0c-0.5,0-1.1,0-1.6,0c-2.1,0-4.3,0.1-6.4,0.1l-0.4,0c0,0.2,0,0.4,0,0.7c0,0.2,0,0.4,0,0.6l0,0.3l0,0.1
					l0,0l0.4,0c2.1,0,4.3,0,6.4,0l1.6,0l0.8,0c0.3,0,0.6,0,0.9,0l0.2,0c0,0,0.1,0,0.1,0c0.1,0,0.2,0,0.4,0c0.3,0,0.5,0,0.8,0
					c0.1,0,0.2,0,0.4,0c0,0,0,0,0,0c0.2-0.5,0.4-1,0.5-1.5c0-0.1,0-0.2,0.1-0.3c-0.3,0.1-0.7,0.1-1,0.1
					C56.4,58.2,56.1,58.2,55.8,58.2z"/>
				<path id="XMLID_7278_" class="st1" d="M78.1,46.7c-0.2-1-0.5-2-1-3c-0.4-1-1-1.9-1.7-2.8c-0.7-0.9-1.5-1.6-2.4-2.2
					c-0.9-0.6-1.8-1.2-2.7-1.6c-1-0.4-1.9-0.7-2.9-1c-0.5-0.1-1-0.2-1.5-0.3c-0.3,0-0.5-0.1-0.8-0.1c-0.3,0-0.5,0-0.8-0.1l-0.2,0
					l-0.2,0l-0.3,0l-0.6,0l-1.3,0l-2.5,0l-2.5,0c-0.8,0-1.7,0-2.5,0c-3.4-0.1-6.8-0.2-10.2-0.6c-3.4-0.3-6.8-0.8-10.2-1.4
					c-0.8-0.2-1.7-0.3-2.5-0.5c-0.4-0.1-0.8-0.2-1.3-0.3c-0.4-0.1-0.8-0.2-1.3-0.3c-1.7-0.5-3.4-1-5.1-1.7c-0.4-0.2-0.8-0.3-1.3-0.5
					c-0.4-0.2-0.8-0.3-1.3-0.5c-0.8-0.4-1.7-0.8-2.5-1.2l-0.6-0.3L17,28c-0.2-0.1-0.4-0.2-0.6-0.3l-0.6-0.4c-0.8-0.5-1.7-1-2.5-1.7
					v25.9c0.8-0.6,1.7-1.2,2.5-1.7l0.6-0.4c0.2-0.1,0.4-0.2,0.6-0.3l0.6-0.3l0.6-0.3c0.8-0.4,1.7-0.8,2.5-1.2
					c0.4-0.2,0.8-0.4,1.3-0.5c0.4-0.2,0.8-0.3,1.3-0.5c1.7-0.6,3.4-1.2,5.1-1.7c0.4-0.1,0.8-0.2,1.3-0.3c0.4-0.1,0.8-0.2,1.3-0.3
					c0.8-0.2,1.7-0.4,2.5-0.5c3.4-0.6,6.8-1.1,10.2-1.4c3.4-0.3,6.8-0.5,10.2-0.6c0.8,0,1.7,0,2.5,0l2.5,0l2.5,0l1.3,0l0.6,0l0.3,0
					l0.1,0l0,0c0,0,0,0,0,0c0,0,0,0,0,0l0,0l0,0c0.1,0,0.3,0,0.5,0c0.2,0,0.3,0,0.5,0.1c0.3,0.1,0.7,0.1,1,0.2
					c0.7,0.2,1.3,0.4,1.9,0.6c1.2,0.5,2.2,1.3,3,2.2c0.8,0.9,1.4,2,1.7,3.3c0.2,0.6,0.3,1.3,0.4,2c0,0.4,0.1,0.7,0.1,1.1l0,0.3
					l0,0.3c0,0.2,0,0.4,0,0.5c-0.1,1.5-0.3,2.9-0.8,4c-0.5,1.2-1.3,2.2-2.3,2.9c-0.5,0.4-1.1,0.7-1.7,0.9c-0.6,0.2-1.3,0.4-2,0.4
					c-0.1,0-0.2,0-0.2,0l-0.1,0c0,0,0,0,0,0c-0.1,0-0.1,0-0.1,0l0,0l-0.6,0l-1.3,0l-2.5,0c-1.1,0-2.1,0-3.2,0c0,0,0,0,0,0
					c-2.3,0-4.6,0-7,0.1l-3.3,0l-3.3,0l-1.1,0l0,0l-2.5,0l-5.1,0l-1.3,0l-0.3,0l-0.1,0h0c0,0,0,0,0,0c0,0-0.2,0-0.1,0l0,0
					c0,0,0,0,0,0c-0.1,0-0.3-0.1-0.4-0.1c-0.6-0.2-1.2-0.5-1.6-0.9c-0.5-0.4-0.9-1-1.2-1.6c-0.3-0.6-0.5-1.3-0.7-2.1
					c-0.1-0.7-0.2-1.5-0.2-2.3l0-0.1l0-0.1l0-0.2l0-0.1l0-0.1l0-0.3l0-0.3c0-0.4,0.1-0.8,0.1-1.1c0.1-0.7,0.3-1.4,0.6-2.1
					c0.3-0.6,0.7-1.2,1.2-1.6c0.5-0.4,1.1-0.8,1.8-1c0.7-0.2,1.4-0.4,2.1-0.4l10.1,0l10.2,0l0.2,0c0,0,0,0,0,0l0,0l0.1,0
					c0.1,0,0.1,0,0.2,0c0.1,0,0.2,0,0.3,0c0.2,0,0.4,0,0.7,0c0.4,0,0.8,0.2,1.2,0.3c0.4,0.2,0.7,0.4,1,0.7c0.3,0.3,0.5,0.7,0.7,1.1
					c0.4,0.8,0.6,1.8,0.7,2.7c0,0.2,0,0.5,0,0.7l0,0.2l0,0.2c0,0.1,0,0.3,0,0.4c0,0.5-0.1,1-0.1,1.5c-0.2,1-0.5,1.9-1,2.5
					c-0.3,0.4-0.7,0.8-1.2,1c0,0.3-0.1,0.7-0.2,1c-0.1,0.4-0.2,0.7-0.3,1.1c0.6-0.1,1.2-0.4,1.7-0.7c0.5-0.3,1-0.8,1.4-1.3
					c0.4-0.5,0.7-1.1,0.9-1.6c0.1-0.3,0.2-0.6,0.3-0.9c0.1-0.3,0.1-0.6,0.2-0.9c0.1-0.6,0.2-1.1,0.2-1.7c0-0.1,0-0.3,0-0.4l0-0.2
					l0-0.2c0-0.3,0-0.6,0-0.9c-0.1-1.1-0.3-2.3-0.8-3.5c-0.3-0.6-0.6-1.1-1.1-1.6c-0.4-0.5-1-0.9-1.6-1.2c-0.6-0.3-1.2-0.5-1.9-0.5
					c-0.3,0-0.6-0.1-0.9-0.1c-0.2,0-0.3,0-0.5,0c-0.1,0-0.2,0-0.2,0l-0.1,0l0,0l0.1,0l-0.2,0l0.1,0l0.1,0l-20.3-0.4
					c-1,0-1.9,0.2-2.9,0.5c-0.9,0.3-1.9,0.8-2.6,1.5c-0.8,0.7-1.4,1.5-1.9,2.4c-0.5,0.9-0.7,1.8-0.9,2.8c-0.1,0.5-0.1,0.9-0.2,1.4
					l0,0.3l0,0.4l0,0.1l0,0.1l0,0.2l0,0.2l0,0.2c0,0.9,0.1,1.8,0.2,2.8c0.2,0.9,0.4,1.9,0.9,2.8c0.4,0.9,1,1.8,1.8,2.5
					c0.8,0.7,1.7,1.3,2.7,1.6c0.3,0.1,0.5,0.2,0.8,0.2c0.1,0,0.1,0,0.3,0c0,0,0.2,0,0.2,0l0,0l0.1,0l0.3,0l1.3,0l5.1,0.1L46,64
					l2.5,0.1l2.5,0.1c3.4,0.1,6.8,0.3,10.2,0.4l2.5,0.1l1.3,0.1l0.6,0l0,0c0,0,0.1,0,0,0l0.1,0l0.2,0c0.1,0,0.3,0,0.4,0
					c1,0,2-0.2,3-0.5c1-0.3,2-0.7,2.9-1.2c0.9-0.5,1.8-1.2,2.5-2c0.7-0.8,1.3-1.7,1.8-2.6c0.2-0.5,0.4-0.9,0.6-1.4
					c0.2-0.5,0.3-1,0.5-1.5c0.3-1,0.4-1.9,0.5-2.9C78.5,50.7,78.5,48.7,78.1,46.7z"/>
				<g id="XMLID_7277_">
					<path class="st3" d="M41.9,57.5c0.4,0.7,1.3,1.1,2.1,1.2c0.8,0.2,1.7,0.1,2.5,0.1c1.7,0,3.3,0.1,5,0.1c1.7,0,3.3-0.1,5-0.4
						c0.8-0.1,1.6-0.4,2.4-0.7c0.8-0.3,1.5-0.8,1.9-1.5c-0.4,0.7-1.1,1.3-1.9,1.6c-0.8,0.3-1.6,0.6-2.4,0.7c-1.6,0.3-3.3,0.4-5,0.4
						c-1.7,0-3.3-0.1-5-0.1c-0.8,0-1.7,0-2.5-0.1C43.2,58.7,42.3,58.3,41.9,57.5z"/>
				</g>
				<g id="XMLID_7276_">
					<path class="st4" d="M40.3,56.8c0.2,0.9,0.9,1.6,1.6,2.1c0.8,0.5,1.7,0.8,2.6,0.8c0.9,0.1,1.8,0,2.7,0c0.9,0,1.8,0,2.7,0
						c1.8,0,3.7,0.1,5.5,0c0.9,0,1.8-0.1,2.7-0.3c0.9-0.2,1.8-0.4,2.5-0.9c-0.7,0.6-1.6,0.8-2.5,1c-0.9,0.2-1.8,0.3-2.7,0.3
						c-1.8,0.1-3.7,0.1-5.5,0.1c-0.9,0-1.8,0-2.7,0c-0.9,0-1.8,0.1-2.8,0c-0.9-0.1-1.8-0.4-2.6-0.9C41.1,58.5,40.5,57.7,40.3,56.8z"
						/>
				</g>
				<g id="XMLID_7275_">
					<path class="st3" d="M30.6,58.8c0.8,1.4,2.4,2.2,3.9,2.3c1.6,0.1,3.2,0,4.7,0.1l9.5,0.1l9.5,0.2c3.2,0,6.3,0.1,9.5,0.2
						c-3.2,0-6.3,0-9.5,0l-9.5-0.1l-9.5-0.2c-1.6,0-3.2,0-4.7-0.1C32.9,61.1,31.4,60.2,30.6,58.8z"/>
				</g>
				<g id="XMLID_7274_">
					<path class="st4" d="M27.7,53.6c0.1,2.4,0.7,4.9,2.2,6.8c0.7,1,1.7,1.8,2.8,2.2c1.1,0.5,2.3,0.5,3.6,0.5
						c4.9,0,9.8,0.1,14.6,0.2l14.6,0.4c2.4,0,4.8-1,6.4-2.9c1.6-1.9,2.1-4.4,2.1-6.8c0,2.4-0.4,5-2,6.9c-1.5,2-4,3-6.5,3l-14.6-0.3
						c-4.9-0.1-9.8-0.2-14.6-0.3c-1.2,0-2.5,0-3.6-0.5c-1.2-0.4-2.2-1.3-2.9-2.3C28.3,58.5,27.8,56,27.7,53.6z"/>
				</g>
			</g>
			<g id="XMLID_7273_">
				<path class="st3" d="M40.5,49.9c0.3-0.8,0.9-1.5,1.5-2c0.7-0.5,1.5-0.8,2.4-0.9c1.7-0.1,3.4,0,5.2,0.1l5.2,0.2
					c0.9,0,1.7,0.4,2.3,1c0.6,0.6,1.1,1.4,1.2,2.2c-0.2-0.8-0.7-1.6-1.3-2.2c-0.6-0.6-1.4-1-2.3-0.9l-5.2-0.2
					c-1.7-0.1-3.4-0.2-5.1-0.1C42.7,47.1,41.1,48.3,40.5,49.9z"/>
			</g>
			<g id="XMLID_7272_">
				<path class="st4" d="M13.2,38.4c5.6,0.8,11.3,1,16.9,1.2L47,39.9l16.9,0.2c2.8-0.2,5.8,0.9,7.6,3.2c1.8,2.2,2.3,5.2,2.3,8h-0.1
					c0-2.8-0.6-5.7-2.4-7.9c-1.8-2.2-4.7-3.3-7.5-3L47,40.5l-16.9,0.3C24.5,41,18.9,41.2,13.2,42V38.4z"/>
			</g>
			<g id="XMLID_7271_">
				<path class="st3" d="M14.1,28.5c2.7,1.3,5.4,2.4,8.2,3.4c2.8,1,5.6,1.9,8.5,2.6c2.9,0.7,5.8,1.2,8.7,1.5
					c2.9,0.2,5.9,0.3,8.9,0.4c5.9,0.3,11.8,0.5,17.8,0.6c3,0.4,5.8,1.7,8,3.7c1.1,1,2,2.2,2.6,3.6c0.6,1.4,0.9,2.9,0.8,4.3
					c0-1.5-0.3-3-0.9-4.3c-0.6-1.3-1.5-2.5-2.6-3.5c-2.2-2-5-3.2-7.9-3.5c-5.9-0.1-11.9-0.2-17.8-0.5c-3-0.2-5.9-0.2-8.9-0.5
					c-3-0.3-5.9-0.9-8.8-1.6C25,33.3,19.4,31.2,14.1,28.5z"/>
			</g>
			<g id="XMLID_7270_">
				<path class="st3" d="M30.1,46.6c0.8-1.2,2.2-1.7,3.6-2c1.4-0.3,2.8-0.2,4.2-0.2l8.4,0.1l8.4,0.2l2.1,0.1c0.7,0,1.4,0.1,2.1,0.2
					c0.7,0.2,1.4,0.5,1.9,1c0.5,0.5,0.9,1.1,1.1,1.8c-0.3-0.7-0.6-1.3-1.1-1.7c-0.5-0.5-1.2-0.7-1.9-0.9c-0.7-0.2-1.4-0.2-2.1-0.2
					l-2.1,0l-8.4-0.1L38,44.5c-1.4,0-2.8-0.1-4.2,0.1C32.4,44.9,31,45.4,30.1,46.6z"/>
			</g>
			<g id="XMLID_7269_">
				<path class="st4" d="M29.7,51c0.1-1,0.4-2.1,1.1-2.9c0.6-0.9,1.6-1.5,2.6-1.8c2-0.6,4.2-0.7,6.3-0.4c-1-0.1-2.1-0.1-3.1,0
					c-1,0.1-2.1,0.3-3.1,0.6c-1,0.3-1.9,0.9-2.5,1.7C30.2,48.9,29.8,49.9,29.7,51z"/>
			</g>
			<path id="XMLID_7268_" class="st1" d="M59,53.4l-1.3,0.3c0,0.5,0.1,0.9,0.1,1.4c0,1,0,2-0.2,3c0,0.1,0,0.2-0.1,0.3
				c-0.1,0.5-0.3,1.1-0.5,1.5c0,0,0,0,0,0c-0.1,0.2-0.2,0.4-0.4,0.6c-0.1,0.2-0.3,0.4-0.5,0.5c-0.3,0.3-0.8,0.5-1.3,0.6
				c-0.5,0.1-1.1,0.2-1.6,0.3c-1.1,0.1-2.3,0.2-3.4,0.2c-0.6,0-1.1,0-1.7,0c-0.6,0-1.1,0-1.7-0.1l0,0c0,0,0,0,0,0l-0.1,0
				c0,0,0,0,0,0l0,0l0,0c0,0-0.1,0-0.1,0c-0.1,0-0.1-0.1-0.2-0.1c-0.1-0.1-0.3-0.1-0.4-0.2c-0.2-0.2-0.4-0.4-0.5-0.7
				c-0.1-0.1-0.1-0.3-0.1-0.4c0,0,0,0,0,0l-1.2,0c0,0.1,0,0.2,0,0.3c0,0.2,0.1,0.4,0.2,0.7c0.2,0.4,0.5,0.8,0.8,1.1
				c0.2,0.1,0.4,0.3,0.6,0.4c0.1,0.1,0.2,0.1,0.3,0.1c0.1,0,0.1,0,0.2,0.1l0.1,0l0,0l0.1,0l0,0l0,0c0.6,0,1.2,0.1,1.8,0.1
				c0.6,0,1.2,0,1.8,0c1.2,0,2.4,0,3.6-0.2c0.6-0.1,1.2-0.2,1.8-0.3c0.3-0.1,0.6-0.2,0.9-0.3c0,0,0.1,0,0.1-0.1l0.1-0.1
				c0.1,0,0.2-0.1,0.2-0.1c0.1-0.1,0.3-0.2,0.4-0.3c0.5-0.4,0.8-0.9,1.1-1.5c0-0.1,0.1-0.1,0.1-0.2c0.1-0.2,0.2-0.4,0.3-0.7
				c0.1-0.4,0.2-0.7,0.3-1.1c0.1-0.3,0.1-0.7,0.2-1c0.1-0.9,0.2-1.7,0.2-2.6C59.1,54.5,59.1,54,59,53.4z"/>
			<g id="XMLID_7267_">
				<path class="st4" d="M46,55.6c2.2-0.1,4.4-0.1,6.6,0C50.3,55.7,48.2,55.7,46,55.6z"/>
			</g>
			<g id="XMLID_7266_">
				<path class="st4" d="M44.3,47.8c2.6,0,5.3,0,7.9,0l2,0c0.7,0,1.4,0.1,1.9,0.5c1.2,0.8,1.5,2.2,1.7,3.5c-0.1-0.7-0.2-1.3-0.5-1.9
					c-0.3-0.6-0.7-1.2-1.2-1.5c-0.6-0.4-1.2-0.5-1.9-0.4l-2,0C49.6,47.9,47,47.9,44.3,47.8z"/>
			</g>
			<g id="XMLID_7263_">
				<path class="st4" d="M45.1,62.3c0.3,0.4,0.9,0.6,1.4,0.7c0.5,0.1,1,0.1,1.6,0.1c1.1,0,2.1,0,3.2-0.1c1.1-0.1,2.1-0.2,3.1-0.4
					c1-0.2,2.1-0.5,2.9-1.2c-0.8,0.8-1.8,1.1-2.9,1.3c-1,0.2-2.1,0.3-3.2,0.4c-1.1,0.1-2.1,0.1-3.2,0C47,63.3,45.7,63.2,45.1,62.3z"
					/>
			</g>
			<g id="XMLID_7262_">
				<path class="st3" d="M44.8,61.4c0.3,0.5,0.9,0.7,1.5,0.8c0.6,0.1,1.2,0.2,1.7,0.2c1.2,0.1,2.4,0,3.5-0.1
					c1.2-0.1,2.4-0.1,3.5-0.5c1.1-0.3,2.2-1.1,2.5-2.3c-0.1,0.6-0.4,1.1-0.9,1.5c-0.4,0.4-1,0.7-1.6,0.9c-1.1,0.4-2.3,0.5-3.5,0.6
					c-1.2,0-2.4,0.1-3.6,0c-0.6,0-1.2-0.1-1.8-0.3C45.7,62.1,45.1,61.9,44.8,61.4z"/>
			</g>
		</g>
		<g id="XMLID_7414_">
			<g id="XMLID_7419_">
				<polygon id="XMLID_7261_" class="st1" points="38.8,53.1 44.8,53.1 44.7,55 38.8,55 				"/>
			</g>
			<line id="XMLID_7259_" class="st5" x1="38.8" y1="53.7" x2="44.2" y2="53.7"/>
			<g id="XMLID_7258_">
				<polygon class="st4" points="38.8,54.5 44.3,54.6 38.8,54.6 				"/>
			</g>
		</g>
		<g id="XMLID_7412_">
			<path id="XMLID_7255_" class="st1" d="M34.9,29.4l3.4-1.2c0,0,1.5,3.2-0.6,3.9C35.5,32.9,34.9,29.4,34.9,29.4z"/>
		</g>
		<g id="XMLID_7382_">
			<g id="XMLID_7410_">
				<path id="XMLID_7250_" class="st1" d="M38.8,55.6c0.3,0,0.6,0,1,0l0.5,0c0.2,0,0.3,0,0.5,0c0.3,0,0.6,0,1,0c0.2,0,0.3,0,0.5,0
					l0.5,0l0.1,0l0,0c0,0,0,0,0.1,0l0,0c0,0,0.1,0,0.1,0c0.1,0,0.1,0,0.2,0.1c0.1,0.1,0.2,0.1,0.3,0.2c0.2,0.1,0.4,0.3,0.6,0.6
					c0.1,0.1,0.2,0.2,0.2,0.4c0.1,0.1,0.1,0.3,0.2,0.4l0.1,0.2l0.1,0.2c0.1,0.3,0.2,0.6,0.3,0.8c0.1,0.2,0.3,0.4,0.5,0.5
					c0.1,0.1,0.2,0.1,0.3,0.1l0.1,0l0.1,0c0.1,0,0.2,0,0.3,0l0.2,0l0.3,0l0.5,0l2.1,0c2.8,0,5.6,0.1,8.4,0.1
					c5.6,0,11.2,0.1,16.8,0.1l0,0c0,0,0,0,0,0l0,0l0,0c0,0,0.1,0,0.1,0c0.1,0,0.1,0,0.2-0.1c0.1,0,0.2-0.1,0.2-0.2
					c0-0.1,0.1-0.1,0.1-0.2c0,0,0-0.1,0-0.1l0-0.1l0,0l0,0l0,0c0,0,0-0.1,0-0.1c0-0.1,0-0.1,0-0.2c0-0.1,0-0.1-0.1-0.1
					c0-0.1-0.1-0.1-0.2-0.2c-0.1,0-0.2-0.1-0.3-0.1c-0.1,0-0.1,0-0.2,0c0,0-0.1,0-0.1,0l0,0l0,0c0,0,0,0,0,0l-0.1,0l-20.5,0l-5.1,0
					l-1.3,0l-0.3,0l-0.2,0l0,0l0,0l0,0c0,0-0.1,0-0.1,0c-0.3,0-0.6-0.1-0.9-0.3c-0.3-0.1-0.5-0.3-0.7-0.6c-0.2-0.2-0.3-0.5-0.4-0.8
					c-0.1-0.3-0.1-0.5-0.2-0.8c0-0.2,0-0.5,0-0.7c0-0.9,0-1.7,0.1-2.6c0-0.9,0.1-1.7,0.1-2.6c0.1-1.7,0.2-3.4,0.3-5.1l0-0.1l0,0
					c0-0.1,0-0.1,0-0.1l0-0.1c0-0.1,0-0.1,0.1-0.2c0.1-0.1,0.1-0.3,0.2-0.4c0.1-0.3,0.3-0.6,0.5-0.8c0.2-0.3,0.5-0.5,0.8-0.7
					c0.2-0.1,0.3-0.2,0.5-0.2c0.1,0,0.2-0.1,0.3-0.1c0,0,0.1,0,0.1,0l0.1,0l0,0l0,0l0.1,0l0.1,0l0.1,0c0.1,0,0.2,0,0.2,0
					c0.1,0,0.3,0,0.4,0c0.3,0,0.5,0,0.8,0c0.5,0,1.1,0,1.6,0c1.1,0,2.1,0,3.2,0.1c1.1,0,2.1,0.1,3.2,0.1l-0.1,0l0.1,0l0.1,0l0.1,0
					c0.1,0,0.1,0,0.2,0c0.1,0,0.2,0,0.4,0c0.2,0,0.5,0.1,0.7,0.2c0.2,0.1,0.5,0.3,0.7,0.5c0.2,0.2,0.4,0.5,0.5,0.7
					c0.1,0.3,0.2,0.5,0.2,0.8c0,0.1,0,0.1,0,0.2l0,0.1l0,0l0,0l0,0l0,0l0,0.1l0,0l0,0.1l0,0.1l0,0.1l0,0.1c0,0.1,0,0.1,0,0.2
					c0,0.1-0.1,0.3-0.1,0.4c-0.1,0.3-0.3,0.5-0.5,0.7c-0.2,0.2-0.4,0.4-0.7,0.5c-0.2,0.1-0.5,0.2-0.7,0.2C57.5,47,57.3,47,57.1,47
					c-0.1,0-0.1,0-0.2,0l-0.1,0l-0.3,0l-2.3,0l-9.3-0.1l-1.2,0l-0.1,0l-0.1,0l-0.1,0l-0.1,0c-0.1,0-0.2,0-0.3,0
					c-0.2,0-0.4-0.1-0.6-0.1c-0.4-0.1-0.8-0.3-1.3-0.5c-0.4-0.2-0.8-0.5-1.1-0.9c-0.2-0.2-0.3-0.4-0.4-0.6c-0.1-0.1-0.1-0.2-0.2-0.3
					l0-0.1l0,0l0,0l-0.1-0.1c-0.1-0.2-0.1-0.4-0.2-0.6c-0.1-0.2-0.1-0.4-0.2-0.6c-0.2-0.8-0.3-1.6-0.5-2.3c-0.1-0.8-0.2-1.5-0.4-2.3
					c-0.1-0.8-0.2-1.5-0.3-2.3c0-0.2-0.1-0.4-0.1-0.5l0-0.1l0-0.1l-0.1-0.3l-0.1-0.3l-0.1-0.3c0-0.2-0.1-0.4-0.1-0.5
					c-0.2-0.7-0.4-1.5-0.6-2.2l1.4-0.5c0.3,0.8,0.5,1.5,0.7,2.3c0.1,0.2,0.1,0.4,0.1,0.6l0.1,0.3l0.1,0.3l0.1,0.3l0,0.1l0,0.2
					c0,0.2,0.1,0.4,0.1,0.6c0.1,0.8,0.2,1.5,0.3,2.3c0.1,0.8,0.2,1.5,0.3,2.3c0.1,0.8,0.3,1.5,0.4,2.2c0,0.2,0.1,0.4,0.1,0.5
					c0,0.2,0.1,0.3,0.2,0.5l0.1,0.1l0,0l0,0c0,0,0,0,0,0l0,0l0,0c0,0.1,0.1,0.1,0.1,0.2c0.1,0.1,0.1,0.2,0.2,0.3
					c0.4,0.4,1,0.7,1.6,0.9c0.3,0.1,0.7,0.1,1,0.1l1.2,0l9.3,0.1l2.3,0l0.3,0l0.1,0c0,0,0.1,0,0.1,0c0.1,0,0.3,0,0.4-0.1
					c0.3-0.1,0.5-0.2,0.7-0.3c0.1-0.1,0.1-0.2,0.2-0.3c0,0,0-0.1,0.1-0.2c0,0,0-0.1,0-0.1l0,0l0,0l0,0c0,0,0,0,0,0l0,0l0-0.1
					c0,0,0,0,0,0l0,0l0,0l0,0l0-0.1c0,0,0-0.1,0-0.1c0-0.1,0-0.3-0.1-0.4c-0.1-0.2-0.2-0.3-0.4-0.4c-0.1,0-0.2-0.1-0.4-0.1
					c-0.1,0-0.1,0-0.2,0c0,0-0.1,0-0.1,0l-0.1,0l-0.1,0l0,0c-1.1,0-2.1-0.1-3.2-0.1c-1.1,0-2.1-0.1-3.2-0.1c-0.5,0-1.1,0-1.6,0
					c-0.3,0-0.5,0-0.8,0c-0.1,0-0.3,0-0.4,0c-0.1,0-0.1,0-0.2,0l0,0l0,0l-0.1,0l0,0l0,0c0,0,0,0,0,0l0,0l0,0l0,0c0,0,0,0-0.1,0
					c0,0-0.1,0-0.1,0c-0.1,0-0.2,0.1-0.2,0.1c-0.1,0.1-0.3,0.2-0.4,0.4c-0.1,0.2-0.2,0.3-0.3,0.5c0,0.1-0.1,0.2-0.1,0.3
					c0,0.1,0,0.1-0.1,0.2l0,0.1l0,0.1l0-0.1c-0.1,1.7-0.2,3.4-0.4,5.1c-0.1,0.9-0.1,1.7-0.1,2.6c0,0.8-0.1,1.7-0.1,2.5
					c0,0.1,0,0.2,0,0.3c0,0,0,0.1,0,0.1l0,0.1c0,0.2,0,0.3,0.1,0.5c0.1,0.3,0.2,0.5,0.5,0.6c0.1,0.1,0.2,0.1,0.4,0.1l0,0l0,0l0,0
					c0,0,0,0,0,0l0,0l0.2,0l0.3,0l1.3,0l5.1,0l20.5,0l-0.1,0l0.1,0l0.1,0l0.1,0c0.1,0,0.1,0,0.2,0c0.1,0,0.3,0,0.4,0
					c0.3,0.1,0.5,0.2,0.8,0.3c0.1,0.1,0.2,0.2,0.3,0.3c0.1,0.1,0.2,0.2,0.2,0.4c0.1,0.1,0.1,0.3,0.1,0.4c0,0.1,0.1,0.3,0.1,0.4
					c0,0.1,0,0.1,0,0.2l0,0.1l0,0l0,0l0,0.2c0,0.1,0,0.1,0,0.2c0,0.3-0.1,0.6-0.3,0.8c-0.2,0.2-0.4,0.4-0.7,0.6
					c-0.1,0.1-0.2,0.1-0.4,0.1c-0.1,0-0.1,0-0.2,0c0,0-0.1,0-0.1,0l-0.1,0l-0.1,0l0,0l0,0c-5.6,0-11.2-0.1-16.8-0.1
					c-2.8,0-5.6,0-8.4-0.1l-2.1,0l-0.5,0l-0.3,0l-0.3,0c-0.1,0-0.2,0-0.3,0l0,0l0,0l0,0l-0.1,0c-0.1,0-0.1,0-0.2,0
					c-0.2-0.1-0.4-0.1-0.7-0.3c-0.2-0.1-0.4-0.3-0.6-0.5c-0.2-0.2-0.3-0.4-0.4-0.6c-0.2-0.4-0.3-0.8-0.4-1.1l-0.1-0.3l-0.1-0.3
					c0,0-0.1,0-0.1-0.1c-0.1,0-0.2,0-0.3,0c-0.1,0-0.1,0-0.2,0c0,0-0.1,0-0.1,0l0,0l0,0c0,0,0,0,0,0l0.1,0l-0.5,0
					c-0.2,0-0.3,0-0.5,0c-0.3,0-0.6,0-1,0c-0.2,0-0.3,0-0.5,0l-0.5,0c-0.3,0-0.6,0-1,0V55.6z"/>
			</g>
			<g id="XMLID_7249_">
				<path class="st3" d="M38,32c0.5,1.9,0.9,3.9,1.3,5.8c0.4,2,0.8,3.9,1.1,5.8c-0.5-1.9-0.9-3.9-1.3-5.8C38.7,35.9,38.3,34,38,32z"
					/>
			</g>
			<g id="XMLID_7242_">
				<path class="st4" d="M43.7,58.3c0.2,0.7,0.6,1.3,1.1,1.6c0.6,0.4,1.3,0.4,2,0.4l4.1,0l8.2,0l8.2,0.1c1.4,0,2.7,0.1,4.1,0
					c0.7,0,1.4-0.1,2-0.2c0.3,0,0.7-0.1,1-0.2c0.3-0.1,0.7-0.2,0.8-0.5c-0.1,0.3-0.5,0.4-0.8,0.5c-0.3,0.1-0.7,0.2-1,0.2
					c-0.7,0.1-1.4,0.2-2,0.2c-1.4,0.1-2.7,0-4.1,0l-8.2,0l-8.2-0.1l-4.1,0c-0.7,0-1.4-0.1-2-0.5C44.2,59.5,43.8,58.9,43.7,58.3z"/>
			</g>
			<g id="XMLID_7240_">
				<path class="st3" d="M38.8,56l2.3,0l1.2,0c0.4,0,0.8,0.1,1.2,0.3c0.4,0.2,0.7,0.5,0.8,0.8c0.2,0.4,0.2,0.8,0.3,1.1
					c0.1,0.4,0.2,0.7,0.5,1c0.3,0.3,0.6,0.4,1,0.4v0.1c-0.4,0-0.8-0.1-1.1-0.4c-0.3-0.3-0.4-0.7-0.5-1.1c-0.1-0.4-0.1-0.8-0.3-1.1
					c-0.2-0.3-0.5-0.6-0.8-0.8c-0.7-0.4-1.5-0.2-2.2-0.2l-2.3,0V56z"/>
			</g>
			<g id="XMLID_7235_">
				<polygon class="st4" points="38.8,57.2 43.4,57.3 38.8,57.4 				"/>
			</g>
			<g id="XMLID_7219_">
				<path class="st4" d="M39.3,42.1c0.1,1.1,0.5,2.1,1.2,2.9c0.3,0.4,0.8,0.7,1.3,0.9c0.5,0.2,1,0.3,1.6,0.4
					c2.1,0.3,4.3,0.3,6.4,0.3c2.1,0,4.3,0,6.4-0.1c0.5,0,1.1,0.1,1.6-0.1c0.5-0.2,0.9-0.6,1.1-1.1c0.2-0.5,0.2-1.1,0-1.5
					c-0.2-0.5-0.7-0.9-1.2-0.9c0.5,0,1.1,0.4,1.3,0.9c0.2,0.5,0.2,1.1,0,1.6c-0.2,0.5-0.6,0.9-1.1,1.1c-0.5,0.2-1.1,0.1-1.6,0.1
					c-2.1,0.1-4.3,0.1-6.4,0.1c-2.1,0-4.3-0.1-6.4-0.4c-0.5-0.1-1.1-0.2-1.6-0.4c-0.5-0.2-1-0.5-1.3-0.9
					C39.7,44.3,39.4,43.2,39.3,42.1z"/>
			</g>
			<g id="XMLID_7218_">
				<path class="st3" d="M59.1,42.9c-0.7-0.7-1.7-0.7-2.6-0.8l-2.8,0c-1.8,0-3.7-0.1-5.5-0.1l0,0c-1,0-2,0.4-2.6,1.3
					c0.6-0.9,1.6-1.4,2.6-1.4l0,0c1.8,0,3.7,0,5.5,0l2.8,0.1c0.5,0,0.9,0.1,1.4,0.2C58.3,42.3,58.8,42.5,59.1,42.9z"/>
			</g>
			<g id="XMLID_7215_">
				<path class="st3" d="M45.5,48c0,0.9,0,1.7-0.1,2.6c0,0.9,0,1.7-0.1,2.6c0,0.9-0.2,1.7,0,2.6c0.1,0.4,0.3,0.8,0.6,1.1
					c0.3,0.3,0.8,0.3,1.2,0.2c-0.4,0.1-0.9,0.1-1.3-0.1c-0.4-0.3-0.6-0.7-0.7-1.1c-0.2-0.9-0.1-1.8-0.1-2.6c0-0.9,0.1-1.7,0.1-2.6
					C45.4,49.7,45.4,48.9,45.5,48z"/>
			</g>
			<g id="XMLID_7214_">
				<path class="st4" d="M44.8,56.9c0.3,0.5,0.9,0.7,1.5,0.8c0.6,0.1,1.2,0.1,1.8,0.1l3.5,0l7.1-0.1l14.2-0.1l0,0
					c0.6,0,1.1,0,1.7,0.2c0.3,0.1,0.5,0.2,0.7,0.5c0.2,0.2,0.3,0.5,0.3,0.8c0-0.3-0.1-0.6-0.3-0.8c-0.2-0.2-0.4-0.3-0.7-0.4
					c-0.5-0.2-1.1-0.2-1.6-0.2l0,0l-14.2,0.2l-7.1,0l-3.5,0c-0.6,0-1.2,0-1.8-0.1C45.8,57.6,45.2,57.4,44.8,56.9z"/>
			</g>
			<g id="XMLID_7213_">
				<path class="st3" d="M62.3,57c2.5,0,4.9,0,7.4,0l3.7,0.1c0.6,0.1,1.2,0.2,1.8,0.5c0.5,0.3,0.9,0.9,0.9,1.5c0-0.6-0.4-1.2-1-1.5
					c-0.5-0.3-1.1-0.4-1.7-0.5l-3.7,0C67.3,57.1,64.8,57.1,62.3,57z"/>
			</g>
		</g>
		<g id="XMLID_7380_">
			<path id="XMLID_7212_" class="st1" d="M45,50.5l10.9,0.1l2.7,0l1.4,0l0.3,0l0.1,0l0.1,0c0,0,0.1,0,0.1,0c0.2,0,0.4,0,0.6-0.1
				c0.2,0,0.3-0.1,0.5-0.2c0.1-0.1,0.2-0.2,0.3-0.3c0.1-0.1,0.1-0.2,0.1-0.4c0,0,0-0.1,0-0.1l0,0l0,0c0,0,0,0,0,0l0,0l0,0l0-0.1
				c0-0.1,0-0.1,0-0.1c0,0,0-0.1,0-0.1c0-0.1-0.1-0.2-0.2-0.3c-0.1-0.1-0.2-0.2-0.4-0.2c-0.2-0.1-0.3-0.1-0.5-0.1
				c-0.1,0-0.2,0-0.3,0c0,0-0.1,0-0.1,0c0,0-0.1,0-0.1,0l0,0l0,0l-14.3,0.1l0.2,0l0,0l-0.1,0l-0.1,0.1c-0.1,0-0.1,0.1-0.2,0.1
				c-0.1,0.1-0.3,0.2-0.4,0.3c-0.1,0.1-0.2,0.2-0.3,0.3c-0.1,0.1-0.2,0.2-0.2,0.3l0,0l0,0c0,0,0,0,0,0l0,0l0,0l0,0l0,0
				c0,0,0,0.1,0,0.1c0,0.1,0,0.1,0,0.2c0,0.2-0.1,0.3-0.1,0.5c-0.1,0.2-0.1,0.4-0.3,0.7c-0.1,0.1-0.2,0.3-0.4,0.4
				c-0.1,0.1-0.3,0.2-0.5,0.3c-0.3,0.1-0.6,0.2-0.8,0.2l-0.2,0l-0.1,0l-0.3,0l-1.1,0c-0.4,0-0.7,0-1.1,0c-0.4,0-0.7,0-1.1,0v-2.1
				c0.4,0,0.7,0,1.1,0c0.4,0,0.7,0,1.1,0l1.1,0l0.3,0l0.1,0l0.1,0c0.1,0,0.2,0,0.2,0c0,0,0,0,0.1,0c0,0,0.1-0.1,0.2-0.3
				c0.1-0.1,0.1-0.3,0.3-0.5c0.1-0.1,0.1-0.2,0.2-0.3c0-0.1,0.1-0.1,0.1-0.1l0.1-0.2c0.3-0.4,0.7-0.7,1-0.9c0.2-0.1,0.4-0.2,0.6-0.3
				c0.1,0,0.2-0.1,0.3-0.1l0.1-0.1c0.1,0,0.1,0,0.2-0.1l0,0l0.1,0l0.1,0l14.3-0.1l-0.1,0c0.1,0,0.1,0,0.2,0c0.1,0,0.1,0,0.2,0
				c0.1,0,0.3,0,0.4,0c0.3,0,0.5,0.1,0.8,0.2c0.3,0.1,0.6,0.2,0.8,0.5c0.2,0.2,0.4,0.5,0.5,0.9c0,0.1,0,0.1,0,0.2c0,0.1,0,0.2,0,0.2
				l0,0.1l0,0l0,0l0,0.1c0,0.1,0,0.1,0,0.2c0,0.3-0.1,0.6-0.3,0.9c-0.2,0.3-0.4,0.5-0.7,0.6c-0.3,0.1-0.5,0.2-0.8,0.3
				c-0.3,0.1-0.5,0.1-0.8,0.1c-0.1,0-0.1,0-0.2,0l-0.1,0l-0.1,0l0,0l0,0l0,0c0,0,0.1,0,0,0l-0.3,0l-1.4,0l-2.7,0l-10.9-0.1L45,50.5z
				"/>
		</g>
		<g id="XMLID_7194_">
			<path class="st3" d="M59.3,51.1c0.6,0.1,1.2,0.1,1.9-0.1c0.3-0.1,0.6-0.2,0.8-0.4c0.2-0.2,0.2-0.6,0.3-0.9
				c0.1-0.6-0.2-1.3-0.7-1.6c-0.5-0.3-1.2-0.4-1.8-0.4l-7.5,0.1l-3.7,0c-0.6,0-1.3,0-1.9,0c-0.6,0-1.2,0.3-1.7,0.7
				c-0.5,0.4-0.9,0.9-1.2,1.4c-0.2,0.3-0.3,0.5-0.4,0.8c-0.2,0.3-0.5,0.4-0.8,0.5c-1.3,0.3-2.5,0.1-3.8,0.1l0-0.4
				c1.3,0.1,2.5,0.3,3.7,0.1c0.3-0.1,0.6-0.1,0.8-0.4c0.2-0.2,0.3-0.6,0.4-0.8c0.3-0.5,0.7-1,1.2-1.4c0.5-0.4,1.1-0.7,1.7-0.7
				c0.6,0,1.2,0,1.9,0l3.7,0l7.5,0c0.6,0,1.3,0.1,1.8,0.4c0.6,0.3,0.8,1,0.7,1.6c0,0.3-0.1,0.6-0.3,0.9c-0.2,0.2-0.5,0.3-0.8,0.4
				C60.6,51.2,59.9,51.2,59.3,51.1z"/>
		</g>
		<g id="XMLID_7192_">
			<path class="st4" d="M38.8,52.2l3.1,0c0.5,0,1,0.1,1.5-0.1c0.5-0.2,0.8-0.6,1-1.1c-0.2,0.5-0.5,0.9-1,1.2c-0.5,0.3-1,0.2-1.5,0.2
				l-3.1,0L38.8,52.2z"/>
		</g>
		<g id="XMLID_7190_">
			<path class="st4" d="M45,51.3c3.1,0,6.2,0.1,9.4,0.1l4.7,0.1c0.8,0,1.6,0.1,2.3-0.1c0.7-0.2,1.5-0.6,1.7-1.4
				c-0.1,0.8-0.9,1.3-1.6,1.5c-0.8,0.2-1.6,0.1-2.3,0.1l-4.7-0.1C51.2,51.5,48.1,51.4,45,51.3z"/>
		</g>
		<g id="XMLID_7187_">
			<path class="st3" d="M40.8,44.3c0.4,0.6,1,1.1,1.7,1.2c0.7,0.1,1.4,0.2,2.2,0.2c1.4,0.1,2.9,0.1,4.3,0.1l8.7,0.1
				C54.8,46,51.9,46,49,46c-1.4,0-2.9-0.1-4.3-0.2c-0.7,0-1.4-0.2-2.2-0.2C41.7,45.4,41.2,44.8,40.8,44.3z"/>
		</g>
	</g>
</g>
</svg>
