<?xml version="1.0" encoding="utf-8"?>
<!-- Generator: Adobe Illustrator 21.0.0, SVG Export Plug-In . SVG Version: 6.00 Build 0)  -->
<svg version="1.1" id="Layer_1" xmlns="http://www.w3.org/2000/svg" xmlns:xlink="http://www.w3.org/1999/xlink" x="0px" y="0px"
	 viewBox="0 0 117.2 117.2" style="enable-background:new 0 0 117.2 117.2;" xml:space="preserve">
<style type="text/css">
	.st0{fill:#BA7765;}
	.st1{fill:#B5B5B5;}
	.st2{fill:#E5B65A;}
	.st3{fill:#FFFFFF;}
	.st4{fill:#F3F3F3;}
</style>
<g id="XMLID_6918_">
	<path id="XMLID_6910_" class="st0" d="M66.1,36.8l0.5,1.8l-1,1.8c0,0,0.9,10.6,8.9,11.6l1.3-1l27.5-6.8l-8.6-23.6L76,9l-9.5,12
		L66.1,36.8z"/>
	<path id="XMLID_6924_" class="st1" d="M14.8,79.5l8.7,13.9l21,5.2l16.9-18.7L74,56c0,0-10.1,0.7-13.9-17L14.8,79.5z"/>
	<path id="XMLID_6920_" class="st2" d="M61.1,37.2l0.9,8.7c0,0,5.5,9.6,8.7,9.9c3.2,0.3,7.2,0.3,7.2,0.1s-0.7-4.8-0.7-4.8l-2.6,0.5
		l-2.1,0.9l-3.8-3l-3.5-6l0.1-3.1c0,0,1.2-1.3,1.2-1.3s0.1-1.8,0.1-1.8l-3.3-0.1L61.1,37.2z"/>
	<g id="XMLID_5446_">
		<path id="XMLID_7560_" class="st3" d="M93.9,11.7c0.6,0.5,1.2,0.9,1.8,1.4c0.2,0.2,0.5,0.4,0.7,0.6c0.5,0.5,1.1,0.9,1.6,1.4
			c0.3,0.3,0.6,0.6,0.9,0.9c0.5,0.5,0.9,0.9,1.4,1.4c0.3,0.3,0.6,0.6,0.9,0.9c0.5,0.6,1,1.1,1.6,1.7c0.1,0.3,0.3,0.5,0.5,0.6
			c0.5,0.6,1.1,1.3,1.6,1.9c0.1,0.3,0.2,0.5,0.5,0.6c0.4,0.6,0.9,1.2,1.3,1.8c0.1,0.3,0.2,0.5,0.5,0.7c0.4,0.7,0.9,1.4,1.3,2
			c0.2,0.3,0.4,0.6,0.6,0.9c0.4,0.7,0.8,1.4,1.2,2c0.1,0.2,0.2,0.5,0.4,0.7c0.4,0.7,0.7,1.5,1.1,2.2c0.1,0.2,0.3,0.5,0.4,0.7
			c0.2,0.8,0.6,1.5,1,2.3c0.1,0.4,0.2,0.8,0.5,1.1c1.4,4.1,2.6,8.2,3.2,12.5c0.2,1.3,0.1,2.6,0.6,3.8c0,3,0,6,0,8.9
			c-0.2,0.1-0.2,0.2-0.2,0.4c-0.3,4.6-1.3,9.1-2.6,13.4c-0.2,0.7-0.4,1.3-0.7,2c-0.8,1.9-1.6,3.8-2.4,5.7c-0.4,0.8-0.9,1.7-1.3,2.5
			c-0.3,0.5-0.7,1-1,1.5c-3.2,5.3-7.1,10-11.7,14.1c-3.1,2.7-6.4,5-9.9,7.1c-0.8,0.4-1.7,0.9-2.5,1.3c-1.9,0.8-3.8,1.7-5.7,2.5
			c-0.7,0.2-1.3,0.5-2,0.7c-3.4,1.1-6.8,1.9-10.3,2.4c-1.2,0.2-2.4,0.1-3.5,0.6c-3.1,0-6.1,0-9.2,0c-0.2-0.4-0.5-0.2-0.8-0.2
			c-1.4-0.2-2.9-0.3-4.3-0.6c-3.7-0.5-7.3-1.6-10.9-2.8c-0.3-0.2-0.7-0.4-1.1-0.4c-0.7-0.4-1.5-0.7-2.3-0.9
			c-0.2-0.1-0.5-0.3-0.7-0.4c-0.8-0.4-1.5-0.7-2.3-1.1c-0.2-0.1-0.5-0.2-0.7-0.4c-0.7-0.4-1.4-0.8-2-1.1c-0.3-0.2-0.6-0.4-1-0.6
			c-0.7-0.4-1.4-0.8-2-1.3c-0.2-0.2-0.4-0.4-0.7-0.5c-0.6-0.4-1.2-0.9-1.8-1.3c-0.3-0.3-0.6-0.5-0.9-0.7c-0.5-0.4-1.1-0.9-1.6-1.3
			c-0.1-0.2-0.3-0.4-0.6-0.5c-0.6-0.5-1.1-1-1.7-1.6c-0.3-0.3-0.6-0.6-0.9-0.9c-0.5-0.5-0.9-0.9-1.4-1.4c-0.3-0.3-0.6-0.6-0.9-0.9
			c-0.5-0.5-0.9-1.1-1.4-1.6c-0.2-0.2-0.4-0.5-0.6-0.7c-0.5-0.6-0.9-1.2-1.4-1.8c-0.1-0.2-0.3-0.3-0.4-0.5c-0.5-0.7-1-1.4-1.4-2
			c-0.2-0.3-0.4-0.6-0.7-1c-0.4-0.7-0.9-1.4-1.3-2.2c-0.1-0.3-0.2-0.6-0.5-0.8c-0.3-0.6-0.6-1.2-1-1.7c-0.2-0.4-0.4-0.8-0.6-1.3
			c-0.2-0.7-0.5-1.3-0.9-2c0-0.3-0.1-0.5-0.3-0.7c-0.3-0.8-0.6-1.5-0.9-2.3c-0.1-0.3-0.2-0.7-0.4-0.9c0-0.2,0-0.4-0.1-0.6
			C2.1,74.7,1.2,70.9,0.6,67c-0.2-1.1-0.1-2.2-0.6-3.3c0-3.2,0-6.4,0-9.6c0.2-0.1,0.2-0.2,0.2-0.3c0.4-5,1.5-9.8,3.1-14.5
			c0.2-0.7,0.5-1.4,0.7-2.1c1-2.1,2-4.3,3-6.4c0.5-0.9,1-1.8,1.6-2.7c2-3,4.2-6,6.6-8.7c3.6-4,7.8-7.4,12.3-10.4
			c0.9-0.5,1.8-1.1,2.7-1.6c2.1-1,4.3-2,6.4-3.1c0.7-0.3,1.4-0.5,2.1-0.8c0.3-0.1,0.5-0.2,0.8-0.2c9.5-3.2,19.1-4,29-2.4
			c3.4,0.6,6.7,1.6,10.1,2.5c0.3,0.2,0.6,0.3,0.9,0.4c0.8,0.3,1.5,0.6,2.3,0.9c0.2,0.2,0.4,0.3,0.7,0.3c0.6,0.4,1.3,0.7,2,0.9
			c0.4,0.2,0.8,0.4,1.3,0.6c0.6,0.3,1.2,0.6,1.8,0.9c0.2,0.3,0.5,0.4,0.8,0.5 M66.9,47.9c-0.1-0.1-0.2-0.2-0.2-0.3
			c-0.4-0.8-0.8-1.5-1.3-2.3c-0.1-0.3-0.3-0.6-0.4-0.9c-0.6-1.9-1.1-3.8,0.9-5.2c0.2-0.2,0.4-0.4,0-0.5c-2.8-1.1-4.2-0.1-4.1,2.9
			c0,1.6,0.5,3.1,1.3,4.4c0.1,0.3,0.2,0.5,0.4,0.7c0.3,0.9,0.8,1.6,1.4,2.3c0.1,0.4,0.4,0.7,0.7,1c0.3,0.6,0.7,1.1,1.2,1.5
			c1,1.2,2.1,2.2,3.4,2.9c0.6,0.5,1.3,0.9,2.1,1.1c2.6,0.8,4.3-0.5,4-3.3c0-0.3,0.1-0.7-0.3-0.8c-0.4-0.1-0.6,0.2-0.7,0.6
			c-0.5,1.2-1,1.4-2.2,1.1c-0.5-0.1-1-0.3-1.5-0.5c-1.1-0.7-2-1.6-2.9-2.5C67.9,49.3,67.4,48.6,66.9,47.9z M67.4,46
			c0.2,0.4,0.4,0.8,0.7,1.1c0.1,0.2,0.2,0.2,0.4,0.1c1.9-0.9,3.8-1.6,5.6-2.7c0.8-0.3,1.6-0.6,2.3-1.1c2.5-1.2,5-2.5,7.3-3.9
			c1-0.4,1.9-0.9,2.7-1.6c2.2-1.2,4.2-2.5,6.3-3.9c0.7-0.5,1.3-0.9,0.1-1.5c0.4-0.6,2.3-0.7,0.7-2c-0.2-0.3-0.3-0.2-0.4,0
			c-0.1,0.1-0.2,0.1-0.3,0.2c-0.5,0-0.8,0.8-1.3,0.3c-0.2-0.8-0.7-0.3-1-0.1c-2.1,1.3-4.2,2.7-6.3,4c-1,0.4-1.9,1-2.7,1.6
			c-2.5,1.4-5,2.8-7.5,4.2c-0.8,0.4-1.5,0.7-2.3,1.1c-1.1,0.5-2.2,0.9-3.2,1.4C66.2,44,66.2,44,67.4,46z M73.9,32.2
			c0.4-0.7,0.6-1.4,0.8-2.1c0.8-1.8,1.5-3.6,2-5.5c0.3-0.6,0.5-1.2,0.6-1.8c0.5-1.2,0.8-2.5,1.2-3.7c0.3-0.8,0-1-0.7-0.9
			c0-0.2,0-0.5,0-0.7c0-0.4,0.6-1-0.3-1.3c-0.9-0.2-1,0.3-1.1,0.9c-0.1,0.5-0.3,0.8-0.8,0.4c-0.6-0.4-0.7,0-0.9,0.5
			c-0.5,1.6-1.1,3.1-1.5,4.8c-0.6,1.8-1.3,3.5-1.9,5.3c-0.2,0.7-0.5,1.4-0.7,2c-0.8,1.9-1.6,3.8-2.4,5.7c-0.5,0.7-0.8,1.5-1.1,2.3
			c-0.5,0.8-1,1.7-1.2,2.7c2.4-2.1,4.6-4.4,6.8-6.7C73.3,33.6,73.7,33,73.9,32.2z M71.8,51.3c0.2,0.2,0.4,0.4,0.7,0.4
			c0.3,0.3,0.5,0,0.7,0c1.6-0.6,3.2-1.2,4.8-1.9c0.6-0.1,1.2-0.3,1.8-0.6c1.6-0.5,3.2-1,4.8-1.5c0.6-0.2,1.2-0.4,1.8-0.6
			c1.5-0.4,3-0.9,4.6-1.3c0.6-0.2,1.2-0.3,1.8-0.5c1.2-0.3,2.4-0.6,3.6-0.9c0.3-0.1,0.9-0.1,0.7-0.6c-0.3-0.9,0.3-0.8,0.8-0.9
			c0.4,0,0.8,0.1,1.1-0.2c0-1.3-0.6-1.7-1.8-1.3c-0.2,0.1-0.5,0.1-0.6-0.2c0.3-0.5,0.3-0.8-0.4-0.7c-0.3,0.1-0.7,0.2-1,0.3
			c-1.5,0.2-2.9,0.6-4.3,1c-0.6,0.2-1.2,0.3-1.8,0.5c-1.5,0.5-3.1,0.9-4.6,1.4c-0.6,0.2-1.2,0.4-1.8,0.6c-1.7,0.5-3.4,1-5,1.7
			c-0.6,0.1-1.2,0.3-1.8,0.6c-2.2,0.7-4.4,1.6-6.6,2.6C70.2,50,70.9,50.8,71.8,51.3z M34.5,94.9c2.1,0.6,3.9,0.2,4.6-1.1
			c1.7-3.2,3.8-6.2,5.8-9.3c1.1-1.5,2.3-3.1,3.4-4.6c2.1-2.4,4.1-4.9,6.3-7.3c3.9-4.3,8.2-8.1,12.6-11.8c1.7-1.3,3.4-2.5,5.2-3.8
			c-0.6-0.2-1.1-0.4-1.6-0.5c-0.7-0.4-1.4-0.9-2.1-1.3c-0.2-0.2-0.5-0.4-0.7-0.5c-0.5-0.5-1.1-0.9-1.6-1.4c-0.2-0.2-0.5-0.5-0.7-0.7
			c-0.5-0.5-0.9-1.1-1.4-1.6c-0.2-0.3-0.5-0.6-0.7-0.9c-0.4-0.6-0.8-1.2-1.2-1.8c-0.1-0.2-0.2-0.5-0.4-0.7c-0.4-0.8-0.7-1.7-1.1-2.5
			c-0.1-0.3-0.2-0.6-0.3-1c-0.2-0.9-0.4-1.8-0.6-2.7c0.1-0.3,0.2-0.6,0-0.9c-1.3,0.8-2.5,1.7-3.6,2.6c-4.3,3.1-8.3,6.7-12.1,10.4
			c-5,4.9-9.6,10.1-13.7,15.7c-1.1,1.3-2,2.7-2.9,4.1c-2.3,3.1-4.3,6.3-6.1,9.7c-0.3,0.4-0.2,0.9-0.1,1.4c0.1,0.9,0.5,1.8,1.1,2.5
			c0.1,0.4,0.4,0.7,0.7,1c0.4,0.6,0.8,1.1,1.4,1.6c0.2,0.3,0.4,0.5,0.7,0.7c0.5,0.6,1.1,1.1,1.8,1.4c0.3,0.3,0.6,0.5,1,0.7
			c0.6,0.5,1.3,0.9,2.1,1.2c0.2,0.1,0.3,0.2,0.5,0.3c0.9,0.5,1.9,0.9,3,1.1C33.9,94.9,34.2,94.9,34.5,94.9z M69.7,40.9
			c2.5-1,4.8-2.3,7.1-3.6c0.3-0.1,0.5-0.4,0.7-0.6c3.2-3.5,6.3-7,9.1-10.8c0.2-0.2,1.4-0.8,0-1.2c-0.2-0.1,0-0.3,0-0.5
			c0.2-0.4,0.4-0.7,0.7-1.1c0.3-0.3,0.6-0.6,0-0.8c-0.4-0.1-0.8-0.9-1.3-0.2c-0.4,0.5-0.7,1.1-1.1,1.6c-0.6-0.8-1.1-0.7-1.6,0
			c-0.2,0.2-0.4,0.5-0.6,0.7c-4.8,6-9.7,11.8-15.4,17c-0.1,0.1-0.3,0.2-0.2,0.5C68.1,41.8,68.9,41.4,69.7,40.9z"/>
		<path id="XMLID_6919_" class="st4" d="M93.9,11.7"/>
		<path id="XMLID_7454_" class="st4" d="M93.5,30.5c-0.1,0-0.3,0-0.4,0C93.2,30.3,93.3,30.2,93.5,30.5z"/>
		<path id="XMLID_7453_" class="st4" d="M65.9,39.2c0-0.2,0-0.3,0-0.5C66.3,38.8,66.1,39,65.9,39.2z"/>
	</g>
</g>
</svg>
